<?xml version="1.0" encoding="utf-8"?>
<!-- Generator: Adobe Illustrator 16.0.0, SVG Export Plug-In . SVG Version: 6.00 Build 0)  -->
<!DOCTYPE svg PUBLIC "-//W3C//DTD SVG 1.1//EN" "http://www.w3.org/Graphics/SVG/1.1/DTD/svg11.dtd">
<svg version="1.1" id="Layer_1" xmlns="http://www.w3.org/2000/svg" xmlns:xlink="http://www.w3.org/1999/xlink" x="0px" y="0px"
	 width="792px" height="291.334px" viewBox="0 0 792 291.334" enable-background="new 0 0 792 291.334" xml:space="preserve">
<rect x="16.436" y="63.973" fill="#E0E1E1" width="54.618" height="156.41"/>
<rect x="54.599" y="78.274" fill="#F1F1F2" width="609.085" height="152.41"/>
<polyline fill="#F1F1F2" points="792,146.755 663.232,278.1 663.232,30.858 "/>
<polyline fill="#D1D1D1" points="71.972,77.375 53.932,77.472 71.565,63.916 "/>
<polyline opacity="0.85" fill="#602D83" points="261.271,78.294 261.244,68.093 268.355,78.294 "/>
<polyline opacity="0.85" fill="#822C81" points="456.07,78.295 456.043,68.093 463.154,78.295 "/>
<polyline opacity="0.85" fill="#4D2874" points="651.434,78.295 651.406,68.093 658.518,78.295 "/>
<rect x="74.695" y="68.093" opacity="0.6" fill="#602D83" width="186.677" height="162.635"/>
<g>
	<path fill="#FFFFFF" d="M81.816,142.829v13.987H79.99v-13.987H81.816z"/>
	<path fill="#FFFFFF" d="M84.909,149.49c0-1.058-0.021-1.888-0.083-2.718h1.619l0.104,1.66h0.042c0.498-0.934,1.66-1.868,3.32-1.868
		c1.39,0,3.548,0.83,3.548,4.275v5.977h-1.826v-5.79c0-1.619-0.602-2.968-2.324-2.968c-1.183,0-2.116,0.851-2.448,1.868
		c-0.083,0.228-0.125,0.54-0.125,0.851v6.039h-1.826V149.49z"/>
	<path fill="#FFFFFF" d="M96.18,154.968c0.561,0.332,1.515,0.706,2.428,0.706c1.307,0,1.93-0.644,1.93-1.494
		c0-0.872-0.519-1.328-1.847-1.826c-1.826-0.664-2.677-1.64-2.677-2.843c0-1.619,1.328-2.947,3.466-2.947
		c1.017,0,1.909,0.27,2.449,0.623l-0.436,1.328c-0.394-0.249-1.12-0.602-2.054-0.602c-1.079,0-1.66,0.623-1.66,1.37
		c0,0.83,0.581,1.203,1.888,1.722c1.723,0.643,2.636,1.515,2.636,3.009c0,1.784-1.391,3.029-3.735,3.029
		c-1.1,0-2.117-0.29-2.822-0.705L96.18,154.968z"/>
	<path fill="#FFFFFF" d="M111.808,156.462c-0.477,0.229-1.536,0.581-2.884,0.581c-3.03,0-5.001-2.054-5.001-5.125
		c0-3.092,2.117-5.354,5.396-5.354c1.079,0,2.034,0.27,2.532,0.54l-0.415,1.39c-0.436-0.228-1.121-0.477-2.117-0.477
		c-2.303,0-3.548,1.722-3.548,3.797c0,2.324,1.494,3.756,3.486,3.756c1.037,0,1.722-0.249,2.241-0.477L111.808,156.462z"/>
	<path fill="#FFFFFF" d="M113.947,149.905c0-1.183-0.021-2.199-0.083-3.133h1.598l0.083,1.992h0.062
		c0.457-1.349,1.577-2.2,2.802-2.2c0.187,0,0.332,0.021,0.498,0.042v1.722c-0.187-0.041-0.374-0.041-0.623-0.041
		c-1.287,0-2.2,0.954-2.449,2.324c-0.042,0.249-0.063,0.56-0.063,0.851v5.354h-1.826V149.905z"/>
	<path fill="#FFFFFF" d="M122.769,143.949c0,0.623-0.436,1.121-1.162,1.121c-0.664,0-1.1-0.498-1.1-1.121s0.457-1.141,1.141-1.141
		C122.312,142.808,122.769,143.306,122.769,143.949z M120.734,156.815v-10.044h1.826v10.044H120.734z"/>
	<path fill="#FFFFFF" d="M125.592,142.082h1.805v6.309h0.042c0.644-1.121,1.806-1.826,3.424-1.826c2.511,0,4.254,2.075,4.254,5.105
		c0,3.59-2.283,5.375-4.524,5.375c-1.453,0-2.615-0.56-3.383-1.867h-0.041l-0.104,1.639h-1.556c0.041-0.685,0.083-1.702,0.083-2.594
		V142.082z M127.397,152.79c0,0.229,0.021,0.457,0.083,0.664c0.332,1.266,1.411,2.138,2.739,2.138c1.93,0,3.05-1.557,3.05-3.86
		c0-2.013-1.037-3.735-3.009-3.735c-1.225,0-2.387,0.872-2.76,2.241c-0.063,0.229-0.104,0.478-0.104,0.768V152.79z"/>
	<path fill="#FFFFFF" d="M144.458,154.408c0,0.872,0.041,1.722,0.145,2.407h-1.639l-0.146-1.266h-0.063
		c-0.56,0.789-1.639,1.494-3.071,1.494c-2.033,0-3.071-1.432-3.071-2.884c0-2.428,2.158-3.756,6.039-3.735v-0.208
		c0-0.81-0.229-2.324-2.283-2.304c-0.955,0-1.93,0.27-2.635,0.747l-0.415-1.224c0.83-0.519,2.054-0.872,3.32-0.872
		c3.071,0,3.818,2.096,3.818,4.088V154.408z M142.694,151.69c-1.992-0.042-4.254,0.311-4.254,2.262c0,1.204,0.789,1.743,1.702,1.743
		c1.328,0,2.179-0.83,2.469-1.681c0.062-0.208,0.083-0.415,0.083-0.581V151.69z"/>
	<path fill="#FFFFFF" d="M151.558,154.968c0.561,0.332,1.515,0.706,2.428,0.706c1.307,0,1.93-0.644,1.93-1.494
		c0-0.872-0.519-1.328-1.847-1.826c-1.826-0.664-2.677-1.64-2.677-2.843c0-1.619,1.328-2.947,3.466-2.947
		c1.017,0,1.909,0.27,2.449,0.623l-0.436,1.328c-0.394-0.249-1.12-0.602-2.054-0.602c-1.079,0-1.66,0.623-1.66,1.37
		c0,0.83,0.581,1.203,1.888,1.722c1.723,0.643,2.636,1.515,2.636,3.009c0,1.784-1.391,3.029-3.735,3.029
		c-1.1,0-2.117-0.29-2.822-0.705L151.558,154.968z"/>
	<path fill="#FFFFFF" d="M168.431,154.055c0,1.059,0.021,1.972,0.083,2.76h-1.619l-0.104-1.639h-0.041
		c-0.457,0.809-1.536,1.867-3.32,1.867c-1.577,0-3.466-0.892-3.466-4.399v-5.873h1.826v5.541c0,1.909,0.602,3.217,2.241,3.217
		c1.225,0,2.075-0.851,2.407-1.681c0.104-0.249,0.166-0.581,0.166-0.934v-6.143h1.826V154.055z"/>
	<path fill="#FFFFFF" d="M177.896,143.949c0,0.623-0.436,1.121-1.162,1.121c-0.664,0-1.1-0.498-1.1-1.121s0.457-1.141,1.142-1.141
		C177.44,142.808,177.896,143.306,177.896,143.949z M175.863,156.815v-10.044h1.826v10.044H175.863z"/>
	<path fill="#FFFFFF" d="M189.374,142.082v12.14c0,0.893,0.042,1.909,0.083,2.594h-1.619l-0.083-1.743h-0.063
		c-0.539,1.121-1.743,1.971-3.382,1.971c-2.428,0-4.316-2.054-4.316-5.104c-0.021-3.341,2.075-5.375,4.503-5.375
		c1.556,0,2.573,0.727,3.029,1.515h0.042v-5.997H189.374z M187.568,150.86c0-0.229-0.021-0.54-0.083-0.768
		c-0.27-1.141-1.266-2.096-2.636-2.096c-1.889,0-3.009,1.66-3.009,3.86c0,2.033,1.017,3.714,2.967,3.714
		c1.224,0,2.345-0.83,2.677-2.179c0.062-0.249,0.083-0.498,0.083-0.788V150.86z"/>
	<path fill="#FFFFFF" d="M193.443,152.125c0.042,2.47,1.598,3.486,3.445,3.486c1.307,0,2.117-0.229,2.781-0.519l0.332,1.307
		c-0.644,0.291-1.764,0.643-3.362,0.643c-3.092,0-4.939-2.054-4.939-5.084s1.785-5.396,4.711-5.396c3.299,0,4.15,2.864,4.15,4.711
		c0,0.373-0.021,0.643-0.063,0.851H193.443z M198.797,150.818c0.021-1.141-0.477-2.946-2.532-2.946
		c-1.868,0-2.656,1.681-2.802,2.946H198.797z"/>
	<path fill="#FFFFFF" d="M209.881,154.408c0,0.872,0.042,1.722,0.146,2.407h-1.64l-0.145-1.266h-0.062
		c-0.561,0.789-1.64,1.494-3.071,1.494c-2.034,0-3.071-1.432-3.071-2.884c0-2.428,2.158-3.756,6.039-3.735v-0.208
		c0-0.81-0.228-2.324-2.283-2.304c-0.955,0-1.93,0.27-2.636,0.747l-0.415-1.224c0.83-0.519,2.055-0.872,3.32-0.872
		c3.071,0,3.818,2.096,3.818,4.088V154.408z M208.117,151.69c-1.992-0.042-4.254,0.311-4.254,2.262c0,1.204,0.788,1.743,1.701,1.743
		c1.328,0,2.179-0.83,2.47-1.681c0.063-0.208,0.083-0.415,0.083-0.581V151.69z"/>
	<path fill="#FFFFFF" d="M218.247,152.125c0.042,2.47,1.598,3.486,3.445,3.486c1.307,0,2.117-0.229,2.781-0.519l0.332,1.307
		c-0.644,0.291-1.764,0.643-3.362,0.643c-3.092,0-4.939-2.054-4.939-5.084s1.785-5.396,4.711-5.396c3.299,0,4.15,2.864,4.15,4.711
		c0,0.373-0.021,0.643-0.063,0.851H218.247z M223.601,150.818c0.021-1.141-0.477-2.946-2.532-2.946
		c-1.868,0-2.656,1.681-2.802,2.946H223.601z"/>
	<path fill="#FFFFFF" d="M227.629,149.49c0-1.058-0.021-1.888-0.083-2.718h1.619l0.104,1.66h0.042
		c0.498-0.934,1.66-1.868,3.32-1.868c1.39,0,3.548,0.83,3.548,4.275v5.977h-1.826v-5.79c0-1.619-0.602-2.968-2.324-2.968
		c-1.183,0-2.116,0.851-2.448,1.868c-0.083,0.228-0.125,0.54-0.125,0.851v6.039h-1.826V149.49z"/>
	<path fill="#FFFFFF" d="M244.566,152.125c0.042,2.47,1.598,3.486,3.445,3.486c1.308,0,2.117-0.229,2.781-0.519l0.332,1.307
		c-0.643,0.291-1.764,0.643-3.362,0.643c-3.092,0-4.939-2.054-4.939-5.084s1.785-5.396,4.71-5.396c3.3,0,4.15,2.864,4.15,4.711
		c0,0.373-0.021,0.643-0.062,0.851H244.566z M249.92,150.818c0.021-1.141-0.478-2.946-2.532-2.946c-1.868,0-2.656,1.681-2.801,2.946
		H249.92z"/>
	<path fill="#FFFFFF" d="M253.948,142.082h1.826v14.734h-1.826V142.082z"/>
	<path fill="#FFFFFF" d="M80.711,174.193v-7.444h-1.284v-2.211h1.284v-0.375c0-1.165,0.355-2.448,1.204-3.238
		c0.77-0.711,1.797-0.967,2.686-0.967c0.651,0,1.165,0.099,1.58,0.197l-0.119,2.31c-0.257-0.079-0.573-0.138-0.967-0.138
		c-0.987,0-1.402,0.77-1.402,1.718v0.494h1.935v2.211h-1.915v7.444H80.711z"/>
	<path fill="#FFFFFF" d="M96.625,169.257c0,3.534-2.508,5.153-5.094,5.153c-2.823,0-4.996-1.856-4.996-4.976
		c0-3.14,2.054-5.134,5.173-5.134C94.65,164.301,96.625,166.334,96.625,169.257z M89.635,169.355c0,1.659,0.691,2.902,1.975,2.902
		c1.185,0,1.915-1.165,1.915-2.922c0-1.421-0.553-2.883-1.915-2.883C90.188,166.453,89.635,167.934,89.635,169.355z"/>
	<path fill="#FFFFFF" d="M98.481,167.716c0-1.421-0.02-2.35-0.079-3.179h2.567l0.118,1.777h0.079
		c0.494-1.421,1.659-2.014,2.606-2.014c0.276,0,0.415,0.02,0.632,0.059v2.824c-0.237-0.04-0.474-0.079-0.81-0.079
		c-1.105,0-1.856,0.592-2.054,1.521c-0.039,0.197-0.059,0.434-0.059,0.671v4.896h-3.001V167.716z"/>
	<path fill="#FFFFFF" d="M105.983,167.618c0-1.204-0.04-2.211-0.079-3.08h2.547l0.119,1.303h0.059
		c0.415-0.632,1.284-1.54,2.922-1.54c1.264,0,2.231,0.651,2.646,1.659h0.04c0.375-0.514,0.79-0.909,1.264-1.185
		c0.533-0.296,1.125-0.474,1.836-0.474c1.856,0,3.258,1.303,3.258,4.206v5.687h-2.922v-5.252c0-1.402-0.454-2.211-1.422-2.211
		c-0.711,0-1.185,0.474-1.402,1.046c-0.059,0.217-0.099,0.513-0.099,0.77v5.647h-2.922v-5.43c0-1.205-0.434-2.034-1.402-2.034
		c-0.77,0-1.224,0.592-1.402,1.066c-0.099,0.237-0.119,0.514-0.119,0.77v5.627h-2.922V167.618z"/>
	<path fill="#FFFFFF" d="M131,171.863c0,0.908,0.04,1.797,0.158,2.33h-2.705l-0.178-0.967h-0.059
		c-0.632,0.77-1.619,1.185-2.764,1.185c-1.955,0-3.12-1.422-3.12-2.962c0-2.507,2.251-3.692,5.667-3.692v-0.118
		c0-0.533-0.276-1.264-1.757-1.264c-0.987,0-2.034,0.335-2.666,0.73l-0.553-1.935c0.671-0.375,1.994-0.869,3.751-0.869
		c3.218,0,4.226,1.896,4.226,4.186V171.863z M128.097,169.632c-1.58,0-2.804,0.375-2.804,1.521c0,0.77,0.514,1.145,1.185,1.145
		c0.73,0,1.362-0.494,1.56-1.105c0.04-0.158,0.059-0.336,0.059-0.514V169.632z"/>
	<path fill="#FFFFFF" d="M136.746,161.931v2.606h2.152v2.211h-2.152v3.495c0,1.165,0.296,1.698,1.185,1.698
		c0.415,0,0.612-0.02,0.889-0.079l0.02,2.271c-0.375,0.138-1.105,0.256-1.935,0.256c-0.968,0-1.777-0.335-2.271-0.829
		c-0.553-0.573-0.829-1.5-0.829-2.863v-3.949h-1.284v-2.211h1.284v-1.797L136.746,161.931z"/>
	<path fill="#FFFFFF" d="M150.172,169.257c0,3.534-2.508,5.153-5.094,5.153c-2.823,0-4.996-1.856-4.996-4.976
		c0-3.14,2.054-5.134,5.173-5.134C148.197,164.301,150.172,166.334,150.172,169.257z M143.182,169.355
		c0,1.659,0.691,2.902,1.975,2.902c1.185,0,1.915-1.165,1.915-2.922c0-1.421-0.553-2.883-1.915-2.883
		C143.735,166.453,143.182,167.934,143.182,169.355z"/>
	<path fill="#FFFFFF" d="M158.326,170.323c0.079,1.244,1.323,1.836,2.725,1.836c1.027,0,1.856-0.138,2.666-0.415l0.395,2.034
		c-0.987,0.415-2.191,0.612-3.495,0.612c-3.278,0-5.154-1.896-5.154-4.917c0-2.448,1.521-5.153,4.877-5.153
		c3.12,0,4.305,2.429,4.305,4.818c0,0.513-0.059,0.967-0.099,1.185H158.326z M161.86,168.27c0-0.73-0.316-1.955-1.698-1.955
		c-1.264,0-1.777,1.165-1.856,1.955H161.86z"/>
	<path fill="#FFFFFF" d="M166.421,171.586c0.553,0.336,1.698,0.711,2.587,0.711c0.908,0,1.283-0.296,1.283-0.79
		c0-0.513-0.296-0.75-1.402-1.125c-2.014-0.671-2.784-1.757-2.764-2.903c0-1.816,1.54-3.179,3.929-3.179
		c1.125,0,2.113,0.276,2.705,0.573l-0.514,2.073c-0.434-0.237-1.283-0.553-2.093-0.553c-0.73,0-1.145,0.296-1.145,0.77
		c0,0.474,0.375,0.711,1.56,1.125c1.836,0.632,2.586,1.58,2.606,2.981c0,1.817-1.402,3.14-4.166,3.14
		c-1.264,0-2.389-0.296-3.12-0.691L166.421,171.586z"/>
	<path fill="#FFFFFF" d="M178.367,161.931v2.606h2.152v2.211h-2.152v3.495c0,1.165,0.296,1.698,1.185,1.698
		c0.415,0,0.612-0.02,0.889-0.079l0.02,2.271c-0.375,0.138-1.105,0.256-1.935,0.256c-0.968,0-1.777-0.335-2.271-0.829
		c-0.553-0.573-0.829-1.5-0.829-2.863v-3.949h-1.284v-2.211h1.284v-1.797L178.367,161.931z"/>
	<path fill="#FFFFFF" d="M190.292,171.863c0,0.908,0.04,1.797,0.158,2.33h-2.705l-0.178-0.967h-0.059
		c-0.632,0.77-1.619,1.185-2.764,1.185c-1.955,0-3.12-1.422-3.12-2.962c0-2.507,2.251-3.692,5.667-3.692v-0.118
		c0-0.533-0.276-1.264-1.757-1.264c-0.987,0-2.034,0.335-2.666,0.73l-0.553-1.935c0.671-0.375,1.994-0.869,3.751-0.869
		c3.218,0,4.226,1.896,4.226,4.186V171.863z M187.39,169.632c-1.58,0-2.804,0.375-2.804,1.521c0,0.77,0.514,1.145,1.185,1.145
		c0.73,0,1.362-0.494,1.56-1.105c0.04-0.158,0.059-0.336,0.059-0.514V169.632z"/>
	<path fill="#FFFFFF" d="M192.682,160.174h3.001v5.509h0.04c0.573-0.829,1.58-1.362,2.922-1.362c2.31,0,3.988,1.916,3.969,4.877
		c0,3.475-2.192,5.213-4.403,5.213c-1.125,0-2.231-0.415-2.902-1.56h-0.04l-0.119,1.343h-2.547c0.04-0.632,0.079-1.797,0.079-2.883
		V160.174z M195.683,170.086c0,0.197,0.02,0.375,0.06,0.533c0.197,0.79,0.888,1.421,1.757,1.421c1.284,0,2.073-0.987,2.073-2.725
		c0-1.5-0.671-2.686-2.073-2.686c-0.81,0-1.56,0.612-1.757,1.481c-0.04,0.178-0.06,0.355-0.06,0.553V170.086z"/>
	<path fill="#FFFFFF" d="M204.489,160.174h3.001v14.019h-3.001V160.174z"/>
	<path fill="#FFFFFF" d="M212.229,170.323c0.079,1.244,1.323,1.836,2.725,1.836c1.027,0,1.856-0.138,2.666-0.415l0.395,2.034
		c-0.987,0.415-2.191,0.612-3.495,0.612c-3.278,0-5.154-1.896-5.154-4.917c0-2.448,1.521-5.153,4.877-5.153
		c3.12,0,4.305,2.429,4.305,4.818c0,0.513-0.059,0.967-0.099,1.185H212.229z M215.763,168.27c0-0.73-0.316-1.955-1.698-1.955
		c-1.264,0-1.777,1.165-1.856,1.955H215.763z"/>
	<path fill="#FFFFFF" d="M227.59,173.936c-0.533,0.257-1.54,0.454-2.685,0.454c-3.12,0-5.114-1.915-5.114-4.936
		c0-2.824,1.935-5.134,5.529-5.134c0.79,0,1.659,0.138,2.291,0.375l-0.474,2.231c-0.355-0.158-0.889-0.296-1.678-0.296
		c-1.58,0-2.606,1.125-2.586,2.705c0,1.757,1.185,2.705,2.646,2.705c0.711,0,1.264-0.118,1.718-0.316L227.59,173.936z"/>
	<path fill="#FFFFFF" d="M232.348,161.853c0,0.829-0.612,1.5-1.619,1.5c-0.948,0-1.56-0.671-1.56-1.5
		c0-0.849,0.632-1.501,1.599-1.501C231.736,160.352,232.329,161.003,232.348,161.853z M229.249,174.193v-9.655h3.001v9.655H229.249z
		"/>
	<path fill="#FFFFFF" d="M244.017,160.174v11.136c0,1.086,0.04,2.231,0.079,2.883h-2.666l-0.119-1.402h-0.059
		c-0.592,1.066-1.777,1.619-3.021,1.619c-2.291,0-4.127-1.955-4.127-4.956c-0.02-3.258,2.014-5.153,4.324-5.153
		c1.205,0,2.113,0.434,2.547,1.086h0.04v-5.213H244.017z M241.016,168.625c0-0.158,0-0.375-0.04-0.553
		c-0.178-0.79-0.83-1.461-1.757-1.461c-1.382,0-2.073,1.224-2.073,2.745c0,1.639,0.81,2.666,2.053,2.666
		c0.869,0,1.58-0.592,1.757-1.441c0.04-0.217,0.06-0.454,0.06-0.691V168.625z"/>
	<path fill="#FFFFFF" d="M255.963,169.257c0,3.534-2.508,5.153-5.094,5.153c-2.823,0-4.996-1.856-4.996-4.976
		c0-3.14,2.054-5.134,5.173-5.134C253.988,164.301,255.963,166.334,255.963,169.257z M248.973,169.355
		c0,1.659,0.691,2.902,1.975,2.902c1.185,0,1.915-1.165,1.915-2.922c0-1.421-0.553-2.883-1.915-2.883
		C249.526,166.453,248.973,167.934,248.973,169.355z"/>
</g>
<rect x="269.362" y="68.093" opacity="0.6" fill="#822C81" width="186.677" height="162.635"/>
<g>
	<path fill="#FFFFFF" d="M313.936,132.955c-0.09-1.692-0.198-3.745-0.198-5.24h-0.036c-0.432,1.405-0.918,2.935-1.53,4.609
		l-2.143,5.888h-1.188l-1.98-5.78c-0.576-1.729-1.044-3.277-1.387-4.718h-0.036c-0.036,1.513-0.126,3.529-0.234,5.366l-0.324,5.204
		h-1.494l0.846-12.136h1.999l2.071,5.87c0.504,1.495,0.9,2.827,1.224,4.087h0.036c0.324-1.224,0.756-2.557,1.296-4.087l2.161-5.87
		h1.999l0.756,12.136h-1.549L313.936,132.955z"/>
	<path fill="#FFFFFF" d="M324.249,136.196c0,0.756,0.036,1.494,0.126,2.088h-1.422l-0.126-1.098h-0.054
		c-0.486,0.684-1.422,1.296-2.665,1.296c-1.765,0-2.665-1.243-2.665-2.503c0-2.106,1.873-3.259,5.239-3.241v-0.18
		c0-0.702-0.198-2.017-1.98-1.999c-0.828,0-1.674,0.234-2.287,0.648l-0.36-1.062c0.72-0.45,1.783-0.756,2.881-0.756
		c2.665,0,3.313,1.818,3.313,3.547V136.196z M322.718,133.837c-1.729-0.036-3.691,0.27-3.691,1.962c0,1.044,0.684,1.513,1.476,1.513
		c1.152,0,1.891-0.72,2.143-1.458c0.054-0.18,0.072-0.36,0.072-0.504V133.837z"/>
	<path fill="#FFFFFF" d="M334.311,125.5v10.533c0,0.774,0.036,1.656,0.072,2.25h-1.404l-0.072-1.512h-0.054
		c-0.468,0.972-1.513,1.71-2.935,1.71c-2.106,0-3.745-1.783-3.745-4.43c-0.018-2.899,1.801-4.663,3.907-4.663
		c1.351,0,2.233,0.63,2.629,1.314h0.036V125.5H334.311z M332.745,133.117c0-0.198-0.018-0.468-0.072-0.666
		c-0.234-0.991-1.098-1.819-2.287-1.819c-1.639,0-2.611,1.44-2.611,3.349c0,1.765,0.882,3.223,2.575,3.223
		c1.063,0,2.035-0.72,2.323-1.89c0.054-0.216,0.072-0.432,0.072-0.685V133.117z"/>
	<path fill="#FFFFFF" d="M344.247,135.89c0,0.918,0.018,1.71,0.072,2.395h-1.404l-0.09-1.422h-0.036
		c-0.396,0.702-1.332,1.621-2.881,1.621c-1.368,0-3.007-0.774-3.007-3.817v-5.095h1.584v4.807c0,1.657,0.522,2.791,1.945,2.791
		c1.062,0,1.8-0.738,2.088-1.458c0.09-0.216,0.144-0.504,0.144-0.811v-5.329h1.584V135.89z M343.148,125.807l-2.197,2.575h-1.116
		l1.584-2.575H343.148z"/>
	<path fill="#FFFFFF" d="M346.873,132.289c0-1.026-0.018-1.909-0.072-2.719h1.387l0.072,1.729h0.054
		c0.396-1.17,1.368-1.909,2.431-1.909c0.162,0,0.288,0.018,0.432,0.036v1.495c-0.162-0.036-0.324-0.036-0.54-0.036
		c-1.117,0-1.909,0.829-2.125,2.017c-0.036,0.216-0.054,0.486-0.054,0.738v4.646h-1.584V132.289z"/>
	<path fill="#FFFFFF" d="M361.435,125.5h1.584v12.784h-1.584V125.5z"/>
	<path fill="#FFFFFF" d="M371.804,136.196c0,0.756,0.036,1.494,0.126,2.088h-1.422l-0.126-1.098h-0.054
		c-0.486,0.684-1.422,1.296-2.665,1.296c-1.765,0-2.665-1.243-2.665-2.503c0-2.106,1.873-3.259,5.239-3.241v-0.18
		c0-0.702-0.198-2.017-1.98-1.999c-0.828,0-1.674,0.234-2.287,0.648l-0.36-1.062c0.72-0.45,1.783-0.756,2.881-0.756
		c2.665,0,3.313,1.818,3.313,3.547V136.196z M370.274,133.837c-1.729-0.036-3.691,0.27-3.691,1.962c0,1.044,0.684,1.513,1.476,1.513
		c1.152,0,1.891-0.72,2.143-1.458c0.054-0.18,0.072-0.36,0.072-0.504V133.837z"/>
	<path fill="#FFFFFF" d="M379.057,134.215c0.036,2.143,1.386,3.025,2.989,3.025c1.134,0,1.836-0.198,2.413-0.45l0.288,1.135
		c-0.558,0.252-1.53,0.558-2.917,0.558c-2.683,0-4.286-1.783-4.286-4.412s1.548-4.681,4.087-4.681c2.863,0,3.601,2.485,3.601,4.087
		c0,0.324-0.018,0.558-0.054,0.738H379.057z M383.702,133.081c0.018-0.99-0.414-2.557-2.196-2.557c-1.621,0-2.305,1.458-2.431,2.557
		H383.702z"/>
	<path fill="#FFFFFF" d="M387.192,131.928c0-0.918-0.018-1.639-0.072-2.358h1.405l0.09,1.44h0.036
		c0.432-0.811,1.44-1.621,2.881-1.621c1.206,0,3.079,0.72,3.079,3.709v5.186h-1.584v-5.023c0-1.404-0.522-2.575-2.017-2.575
		c-1.026,0-1.836,0.738-2.125,1.62c-0.072,0.198-0.108,0.468-0.108,0.738v5.24h-1.584V131.928z"/>
	<path fill="#FFFFFF" d="M400.998,125.5h1.584v12.784h-1.584V125.5z"/>
	<path fill="#FFFFFF" d="M413.131,133.855c0,3.223-2.25,4.627-4.338,4.627c-2.342,0-4.178-1.729-4.178-4.483
		c0-2.899,1.926-4.609,4.32-4.609C411.439,129.39,413.131,131.208,413.131,133.855z M406.236,133.945
		c0,1.909,1.08,3.349,2.629,3.349c1.512,0,2.646-1.422,2.646-3.385c0-1.476-0.738-3.331-2.611-3.331
		C407.045,130.578,406.236,132.306,406.236,133.945z"/>
	<path fill="#FFFFFF" d="M414.91,136.682c0.486,0.288,1.314,0.612,2.107,0.612c1.135,0,1.674-0.558,1.674-1.296
		c0-0.756-0.449-1.152-1.602-1.584c-1.584-0.576-2.322-1.422-2.322-2.467c0-1.404,1.152-2.557,3.006-2.557
		c0.883,0,1.656,0.234,2.125,0.54l-0.379,1.152c-0.342-0.216-0.971-0.522-1.781-0.522c-0.938,0-1.441,0.54-1.441,1.188
		c0,0.72,0.504,1.044,1.639,1.495c1.494,0.558,2.287,1.314,2.287,2.611c0,1.548-1.207,2.629-3.24,2.629
		c-0.955,0-1.838-0.252-2.449-0.612L414.91,136.682z"/>
	<path fill="#FFFFFF" d="M295.682,144.858v2.088h2.269v1.207h-2.269v4.7c0,1.08,0.306,1.692,1.188,1.692
		c0.432,0,0.685-0.036,0.918-0.108l0.072,1.207c-0.306,0.108-0.792,0.216-1.405,0.216c-0.738,0-1.333-0.252-1.71-0.667
		c-0.432-0.486-0.612-1.26-0.612-2.287v-4.753h-1.35v-1.207h1.35v-1.62L295.682,144.858z"/>
	<path fill="#FFFFFF" d="M305.853,153.573c0,0.756,0.036,1.495,0.126,2.089h-1.422l-0.126-1.098h-0.054
		c-0.486,0.684-1.422,1.296-2.665,1.296c-1.765,0-2.665-1.243-2.665-2.503c0-2.106,1.873-3.259,5.239-3.241v-0.18
		c0-0.702-0.198-2.017-1.98-1.999c-0.828,0-1.674,0.234-2.287,0.648l-0.36-1.063c0.72-0.45,1.783-0.756,2.881-0.756
		c2.665,0,3.313,1.818,3.313,3.547V153.573z M304.323,151.214c-1.729-0.036-3.691,0.27-3.691,1.962c0,1.044,0.684,1.513,1.476,1.513
		c1.152,0,1.891-0.72,2.143-1.458c0.054-0.18,0.072-0.36,0.072-0.504V151.214z"/>
	<path fill="#FFFFFF" d="M308.407,142.878h1.584v12.784h-1.584V142.878z"/>
	<path fill="#FFFFFF" d="M312.655,142.878h1.584v12.784h-1.584V142.878z"/>
	<path fill="#FFFFFF" d="M317.785,151.592c0.036,2.143,1.386,3.025,2.989,3.025c1.134,0,1.836-0.198,2.413-0.45l0.288,1.134
		c-0.558,0.252-1.53,0.559-2.917,0.559c-2.683,0-4.286-1.783-4.286-4.412c0-2.628,1.548-4.681,4.087-4.681
		c2.863,0,3.601,2.484,3.601,4.087c0,0.324-0.018,0.559-0.054,0.738H317.785z M322.43,150.458c0.018-0.99-0.414-2.557-2.196-2.557
		c-1.621,0-2.305,1.458-2.431,2.557H322.43z"/>
	<path fill="#FFFFFF" d="M325.921,149.666c0-1.026-0.018-1.909-0.072-2.719h1.387l0.072,1.729h0.054
		c0.396-1.17,1.368-1.908,2.431-1.908c0.162,0,0.288,0.018,0.432,0.036v1.494c-0.162-0.036-0.324-0.036-0.54-0.036
		c-1.116,0-1.909,0.829-2.125,2.017c-0.036,0.216-0.054,0.486-0.054,0.738v4.646h-1.584V149.666z"/>
	<path fill="#FFFFFF" d="M332.689,151.592c0.036,2.143,1.386,3.025,2.989,3.025c1.134,0,1.836-0.198,2.413-0.45l0.288,1.134
		c-0.558,0.252-1.53,0.559-2.917,0.559c-2.683,0-4.285-1.783-4.285-4.412c0-2.628,1.549-4.681,4.087-4.681
		c2.863,0,3.601,2.484,3.601,4.087c0,0.324-0.018,0.559-0.054,0.738H332.689z M337.334,150.458c0.018-0.99-0.415-2.557-2.197-2.557
		c-1.621,0-2.305,1.458-2.431,2.557H337.334z"/>
	<path fill="#FFFFFF" d="M340.608,154.059c0.486,0.288,1.314,0.612,2.107,0.612c1.134,0,1.674-0.558,1.674-1.296
		c0-0.756-0.45-1.152-1.603-1.584c-1.584-0.576-2.323-1.422-2.323-2.467c0-1.404,1.152-2.557,3.007-2.557
		c0.882,0,1.657,0.234,2.125,0.54l-0.378,1.152c-0.342-0.216-0.972-0.522-1.782-0.522c-0.937,0-1.44,0.54-1.44,1.188
		c0,0.72,0.504,1.044,1.638,1.495c1.495,0.558,2.287,1.314,2.287,2.611c0,1.548-1.207,2.629-3.241,2.629
		c-0.954,0-1.836-0.252-2.449-0.612L340.608,154.059z"/>
	<path fill="#FFFFFF" d="M346.62,156.364l5.005-13.054h1.243l-5.042,13.054H346.62z"/>
	<path fill="#FFFFFF" d="M354.756,146.947l1.17,4.43c0.234,0.972,0.468,1.873,0.63,2.772h0.054c0.198-0.882,0.486-1.818,0.774-2.754
		l1.422-4.448h1.333l1.351,4.357c0.324,1.044,0.576,1.963,0.774,2.845h0.054c0.144-0.882,0.378-1.8,0.666-2.827l1.243-4.375h1.566
		l-2.809,8.715h-1.44l-1.332-4.159c-0.306-0.972-0.559-1.836-0.774-2.863h-0.036c-0.216,1.044-0.486,1.944-0.792,2.881l-1.404,4.141
		h-1.44l-2.629-8.715H354.756z"/>
	<path fill="#FFFFFF" d="M375.26,151.232c0,3.223-2.25,4.627-4.339,4.627c-2.34,0-4.177-1.729-4.177-4.483
		c0-2.899,1.927-4.609,4.321-4.609C373.568,146.767,375.26,148.585,375.26,151.232z M368.364,151.322
		c0,1.909,1.081,3.349,2.629,3.349c1.512,0,2.646-1.422,2.646-3.385c0-1.476-0.738-3.331-2.611-3.331
		C369.174,147.956,368.364,149.684,368.364,151.322z"/>
	<path fill="#FFFFFF" d="M377.256,149.666c0-1.026-0.018-1.909-0.072-2.719h1.387l0.072,1.729h0.054
		c0.396-1.17,1.368-1.908,2.431-1.908c0.162,0,0.288,0.018,0.432,0.036v1.494c-0.162-0.036-0.324-0.036-0.54-0.036
		c-1.116,0-1.909,0.829-2.125,2.017c-0.036,0.216-0.054,0.486-0.054,0.738v4.646h-1.584V149.666z"/>
	<path fill="#FFFFFF" d="M384.708,150.944h0.036c0.216-0.306,0.504-0.684,0.756-0.99l2.575-3.007h1.891l-3.349,3.583l3.835,5.131
		h-1.944l-2.989-4.177l-0.81,0.9v3.277h-1.566v-12.784h1.566V150.944z"/>
	<path fill="#FFFFFF" d="M391.368,154.059c0.486,0.288,1.314,0.612,2.107,0.612c1.134,0,1.674-0.558,1.674-1.296
		c0-0.756-0.45-1.152-1.603-1.584c-1.584-0.576-2.323-1.422-2.323-2.467c0-1.404,1.152-2.557,3.007-2.557
		c0.882,0,1.656,0.234,2.125,0.54l-0.378,1.152c-0.342-0.216-0.972-0.522-1.782-0.522c-0.937,0-1.44,0.54-1.44,1.188
		c0,0.72,0.504,1.044,1.638,1.495c1.495,0.558,2.287,1.314,2.287,2.611c0,1.548-1.206,2.629-3.241,2.629
		c-0.954,0-1.836-0.252-2.449-0.612L391.368,154.059z"/>
	<path fill="#FFFFFF" d="M398.711,142.878h1.585v5.456h0.035c0.252-0.45,0.648-0.864,1.135-1.134
		c0.469-0.27,1.025-0.432,1.621-0.432c1.17,0,3.041,0.72,3.041,3.709v5.186h-1.584v-5.005c0-1.405-0.521-2.575-2.016-2.575
		c-1.027,0-1.818,0.72-2.125,1.566c-0.09,0.234-0.107,0.468-0.107,0.756v5.258h-1.585V142.878z"/>
	<path fill="#FFFFFF" d="M416.588,151.232c0,3.223-2.25,4.627-4.34,4.627c-2.34,0-4.178-1.729-4.178-4.483
		c0-2.899,1.928-4.609,4.322-4.609C414.895,146.767,416.588,148.585,416.588,151.232z M409.691,151.322
		c0,1.909,1.08,3.349,2.629,3.349c1.512,0,2.646-1.422,2.646-3.385c0-1.476-0.738-3.331-2.609-3.331
		C410.502,147.956,409.691,149.684,409.691,151.322z"/>
	<path fill="#FFFFFF" d="M418.584,149.792c0-1.117-0.037-2.017-0.072-2.845h1.404l0.09,1.495h0.035
		c0.631-1.062,1.676-1.674,3.098-1.674c2.125,0,3.709,1.782,3.709,4.411c0,3.133-1.926,4.682-3.979,4.682
		c-1.152,0-2.162-0.504-2.684-1.369h-0.035v4.735h-1.566V149.792z M420.15,152.115c0,0.234,0.018,0.45,0.072,0.648
		c0.287,1.098,1.242,1.854,2.375,1.854c1.676,0,2.648-1.368,2.648-3.367c0-1.729-0.92-3.223-2.594-3.223
		c-1.08,0-2.107,0.756-2.395,1.945c-0.055,0.198-0.107,0.432-0.107,0.63V152.115z"/>
	<path fill="#FFFFFF" d="M428.609,154.059c0.486,0.288,1.314,0.612,2.105,0.612c1.135,0,1.676-0.558,1.676-1.296
		c0-0.756-0.451-1.152-1.604-1.584c-1.584-0.576-2.322-1.422-2.322-2.467c0-1.404,1.152-2.557,3.008-2.557
		c0.881,0,1.656,0.234,2.123,0.54l-0.377,1.152c-0.342-0.216-0.973-0.522-1.783-0.522c-0.936,0-1.439,0.54-1.439,1.188
		c0,0.72,0.504,1.044,1.637,1.495c1.496,0.558,2.287,1.314,2.287,2.611c0,1.548-1.205,2.629-3.24,2.629
		c-0.955,0-1.836-0.252-2.449-0.612L428.609,154.059z"/>
	<path fill="#FFFFFF" d="M289.132,171.815h-0.04c-0.612,0.928-1.58,1.441-2.883,1.441c-2.093,0-3.989-1.856-3.989-4.917
		c0-3.475,2.192-5.193,4.265-5.193c1.244,0,2.152,0.454,2.705,1.362l0.04,0.02l0.079-1.145h2.883
		c-0.02,0.948-0.059,1.896-0.059,2.902v10.663h-3.001V171.815z M289.132,167.432c0-0.178-0.02-0.336-0.06-0.494
		c-0.158-0.77-0.81-1.441-1.737-1.441c-1.362,0-2.073,1.165-2.073,2.725c0,1.6,0.79,2.666,2.053,2.666
		c0.849,0,1.54-0.572,1.738-1.362c0.059-0.197,0.079-0.454,0.079-0.651V167.432z"/>
	<path fill="#FFFFFF" d="M303.624,169.939c0,1.264,0.04,2.291,0.079,3.1h-2.606l-0.138-1.362h-0.059
		c-0.375,0.592-1.283,1.58-3.021,1.58c-1.975,0-3.396-1.224-3.396-4.206v-5.667h3.001v5.193c0,1.402,0.454,2.251,1.521,2.251
		c0.829,0,1.323-0.573,1.5-1.046c0.079-0.178,0.119-0.395,0.119-0.652v-5.746h3.001V169.939z"/>
	<path fill="#FFFFFF" d="M308.343,169.169c0.079,1.244,1.323,1.836,2.725,1.836c1.027,0,1.856-0.138,2.666-0.415l0.395,2.034
		c-0.987,0.415-2.192,0.612-3.495,0.612c-3.278,0-5.154-1.896-5.154-4.917c0-2.448,1.521-5.153,4.877-5.153
		c3.12,0,4.304,2.429,4.304,4.818c0,0.513-0.059,0.967-0.099,1.185H308.343z M311.877,167.116c0-0.73-0.316-1.955-1.698-1.955
		c-1.264,0-1.777,1.165-1.856,1.955H311.877z"/>
	<path fill="#FFFFFF" d="M320.426,170.433c0.553,0.336,1.698,0.711,2.587,0.711c0.908,0,1.283-0.296,1.283-0.79
		c0-0.513-0.296-0.75-1.402-1.125c-2.014-0.671-2.784-1.757-2.764-2.903c0-1.816,1.54-3.179,3.929-3.179
		c1.125,0,2.113,0.276,2.705,0.573l-0.514,2.073c-0.434-0.237-1.283-0.553-2.093-0.553c-0.73,0-1.145,0.296-1.145,0.77
		c0,0.474,0.375,0.711,1.56,1.125c1.836,0.632,2.586,1.58,2.606,2.981c0,1.817-1.402,3.14-4.166,3.14
		c-1.264,0-2.389-0.296-3.12-0.691L320.426,170.433z"/>
	<path fill="#FFFFFF" d="M331.326,169.169c0.079,1.244,1.323,1.836,2.725,1.836c1.027,0,1.856-0.138,2.666-0.415l0.395,2.034
		c-0.987,0.415-2.191,0.612-3.495,0.612c-3.278,0-5.154-1.896-5.154-4.917c0-2.448,1.521-5.153,4.877-5.153
		c3.12,0,4.305,2.429,4.305,4.818c0,0.513-0.059,0.967-0.099,1.185H331.326z M334.86,167.116c0-0.73-0.316-1.955-1.698-1.955
		c-1.264,0-1.777,1.165-1.856,1.955H334.86z"/>
	<path fill="#FFFFFF" d="M351.465,170.709c0,0.908,0.04,1.797,0.158,2.33h-2.705l-0.178-0.967h-0.059
		c-0.632,0.77-1.619,1.185-2.764,1.185c-1.955,0-3.12-1.422-3.12-2.962c0-2.507,2.251-3.692,5.667-3.692v-0.118
		c0-0.533-0.276-1.264-1.757-1.264c-0.987,0-2.034,0.335-2.666,0.73l-0.553-1.935c0.671-0.375,1.994-0.869,3.751-0.869
		c3.218,0,4.226,1.896,4.226,4.186V170.709z M348.563,168.479c-1.58,0-2.804,0.375-2.804,1.521c0,0.77,0.514,1.145,1.185,1.145
		c0.73,0,1.362-0.494,1.56-1.105c0.04-0.158,0.059-0.336,0.059-0.514V168.479z"/>
	<path fill="#FFFFFF" d="M353.854,166.464c0-1.204-0.04-2.211-0.079-3.08h2.606l0.138,1.343h0.059
		c0.395-0.632,1.362-1.56,2.981-1.56c1.975,0,3.456,1.323,3.456,4.167v5.706h-3.001v-5.351c0-1.244-0.434-2.093-1.52-2.093
		c-0.83,0-1.323,0.573-1.541,1.125c-0.079,0.197-0.099,0.474-0.099,0.75v5.568h-3.001V166.464z"/>
	<path fill="#FFFFFF" d="M374.527,169.939c0,1.264,0.04,2.291,0.079,3.1H372l-0.138-1.362h-0.059
		c-0.375,0.592-1.283,1.58-3.021,1.58c-1.975,0-3.396-1.224-3.396-4.206v-5.667h3.001v5.193c0,1.402,0.454,2.251,1.521,2.251
		c0.829,0,1.323-0.573,1.5-1.046c0.079-0.178,0.119-0.395,0.119-0.652v-5.746h3.001V169.939z"/>
	<path fill="#FFFFFF" d="M376.936,166.464c0-1.204-0.04-2.211-0.079-3.08h2.606l0.138,1.343h0.059
		c0.395-0.632,1.362-1.56,2.981-1.56c1.975,0,3.456,1.323,3.456,4.167v5.706h-3.001v-5.351c0-1.244-0.434-2.093-1.52-2.093
		c-0.83,0-1.323,0.573-1.541,1.125c-0.079,0.197-0.099,0.474-0.099,0.75v5.568h-3.001V166.464z"/>
	<path fill="#FFFFFF" d="M395.752,172.783c-0.533,0.257-1.54,0.454-2.685,0.454c-3.12,0-5.114-1.915-5.114-4.936
		c0-2.824,1.935-5.134,5.529-5.134c0.79,0,1.659,0.138,2.291,0.375l-0.474,2.231c-0.355-0.158-0.889-0.296-1.678-0.296
		c-1.58,0-2.606,1.125-2.586,2.705c0,1.757,1.185,2.705,2.646,2.705c0.711,0,1.264-0.118,1.718-0.316L395.752,172.783z"/>
	<path fill="#FFFFFF" d="M400.51,160.699c0,0.829-0.611,1.5-1.619,1.5c-0.947,0-1.559-0.671-1.559-1.5
		c0-0.849,0.631-1.501,1.598-1.501C399.898,159.198,400.49,159.85,400.51,160.699z M397.41,173.04v-9.655h3.002v9.655H397.41z"/>
	<path fill="#FFFFFF" d="M410.857,170.709c0,0.908,0.039,1.797,0.156,2.33h-2.705l-0.178-0.967h-0.059
		c-0.631,0.77-1.619,1.185-2.764,1.185c-1.955,0-3.119-1.422-3.119-2.962c0-2.507,2.25-3.692,5.666-3.692v-0.118
		c0-0.533-0.277-1.264-1.758-1.264c-0.986,0-2.033,0.335-2.666,0.73l-0.553-1.935c0.672-0.375,1.994-0.869,3.752-0.869
		c3.219,0,4.227,1.896,4.227,4.186V170.709z M407.953,168.479c-1.578,0-2.803,0.375-2.803,1.521c0,0.77,0.514,1.145,1.186,1.145
		c0.73,0,1.361-0.494,1.559-1.105c0.039-0.158,0.059-0.336,0.059-0.514V168.479z"/>
	<path fill="#FFFFFF" d="M413.246,166.563c0-1.421-0.021-2.35-0.08-3.179h2.566l0.119,1.777h0.078
		c0.494-1.421,1.66-2.014,2.607-2.014c0.275,0,0.414,0.02,0.631,0.059v2.824c-0.236-0.04-0.473-0.079-0.809-0.079
		c-1.105,0-1.855,0.592-2.053,1.521c-0.041,0.197-0.061,0.434-0.061,0.671v4.896h-3V166.563z"/>
	<path fill="#FFFFFF" d="M428.785,170.709c0,0.908,0.039,1.797,0.156,2.33h-2.705l-0.178-0.967H426
		c-0.631,0.77-1.619,1.185-2.764,1.185c-1.955,0-3.119-1.422-3.119-2.962c0-2.507,2.25-3.692,5.666-3.692v-0.118
		c0-0.533-0.277-1.264-1.758-1.264c-0.986,0-2.033,0.335-2.666,0.73l-0.553-1.935c0.672-0.375,1.994-0.869,3.752-0.869
		c3.219,0,4.227,1.896,4.227,4.186V170.709z M425.881,168.479c-1.578,0-2.803,0.375-2.803,1.521c0,0.77,0.514,1.145,1.186,1.145
		c0.73,0,1.361-0.494,1.559-1.105c0.039-0.158,0.059-0.336,0.059-0.514V168.479z"/>
	<path fill="#FFFFFF" d="M431.174,166.464c0-1.204-0.039-2.211-0.08-3.08h2.607l0.139,1.343h0.059c0.395-0.632,1.361-1.56,2.98-1.56
		c1.975,0,3.457,1.323,3.457,4.167v5.706h-3.002v-5.351c0-1.244-0.434-2.093-1.52-2.093c-0.83,0-1.324,0.573-1.541,1.125
		c-0.078,0.197-0.1,0.474-0.1,0.75v5.568h-3V166.464z"/>
	<path fill="#FFFFFF" d="M302.242,186.547c0.079,1.244,1.323,1.836,2.725,1.836c1.027,0,1.856-0.138,2.666-0.415l0.395,2.034
		c-0.987,0.415-2.192,0.612-3.495,0.612c-3.278,0-5.154-1.896-5.154-4.917c0-2.448,1.521-5.153,4.877-5.153
		c3.12,0,4.304,2.429,4.304,4.818c0,0.513-0.059,0.967-0.099,1.185H302.242z M305.776,184.494c0-0.73-0.316-1.955-1.698-1.955
		c-1.264,0-1.777,1.165-1.856,1.955H305.776z"/>
	<path fill="#FFFFFF" d="M310.357,183.842c0-1.204-0.04-2.211-0.079-3.08h2.606l0.138,1.343h0.059
		c0.395-0.632,1.362-1.56,2.981-1.56c1.975,0,3.456,1.323,3.456,4.167v5.706h-3.001v-5.351c0-1.244-0.434-2.093-1.52-2.093
		c-0.83,0-1.323,0.573-1.541,1.125c-0.079,0.197-0.099,0.474-0.099,0.75v5.568h-3.001V183.842z"/>
	<path fill="#FFFFFF" d="M325.916,176.398h3.001v14.019h-3.001V176.398z"/>
	<path fill="#FFFFFF" d="M339.382,188.087c0,0.909,0.04,1.797,0.158,2.33h-2.705l-0.178-0.967h-0.059
		c-0.632,0.77-1.619,1.185-2.764,1.185c-1.955,0-3.12-1.422-3.12-2.962c0-2.507,2.251-3.692,5.667-3.692v-0.118
		c0-0.533-0.276-1.264-1.757-1.264c-0.987,0-2.034,0.335-2.666,0.73l-0.553-1.935c0.671-0.375,1.994-0.869,3.751-0.869
		c3.218,0,4.226,1.896,4.226,4.186V188.087z M336.479,185.856c-1.58,0-2.804,0.375-2.804,1.521c0,0.77,0.514,1.145,1.185,1.145
		c0.73,0,1.362-0.494,1.56-1.106c0.04-0.158,0.059-0.335,0.059-0.513V185.856z"/>
	<path fill="#FFFFFF" d="M345.759,183.941c0-1.422-0.02-2.35-0.079-3.179h2.567l0.118,1.777h0.079
		c0.494-1.421,1.659-2.014,2.606-2.014c0.276,0,0.415,0.02,0.632,0.059v2.824c-0.237-0.04-0.474-0.079-0.81-0.079
		c-1.106,0-1.856,0.592-2.053,1.521c-0.04,0.197-0.06,0.434-0.06,0.671v4.897h-3.001V183.941z"/>
	<path fill="#FFFFFF" d="M355.572,186.547c0.079,1.244,1.323,1.836,2.725,1.836c1.027,0,1.856-0.138,2.666-0.415l0.395,2.034
		c-0.987,0.415-2.192,0.612-3.495,0.612c-3.278,0-5.154-1.896-5.154-4.917c0-2.448,1.521-5.153,4.877-5.153
		c3.12,0,4.304,2.429,4.304,4.818c0,0.513-0.059,0.967-0.099,1.185H355.572z M359.106,184.494c0-0.73-0.316-1.955-1.698-1.955
		c-1.264,0-1.777,1.165-1.856,1.955H359.106z"/>
	<path fill="#FFFFFF" d="M373.046,176.398v11.136c0,1.086,0.04,2.231,0.079,2.883h-2.666l-0.119-1.402h-0.059
		c-0.592,1.066-1.777,1.619-3.021,1.619c-2.291,0-4.127-1.955-4.127-4.956c-0.02-3.258,2.014-5.153,4.324-5.153
		c1.205,0,2.113,0.434,2.547,1.086h0.04v-5.213H373.046z M370.045,184.849c0-0.158,0-0.375-0.04-0.553
		c-0.178-0.79-0.83-1.461-1.757-1.461c-1.382,0-2.073,1.224-2.073,2.745c0,1.639,0.81,2.666,2.053,2.666
		c0.869,0,1.58-0.592,1.757-1.441c0.04-0.217,0.06-0.454,0.06-0.691V184.849z"/>
	<path fill="#FFFFFF" d="M379.423,187.811c0.553,0.336,1.698,0.711,2.587,0.711c0.908,0,1.283-0.296,1.283-0.79
		c0-0.514-0.296-0.75-1.402-1.125c-2.014-0.671-2.784-1.757-2.764-2.903c0-1.816,1.54-3.179,3.929-3.179
		c1.125,0,2.113,0.276,2.705,0.572l-0.514,2.073c-0.434-0.237-1.283-0.553-2.093-0.553c-0.73,0-1.145,0.296-1.145,0.77
		c0,0.474,0.375,0.711,1.56,1.125c1.836,0.632,2.586,1.58,2.606,2.981c0,1.816-1.402,3.14-4.166,3.14
		c-1.264,0-2.389-0.296-3.12-0.691L379.423,187.811z"/>
	<path fill="#FFFFFF" d="M397.549,185.481c0,3.534-2.507,5.153-5.094,5.153c-2.823,0-4.996-1.856-4.996-4.976
		c0-3.14,2.054-5.134,5.173-5.134C395.575,180.525,397.549,182.559,397.549,185.481z M390.56,185.58
		c0,1.659,0.691,2.902,1.975,2.902c1.185,0,1.915-1.165,1.915-2.922c0-1.421-0.553-2.882-1.915-2.882
		C391.112,182.677,390.56,184.158,390.56,185.58z"/>
	<path fill="#FFFFFF" d="M406.65,190.16c-0.533,0.257-1.539,0.454-2.684,0.454c-3.121,0-5.115-1.915-5.115-4.936
		c0-2.824,1.935-5.134,5.529-5.134c0.789,0,1.658,0.138,2.291,0.375l-0.475,2.231c-0.355-0.158-0.889-0.296-1.678-0.296
		c-1.58,0-2.607,1.125-2.588,2.705c0,1.757,1.186,2.705,2.646,2.705c0.711,0,1.264-0.118,1.717-0.316L406.65,190.16z"/>
	<path fill="#FFFFFF" d="M411.41,178.077c0,0.829-0.613,1.5-1.619,1.5c-0.947,0-1.561-0.671-1.561-1.5
		c0-0.849,0.633-1.501,1.6-1.501S411.391,177.228,411.41,178.077z M408.311,190.417v-9.655h3v9.655H408.311z"/>
	<path fill="#FFFFFF" d="M421.756,188.087c0,0.909,0.039,1.797,0.158,2.33h-2.705l-0.178-0.967h-0.061
		c-0.631,0.77-1.619,1.185-2.764,1.185c-1.955,0-3.119-1.422-3.119-2.962c0-2.507,2.25-3.692,5.666-3.692v-0.118
		c0-0.533-0.275-1.264-1.758-1.264c-0.986,0-2.033,0.335-2.664,0.73l-0.553-1.935c0.67-0.375,1.994-0.869,3.75-0.869
		c3.219,0,4.227,1.896,4.227,4.186V188.087z M418.854,185.856c-1.58,0-2.805,0.375-2.805,1.521c0,0.77,0.514,1.145,1.186,1.145
		c0.73,0,1.361-0.494,1.559-1.106c0.041-0.158,0.061-0.335,0.061-0.513V185.856z"/>
	<path fill="#FFFFFF" d="M424.145,176.398h3.002v14.019h-3.002V176.398z"/>
	<path fill="#FFFFFF" d="M354.057,134.215c0.036,2.143,1.386,3.025,2.989,3.025c1.134,0,1.836-0.198,2.413-0.45l0.288,1.135
		c-0.558,0.252-1.53,0.558-2.917,0.558c-2.683,0-4.286-1.783-4.286-4.412s1.548-4.681,4.087-4.681c2.863,0,3.601,2.485,3.601,4.087
		c0,0.324-0.018,0.558-0.054,0.738H354.057z M358.702,133.081c0.018-0.99-0.414-2.557-2.196-2.557c-1.621,0-2.305,1.458-2.431,2.557
		H358.702z"/>
</g>
<rect x="464.695" y="68.093" opacity="0.6" fill="#4D2874" width="186.676" height="162.635"/>
<g>
	<path fill="#FFFFFF" d="M514.115,133.058c0.756-0.126,1.746-0.234,3.008-0.234c1.549,0,2.682,0.36,3.402,1.008
		c0.648,0.576,1.063,1.458,1.063,2.539c0,1.099-0.324,1.963-0.936,2.593c-0.848,0.882-2.18,1.333-3.709,1.333
		c-0.469,0-0.9-0.018-1.262-0.108v4.861h-1.566V133.058z M515.682,138.91c0.342,0.09,0.775,0.126,1.297,0.126
		c1.891,0,3.043-0.937,3.043-2.575c0-1.621-1.152-2.395-2.863-2.395c-0.684,0-1.205,0.054-1.477,0.126V138.91z"/>
	<path fill="#FFFFFF" d="M523.639,139.054c0-1.026-0.02-1.909-0.072-2.719h1.387l0.07,1.729h0.055
		c0.396-1.17,1.369-1.909,2.432-1.909c0.162,0,0.287,0.018,0.432,0.036v1.495c-0.162-0.036-0.324-0.036-0.541-0.036
		c-1.115,0-1.908,0.829-2.123,2.017c-0.037,0.216-0.055,0.486-0.055,0.738v4.646h-1.584V139.054z"/>
	<path fill="#FFFFFF" d="M530.406,140.98c0.035,2.143,1.387,3.025,2.988,3.025c1.135,0,1.836-0.198,2.412-0.45l0.289,1.135
		c-0.559,0.252-1.531,0.558-2.916,0.558c-2.684,0-4.287-1.783-4.287-4.412s1.549-4.681,4.088-4.681c2.863,0,3.602,2.485,3.602,4.087
		c0,0.324-0.018,0.558-0.055,0.738H530.406z M535.051,139.846c0.018-0.99-0.414-2.557-2.195-2.557c-1.621,0-2.305,1.458-2.432,2.557
		H535.051z"/>
	<path fill="#FFFFFF" d="M538.324,143.447c0.486,0.288,1.314,0.612,2.107,0.612c1.135,0,1.674-0.558,1.674-1.296
		c0-0.756-0.449-1.152-1.602-1.584c-1.584-0.576-2.322-1.422-2.322-2.467c0-1.404,1.152-2.557,3.006-2.557
		c0.883,0,1.656,0.234,2.125,0.54l-0.379,1.152c-0.342-0.216-0.971-0.522-1.781-0.522c-0.938,0-1.441,0.54-1.441,1.188
		c0,0.72,0.504,1.044,1.639,1.495c1.494,0.558,2.287,1.314,2.287,2.611c0,1.548-1.207,2.629-3.24,2.629
		c-0.955,0-1.838-0.252-2.449-0.612L538.324,143.447z"/>
	<path fill="#FFFFFF" d="M546.551,140.98c0.037,2.143,1.387,3.025,2.99,3.025c1.133,0,1.836-0.198,2.412-0.45l0.287,1.135
		c-0.557,0.252-1.529,0.558-2.916,0.558c-2.684,0-4.285-1.783-4.285-4.412s1.549-4.681,4.088-4.681c2.861,0,3.6,2.485,3.6,4.087
		c0,0.324-0.018,0.558-0.053,0.738H546.551z M551.197,139.846c0.018-0.99-0.414-2.557-2.197-2.557c-1.621,0-2.305,1.458-2.43,2.557
		H551.197z"/>
	<path fill="#FFFFFF" d="M554.688,138.694c0-0.918-0.018-1.639-0.072-2.358h1.404l0.09,1.44h0.037
		c0.432-0.811,1.439-1.621,2.881-1.621c1.205,0,3.078,0.72,3.078,3.709v5.186h-1.584v-5.023c0-1.404-0.523-2.575-2.018-2.575
		c-1.025,0-1.836,0.738-2.125,1.62c-0.07,0.198-0.107,0.468-0.107,0.738v5.24h-1.584V138.694z"/>
	<path fill="#FFFFFF" d="M566.586,134.247v2.089h2.268v1.206h-2.268v4.699c0,1.081,0.307,1.693,1.188,1.693
		c0.432,0,0.686-0.036,0.918-0.108l0.072,1.206c-0.305,0.108-0.791,0.216-1.404,0.216c-0.738,0-1.332-0.252-1.711-0.667
		c-0.432-0.486-0.611-1.26-0.611-2.287v-4.753h-1.35v-1.206h1.35v-1.621L566.586,134.247z"/>
	<path fill="#FFFFFF" d="M571.518,140.98c0.035,2.143,1.387,3.025,2.988,3.025c1.135,0,1.836-0.198,2.412-0.45l0.289,1.135
		c-0.559,0.252-1.531,0.558-2.916,0.558c-2.684,0-4.287-1.783-4.287-4.412s1.549-4.681,4.088-4.681c2.863,0,3.602,2.485,3.602,4.087
		c0,0.324-0.018,0.558-0.055,0.738H571.518z M576.162,139.846c0.018-0.99-0.414-2.557-2.195-2.557c-1.621,0-2.305,1.458-2.432,2.557
		H576.162z"/>
	<path fill="#FFFFFF" d="M583.252,143.447c0.486,0.288,1.314,0.612,2.107,0.612c1.135,0,1.674-0.558,1.674-1.296
		c0-0.756-0.449-1.152-1.602-1.584c-1.586-0.576-2.324-1.422-2.324-2.467c0-1.404,1.152-2.557,3.008-2.557
		c0.883,0,1.656,0.234,2.125,0.54l-0.379,1.152c-0.342-0.216-0.973-0.522-1.781-0.522c-0.938,0-1.441,0.54-1.441,1.188
		c0,0.72,0.504,1.044,1.639,1.495c1.494,0.558,2.287,1.314,2.287,2.611c0,1.548-1.207,2.629-3.242,2.629
		c-0.953,0-1.836-0.252-2.447-0.612L583.252,143.447z"/>
	<path fill="#FFFFFF" d="M597.889,142.655c0,0.918,0.018,1.71,0.072,2.395h-1.404l-0.09-1.422h-0.037
		c-0.396,0.702-1.332,1.621-2.881,1.621c-1.367,0-3.006-0.774-3.006-3.817v-5.095h1.584v4.807c0,1.657,0.521,2.791,1.945,2.791
		c1.061,0,1.799-0.738,2.088-1.458c0.09-0.216,0.145-0.504,0.145-0.811v-5.329h1.584V142.655z"/>
	<path fill="#FFFFFF" d="M493.74,151.264c0,0.54-0.377,0.972-1.008,0.972c-0.576,0-0.955-0.432-0.955-0.972
		c0-0.541,0.396-0.991,0.99-0.991C493.344,150.273,493.74,150.706,493.74,151.264z M491.977,162.427v-8.715h1.584v8.715H491.977z"/>
	<path fill="#FFFFFF" d="M496.188,156.071c0-0.918-0.018-1.638-0.072-2.359h1.406l0.09,1.44h0.035c0.432-0.81,1.441-1.62,2.881-1.62
		c1.207,0,3.078,0.72,3.078,3.709v5.186h-1.584v-5.023c0-1.404-0.521-2.575-2.016-2.575c-1.027,0-1.838,0.738-2.125,1.621
		c-0.072,0.198-0.107,0.468-0.107,0.738v5.24h-1.586V156.071z"/>
	<path fill="#FFFFFF" d="M508.086,151.624v2.088h2.27v1.207h-2.27v4.7c0,1.08,0.307,1.692,1.189,1.692
		c0.432,0,0.684-0.036,0.918-0.108l0.072,1.207c-0.307,0.108-0.793,0.216-1.404,0.216c-0.738,0-1.332-0.252-1.711-0.667
		c-0.432-0.486-0.613-1.26-0.613-2.287v-4.753h-1.35v-1.207h1.35v-1.62L508.086,151.624z"/>
	<path fill="#FFFFFF" d="M513.018,158.358c0.037,2.143,1.387,3.025,2.99,3.025c1.133,0,1.836-0.198,2.412-0.45l0.287,1.134
		c-0.557,0.252-1.529,0.559-2.916,0.559c-2.684,0-4.285-1.783-4.285-4.412c0-2.628,1.549-4.681,4.088-4.681
		c2.861,0,3.6,2.484,3.6,4.087c0,0.324-0.018,0.559-0.053,0.738H513.018z M517.664,157.224c0.018-0.99-0.414-2.557-2.197-2.557
		c-1.621,0-2.305,1.458-2.43,2.557H517.664z"/>
	<path fill="#FFFFFF" d="M521.154,156.432c0-1.026-0.02-1.909-0.072-2.719h1.387l0.07,1.729h0.055
		c0.396-1.17,1.369-1.908,2.432-1.908c0.162,0,0.287,0.018,0.432,0.036v1.494c-0.162-0.036-0.324-0.036-0.541-0.036
		c-1.115,0-1.908,0.829-2.123,2.017c-0.037,0.216-0.055,0.486-0.055,0.738v4.646h-1.584V156.432z"/>
	<path fill="#FFFFFF" d="M527.652,153.712l1.711,4.88c0.287,0.81,0.521,1.53,0.701,2.25h0.055c0.197-0.72,0.449-1.44,0.738-2.25
		l1.691-4.88h1.656l-3.42,8.715h-1.514l-3.313-8.715H527.652z"/>
	<path fill="#FFFFFF" d="M536.58,158.358c0.035,2.143,1.387,3.025,2.988,3.025c1.135,0,1.836-0.198,2.412-0.45l0.289,1.134
		c-0.559,0.252-1.531,0.559-2.916,0.559c-2.684,0-4.287-1.783-4.287-4.412c0-2.628,1.549-4.681,4.088-4.681
		c2.863,0,3.602,2.484,3.602,4.087c0,0.324-0.018,0.559-0.055,0.738H536.58z M541.225,157.224c0.018-0.99-0.414-2.557-2.195-2.557
		c-1.621,0-2.305,1.458-2.432,2.557H541.225z"/>
	<path fill="#FFFFFF" d="M544.715,156.071c0-0.918-0.018-1.638-0.072-2.359h1.406l0.09,1.44h0.035c0.432-0.81,1.441-1.62,2.881-1.62
		c1.207,0,3.078,0.72,3.078,3.709v5.186h-1.584v-5.023c0-1.404-0.521-2.575-2.016-2.575c-1.027,0-1.838,0.738-2.125,1.621
		c-0.072,0.198-0.107,0.468-0.107,0.738v5.24h-1.586V156.071z"/>
	<path fill="#FFFFFF" d="M560.918,162.121c-0.414,0.198-1.334,0.504-2.504,0.504c-2.629,0-4.34-1.783-4.34-4.447
		c0-2.683,1.838-4.646,4.682-4.646c0.938,0,1.766,0.234,2.197,0.468l-0.359,1.207c-0.379-0.198-0.973-0.414-1.838-0.414
		c-1.998,0-3.078,1.495-3.078,3.295c0,2.017,1.297,3.259,3.025,3.259c0.9,0,1.494-0.216,1.943-0.415L560.918,162.121z"/>
	<path fill="#FFFFFF" d="M564.533,151.264c0,0.54-0.377,0.972-1.008,0.972c-0.576,0-0.955-0.432-0.955-0.972
		c0-0.541,0.396-0.991,0.99-0.991C564.137,150.273,564.533,150.706,564.533,151.264z M562.77,162.427v-8.715h1.584v8.715H562.77z"/>
	<path fill="#FFFFFF" d="M574.867,157.998c0,3.223-2.25,4.627-4.34,4.627c-2.34,0-4.176-1.729-4.176-4.483
		c0-2.899,1.926-4.609,4.32-4.609C573.176,153.533,574.867,155.351,574.867,157.998z M567.971,158.088
		c0,1.909,1.082,3.349,2.629,3.349c1.514,0,2.646-1.422,2.646-3.385c0-1.476-0.736-3.331-2.609-3.331
		C568.781,154.721,567.971,156.45,567.971,158.088z M572.977,149.95l-2.195,2.575h-1.117l1.566-2.575H572.977z"/>
	<path fill="#FFFFFF" d="M576.863,156.071c0-0.918-0.018-1.638-0.072-2.359h1.404l0.09,1.44h0.037c0.432-0.81,1.439-1.62,2.881-1.62
		c1.205,0,3.078,0.72,3.078,3.709v5.186h-1.584v-5.023c0-1.404-0.523-2.575-2.018-2.575c-1.025,0-1.836,0.738-2.125,1.621
		c-0.07,0.198-0.107,0.468-0.107,0.738v5.24h-1.584V156.071z"/>
	<path fill="#FFFFFF" d="M591.551,158.358c0.037,2.143,1.387,3.025,2.988,3.025c1.135,0,1.838-0.198,2.414-0.45l0.287,1.134
		c-0.559,0.252-1.529,0.559-2.916,0.559c-2.684,0-4.285-1.783-4.285-4.412c0-2.628,1.549-4.681,4.086-4.681
		c2.863,0,3.602,2.484,3.602,4.087c0,0.324-0.018,0.559-0.055,0.738H591.551z M596.197,157.224c0.018-0.99-0.416-2.557-2.197-2.557
		c-1.621,0-2.305,1.458-2.432,2.557H596.197z"/>
	<path fill="#FFFFFF" d="M599.688,156.071c0-0.918-0.02-1.638-0.072-2.359h1.404l0.09,1.44h0.035c0.434-0.81,1.441-1.62,2.881-1.62
		c1.207,0,3.08,0.72,3.08,3.709v5.186h-1.586v-5.023c0-1.404-0.521-2.575-2.016-2.575c-1.025,0-1.836,0.738-2.125,1.621
		c-0.072,0.198-0.107,0.468-0.107,0.738v5.24h-1.584V156.071z"/>
	<path fill="#FFFFFF" d="M613.492,149.644h1.584v12.784h-1.584V149.644z"/>
	<path fill="#FFFFFF" d="M623.861,160.338c0,0.756,0.037,1.495,0.127,2.089h-1.424l-0.125-1.098h-0.055
		c-0.486,0.684-1.422,1.296-2.664,1.296c-1.766,0-2.664-1.243-2.664-2.503c0-2.106,1.871-3.259,5.238-3.241v-0.18
		c0-0.702-0.197-2.017-1.98-1.999c-0.828,0-1.674,0.234-2.287,0.648l-0.359-1.063c0.721-0.45,1.783-0.756,2.881-0.756
		c2.664,0,3.313,1.818,3.313,3.547V160.338z M622.332,157.98c-1.729-0.036-3.691,0.27-3.691,1.962c0,1.044,0.684,1.513,1.477,1.513
		c1.152,0,1.891-0.72,2.143-1.458c0.053-0.18,0.072-0.36,0.072-0.504V157.98z"/>
	<path fill="#FFFFFF" d="M482.863,178.403c0,1.856-0.375,3.376-1.482,4.344c-1.045,0.908-2.486,1.185-3.908,1.185
		c-1.283,0-2.607-0.256-3.475-0.73l0.592-2.291c0.611,0.355,1.658,0.731,2.803,0.731c1.422,0,2.508-0.75,2.508-2.547v-0.612h-0.039
		c-0.572,0.79-1.5,1.244-2.605,1.244c-2.391,0-4.088-1.935-4.088-4.699c0-3.12,1.994-5.094,4.383-5.094
		c1.324,0,2.152,0.573,2.646,1.382h0.039l0.1-1.165h2.605c-0.039,0.632-0.078,1.441-0.078,2.883V178.403z M479.861,174.079
		c0-0.178-0.02-0.375-0.059-0.553c-0.217-0.79-0.791-1.323-1.619-1.323c-1.105,0-1.975,0.987-1.975,2.744
		c0,1.441,0.711,2.567,1.955,2.567c0.789,0,1.4-0.513,1.6-1.204c0.078-0.237,0.098-0.553,0.098-0.81V174.079z"/>
	<path fill="#FFFFFF" d="M493.307,177.475c0,0.908,0.041,1.797,0.158,2.33h-2.705l-0.178-0.967h-0.059
		c-0.633,0.77-1.619,1.185-2.764,1.185c-1.955,0-3.121-1.422-3.121-2.962c0-2.507,2.252-3.692,5.668-3.692v-0.118
		c0-0.533-0.277-1.264-1.758-1.264c-0.988,0-2.033,0.335-2.666,0.73l-0.553-1.935c0.672-0.375,1.994-0.869,3.752-0.869
		c3.219,0,4.225,1.896,4.225,4.186V177.475z M490.404,175.244c-1.58,0-2.803,0.375-2.803,1.521c0,0.77,0.514,1.145,1.184,1.145
		c0.73,0,1.363-0.494,1.561-1.105c0.039-0.158,0.059-0.336,0.059-0.514V175.244z"/>
	<path fill="#FFFFFF" d="M495.697,165.786h3v14.019h-3V165.786z"/>
	<path fill="#FFFFFF" d="M503.436,175.935c0.08,1.244,1.324,1.836,2.725,1.836c1.027,0,1.857-0.138,2.666-0.415l0.395,2.034
		c-0.986,0.415-2.191,0.612-3.494,0.612c-3.277,0-5.154-1.896-5.154-4.917c0-2.448,1.521-5.153,4.879-5.153
		c3.119,0,4.303,2.429,4.303,4.818c0,0.513-0.059,0.967-0.098,1.185H503.436z M506.971,173.882c0-0.73-0.316-1.955-1.697-1.955
		c-1.264,0-1.777,1.165-1.857,1.955H506.971z"/>
	<path fill="#FFFFFF" d="M511.551,173.329c0-1.421-0.02-2.35-0.078-3.179h2.566l0.119,1.777h0.078
		c0.494-1.421,1.658-2.014,2.607-2.014c0.275,0,0.414,0.02,0.631,0.059v2.824c-0.236-0.04-0.475-0.079-0.809-0.079
		c-1.105,0-1.857,0.592-2.055,1.521c-0.039,0.197-0.059,0.434-0.059,0.671v4.896h-3.002V173.329z"/>
	<path fill="#FFFFFF" d="M519.055,179.805v-9.655h3v9.655H519.055z M523.754,165.944l-2.41,3.001h-2.053l1.699-3.001H523.754z"/>
	<path fill="#FFFFFF" d="M532.5,177.475c0,0.908,0.039,1.797,0.158,2.33h-2.705l-0.178-0.967h-0.059
		c-0.633,0.77-1.619,1.185-2.766,1.185c-1.953,0-3.119-1.422-3.119-2.962c0-2.507,2.252-3.692,5.666-3.692v-0.118
		c0-0.533-0.275-1.264-1.756-1.264c-0.988,0-2.035,0.335-2.666,0.73l-0.553-1.935c0.672-0.375,1.994-0.869,3.752-0.869
		c3.217,0,4.225,1.896,4.225,4.186V177.475z M529.598,175.244c-1.58,0-2.805,0.375-2.805,1.521c0,0.77,0.514,1.145,1.186,1.145
		c0.73,0,1.363-0.494,1.561-1.105c0.039-0.158,0.059-0.336,0.059-0.514V175.244z"/>
	<path fill="#FFFFFF" d="M538.877,173.23c0-1.204-0.039-2.211-0.078-3.08h2.547l0.119,1.303h0.059
		c0.414-0.632,1.283-1.54,2.922-1.54c1.264,0,2.232,0.651,2.646,1.659h0.039c0.375-0.514,0.789-0.909,1.264-1.185
		c0.533-0.296,1.125-0.474,1.836-0.474c1.855,0,3.258,1.303,3.258,4.206v5.687h-2.922v-5.252c0-1.402-0.453-2.211-1.422-2.211
		c-0.711,0-1.184,0.474-1.402,1.046c-0.059,0.217-0.098,0.513-0.098,0.77v5.647h-2.922v-5.43c0-1.205-0.436-2.034-1.402-2.034
		c-0.77,0-1.225,0.592-1.402,1.066c-0.098,0.237-0.119,0.514-0.119,0.77v5.627h-2.922V173.23z"/>
	<path fill="#FFFFFF" d="M564.961,176.705c0,1.264,0.039,2.291,0.078,3.1h-2.605l-0.139-1.362h-0.059
		c-0.375,0.592-1.283,1.58-3.021,1.58c-1.975,0-3.396-1.224-3.396-4.206v-5.667h3.002v5.193c0,1.402,0.453,2.251,1.52,2.251
		c0.83,0,1.322-0.573,1.5-1.046c0.08-0.178,0.119-0.395,0.119-0.652v-5.746h3.002V176.705z"/>
	<path fill="#FFFFFF" d="M567.369,165.786h3v14.019h-3V165.786z"/>
	<path fill="#FFFFFF" d="M576.154,167.543v2.606h2.152v2.211h-2.152v3.495c0,1.165,0.297,1.698,1.186,1.698
		c0.414,0,0.611-0.02,0.889-0.079l0.02,2.271c-0.375,0.138-1.105,0.256-1.936,0.256c-0.967,0-1.777-0.335-2.27-0.829
		c-0.553-0.573-0.83-1.5-0.83-2.863v-3.949h-1.283v-2.211h1.283v-1.797L576.154,167.543z"/>
	<path fill="#FFFFFF" d="M583.145,167.465c0,0.829-0.611,1.5-1.619,1.5c-0.947,0-1.561-0.671-1.561-1.5
		c0-0.849,0.633-1.501,1.6-1.501C582.533,165.964,583.125,166.616,583.145,167.465z M580.045,179.805v-9.655h3v9.655H580.045z"/>
	<path fill="#FFFFFF" d="M585.455,173.23c0-1.204-0.039-2.211-0.08-3.08h2.547l0.119,1.303h0.059c0.416-0.632,1.285-1.54,2.924-1.54
		c1.264,0,2.23,0.651,2.645,1.659h0.041c0.375-0.514,0.789-0.909,1.264-1.185c0.531-0.296,1.125-0.474,1.836-0.474
		c1.855,0,3.258,1.303,3.258,4.206v5.687h-2.922v-5.252c0-1.402-0.455-2.211-1.422-2.211c-0.711,0-1.186,0.474-1.402,1.046
		c-0.059,0.217-0.1,0.513-0.1,0.77v5.647h-2.922v-5.43c0-1.205-0.434-2.034-1.402-2.034c-0.77,0-1.223,0.592-1.4,1.066
		c-0.1,0.237-0.119,0.514-0.119,0.77v5.627h-2.922V173.23z"/>
	<path fill="#FFFFFF" d="M604.744,175.935c0.08,1.244,1.324,1.836,2.725,1.836c1.027,0,1.857-0.138,2.666-0.415l0.395,2.034
		c-0.986,0.415-2.191,0.612-3.494,0.612c-3.277,0-5.154-1.896-5.154-4.917c0-2.448,1.521-5.153,4.879-5.153
		c3.119,0,4.303,2.429,4.303,4.818c0,0.513-0.059,0.967-0.098,1.185H604.744z M608.279,173.882c0-0.73-0.316-1.955-1.697-1.955
		c-1.264,0-1.777,1.165-1.857,1.955H608.279z"/>
	<path fill="#FFFFFF" d="M622.219,165.786v11.136c0,1.086,0.039,2.231,0.08,2.883h-2.666l-0.119-1.402h-0.059
		c-0.592,1.066-1.777,1.619-3.021,1.619c-2.291,0-4.127-1.955-4.127-4.956c-0.02-3.258,2.014-5.153,4.324-5.153
		c1.205,0,2.113,0.434,2.547,1.086h0.041v-5.213H622.219z M619.219,174.237c0-0.158,0-0.375-0.041-0.553
		c-0.178-0.79-0.828-1.461-1.756-1.461c-1.383,0-2.074,1.224-2.074,2.745c0,1.639,0.811,2.666,2.053,2.666
		c0.869,0,1.58-0.592,1.758-1.441c0.039-0.217,0.061-0.454,0.061-0.691V174.237z"/>
	<path fill="#FFFFFF" d="M627.727,167.465c0,0.829-0.611,1.5-1.617,1.5c-0.949,0-1.561-0.671-1.561-1.5
		c0-0.849,0.631-1.501,1.6-1.501C627.115,165.964,627.707,166.616,627.727,167.465z M624.627,179.805v-9.655h3.002v9.655H624.627z"
		/>
	<path fill="#FFFFFF" d="M638.074,177.475c0,0.908,0.039,1.797,0.158,2.33h-2.705l-0.178-0.967h-0.061
		c-0.631,0.77-1.619,1.185-2.764,1.185c-1.955,0-3.119-1.422-3.119-2.962c0-2.507,2.25-3.692,5.666-3.692v-0.118
		c0-0.533-0.275-1.264-1.758-1.264c-0.986,0-2.033,0.335-2.664,0.73l-0.553-1.935c0.67-0.375,1.994-0.869,3.75-0.869
		c3.219,0,4.227,1.896,4.227,4.186V177.475z M635.172,175.244c-1.58,0-2.805,0.375-2.805,1.521c0,0.77,0.514,1.145,1.186,1.145
		c0.73,0,1.361-0.494,1.559-1.105c0.041-0.158,0.061-0.336,0.061-0.514V175.244z"/>
</g>
<polygon fill="#FFFFFF" points="428.754,158.944 426.344,161.945 424.291,161.945 425.99,158.944 "/>
</svg>
