<?xml version="1.0" encoding="utf-8"?>
<!-- Generator: Adobe Illustrator 16.0.0, SVG Export Plug-In . SVG Version: 6.00 Build 0)  -->
<!DOCTYPE svg PUBLIC "-//W3C//DTD SVG 1.1//EN" "http://www.w3.org/Graphics/SVG/1.1/DTD/svg11.dtd">
<svg version="1.1" id="Layer_1" xmlns="http://www.w3.org/2000/svg" xmlns:xlink="http://www.w3.org/1999/xlink" x="0px" y="0px"
	 width="876px" height="291.334px" viewBox="0 0 876 291.334" enable-background="new 0 0 876 291.334" xml:space="preserve">
<rect x="16.436" y="63.973" fill="#E0E1E1" width="54.618" height="156.41"/>
<rect x="54.599" y="78.274" fill="#F1F1F2" width="609.085" height="152.41"/>
<polyline fill="#F1F1F2" points="792,146.755 663.232,278.1 663.232,30.858 "/>
<polyline fill="#D1D1D1" points="71.972,77.375 53.932,77.472 71.565,63.916 "/>
<polyline opacity="0.85" fill="#602D83" points="261.271,78.294 261.244,68.093 268.355,78.294 "/>
<polyline opacity="0.85" fill="#822C81" points="456.07,78.295 456.043,68.093 463.154,78.295 "/>
<polyline opacity="0.85" fill="#4D2874" points="651.434,78.295 651.406,68.093 658.518,78.295 "/>
<rect x="74.695" y="68.093" opacity="0.6" fill="#602D83" width="186.677" height="162.635"/>
<rect x="269.362" y="68.093" opacity="0.6" fill="#822C81" width="186.677" height="162.635"/>
<rect x="659.361" y="68.093" opacity="0.6" fill="#822C81" width="186.678" height="162.635"/>
<rect x="464.695" y="68.093" opacity="0.6" fill="#4D2874" width="186.676" height="162.635"/>
<g>
</g>
<g>
	<rect x="79.574" y="128" fill="none" width="179.133" height="66.333"/>
	<path fill="#F1F1F2" d="M80.631,128.716c0.752-0.128,1.809-0.224,3.297-0.224c1.504,0,2.577,0.288,3.297,0.864
		c0.688,0.544,1.153,1.44,1.153,2.497c0,1.056-0.352,1.953-0.993,2.561c-0.832,0.784-2.065,1.136-3.505,1.136
		c-0.32,0-0.608-0.016-0.832-0.048v3.857h-2.417V128.716z M83.048,133.614c0.208,0.048,0.464,0.064,0.816,0.064
		c1.297,0,2.097-0.656,2.097-1.761c0-0.993-0.688-1.585-1.905-1.585c-0.496,0-0.833,0.048-1.008,0.096V133.614z"/>
	<path fill="#F1F1F2" d="M94.009,139.36l-0.144-0.784h-0.048c-0.512,0.624-1.313,0.96-2.241,0.96c-1.584,0-2.529-1.152-2.529-2.401
		c0-2.033,1.825-3.009,4.594-2.993v-0.112c0-0.416-0.224-1.008-1.425-1.008c-0.8,0-1.648,0.272-2.161,0.592l-0.448-1.569
		c0.544-0.304,1.617-0.688,3.041-0.688c2.609,0,3.441,1.537,3.441,3.377v2.721c0,0.752,0.032,1.473,0.112,1.905H94.009z
		 M93.721,135.663c-1.281-0.016-2.273,0.288-2.273,1.232c0,0.624,0.416,0.928,0.96,0.928c0.608,0,1.104-0.4,1.264-0.896
		c0.032-0.128,0.048-0.272,0.048-0.416V135.663z"/>
	<path fill="#F1F1F2" d="M97.99,137.231c0.448,0.272,1.376,0.592,2.097,0.592c0.736,0,1.041-0.256,1.041-0.656
		c0-0.4-0.24-0.592-1.152-0.896c-1.617-0.544-2.241-1.424-2.225-2.353c0-1.457,1.249-2.561,3.186-2.561
		c0.912,0,1.729,0.208,2.208,0.448l-0.432,1.681c-0.352-0.192-1.024-0.448-1.696-0.448c-0.592,0-0.929,0.24-0.929,0.641
		c0,0.368,0.304,0.56,1.265,0.896c1.489,0.512,2.113,1.265,2.129,2.417c0,1.457-1.152,2.529-3.394,2.529
		c-1.024,0-1.937-0.224-2.529-0.544L97.99,137.231z"/>
	<path fill="#F1F1F2" d="M112.682,135.359c0,2.865-2.033,4.177-4.13,4.177c-2.289,0-4.049-1.504-4.049-4.033
		c0-2.529,1.665-4.146,4.178-4.146C111.081,131.357,112.682,133.006,112.682,135.359z M107.015,135.439
		c0,1.344,0.561,2.353,1.601,2.353c0.944,0,1.552-0.944,1.552-2.353c0-1.168-0.448-2.353-1.552-2.353
		C107.448,133.086,107.015,134.286,107.015,135.439z"/>
	<path fill="#F1F1F2" d="M120.215,131.117h-0.032l-1.985,0.944l-0.4-1.825l2.753-1.281h2.017v10.404h-2.353V131.117z"/>
	<path fill="#F1F1F2" d="M126.118,138.064c0-0.864,0.592-1.489,1.44-1.489c0.849,0,1.425,0.608,1.425,1.489
		c0,0.848-0.576,1.472-1.44,1.472C126.71,139.536,126.118,138.912,126.118,138.064z"/>
	<path fill="#F1F1F2" d="M133.766,128.716c0.896-0.144,2.064-0.224,3.297-0.224c2.049,0,3.377,0.368,4.418,1.152
		c1.121,0.832,1.825,2.161,1.825,4.065c0,2.065-0.752,3.49-1.792,4.37c-1.137,0.944-2.865,1.393-4.978,1.393
		c-1.265,0-2.161-0.08-2.769-0.16V128.716z M136.215,137.52c0.208,0.048,0.544,0.048,0.848,0.048c2.209,0.016,3.65-1.2,3.65-3.777
		c0.016-2.241-1.297-3.425-3.394-3.425c-0.544,0-0.896,0.048-1.104,0.096V137.52z"/>
	<path fill="#F1F1F2" d="M147.399,129.356c0,0.672-0.512,1.216-1.313,1.216c-0.768,0-1.28-0.544-1.264-1.216
		c-0.016-0.705,0.496-1.232,1.28-1.232S147.383,128.652,147.399,129.356z M144.886,139.36v-7.827h2.433v7.827H144.886z"/>
	<path fill="#F1F1F2" d="M149.254,137.231c0.448,0.272,1.376,0.592,2.097,0.592c0.736,0,1.041-0.256,1.041-0.656
		c0-0.4-0.24-0.592-1.152-0.896c-1.617-0.544-2.241-1.424-2.225-2.353c0-1.457,1.249-2.561,3.186-2.561
		c0.912,0,1.729,0.208,2.208,0.448l-0.432,1.681c-0.352-0.192-1.024-0.448-1.696-0.448c-0.592,0-0.929,0.24-0.929,0.641
		c0,0.368,0.304,0.56,1.265,0.896c1.489,0.512,2.113,1.265,2.129,2.417c0,1.457-1.152,2.529-3.394,2.529
		c-1.024,0-1.937-0.224-2.529-0.544L149.254,137.231z"/>
	<path fill="#F1F1F2" d="M158.086,136.223c0.08,1.008,1.072,1.489,2.209,1.489c0.833,0,1.504-0.112,2.161-0.32l0.32,1.648
		c-0.8,0.32-1.777,0.48-2.833,0.48c-2.657,0-4.178-1.537-4.178-3.986c0-1.985,1.232-4.178,3.954-4.178
		c2.529,0,3.489,1.969,3.489,3.906c0,0.416-0.048,0.784-0.08,0.96H158.086z M160.951,134.559c0-0.592-0.256-1.585-1.376-1.585
		c-1.024,0-1.441,0.929-1.505,1.585H160.951z"/>
	<path fill="#F1F1F2" d="M164.662,134.03c0-0.977-0.032-1.809-0.064-2.497h2.113l0.112,1.072h0.048
		c0.32-0.496,1.121-1.249,2.417-1.249c1.601,0,2.801,1.057,2.801,3.361v4.642h-2.433v-4.338c0-1.008-0.352-1.697-1.232-1.697
		c-0.672,0-1.072,0.464-1.232,0.913c-0.064,0.144-0.096,0.384-0.096,0.608v4.514h-2.433V134.03z M166.118,130.429
		c-0.048-1.345,0.48-2.097,1.313-2.097c0.4,0,0.72,0.16,1.041,0.32c0.256,0.16,0.48,0.32,0.672,0.32c0.256,0,0.368-0.144,0.417-0.72
		h1.12c0.048,1.473-0.464,2.065-1.313,2.065c-0.448,0-0.768-0.176-1.104-0.353c-0.288-0.16-0.416-0.256-0.608-0.256
		c-0.224,0-0.368,0.24-0.384,0.72H166.118z"/>
	<path fill="#F1F1F2" d="M175.91,136.223c0.08,1.008,1.072,1.489,2.209,1.489c0.833,0,1.504-0.112,2.161-0.32l0.32,1.648
		c-0.8,0.32-1.777,0.48-2.833,0.48c-2.657,0-4.178-1.537-4.178-3.986c0-1.985,1.232-4.178,3.954-4.178
		c2.529,0,3.489,1.969,3.489,3.906c0,0.416-0.048,0.784-0.08,0.96H175.91z M178.775,134.559c0-0.592-0.256-1.585-1.376-1.585
		c-1.024,0-1.441,0.929-1.505,1.585H178.775z"/>
	<path fill="#F1F1F2" d="M187.542,131.533l1.168,3.841c0.128,0.464,0.288,1.041,0.384,1.457h0.048
		c0.112-0.417,0.24-1.009,0.352-1.457l0.96-3.841h2.609l-1.825,5.154c-1.121,3.105-1.873,4.354-2.753,5.138
		c-0.849,0.736-1.745,0.992-2.353,1.072l-0.512-2.064c0.304-0.048,0.688-0.192,1.057-0.416c0.368-0.192,0.768-0.576,1.008-0.977
		c0.08-0.112,0.128-0.24,0.128-0.352c0-0.08-0.016-0.208-0.112-0.4l-2.865-7.155H187.542z"/>
	<path fill="#F1F1F2" d="M197.317,134.11c0-1.152-0.032-1.905-0.064-2.577h2.097l0.08,1.44h0.064c0.4-1.136,1.36-1.617,2.113-1.617
		c0.224,0,0.336,0,0.512,0.032v2.289c-0.176-0.032-0.384-0.064-0.656-0.064c-0.896,0-1.504,0.48-1.665,1.232
		c-0.032,0.16-0.048,0.352-0.048,0.544v3.97h-2.433V134.11z"/>
	<path fill="#F1F1F2" d="M205.142,136.223c0.08,1.008,1.072,1.489,2.209,1.489c0.833,0,1.504-0.112,2.161-0.32l0.32,1.648
		c-0.8,0.32-1.777,0.48-2.833,0.48c-2.657,0-4.178-1.537-4.178-3.986c0-1.985,1.232-4.178,3.954-4.178
		c2.529,0,3.489,1.969,3.489,3.906c0,0.416-0.048,0.784-0.08,0.96H205.142z M208.007,134.559c0-0.592-0.256-1.585-1.376-1.585
		c-1.024,0-1.441,0.929-1.505,1.585H208.007z"/>
	<path fill="#F1F1F2" d="M219.304,127.996v9.028c0,0.88,0.032,1.809,0.064,2.337h-2.161l-0.112-1.152h-0.032
		c-0.497,0.88-1.441,1.328-2.449,1.328c-1.857,0-3.345-1.584-3.345-4.018c-0.016-2.641,1.632-4.162,3.505-4.162
		c0.96,0,1.712,0.336,2.065,0.88h0.032v-4.242H219.304z M216.871,134.847c0-0.128-0.016-0.304-0.032-0.432
		c-0.144-0.656-0.672-1.201-1.425-1.201c-1.104,0-1.681,0.992-1.681,2.225c0,1.328,0.656,2.161,1.665,2.161
		c0.705,0,1.265-0.48,1.409-1.168c0.048-0.176,0.064-0.352,0.064-0.56V134.847z"/>
	<path fill="#F1F1F2" d="M225.703,139.36l-0.144-0.784h-0.048c-0.512,0.624-1.313,0.96-2.241,0.96c-1.584,0-2.529-1.152-2.529-2.401
		c0-2.033,1.825-3.009,4.594-2.993v-0.112c0-0.416-0.224-1.008-1.425-1.008c-0.8,0-1.648,0.272-2.161,0.592l-0.448-1.569
		c0.544-0.304,1.617-0.688,3.041-0.688c2.609,0,3.441,1.537,3.441,3.377v2.721c0,0.752,0.032,1.473,0.112,1.905H225.703z
		 M225.415,135.663c-1.281-0.016-2.273,0.288-2.273,1.232c0,0.624,0.416,0.928,0.96,0.928c0.608,0,1.104-0.4,1.264-0.896
		c0.032-0.128,0.048-0.272,0.048-0.416V135.663z"/>
	<path fill="#F1F1F2" d="M235.576,139.168c-0.432,0.192-1.249,0.352-2.177,0.352c-2.529,0-4.146-1.537-4.146-4.002
		c0-2.289,1.568-4.162,4.482-4.162c0.64,0,1.344,0.112,1.856,0.304l-0.384,1.809c-0.288-0.128-0.72-0.24-1.36-0.24
		c-1.28,0-2.113,0.912-2.097,2.193c0,1.44,0.96,2.193,2.145,2.193c0.576,0,1.024-0.096,1.393-0.24L235.576,139.168z"/>
	<path fill="#F1F1F2" d="M239.894,129.292v2.241h1.745v1.792h-1.745v2.833c0,0.944,0.224,1.376,0.96,1.376
		c0.304,0,0.544-0.032,0.72-0.064l0.016,1.841c-0.32,0.128-0.896,0.208-1.584,0.208c-0.784,0-1.44-0.272-1.825-0.672
		c-0.448-0.464-0.672-1.216-0.672-2.321v-3.202h-1.041v-1.792h1.041v-1.697L239.894,129.292z"/>
	<path fill="#F1F1F2" d="M244.838,136.223c0.08,1.008,1.072,1.489,2.209,1.489c0.833,0,1.504-0.112,2.161-0.32l0.32,1.648
		c-0.8,0.32-1.777,0.48-2.833,0.48c-2.657,0-4.178-1.537-4.178-3.986c0-1.985,1.232-4.178,3.954-4.178
		c2.529,0,3.489,1.969,3.489,3.906c0,0.416-0.048,0.784-0.08,0.96H244.838z M247.703,134.559c0-0.592-0.256-1.585-1.376-1.585
		c-1.024,0-1.441,0.929-1.505,1.585H247.703z"/>
	<path fill="#F1F1F2" d="M80.535,156.432c0.448,0.272,1.376,0.592,2.097,0.592c0.736,0,1.041-0.256,1.041-0.656
		c0-0.399-0.24-0.592-1.152-0.896c-1.617-0.545-2.241-1.425-2.225-2.354c0-1.456,1.249-2.561,3.186-2.561
		c0.912,0,1.729,0.208,2.208,0.448l-0.432,1.681c-0.352-0.192-1.024-0.448-1.696-0.448c-0.592,0-0.929,0.24-0.929,0.64
		c0,0.368,0.304,0.561,1.265,0.896c1.489,0.513,2.113,1.265,2.129,2.417c0,1.457-1.152,2.529-3.394,2.529
		c-1.024,0-1.937-0.225-2.529-0.544L80.535,156.432z"/>
	<path fill="#F1F1F2" d="M94.874,156.048c0,1.024,0.032,1.856,0.064,2.513h-2.113l-0.112-1.104h-0.048
		c-0.304,0.48-1.041,1.28-2.449,1.28c-1.584,0-2.753-0.992-2.753-3.409v-4.594h2.449v4.21c0,1.136,0.368,1.824,1.216,1.824
		c0.672,0,1.057-0.464,1.216-0.848c0.064-0.145,0.08-0.337,0.08-0.528v-4.658h2.449V156.048z"/>
	<path fill="#F1F1F2" d="M104.504,158.561l-0.144-0.784h-0.048c-0.512,0.624-1.313,0.96-2.241,0.96c-1.584,0-2.529-1.152-2.529-2.4
		c0-2.033,1.825-3.01,4.594-2.993v-0.112c0-0.416-0.224-1.009-1.425-1.009c-0.8,0-1.648,0.272-2.161,0.593l-0.448-1.569
		c0.544-0.304,1.617-0.688,3.041-0.688c2.609,0,3.441,1.536,3.441,3.377v2.722c0,0.752,0.032,1.472,0.112,1.904H104.504z
		 M104.216,154.863c-1.281-0.017-2.273,0.288-2.273,1.232c0,0.624,0.416,0.928,0.96,0.928c0.608,0,1.104-0.399,1.264-0.896
		c0.032-0.128,0.048-0.272,0.048-0.417V154.863z"/>
	<path fill="#F1F1F2" d="M114.376,158.368c-0.432,0.192-1.249,0.353-2.177,0.353c-2.529,0-4.146-1.537-4.146-4.002
		c0-2.289,1.568-4.161,4.482-4.161c0.64,0,1.344,0.111,1.856,0.304l-0.384,1.809c-0.288-0.128-0.72-0.24-1.36-0.24
		c-1.28,0-2.113,0.913-2.097,2.193c0,1.44,0.96,2.192,2.145,2.192c0.576,0,1.024-0.096,1.393-0.239L114.376,158.368z"/>
	<path fill="#F1F1F2" d="M123.273,154.559c0,2.865-2.033,4.178-4.13,4.178c-2.289,0-4.049-1.504-4.049-4.033
		s1.665-4.146,4.178-4.146C121.673,150.558,123.273,152.206,123.273,154.559z M117.607,154.639c0,1.345,0.561,2.354,1.601,2.354
		c0.944,0,1.552-0.944,1.552-2.354c0-1.168-0.448-2.353-1.552-2.353C118.04,152.286,117.607,153.486,117.607,154.639z"/>
	<path fill="#F1F1F2" d="M124.774,153.23c0-0.977-0.032-1.809-0.064-2.497h2.113l0.112,1.072h0.048
		c0.32-0.496,1.121-1.248,2.417-1.248c1.601,0,2.801,1.056,2.801,3.361v4.642h-2.433v-4.338c0-1.008-0.352-1.696-1.232-1.696
		c-0.672,0-1.072,0.464-1.232,0.912c-0.064,0.145-0.096,0.384-0.096,0.608v4.514h-2.433V153.23z"/>
	<path fill="#F1F1F2" d="M136.775,148.492v2.241h1.745v1.793h-1.745v2.833c0,0.944,0.224,1.376,0.96,1.376
		c0.304,0,0.544-0.031,0.72-0.063l0.016,1.841c-0.32,0.128-0.896,0.208-1.584,0.208c-0.784,0-1.44-0.272-1.825-0.672
		c-0.448-0.465-0.672-1.217-0.672-2.321v-3.201h-1.041v-1.793h1.041v-1.696L136.775,148.492z"/>
	<path fill="#F1F1F2" d="M141.719,155.423c0.08,1.009,1.072,1.489,2.209,1.489c0.833,0,1.504-0.112,2.161-0.32l0.32,1.648
		c-0.8,0.32-1.777,0.48-2.833,0.48c-2.657,0-4.178-1.537-4.178-3.985c0-1.985,1.232-4.178,3.954-4.178
		c2.529,0,3.489,1.969,3.489,3.905c0,0.416-0.048,0.784-0.08,0.96H141.719z M144.584,153.759c0-0.593-0.256-1.585-1.376-1.585
		c-1.024,0-1.441,0.929-1.505,1.585H144.584z"/>
	<path fill="#F1F1F2" d="M154.168,158.368c-0.432,0.192-1.249,0.353-2.177,0.353c-2.529,0-4.146-1.537-4.146-4.002
		c0-2.289,1.568-4.161,4.482-4.161c0.64,0,1.344,0.111,1.856,0.304l-0.384,1.809c-0.288-0.128-0.72-0.24-1.36-0.24
		c-1.28,0-2.113,0.913-2.097,2.193c0,1.44,0.96,2.192,2.145,2.192c0.576,0,1.024-0.096,1.393-0.239L154.168,158.368z"/>
	<path fill="#F1F1F2" d="M158.023,148.557c0,0.672-0.512,1.217-1.313,1.217c-0.768,0-1.28-0.545-1.264-1.217
		c-0.016-0.704,0.496-1.232,1.28-1.232S158.007,147.853,158.023,148.557z M155.51,158.561v-7.827h2.433v7.827H155.51z"/>
	<path fill="#F1F1F2" d="M159.894,153.23c0-0.977-0.032-1.809-0.064-2.497h2.049l0.112,1.057h0.048
		c0.336-0.496,1.024-1.232,2.369-1.232c1.008,0,1.809,0.512,2.145,1.328h0.032c0.288-0.4,0.64-0.72,1.008-0.944
		c0.433-0.256,0.913-0.384,1.489-0.384c1.505,0,2.641,1.056,2.641,3.394v4.609h-2.369v-4.258c0-1.137-0.368-1.793-1.152-1.793
		c-0.56,0-0.96,0.385-1.121,0.849c-0.064,0.176-0.096,0.433-0.096,0.624v4.578h-2.369v-4.386c0-0.992-0.352-1.665-1.121-1.665
		c-0.624,0-0.992,0.48-1.136,0.881c-0.08,0.192-0.096,0.416-0.096,0.608v4.562h-2.369V153.23z"/>
	<path fill="#F1F1F2" d="M176.167,148.557c0,0.672-0.512,1.217-1.313,1.217c-0.768,0-1.28-0.545-1.264-1.217
		c-0.016-0.704,0.496-1.232,1.28-1.232S176.151,147.853,176.167,148.557z M173.654,158.561v-7.827h2.433v7.827H173.654z"/>
	<path fill="#F1F1F2" d="M179.91,155.423c0.08,1.009,1.072,1.489,2.209,1.489c0.833,0,1.504-0.112,2.161-0.32l0.32,1.648
		c-0.8,0.32-1.777,0.48-2.833,0.48c-2.657,0-4.178-1.537-4.178-3.985c0-1.985,1.232-4.178,3.954-4.178
		c2.529,0,3.489,1.969,3.489,3.905c0,0.416-0.048,0.784-0.08,0.96H179.91z M182.775,153.759c0-0.593-0.256-1.585-1.376-1.585
		c-1.024,0-1.441,0.929-1.505,1.585H182.775z"/>
	<path fill="#F1F1F2" d="M186.486,153.23c0-0.977-0.032-1.809-0.064-2.497h2.113l0.112,1.072h0.048
		c0.32-0.496,1.121-1.248,2.417-1.248c1.601,0,2.801,1.056,2.801,3.361v4.642h-2.433v-4.338c0-1.008-0.352-1.696-1.232-1.696
		c-0.672,0-1.072,0.464-1.232,0.912c-0.064,0.145-0.096,0.384-0.096,0.608v4.514h-2.433V153.23z"/>
	<path fill="#F1F1F2" d="M198.487,148.492v2.241h1.745v1.793h-1.745v2.833c0,0.944,0.224,1.376,0.96,1.376
		c0.304,0,0.544-0.031,0.72-0.063l0.016,1.841c-0.32,0.128-0.896,0.208-1.584,0.208c-0.784,0-1.44-0.272-1.825-0.672
		c-0.448-0.465-0.672-1.217-0.672-2.321v-3.201h-1.041v-1.793h1.041v-1.696L198.487,148.492z"/>
	<path fill="#F1F1F2" d="M209.289,154.559c0,2.865-2.033,4.178-4.13,4.178c-2.289,0-4.049-1.504-4.049-4.033
		s1.665-4.146,4.178-4.146C207.688,150.558,209.289,152.206,209.289,154.559z M203.623,154.639c0,1.345,0.561,2.354,1.601,2.354
		c0.944,0,1.552-0.944,1.552-2.354c0-1.168-0.448-2.353-1.552-2.353C204.055,152.286,203.623,153.486,203.623,154.639z"/>
	<path fill="#F1F1F2" d="M86.425,177.568c-0.432,0.192-1.249,0.353-2.177,0.353c-2.529,0-4.146-1.537-4.146-4.002
		c0-2.289,1.568-4.161,4.482-4.161c0.64,0,1.344,0.111,1.856,0.304l-0.384,1.809c-0.288-0.128-0.72-0.24-1.36-0.24
		c-1.281,0-2.113,0.913-2.097,2.193c0,1.44,0.96,2.192,2.145,2.192c0.576,0,1.024-0.096,1.393-0.239L86.425,177.568z"/>
	<path fill="#F1F1F2" d="M90.279,167.757c0,0.672-0.512,1.217-1.313,1.217c-0.768,0-1.28-0.545-1.264-1.217
		c-0.016-0.704,0.496-1.232,1.28-1.232S90.264,167.053,90.279,167.757z M87.767,177.761v-7.827h2.433v7.827H87.767z"/>
	<path fill="#F1F1F2" d="M99.529,175.248c0,1.024,0.032,1.856,0.064,2.513H97.48l-0.112-1.104H97.32
		c-0.304,0.48-1.041,1.28-2.449,1.28c-1.584,0-2.753-0.992-2.753-3.409v-4.594h2.449v4.21c0,1.136,0.368,1.824,1.216,1.824
		c0.672,0,1.057-0.464,1.216-0.848c0.064-0.145,0.08-0.337,0.08-0.528v-4.658h2.449V175.248z"/>
	<path fill="#F1F1F2" d="M109.065,166.396v9.027c0,0.88,0.032,1.809,0.064,2.337h-2.161l-0.112-1.152h-0.032
		c-0.497,0.88-1.441,1.328-2.449,1.328c-1.857,0-3.345-1.584-3.345-4.018c-0.016-2.641,1.632-4.161,3.505-4.161
		c0.96,0,1.712,0.336,2.065,0.88h0.032v-4.241H109.065z M106.632,173.247c0-0.128-0.016-0.305-0.032-0.433
		c-0.144-0.656-0.672-1.2-1.425-1.2c-1.104,0-1.681,0.992-1.681,2.225c0,1.329,0.656,2.161,1.665,2.161
		c0.705,0,1.265-0.48,1.409-1.168c0.048-0.177,0.064-0.353,0.064-0.561V173.247z"/>
	<path fill="#F1F1F2" d="M115.464,177.761l-0.144-0.784h-0.048c-0.512,0.624-1.313,0.96-2.241,0.96c-1.584,0-2.529-1.152-2.529-2.4
		c0-2.033,1.825-3.01,4.594-2.993v-0.112c0-0.416-0.224-1.009-1.425-1.009c-0.8,0-1.648,0.272-2.161,0.593l-0.448-1.569
		c0.544-0.304,1.617-0.688,3.041-0.688c2.609,0,3.441,1.536,3.441,3.377v2.722c0,0.752,0.032,1.472,0.112,1.904H115.464z
		 M115.176,174.063c-1.281-0.017-2.273,0.288-2.273,1.232c0,0.624,0.416,0.929,0.96,0.929c0.608,0,1.104-0.4,1.264-0.896
		c0.032-0.129,0.048-0.272,0.048-0.417V174.063z"/>
	<path fill="#F1F1F2" d="M127.049,166.396v9.027c0,0.88,0.032,1.809,0.064,2.337h-2.161l-0.112-1.152h-0.032
		c-0.497,0.88-1.441,1.328-2.449,1.328c-1.857,0-3.345-1.584-3.345-4.018c-0.016-2.641,1.632-4.161,3.505-4.161
		c0.96,0,1.712,0.336,2.065,0.88h0.032v-4.241H127.049z M124.616,173.247c0-0.128-0.016-0.305-0.032-0.433
		c-0.144-0.656-0.672-1.2-1.425-1.2c-1.104,0-1.681,0.992-1.681,2.225c0,1.329,0.656,2.161,1.665,2.161
		c0.705,0,1.265-0.48,1.409-1.168c0.048-0.177,0.064-0.353,0.064-0.561V173.247z"/>
	<path fill="#F1F1F2" d="M133.448,177.761l-0.144-0.784h-0.048c-0.512,0.624-1.313,0.96-2.241,0.96c-1.584,0-2.529-1.152-2.529-2.4
		c0-2.033,1.825-3.01,4.594-2.993v-0.112c0-0.416-0.224-1.009-1.425-1.009c-0.8,0-1.648,0.272-2.161,0.593l-0.448-1.569
		c0.544-0.304,1.617-0.688,3.041-0.688c2.609,0,3.441,1.536,3.441,3.377v2.722c0,0.752,0.032,1.472,0.112,1.904H133.448z
		 M133.16,174.063c-1.281-0.017-2.273,0.288-2.273,1.232c0,0.624,0.416,0.929,0.96,0.929c0.608,0,1.104-0.4,1.264-0.896
		c0.032-0.129,0.048-0.272,0.048-0.417V174.063z"/>
	<path fill="#F1F1F2" d="M137.447,172.431c0-0.977-0.032-1.809-0.064-2.497h2.113l0.112,1.072h0.048
		c0.32-0.496,1.121-1.248,2.417-1.248c1.601,0,2.801,1.056,2.801,3.361v4.642h-2.433v-4.338c0-1.008-0.352-1.696-1.232-1.696
		c-0.672,0-1.072,0.464-1.232,0.912c-0.064,0.145-0.096,0.384-0.096,0.608v4.514h-2.433V172.431z"/>
	<path fill="#F1F1F2" d="M154.554,173.759c0,2.865-2.033,4.178-4.13,4.178c-2.289,0-4.049-1.504-4.049-4.033
		s1.665-4.146,4.178-4.146C152.953,169.758,154.554,171.406,154.554,173.759z M148.887,173.839c0,1.345,0.561,2.354,1.601,2.354
		c0.944,0,1.552-0.944,1.552-2.354c0-1.168-0.448-2.353-1.552-2.353C149.32,171.486,148.887,172.687,148.887,173.839z"/>
	<path fill="#F1F1F2" d="M155.334,176.464c0-0.864,0.592-1.488,1.44-1.488c0.849,0,1.425,0.608,1.425,1.488
		c0,0.849-0.576,1.473-1.44,1.473C155.927,177.937,155.334,177.313,155.334,176.464z"/>
</g>
<g>
	<rect x="274.574" y="128" fill="none" width="179.133" height="66.333"/>
	<path fill="#F1F1F2" d="M275.631,128.716c0.752-0.128,1.809-0.224,3.297-0.224c1.504,0,2.577,0.288,3.297,0.864
		c0.688,0.544,1.153,1.44,1.153,2.497c0,1.056-0.352,1.953-0.993,2.561c-0.832,0.784-2.065,1.136-3.505,1.136
		c-0.32,0-0.608-0.016-0.832-0.048v3.857h-2.417V128.716z M278.048,133.614c0.208,0.048,0.464,0.064,0.816,0.064
		c1.297,0,2.097-0.656,2.097-1.761c0-0.993-0.688-1.585-1.905-1.585c-0.496,0-0.833,0.048-1.008,0.096V133.614z"/>
	<path fill="#F1F1F2" d="M289.009,139.36l-0.144-0.784h-0.048c-0.512,0.624-1.313,0.96-2.241,0.96c-1.584,0-2.529-1.152-2.529-2.401
		c0-2.033,1.825-3.009,4.594-2.993v-0.112c0-0.416-0.224-1.008-1.425-1.008c-0.8,0-1.648,0.272-2.161,0.592l-0.448-1.569
		c0.544-0.304,1.617-0.688,3.041-0.688c2.609,0,3.441,1.537,3.441,3.377v2.721c0,0.752,0.032,1.473,0.112,1.905H289.009z
		 M288.721,135.663c-1.281-0.016-2.273,0.288-2.273,1.232c0,0.624,0.416,0.928,0.96,0.928c0.608,0,1.104-0.4,1.264-0.896
		c0.032-0.128,0.048-0.272,0.048-0.416V135.663z"/>
	<path fill="#F1F1F2" d="M292.99,137.231c0.448,0.272,1.376,0.592,2.097,0.592c0.736,0,1.041-0.256,1.041-0.656
		c0-0.4-0.24-0.592-1.152-0.896c-1.617-0.544-2.241-1.424-2.225-2.353c0-1.457,1.249-2.561,3.186-2.561
		c0.912,0,1.729,0.208,2.208,0.448l-0.432,1.681c-0.352-0.192-1.024-0.448-1.696-0.448c-0.592,0-0.929,0.24-0.929,0.641
		c0,0.368,0.304,0.56,1.265,0.896c1.489,0.512,2.113,1.265,2.129,2.417c0,1.457-1.152,2.529-3.394,2.529
		c-1.024,0-1.937-0.224-2.529-0.544L292.99,137.231z"/>
	<path fill="#F1F1F2" d="M307.682,135.359c0,2.865-2.033,4.177-4.13,4.177c-2.289,0-4.049-1.504-4.049-4.033
		c0-2.529,1.665-4.146,4.178-4.146C306.081,131.357,307.682,133.006,307.682,135.359z M302.015,135.439
		c0,1.344,0.561,2.353,1.601,2.353c0.944,0,1.552-0.944,1.552-2.353c0-1.168-0.448-2.353-1.552-2.353
		C302.448,133.086,302.015,134.286,302.015,135.439z"/>
	<path fill="#F1F1F2" d="M312.11,139.36v-1.473l1.344-1.216c2.273-2.033,3.377-3.202,3.41-4.418c0-0.848-0.512-1.521-1.713-1.521
		c-0.896,0-1.681,0.448-2.225,0.864l-0.688-1.745c0.784-0.592,2.001-1.072,3.409-1.072c2.353,0,3.65,1.376,3.65,3.265
		c0,1.745-1.265,3.137-2.77,4.482l-0.96,0.8v0.032h3.921v2.001H312.11z"/>
	<path fill="#F1F1F2" d="M321.118,138.064c0-0.864,0.592-1.489,1.44-1.489c0.849,0,1.425,0.608,1.425,1.489
		c0,0.848-0.576,1.472-1.44,1.472C321.71,139.536,321.118,138.912,321.118,138.064z"/>
	<path fill="#F1F1F2" d="M328.766,128.716c0.752-0.128,1.809-0.224,3.297-0.224c1.505,0,2.577,0.288,3.297,0.864
		c0.688,0.544,1.153,1.44,1.153,2.497c0,1.056-0.353,1.953-0.993,2.561c-0.832,0.784-2.065,1.136-3.505,1.136
		c-0.32,0-0.608-0.016-0.832-0.048v3.857h-2.417V128.716z M331.183,133.614c0.208,0.048,0.464,0.064,0.816,0.064
		c1.297,0,2.097-0.656,2.097-1.761c0-0.993-0.688-1.585-1.905-1.585c-0.496,0-0.833,0.048-1.008,0.096V133.614z"/>
	<path fill="#F1F1F2" d="M342.144,139.36L342,138.576h-0.048c-0.512,0.624-1.313,0.96-2.241,0.96c-1.584,0-2.529-1.152-2.529-2.401
		c0-2.033,1.825-3.009,4.594-2.993v-0.112c0-0.416-0.224-1.008-1.425-1.008c-0.8,0-1.648,0.272-2.161,0.592l-0.448-1.569
		c0.544-0.304,1.617-0.688,3.041-0.688c2.609,0,3.441,1.537,3.441,3.377v2.721c0,0.752,0.032,1.473,0.112,1.905H342.144z
		 M341.855,135.663c-1.281-0.016-2.273,0.288-2.273,1.232c0,0.624,0.416,0.928,0.96,0.928c0.608,0,1.104-0.4,1.264-0.896
		c0.032-0.128,0.048-0.272,0.048-0.416V135.663z"/>
	<path fill="#F1F1F2" d="M346.142,134.11c0-1.152-0.032-1.905-0.064-2.577h2.097l0.08,1.44h0.064c0.4-1.136,1.36-1.617,2.113-1.617
		c0.224,0,0.336,0,0.512,0.032v2.289c-0.176-0.032-0.384-0.064-0.656-0.064c-0.896,0-1.504,0.48-1.665,1.232
		c-0.032,0.16-0.048,0.352-0.048,0.544v3.97h-2.433V134.11z"/>
	<path fill="#F1F1F2" d="M355.278,129.292v2.241h1.745v1.792h-1.745v2.833c0,0.944,0.224,1.376,0.96,1.376
		c0.304,0,0.544-0.032,0.721-0.064l0.016,1.841c-0.32,0.128-0.896,0.208-1.584,0.208c-0.784,0-1.44-0.272-1.825-0.672
		c-0.448-0.464-0.672-1.216-0.672-2.321v-3.202h-1.041v-1.792h1.041v-1.697L355.278,129.292z"/>
	<path fill="#F1F1F2" d="M360.942,129.356c0,0.672-0.512,1.216-1.313,1.216c-0.768,0-1.28-0.544-1.264-1.216
		c-0.016-0.705,0.496-1.232,1.28-1.232S360.927,128.652,360.942,129.356z M358.43,139.36v-7.827h2.433v7.827H358.43z"/>
	<path fill="#F1F1F2" d="M368.688,139.168c-0.432,0.192-1.249,0.352-2.177,0.352c-2.529,0-4.146-1.537-4.146-4.002
		c0-2.289,1.568-4.162,4.482-4.162c0.64,0,1.344,0.112,1.856,0.304l-0.384,1.809c-0.288-0.128-0.72-0.24-1.36-0.24
		c-1.281,0-2.113,0.912-2.097,2.193c0,1.44,0.96,2.193,2.145,2.193c0.576,0,1.024-0.096,1.393-0.24L368.688,139.168z"/>
	<path fill="#F1F1F2" d="M372.542,129.356c0,0.672-0.512,1.216-1.313,1.216c-0.768,0-1.28-0.544-1.264-1.216
		c-0.016-0.705,0.496-1.232,1.28-1.232S372.526,128.652,372.542,129.356z M370.029,139.36v-7.827h2.433v7.827H370.029z"/>
	<path fill="#F1F1F2" d="M374.413,134.158c0-1.024-0.032-1.905-0.064-2.625h2.113l0.112,1.088h0.032
		c0.576-0.833,1.473-1.265,2.609-1.265c1.713,0,3.25,1.489,3.25,3.986c0,2.849-1.809,4.193-3.554,4.193
		c-0.944,0-1.681-0.384-2.033-0.896h-0.032v3.889h-2.433V134.158z M376.846,135.999c0,0.192,0.016,0.368,0.048,0.512
		c0.16,0.656,0.72,1.152,1.424,1.152c1.057,0,1.681-0.88,1.681-2.209c0-1.249-0.56-2.193-1.648-2.193
		c-0.688,0-1.296,0.512-1.457,1.232c-0.032,0.128-0.048,0.289-0.048,0.433V135.999z"/>
	<path fill="#F1F1F2" d="M385.901,136.223c0.08,1.008,1.072,1.489,2.209,1.489c0.833,0,1.504-0.112,2.161-0.32l0.32,1.648
		c-0.8,0.32-1.777,0.48-2.833,0.48c-2.657,0-4.178-1.537-4.178-3.986c0-1.985,1.232-4.178,3.954-4.178
		c2.529,0,3.489,1.969,3.489,3.906c0,0.416-0.048,0.784-0.08,0.96H385.901z M388.767,134.559c0-0.592-0.256-1.585-1.376-1.585
		c-1.024,0-1.441,0.929-1.505,1.585H388.767z"/>
	<path fill="#F1F1F2" d="M397.581,136.223c0.08,1.008,1.072,1.489,2.209,1.489c0.833,0,1.505-0.112,2.161-0.32l0.32,1.648
		c-0.801,0.32-1.777,0.48-2.834,0.48c-2.657,0-4.177-1.537-4.177-3.986c0-1.985,1.232-4.178,3.954-4.178
		c2.528,0,3.489,1.969,3.489,3.906c0,0.416-0.048,0.784-0.08,0.96H397.581z M400.446,134.559c0-0.592-0.257-1.585-1.376-1.585
		c-1.025,0-1.441,0.929-1.505,1.585H400.446z"/>
	<path fill="#F1F1F2" d="M404.156,134.03c0-0.977-0.032-1.809-0.064-2.497h2.113l0.111,1.072h0.049
		c0.32-0.496,1.12-1.249,2.416-1.249c1.602,0,2.802,1.057,2.802,3.361v4.642h-2.433v-4.338c0-1.008-0.353-1.697-1.232-1.697
		c-0.673,0-1.072,0.464-1.232,0.913c-0.064,0.144-0.097,0.384-0.097,0.608v4.514h-2.433V134.03z"/>
	<path fill="#F1F1F2" d="M418.637,136.223c0.08,1.008,1.072,1.489,2.209,1.489c0.832,0,1.504-0.112,2.16-0.32l0.32,1.648
		c-0.8,0.32-1.776,0.48-2.832,0.48c-2.658,0-4.178-1.537-4.178-3.986c0-1.985,1.232-4.178,3.953-4.178
		c2.529,0,3.489,1.969,3.489,3.906c0,0.416-0.048,0.784-0.08,0.96H418.637z M421.502,134.559c0-0.592-0.256-1.585-1.377-1.585
		c-1.023,0-1.44,0.929-1.504,1.585H421.502z"/>
	<path fill="#F1F1F2" d="M425.212,127.996h2.433v11.365h-2.433V127.996z"/>
	<path fill="#F1F1F2" d="M278.271,148.492v2.241h1.745v1.793h-1.745v2.833c0,0.944,0.224,1.376,0.96,1.376
		c0.304,0,0.544-0.031,0.721-0.063l0.016,1.841c-0.32,0.128-0.896,0.208-1.584,0.208c-0.784,0-1.44-0.272-1.825-0.672
		c-0.448-0.465-0.672-1.217-0.672-2.321v-3.201h-1.041v-1.793h1.041v-1.696L278.271,148.492z"/>
	<path fill="#F1F1F2" d="M285.872,158.561l-0.144-0.784h-0.048c-0.512,0.624-1.313,0.96-2.241,0.96c-1.584,0-2.529-1.152-2.529-2.4
		c0-2.033,1.825-3.01,4.594-2.993v-0.112c0-0.416-0.224-1.009-1.425-1.009c-0.8,0-1.648,0.272-2.161,0.593l-0.448-1.569
		c0.544-0.304,1.617-0.688,3.041-0.688c2.609,0,3.441,1.536,3.441,3.377v2.722c0,0.752,0.032,1.472,0.112,1.904H285.872z
		 M285.584,154.863c-1.281-0.017-2.273,0.288-2.273,1.232c0,0.624,0.416,0.928,0.96,0.928c0.608,0,1.104-0.399,1.264-0.896
		c0.032-0.128,0.048-0.272,0.048-0.417V154.863z"/>
	<path fill="#F1F1F2" d="M289.871,147.196h2.433v11.364h-2.433V147.196z"/>
	<path fill="#F1F1F2" d="M294.271,147.196h2.433v11.364h-2.433V147.196z"/>
	<path fill="#F1F1F2" d="M300.543,155.423c0.08,1.009,1.072,1.489,2.209,1.489c0.833,0,1.504-0.112,2.161-0.32l0.32,1.648
		c-0.8,0.32-1.777,0.48-2.833,0.48c-2.657,0-4.178-1.537-4.178-3.985c0-1.985,1.232-4.178,3.954-4.178
		c2.529,0,3.489,1.969,3.489,3.905c0,0.416-0.048,0.784-0.08,0.96H300.543z M303.408,153.759c0-0.593-0.256-1.585-1.376-1.585
		c-1.024,0-1.441,0.929-1.505,1.585H303.408z"/>
	<path fill="#F1F1F2" d="M307.119,153.311c0-1.152-0.032-1.905-0.064-2.577h2.097l0.08,1.44h0.064c0.4-1.137,1.36-1.616,2.113-1.616
		c0.224,0,0.336,0,0.512,0.031v2.289c-0.176-0.031-0.384-0.063-0.656-0.063c-0.896,0-1.504,0.479-1.665,1.232
		c-0.032,0.16-0.048,0.352-0.048,0.544v3.97h-2.433V153.311z"/>
	<path fill="#F1F1F2" d="M324.018,147.196v9.027c0,0.88,0.032,1.809,0.064,2.337h-2.161l-0.112-1.152h-0.032
		c-0.497,0.88-1.441,1.328-2.449,1.328c-1.857,0-3.345-1.584-3.345-4.018c-0.016-2.641,1.632-4.161,3.505-4.161
		c0.96,0,1.712,0.336,2.065,0.88h0.032v-4.241H324.018z M321.584,154.047c0-0.128-0.016-0.305-0.032-0.433
		c-0.144-0.656-0.672-1.2-1.425-1.2c-1.104,0-1.681,0.992-1.681,2.225c0,1.329,0.656,2.161,1.665,2.161
		c0.705,0,1.265-0.48,1.409-1.168c0.048-0.177,0.064-0.353,0.064-0.561V154.047z"/>
	<path fill="#F1F1F2" d="M327.839,155.423c0.08,1.009,1.072,1.489,2.209,1.489c0.833,0,1.504-0.112,2.161-0.32l0.32,1.648
		c-0.8,0.32-1.777,0.48-2.833,0.48c-2.657,0-4.178-1.537-4.178-3.985c0-1.985,1.232-4.178,3.954-4.178
		c2.529,0,3.489,1.969,3.489,3.905c0,0.416-0.048,0.784-0.08,0.96H327.839z M330.704,153.759c0-0.593-0.256-1.585-1.376-1.585
		c-1.024,0-1.441,0.929-1.505,1.585H330.704z"/>
	<path fill="#F1F1F2" d="M337.646,153.23c0-0.977-0.032-1.809-0.064-2.497h2.049l0.112,1.057h0.048
		c0.336-0.496,1.024-1.232,2.369-1.232c1.008,0,1.809,0.512,2.145,1.328h0.032c0.288-0.4,0.64-0.72,1.008-0.944
		c0.433-0.256,0.913-0.384,1.489-0.384c1.505,0,2.641,1.056,2.641,3.394v4.609h-2.369v-4.258c0-1.137-0.368-1.793-1.152-1.793
		c-0.56,0-0.96,0.385-1.121,0.849c-0.064,0.176-0.096,0.433-0.096,0.624v4.578h-2.369v-4.386c0-0.992-0.352-1.665-1.121-1.665
		c-0.624,0-0.992,0.48-1.136,0.881c-0.08,0.192-0.096,0.416-0.096,0.608v4.562h-2.369V153.23z"/>
	<path fill="#F1F1F2" d="M355.856,158.561l-0.144-0.784h-0.048c-0.512,0.624-1.313,0.96-2.241,0.96c-1.584,0-2.529-1.152-2.529-2.4
		c0-2.033,1.825-3.01,4.594-2.993v-0.112c0-0.416-0.224-1.009-1.425-1.009c-0.8,0-1.648,0.272-2.161,0.593l-0.448-1.569
		c0.544-0.304,1.617-0.688,3.041-0.688c2.609,0,3.441,1.536,3.441,3.377v2.722c0,0.752,0.032,1.472,0.112,1.904H355.856z
		 M355.568,154.863c-1.281-0.017-2.273,0.288-2.273,1.232c0,0.624,0.416,0.928,0.96,0.928c0.608,0,1.104-0.399,1.264-0.896
		c0.032-0.128,0.048-0.272,0.048-0.417V154.863z"/>
	<path fill="#F1F1F2" d="M367.441,147.196v9.027c0,0.88,0.032,1.809,0.064,2.337h-2.161l-0.112-1.152H365.2
		c-0.497,0.88-1.441,1.328-2.449,1.328c-1.857,0-3.345-1.584-3.345-4.018c-0.016-2.641,1.632-4.161,3.505-4.161
		c0.96,0,1.712,0.336,2.065,0.88h0.032v-4.241H367.441z M365.008,154.047c0-0.128-0.016-0.305-0.032-0.433
		c-0.144-0.656-0.672-1.2-1.425-1.2c-1.104,0-1.681,0.992-1.681,2.225c0,1.329,0.656,2.161,1.665,2.161
		c0.705,0,1.265-0.48,1.409-1.168c0.048-0.177,0.064-0.353,0.064-0.561V154.047z"/>
	<path fill="#F1F1F2" d="M376.769,156.048c0,1.024,0.032,1.856,0.064,2.513h-2.113l-0.112-1.104h-0.048
		c-0.304,0.48-1.041,1.28-2.449,1.28c-1.584,0-2.753-0.992-2.753-3.409v-4.594h2.449v4.21c0,1.136,0.368,1.824,1.216,1.824
		c0.672,0,1.057-0.464,1.216-0.848c0.064-0.145,0.08-0.337,0.08-0.528v-4.658h2.449V156.048z"/>
	<path fill="#F1F1F2" d="M378.718,153.311c0-1.152-0.032-1.905-0.064-2.577h2.097l0.08,1.44h0.064c0.4-1.137,1.36-1.616,2.113-1.616
		c0.224,0,0.336,0,0.512,0.031v2.289c-0.176-0.031-0.384-0.063-0.656-0.063c-0.896,0-1.504,0.479-1.665,1.232
		c-0.032,0.16-0.048,0.352-0.048,0.544v3.97h-2.433V153.311z"/>
	<path fill="#F1F1F2" d="M389.072,158.561l-0.144-0.784h-0.048c-0.512,0.624-1.313,0.96-2.241,0.96c-1.584,0-2.529-1.152-2.529-2.4
		c0-2.033,1.825-3.01,4.594-2.993v-0.112c0-0.416-0.224-1.009-1.425-1.009c-0.8,0-1.648,0.272-2.161,0.593l-0.448-1.569
		c0.544-0.304,1.617-0.688,3.041-0.688c2.609,0,3.441,1.536,3.441,3.377v2.722c0,0.752,0.032,1.472,0.112,1.904H389.072z
		 M388.784,154.863c-1.281-0.017-2.273,0.288-2.273,1.232c0,0.624,0.416,0.928,0.96,0.928c0.608,0,1.104-0.399,1.264-0.896
		c0.032-0.128,0.048-0.272,0.048-0.417V154.863z"/>
	<path fill="#F1F1F2" d="M398.945,158.368c-0.432,0.192-1.249,0.353-2.177,0.353c-2.529,0-4.146-1.537-4.146-4.002
		c0-2.289,1.568-4.161,4.482-4.161c0.64,0,1.344,0.111,1.856,0.304l-0.384,1.809c-0.288-0.128-0.72-0.24-1.36-0.24
		c-1.28,0-2.113,0.913-2.097,2.193c0,1.44,0.96,2.192,2.145,2.192c0.576,0,1.024-0.096,1.393-0.239L398.945,158.368z"/>
	<path fill="#F1F1F2" d="M402.799,148.557c0,0.672-0.512,1.217-1.313,1.217c-0.768,0-1.279-0.545-1.264-1.217
		c-0.016-0.704,0.496-1.232,1.28-1.232S402.783,147.853,402.799,148.557z M400.287,158.561v-7.827h2.432v7.827H400.287z"/>
	<path fill="#F1F1F2" d="M412.401,154.559c0,2.865-2.032,4.178-4.13,4.178c-2.289,0-4.049-1.504-4.049-4.033
		s1.664-4.146,4.178-4.146C410.801,150.558,412.401,152.206,412.401,154.559z M406.734,154.639c0,1.345,0.561,2.354,1.602,2.354
		c0.944,0,1.553-0.944,1.553-2.354c0-1.168-0.449-2.353-1.553-2.353C407.168,152.286,406.734,153.486,406.734,154.639z
		 M410.865,147.324l-1.953,2.433h-1.681l1.376-2.433H410.865z"/>
	<path fill="#F1F1F2" d="M413.902,153.23c0-0.977-0.032-1.809-0.064-2.497h2.113l0.111,1.072h0.049
		c0.32-0.496,1.12-1.248,2.416-1.248c1.602,0,2.802,1.056,2.802,3.361v4.642h-2.433v-4.338c0-1.008-0.353-1.696-1.232-1.696
		c-0.673,0-1.072,0.464-1.232,0.912c-0.064,0.145-0.097,0.384-0.097,0.608v4.514h-2.433V153.23z"/>
	<path fill="#F1F1F2" d="M423.102,157.264c0-0.864,0.593-1.488,1.441-1.488c0.848,0,1.424,0.608,1.424,1.488
		c0,0.849-0.576,1.473-1.439,1.473C423.694,158.736,423.102,158.112,423.102,157.264z"/>
</g>
<g>
	<rect x="469.574" y="128" fill="none" width="179.133" height="66.333"/>
	<path fill="#F1F1F2" d="M470.631,128.716c0.752-0.128,1.809-0.224,3.297-0.224c1.505,0,2.577,0.288,3.297,0.864
		c0.689,0.544,1.153,1.44,1.153,2.497c0,1.056-0.353,1.953-0.993,2.561c-0.832,0.784-2.064,1.136-3.505,1.136
		c-0.319,0-0.608-0.016-0.832-0.048v3.857h-2.417V128.716z M473.048,133.614c0.208,0.048,0.464,0.064,0.815,0.064
		c1.297,0,2.098-0.656,2.098-1.761c0-0.993-0.688-1.585-1.904-1.585c-0.496,0-0.833,0.048-1.009,0.096V133.614z"/>
	<path fill="#F1F1F2" d="M484.009,139.36l-0.144-0.784h-0.049c-0.512,0.624-1.313,0.96-2.24,0.96c-1.585,0-2.529-1.152-2.529-2.401
		c0-2.033,1.824-3.009,4.594-2.993v-0.112c0-0.416-0.225-1.008-1.425-1.008c-0.8,0-1.648,0.272-2.161,0.592l-0.447-1.569
		c0.544-0.304,1.616-0.688,3.041-0.688c2.609,0,3.441,1.537,3.441,3.377v2.721c0,0.752,0.031,1.473,0.111,1.905H484.009z
		 M483.721,135.663c-1.281-0.016-2.273,0.288-2.273,1.232c0,0.624,0.416,0.928,0.961,0.928c0.607,0,1.104-0.4,1.264-0.896
		c0.033-0.128,0.049-0.272,0.049-0.416V135.663z"/>
	<path fill="#F1F1F2" d="M487.99,137.231c0.448,0.272,1.377,0.592,2.097,0.592c0.736,0,1.04-0.256,1.04-0.656
		c0-0.4-0.24-0.592-1.152-0.896c-1.616-0.544-2.24-1.424-2.225-2.353c0-1.457,1.248-2.561,3.186-2.561
		c0.912,0,1.729,0.208,2.209,0.448l-0.433,1.681c-0.353-0.192-1.024-0.448-1.696-0.448c-0.592,0-0.929,0.24-0.929,0.641
		c0,0.368,0.304,0.56,1.265,0.896c1.488,0.512,2.113,1.265,2.129,2.417c0,1.457-1.152,2.529-3.394,2.529
		c-1.024,0-1.937-0.224-2.528-0.544L487.99,137.231z"/>
	<path fill="#F1F1F2" d="M502.682,135.359c0,2.865-2.033,4.177-4.13,4.177c-2.288,0-4.05-1.504-4.05-4.033
		c0-2.529,1.665-4.146,4.178-4.146C501.081,131.357,502.682,133.006,502.682,135.359z M497.016,135.439
		c0,1.344,0.561,2.353,1.601,2.353c0.944,0,1.552-0.944,1.552-2.353c0-1.168-0.447-2.353-1.552-2.353
		C497.447,133.086,497.016,134.286,497.016,135.439z"/>
	<path fill="#F1F1F2" d="M507.543,136.976c0.432,0.224,1.424,0.64,2.416,0.64c1.266,0,1.905-0.608,1.905-1.393
		c0-1.024-1.024-1.489-2.097-1.489h-0.992v-1.745h0.943c0.816-0.016,1.857-0.32,1.857-1.201c0-0.624-0.512-1.088-1.537-1.088
		c-0.848,0-1.744,0.368-2.176,0.625l-0.497-1.761c0.624-0.4,1.873-0.784,3.218-0.784c2.225,0,3.457,1.168,3.457,2.593
		c0,1.104-0.624,1.969-1.904,2.417v0.032c1.248,0.224,2.256,1.168,2.256,2.529c0,1.841-1.616,3.185-4.258,3.185
		c-1.344,0-2.48-0.352-3.088-0.736L507.543,136.976z"/>
	<path fill="#F1F1F2" d="M516.118,138.064c0-0.864,0.593-1.489,1.44-1.489c0.849,0,1.425,0.608,1.425,1.489
		c0,0.848-0.576,1.472-1.44,1.472C516.711,139.536,516.118,138.912,516.118,138.064z"/>
	<path fill="#F1F1F2" d="M523.766,128.716c0.896-0.144,2.064-0.224,3.297-0.224c2.049,0,3.378,0.368,4.418,1.152
		c1.121,0.832,1.825,2.161,1.825,4.065c0,2.065-0.753,3.49-1.792,4.37c-1.137,0.944-2.865,1.393-4.979,1.393
		c-1.265,0-2.161-0.08-2.77-0.16V128.716z M526.215,137.52c0.208,0.048,0.545,0.048,0.848,0.048c2.209,0.016,3.65-1.2,3.65-3.777
		c0.016-2.241-1.297-3.425-3.394-3.425c-0.544,0-0.896,0.048-1.104,0.096V137.52z"/>
	<path fill="#F1F1F2" d="M536.694,136.223c0.08,1.008,1.072,1.489,2.209,1.489c0.833,0,1.505-0.112,2.161-0.32l0.32,1.648
		c-0.801,0.32-1.777,0.48-2.834,0.48c-2.656,0-4.178-1.537-4.178-3.986c0-1.985,1.232-4.178,3.954-4.178
		c2.528,0,3.489,1.969,3.489,3.906c0,0.416-0.048,0.784-0.08,0.96H536.694z M539.56,134.559c0-0.592-0.257-1.585-1.376-1.585
		c-1.025,0-1.441,0.929-1.506,1.585H539.56z"/>
	<path fill="#F1F1F2" d="M543.254,137.231c0.448,0.272,1.377,0.592,2.097,0.592c0.736,0,1.04-0.256,1.04-0.656
		c0-0.4-0.24-0.592-1.152-0.896c-1.616-0.544-2.24-1.424-2.225-2.353c0-1.457,1.248-2.561,3.186-2.561
		c0.912,0,1.729,0.208,2.209,0.448l-0.433,1.681c-0.353-0.192-1.024-0.448-1.696-0.448c-0.592,0-0.929,0.24-0.929,0.641
		c0,0.368,0.304,0.56,1.265,0.896c1.488,0.512,2.113,1.265,2.129,2.417c0,1.457-1.152,2.529-3.394,2.529
		c-1.024,0-1.937-0.224-2.528-0.544L543.254,137.231z"/>
	<path fill="#F1F1F2" d="M554.664,139.36l-0.145-0.784h-0.048c-0.513,0.624-1.313,0.96-2.241,0.96c-1.584,0-2.528-1.152-2.528-2.401
		c0-2.033,1.825-3.009,4.594-2.993v-0.112c0-0.416-0.224-1.008-1.425-1.008c-0.801,0-1.648,0.272-2.16,0.592l-0.449-1.569
		c0.545-0.304,1.617-0.688,3.041-0.688c2.609,0,3.441,1.537,3.441,3.377v2.721c0,0.752,0.033,1.473,0.113,1.905H554.664z
		 M554.376,135.663c-1.28-0.016-2.272,0.288-2.272,1.232c0,0.624,0.416,0.928,0.96,0.928c0.608,0,1.104-0.4,1.265-0.896
		c0.031-0.128,0.048-0.272,0.048-0.416V135.663z"/>
	<path fill="#F1F1F2" d="M558.662,134.11c0-1.152-0.033-1.905-0.064-2.577h2.097l0.08,1.44h0.063c0.4-1.136,1.361-1.617,2.113-1.617
		c0.225,0,0.336,0,0.512,0.032v2.289c-0.176-0.032-0.384-0.064-0.656-0.064c-0.896,0-1.504,0.48-1.664,1.232
		c-0.032,0.16-0.049,0.352-0.049,0.544v3.97h-2.432V134.11z"/>
	<path fill="#F1F1F2" d="M564.742,134.11c0-1.152-0.033-1.905-0.064-2.577h2.097l0.08,1.44h0.063c0.4-1.136,1.361-1.617,2.113-1.617
		c0.225,0,0.336,0,0.512,0.032v2.289c-0.176-0.032-0.384-0.064-0.656-0.064c-0.896,0-1.504,0.48-1.664,1.232
		c-0.032,0.16-0.049,0.352-0.049,0.544v3.97h-2.432V134.11z"/>
	<path fill="#F1F1F2" d="M578.425,135.359c0,2.865-2.032,4.177-4.13,4.177c-2.289,0-4.049-1.504-4.049-4.033
		c0-2.529,1.664-4.146,4.178-4.146C576.824,131.357,578.425,133.006,578.425,135.359z M572.758,135.439
		c0,1.344,0.561,2.353,1.602,2.353c0.944,0,1.553-0.944,1.553-2.353c0-1.168-0.449-2.353-1.553-2.353
		C573.191,133.086,572.758,134.286,572.758,135.439z"/>
	<path fill="#F1F1F2" d="M579.926,127.996h2.434v11.365h-2.434V127.996z"/>
	<path fill="#F1F1F2" d="M584.326,127.996h2.432v11.365h-2.432V127.996z"/>
	<path fill="#F1F1F2" d="M596.457,135.359c0,2.865-2.033,4.177-4.13,4.177c-2.288,0-4.05-1.504-4.05-4.033
		c0-2.529,1.665-4.146,4.178-4.146C594.856,131.357,596.457,133.006,596.457,135.359z M590.791,135.439
		c0,1.344,0.561,2.353,1.601,2.353c0.944,0,1.552-0.944,1.552-2.353c0-1.168-0.447-2.353-1.552-2.353
		C591.223,133.086,590.791,134.286,590.791,135.439z"/>
	<path fill="#F1F1F2" d="M608.777,127.996v9.028c0,0.88,0.031,1.809,0.063,2.337h-2.161l-0.111-1.152h-0.032
		c-0.497,0.88-1.44,1.328-2.449,1.328c-1.856,0-3.345-1.584-3.345-4.018c-0.017-2.641,1.632-4.162,3.505-4.162
		c0.96,0,1.712,0.336,2.065,0.88h0.031v-4.242H608.777z M606.344,134.847c0-0.128-0.016-0.304-0.031-0.432
		c-0.145-0.656-0.673-1.201-1.426-1.201c-1.104,0-1.68,0.992-1.68,2.225c0,1.328,0.656,2.161,1.664,2.161
		c0.705,0,1.265-0.48,1.408-1.168c0.049-0.176,0.064-0.352,0.064-0.56V134.847z"/>
	<path fill="#F1F1F2" d="M612.598,136.223c0.08,1.008,1.072,1.489,2.209,1.489c0.832,0,1.504-0.112,2.16-0.32l0.32,1.648
		c-0.8,0.32-1.776,0.48-2.832,0.48c-2.658,0-4.178-1.537-4.178-3.986c0-1.985,1.232-4.178,3.953-4.178
		c2.529,0,3.489,1.969,3.489,3.906c0,0.416-0.048,0.784-0.08,0.96H612.598z M615.463,134.559c0-0.592-0.256-1.585-1.377-1.585
		c-1.023,0-1.44,0.929-1.504,1.585H615.463z"/>
	<path fill="#F1F1F2" d="M619.174,127.996h2.432v11.365h-2.432V127.996z"/>
	<path fill="#F1F1F2" d="M475,158.561l-0.144-0.784h-0.048c-0.513,0.624-1.313,0.96-2.241,0.96c-1.585,0-2.528-1.152-2.528-2.4
		c0-2.033,1.824-3.01,4.594-2.993v-0.112c0-0.416-0.225-1.009-1.426-1.009c-0.8,0-1.648,0.272-2.16,0.593l-0.448-1.569
		c0.544-0.304,1.616-0.688,3.041-0.688c2.609,0,3.441,1.536,3.441,3.377v2.722c0,0.752,0.032,1.472,0.112,1.904H475z
		 M474.713,154.863c-1.281-0.017-2.273,0.288-2.273,1.232c0,0.624,0.416,0.928,0.961,0.928c0.607,0,1.104-0.399,1.264-0.896
		c0.032-0.128,0.049-0.272,0.049-0.417V154.863z"/>
	<path fill="#F1F1F2" d="M484.873,158.368c-0.433,0.192-1.249,0.353-2.178,0.353c-2.528,0-4.145-1.537-4.145-4.002
		c0-2.289,1.568-4.161,4.481-4.161c0.64,0,1.345,0.111,1.856,0.304l-0.385,1.809c-0.287-0.128-0.72-0.24-1.359-0.24
		c-1.281,0-2.113,0.913-2.098,2.193c0,1.44,0.961,2.192,2.145,2.192c0.576,0,1.025-0.096,1.393-0.239L484.873,158.368z"/>
	<path fill="#F1F1F2" d="M493.77,154.559c0,2.865-2.033,4.178-4.13,4.178c-2.288,0-4.05-1.504-4.05-4.033s1.665-4.146,4.178-4.146
		C492.169,150.558,493.77,152.206,493.77,154.559z M488.104,154.639c0,1.345,0.561,2.354,1.601,2.354
		c0.944,0,1.552-0.944,1.552-2.354c0-1.168-0.447-2.353-1.552-2.353C488.535,152.286,488.104,153.486,488.104,154.639z"/>
	<path fill="#F1F1F2" d="M495.271,153.23c0-0.977-0.032-1.809-0.063-2.497h2.112l0.112,1.072h0.047
		c0.32-0.496,1.121-1.248,2.418-1.248c1.601,0,2.801,1.056,2.801,3.361v4.642h-2.434v-4.338c0-1.008-0.352-1.696-1.232-1.696
		c-0.672,0-1.072,0.464-1.232,0.912c-0.063,0.145-0.096,0.384-0.096,0.608v4.514h-2.433V153.23z"/>
	<path fill="#F1F1F2" d="M507.271,148.492v2.241h1.744v1.793h-1.744v2.833c0,0.944,0.224,1.376,0.96,1.376
		c0.304,0,0.544-0.031,0.72-0.063l0.017,1.841c-0.319,0.128-0.896,0.208-1.585,0.208c-0.783,0-1.439-0.272-1.824-0.672
		c-0.448-0.465-0.672-1.217-0.672-2.321v-3.201h-1.041v-1.793h1.041v-1.696L507.271,148.492z"/>
	<path fill="#F1F1F2" d="M512.215,155.423c0.08,1.009,1.072,1.489,2.209,1.489c0.832,0,1.504-0.112,2.16-0.32l0.32,1.648
		c-0.8,0.32-1.776,0.48-2.832,0.48c-2.658,0-4.178-1.537-4.178-3.985c0-1.985,1.232-4.178,3.953-4.178
		c2.529,0,3.489,1.969,3.489,3.905c0,0.416-0.048,0.784-0.08,0.96H512.215z M515.08,153.759c0-0.593-0.256-1.585-1.377-1.585
		c-1.023,0-1.44,0.929-1.504,1.585H515.08z"/>
	<path fill="#F1F1F2" d="M524.664,158.368c-0.432,0.192-1.248,0.353-2.176,0.353c-2.529,0-4.146-1.537-4.146-4.002
		c0-2.289,1.568-4.161,4.482-4.161c0.641,0,1.344,0.111,1.856,0.304l-0.384,1.809c-0.289-0.128-0.721-0.24-1.361-0.24
		c-1.279,0-2.112,0.913-2.096,2.193c0,1.44,0.96,2.192,2.145,2.192c0.576,0,1.023-0.096,1.393-0.239L524.664,158.368z"/>
	<path fill="#F1F1F2" d="M528.52,148.557c0,0.672-0.513,1.217-1.313,1.217c-0.769,0-1.281-0.545-1.265-1.217
		c-0.017-0.704,0.496-1.232,1.28-1.232S528.504,147.853,528.52,148.557z M526.006,158.561v-7.827h2.434v7.827H526.006z"/>
	<path fill="#F1F1F2" d="M530.391,153.23c0-0.977-0.033-1.809-0.064-2.497h2.049l0.111,1.057h0.049
		c0.336-0.496,1.023-1.232,2.369-1.232c1.008,0,1.809,0.512,2.145,1.328h0.031c0.289-0.4,0.641-0.72,1.009-0.944
		c0.433-0.256,0.913-0.384,1.489-0.384c1.504,0,2.641,1.056,2.641,3.394v4.609h-2.369v-4.258c0-1.137-0.368-1.793-1.152-1.793
		c-0.561,0-0.961,0.385-1.121,0.849c-0.063,0.176-0.096,0.433-0.096,0.624v4.578h-2.369v-4.386c0-0.992-0.352-1.665-1.12-1.665
		c-0.624,0-0.992,0.48-1.136,0.881c-0.08,0.192-0.097,0.416-0.097,0.608v4.562h-2.368V153.23z"/>
	<path fill="#F1F1F2" d="M546.662,148.557c0,0.672-0.512,1.217-1.313,1.217c-0.768,0-1.279-0.545-1.264-1.217
		c-0.016-0.704,0.496-1.232,1.28-1.232S546.646,147.853,546.662,148.557z M544.15,158.561v-7.827h2.432v7.827H544.15z"/>
	<path fill="#F1F1F2" d="M550.406,155.423c0.08,1.009,1.072,1.489,2.209,1.489c0.832,0,1.504-0.112,2.16-0.32l0.32,1.648
		c-0.8,0.32-1.776,0.48-2.832,0.48c-2.658,0-4.178-1.537-4.178-3.985c0-1.985,1.232-4.178,3.953-4.178
		c2.529,0,3.489,1.969,3.489,3.905c0,0.416-0.048,0.784-0.08,0.96H550.406z M553.271,153.759c0-0.593-0.256-1.585-1.377-1.585
		c-1.023,0-1.44,0.929-1.504,1.585H553.271z"/>
	<path fill="#F1F1F2" d="M556.982,153.23c0-0.977-0.033-1.809-0.064-2.497h2.113l0.111,1.072h0.048
		c0.32-0.496,1.12-1.248,2.417-1.248c1.602,0,2.801,1.056,2.801,3.361v4.642h-2.433v-4.338c0-1.008-0.353-1.696-1.232-1.696
		c-0.673,0-1.072,0.464-1.232,0.912c-0.063,0.145-0.097,0.384-0.097,0.608v4.514h-2.432V153.23z"/>
	<path fill="#F1F1F2" d="M568.982,148.492v2.241h1.746v1.793h-1.746v2.833c0,0.944,0.225,1.376,0.961,1.376
		c0.305,0,0.545-0.031,0.721-0.063l0.016,1.841c-0.32,0.128-0.896,0.208-1.584,0.208c-0.785,0-1.441-0.272-1.825-0.672
		c-0.448-0.465-0.673-1.217-0.673-2.321v-3.201h-1.04v-1.793h1.04v-1.696L568.982,148.492z"/>
	<path fill="#F1F1F2" d="M579.785,154.559c0,2.865-2.033,4.178-4.13,4.178c-2.288,0-4.05-1.504-4.05-4.033s1.665-4.146,4.178-4.146
		C578.185,150.558,579.785,152.206,579.785,154.559z M574.119,154.639c0,1.345,0.561,2.354,1.601,2.354
		c0.944,0,1.552-0.944,1.552-2.354c0-1.168-0.447-2.353-1.552-2.353C574.551,152.286,574.119,153.486,574.119,154.639z"/>
	<path fill="#F1F1F2" d="M476.425,177.568c-0.433,0.192-1.249,0.353-2.177,0.353c-2.529,0-4.146-1.537-4.146-4.002
		c0-2.289,1.568-4.161,4.481-4.161c0.641,0,1.345,0.111,1.857,0.304l-0.385,1.809c-0.288-0.128-0.721-0.24-1.36-0.24
		c-1.28,0-2.112,0.913-2.097,2.193c0,1.44,0.961,2.192,2.145,2.192c0.576,0,1.024-0.096,1.393-0.239L476.425,177.568z"/>
	<path fill="#F1F1F2" d="M480.279,167.757c0,0.672-0.512,1.217-1.313,1.217c-0.768,0-1.28-0.545-1.264-1.217
		c-0.017-0.704,0.496-1.232,1.279-1.232C479.768,166.524,480.264,167.053,480.279,167.757z M477.767,177.761v-7.827h2.433v7.827
		H477.767z"/>
	<path fill="#F1F1F2" d="M489.529,175.248c0,1.024,0.031,1.856,0.064,2.513h-2.113l-0.112-1.104h-0.048
		c-0.305,0.48-1.041,1.28-2.449,1.28c-1.584,0-2.753-0.992-2.753-3.409v-4.594h2.449v4.21c0,1.136,0.368,1.824,1.216,1.824
		c0.673,0,1.057-0.464,1.217-0.848c0.064-0.145,0.08-0.337,0.08-0.528v-4.658h2.449V175.248z"/>
	<path fill="#F1F1F2" d="M499.064,166.396v9.027c0,0.88,0.033,1.809,0.064,2.337h-2.16l-0.113-1.152h-0.031
		c-0.496,0.88-1.441,1.328-2.449,1.328c-1.857,0-3.346-1.584-3.346-4.018c-0.016-2.641,1.633-4.161,3.506-4.161
		c0.961,0,1.713,0.336,2.064,0.88h0.032v-4.241H499.064z M496.632,173.247c0-0.128-0.017-0.305-0.032-0.433
		c-0.144-0.656-0.672-1.2-1.424-1.2c-1.105,0-1.682,0.992-1.682,2.225c0,1.329,0.656,2.161,1.665,2.161
		c0.704,0,1.265-0.48,1.409-1.168c0.047-0.177,0.063-0.353,0.063-0.561V173.247z"/>
	<path fill="#F1F1F2" d="M505.464,177.761l-0.144-0.784h-0.049c-0.512,0.624-1.313,0.96-2.24,0.96c-1.585,0-2.529-1.152-2.529-2.4
		c0-2.033,1.824-3.01,4.594-2.993v-0.112c0-0.416-0.225-1.009-1.425-1.009c-0.8,0-1.648,0.272-2.161,0.593l-0.447-1.569
		c0.544-0.304,1.616-0.688,3.041-0.688c2.609,0,3.441,1.536,3.441,3.377v2.722c0,0.752,0.031,1.472,0.111,1.904H505.464z
		 M505.176,174.063c-1.281-0.017-2.273,0.288-2.273,1.232c0,0.624,0.416,0.929,0.961,0.929c0.607,0,1.104-0.4,1.264-0.896
		c0.033-0.129,0.049-0.272,0.049-0.417V174.063z"/>
	<path fill="#F1F1F2" d="M517.049,166.396v9.027c0,0.88,0.033,1.809,0.064,2.337h-2.16l-0.113-1.152h-0.031
		c-0.496,0.88-1.441,1.328-2.449,1.328c-1.857,0-3.346-1.584-3.346-4.018c-0.016-2.641,1.633-4.161,3.506-4.161
		c0.961,0,1.713,0.336,2.064,0.88h0.032v-4.241H517.049z M514.616,173.247c0-0.128-0.017-0.305-0.032-0.433
		c-0.144-0.656-0.672-1.2-1.424-1.2c-1.105,0-1.682,0.992-1.682,2.225c0,1.329,0.656,2.161,1.665,2.161
		c0.704,0,1.265-0.48,1.409-1.168c0.047-0.177,0.063-0.353,0.063-0.561V173.247z"/>
	<path fill="#F1F1F2" d="M523.448,177.761l-0.144-0.784h-0.049c-0.512,0.624-1.313,0.96-2.24,0.96c-1.585,0-2.529-1.152-2.529-2.4
		c0-2.033,1.824-3.01,4.594-2.993v-0.112c0-0.416-0.225-1.009-1.425-1.009c-0.8,0-1.648,0.272-2.161,0.593l-0.447-1.569
		c0.544-0.304,1.616-0.688,3.041-0.688c2.609,0,3.441,1.536,3.441,3.377v2.722c0,0.752,0.031,1.472,0.111,1.904H523.448z
		 M523.16,174.063c-1.281-0.017-2.273,0.288-2.273,1.232c0,0.624,0.416,0.929,0.961,0.929c0.607,0,1.104-0.4,1.264-0.896
		c0.033-0.129,0.049-0.272,0.049-0.417V174.063z"/>
	<path fill="#F1F1F2" d="M527.447,172.431c0-0.977-0.033-1.809-0.064-2.497h2.113l0.111,1.072h0.048
		c0.32-0.496,1.12-1.248,2.417-1.248c1.602,0,2.801,1.056,2.801,3.361v4.642h-2.433v-4.338c0-1.008-0.353-1.696-1.232-1.696
		c-0.673,0-1.072,0.464-1.232,0.912c-0.063,0.145-0.097,0.384-0.097,0.608v4.514h-2.432V172.431z"/>
	<path fill="#F1F1F2" d="M544.554,173.759c0,2.865-2.032,4.178-4.13,4.178c-2.289,0-4.049-1.504-4.049-4.033
		s1.664-4.146,4.178-4.146C542.953,169.758,544.554,171.406,544.554,173.759z M538.887,173.839c0,1.345,0.561,2.354,1.602,2.354
		c0.944,0,1.553-0.944,1.553-2.354c0-1.168-0.449-2.353-1.553-2.353C539.32,171.486,538.887,172.687,538.887,173.839z"/>
	<path fill="#F1F1F2" d="M545.334,176.464c0-0.864,0.593-1.488,1.441-1.488c0.848,0,1.424,0.608,1.424,1.488
		c0,0.849-0.576,1.473-1.439,1.473C545.927,177.937,545.334,177.313,545.334,176.464z"/>
</g>
<g>
	<rect x="665.574" y="128" fill="none" width="179.133" height="66.333"/>
	<path fill="#F1F1F2" d="M666.631,128.716c0.752-0.128,1.809-0.224,3.297-0.224c1.505,0,2.577,0.288,3.297,0.864
		c0.689,0.544,1.153,1.44,1.153,2.497c0,1.056-0.353,1.953-0.993,2.561c-0.832,0.784-2.064,1.136-3.505,1.136
		c-0.319,0-0.608-0.016-0.832-0.048v3.857h-2.417V128.716z M669.048,133.614c0.208,0.048,0.464,0.064,0.815,0.064
		c1.297,0,2.098-0.656,2.098-1.761c0-0.993-0.688-1.585-1.904-1.585c-0.496,0-0.833,0.048-1.009,0.096V133.614z"/>
	<path fill="#F1F1F2" d="M680.009,139.36l-0.144-0.784h-0.049c-0.512,0.624-1.313,0.96-2.24,0.96c-1.585,0-2.529-1.152-2.529-2.401
		c0-2.033,1.824-3.009,4.594-2.993v-0.112c0-0.416-0.225-1.008-1.425-1.008c-0.8,0-1.648,0.272-2.161,0.592l-0.447-1.569
		c0.544-0.304,1.616-0.688,3.041-0.688c2.609,0,3.441,1.537,3.441,3.377v2.721c0,0.752,0.031,1.473,0.111,1.905H680.009z
		 M679.721,135.663c-1.281-0.016-2.273,0.288-2.273,1.232c0,0.624,0.416,0.928,0.961,0.928c0.607,0,1.104-0.4,1.264-0.896
		c0.033-0.128,0.049-0.272,0.049-0.416V135.663z"/>
	<path fill="#F1F1F2" d="M683.99,137.231c0.448,0.272,1.377,0.592,2.097,0.592c0.736,0,1.04-0.256,1.04-0.656
		c0-0.4-0.24-0.592-1.152-0.896c-1.616-0.544-2.24-1.424-2.225-2.353c0-1.457,1.248-2.561,3.186-2.561
		c0.912,0,1.729,0.208,2.209,0.448l-0.433,1.681c-0.353-0.192-1.024-0.448-1.696-0.448c-0.592,0-0.929,0.24-0.929,0.641
		c0,0.368,0.304,0.56,1.265,0.896c1.488,0.512,2.113,1.265,2.129,2.417c0,1.457-1.152,2.529-3.394,2.529
		c-1.024,0-1.937-0.224-2.528-0.544L683.99,137.231z"/>
	<path fill="#F1F1F2" d="M698.682,135.359c0,2.865-2.033,4.177-4.13,4.177c-2.288,0-4.05-1.504-4.05-4.033
		c0-2.529,1.665-4.146,4.178-4.146C697.081,131.357,698.682,133.006,698.682,135.359z M693.016,135.439
		c0,1.344,0.561,2.353,1.601,2.353c0.944,0,1.552-0.944,1.552-2.353c0-1.168-0.447-2.353-1.552-2.353
		C693.447,133.086,693.016,134.286,693.016,135.439z"/>
	<path fill="#F1F1F2" d="M707.416,139.36v-2.481h-4.609v-1.584l3.938-6.339h2.977v6.099h1.248v1.825h-1.248v2.481H707.416z
		 M707.416,135.055v-2.305c0-0.624,0.032-1.264,0.08-1.937h-0.064c-0.336,0.672-0.607,1.28-0.96,1.937l-1.393,2.273v0.032H707.416z"
		/>
	<path fill="#F1F1F2" d="M712.118,138.064c0-0.864,0.593-1.489,1.44-1.489c0.849,0,1.425,0.608,1.425,1.489
		c0,0.848-0.576,1.472-1.44,1.472C712.711,139.536,712.118,138.912,712.118,138.064z"/>
	<path fill="#F1F1F2" d="M727.689,139.056c-0.449,0.224-1.457,0.464-2.77,0.464c-3.729,0-5.65-2.321-5.65-5.394
		c0-3.682,2.625-5.73,5.891-5.73c1.265,0,2.225,0.256,2.657,0.48l-0.497,1.937c-0.496-0.208-1.184-0.4-2.049-0.4
		c-1.936,0-3.441,1.168-3.441,3.57c0,2.161,1.281,3.521,3.458,3.521c0.736,0,1.553-0.16,2.032-0.352L727.689,139.056z"/>
	<path fill="#F1F1F2" d="M736.633,135.359c0,2.865-2.033,4.177-4.13,4.177c-2.288,0-4.05-1.504-4.05-4.033
		c0-2.529,1.665-4.146,4.178-4.146C735.032,131.357,736.633,133.006,736.633,135.359z M730.967,135.439
		c0,1.344,0.561,2.353,1.601,2.353c0.944,0,1.552-0.944,1.552-2.353c0-1.168-0.447-2.353-1.552-2.353
		C731.398,133.086,730.967,134.286,730.967,135.439z"/>
	<path fill="#F1F1F2" d="M738.134,134.03c0-0.977-0.032-1.809-0.063-2.497h2.049l0.111,1.057h0.048
		c0.337-0.497,1.024-1.233,2.369-1.233c1.009,0,1.809,0.512,2.146,1.329h0.031c0.288-0.4,0.641-0.72,1.008-0.944
		c0.434-0.256,0.913-0.384,1.489-0.384c1.505,0,2.642,1.057,2.642,3.394v4.61h-2.369v-4.258c0-1.136-0.369-1.792-1.152-1.792
		c-0.561,0-0.961,0.384-1.121,0.848c-0.064,0.176-0.096,0.432-0.096,0.625v4.578h-2.369v-4.386c0-0.992-0.352-1.665-1.121-1.665
		c-0.623,0-0.992,0.48-1.136,0.88c-0.08,0.192-0.097,0.416-0.097,0.608v4.562h-2.368V134.03z"/>
	<path fill="#F1F1F2" d="M751.894,134.158c0-1.024-0.032-1.905-0.063-2.625h2.112l0.112,1.088h0.031
		c0.576-0.833,1.473-1.265,2.609-1.265c1.713,0,3.25,1.489,3.25,3.986c0,2.849-1.81,4.193-3.555,4.193
		c-0.943,0-1.68-0.384-2.032-0.896h-0.032v3.889h-2.433V134.158z M754.326,135.999c0,0.192,0.016,0.368,0.049,0.512
		c0.16,0.656,0.72,1.152,1.424,1.152c1.057,0,1.681-0.88,1.681-2.209c0-1.249-0.56-2.193-1.648-2.193
		c-0.688,0-1.296,0.512-1.456,1.232c-0.033,0.128-0.049,0.289-0.049,0.433V135.999z"/>
	<path fill="#F1F1F2" d="M765.911,139.36l-0.144-0.784h-0.049c-0.512,0.624-1.313,0.96-2.24,0.96c-1.585,0-2.529-1.152-2.529-2.401
		c0-2.033,1.824-3.009,4.594-2.993v-0.112c0-0.416-0.225-1.008-1.425-1.008c-0.8,0-1.648,0.272-2.161,0.592l-0.447-1.569
		c0.544-0.304,1.616-0.688,3.041-0.688c2.609,0,3.441,1.537,3.441,3.377v2.721c0,0.752,0.031,1.473,0.111,1.905H765.911z
		 M765.623,135.663c-1.281-0.016-2.273,0.288-2.273,1.232c0,0.624,0.416,0.928,0.961,0.928c0.607,0,1.104-0.4,1.264-0.896
		c0.033-0.128,0.049-0.272,0.049-0.416V135.663z"/>
	<path fill="#F1F1F2" d="M769.91,134.11c0-1.152-0.033-1.905-0.064-2.577h2.097l0.08,1.44h0.063c0.4-1.136,1.361-1.617,2.113-1.617
		c0.225,0,0.336,0,0.512,0.032v2.289c-0.176-0.032-0.384-0.064-0.656-0.064c-0.896,0-1.504,0.48-1.664,1.232
		c-0.032,0.16-0.049,0.352-0.049,0.544v3.97h-2.432V134.11z"/>
	<path fill="#F1F1F2" d="M779.047,129.292v2.241h1.744v1.792h-1.744v2.833c0,0.944,0.224,1.376,0.96,1.376
		c0.304,0,0.544-0.032,0.72-0.064l0.017,1.841c-0.319,0.128-0.896,0.208-1.585,0.208c-0.783,0-1.439-0.272-1.824-0.672
		c-0.448-0.464-0.672-1.216-0.672-2.321v-3.202h-1.041v-1.792h1.041v-1.697L779.047,129.292z"/>
	<path fill="#F1F1F2" d="M786.647,139.36l-0.144-0.784h-0.049c-0.512,0.624-1.313,0.96-2.24,0.96c-1.585,0-2.529-1.152-2.529-2.401
		c0-2.033,1.824-3.009,4.594-2.993v-0.112c0-0.416-0.225-1.008-1.425-1.008c-0.8,0-1.648,0.272-2.161,0.592l-0.447-1.569
		c0.544-0.304,1.616-0.688,3.041-0.688c2.609,0,3.441,1.537,3.441,3.377v2.721c0,0.752,0.031,1.473,0.111,1.905H786.647z
		 M786.359,135.663c-1.281-0.016-2.273,0.288-2.273,1.232c0,0.624,0.416,0.928,0.961,0.928c0.607,0,1.104-0.4,1.264-0.896
		c0.033-0.128,0.049-0.272,0.049-0.416V135.663z"/>
	<path fill="#F1F1F2" d="M793.861,137.231c0.449,0.272,1.377,0.592,2.098,0.592c0.736,0,1.04-0.256,1.04-0.656
		c0-0.4-0.24-0.592-1.152-0.896c-1.616-0.544-2.241-1.424-2.226-2.353c0-1.457,1.249-2.561,3.186-2.561
		c0.912,0,1.729,0.208,2.209,0.448l-0.432,1.681c-0.353-0.192-1.025-0.448-1.697-0.448c-0.592,0-0.928,0.24-0.928,0.641
		c0,0.368,0.304,0.56,1.264,0.896c1.489,0.512,2.113,1.265,2.129,2.417c0,1.457-1.152,2.529-3.393,2.529
		c-1.025,0-1.938-0.224-2.529-0.544L793.861,137.231z"/>
	<path fill="#F1F1F2" d="M808.201,136.847c0,1.024,0.031,1.857,0.063,2.513h-2.112l-0.113-1.104h-0.047
		c-0.305,0.48-1.041,1.28-2.449,1.28c-1.585,0-2.754-0.992-2.754-3.409v-4.594h2.449v4.209c0,1.137,0.369,1.825,1.217,1.825
		c0.672,0,1.057-0.464,1.217-0.848c0.064-0.144,0.08-0.336,0.08-0.528v-4.658h2.449V136.847z"/>
	<path fill="#F1F1F2" d="M668.424,155.423c0.08,1.009,1.072,1.489,2.209,1.489c0.832,0,1.504-0.112,2.16-0.32l0.32,1.648
		c-0.801,0.32-1.777,0.48-2.833,0.48c-2.657,0-4.178-1.537-4.178-3.985c0-1.985,1.232-4.178,3.954-4.178
		c2.528,0,3.488,1.969,3.488,3.905c0,0.416-0.047,0.784-0.08,0.96H668.424z M671.289,153.759c0-0.593-0.257-1.585-1.377-1.585
		c-1.024,0-1.441,0.929-1.505,1.585H671.289z"/>
	<path fill="#F1F1F2" d="M676.663,150.733l0.769,1.297c0.225,0.399,0.432,0.8,0.641,1.168h0.031c0.209-0.416,0.4-0.816,0.608-1.2
		l0.688-1.265h2.641l-2.576,3.729l2.608,4.098h-2.753l-0.784-1.408c-0.224-0.385-0.417-0.785-0.608-1.185h-0.048
		c-0.192,0.416-0.4,0.8-0.593,1.185l-0.736,1.408h-2.673l2.657-3.985l-2.594-3.842H676.663z"/>
	<path fill="#F1F1F2" d="M683.11,153.358c0-1.024-0.032-1.904-0.063-2.625h2.112l0.112,1.089h0.031
		c0.576-0.833,1.473-1.265,2.609-1.265c1.713,0,3.25,1.488,3.25,3.985c0,2.849-1.81,4.193-3.555,4.193
		c-0.943,0-1.68-0.384-2.032-0.896h-0.032v3.89h-2.433V153.358z M685.543,155.199c0,0.192,0.016,0.368,0.049,0.512
		c0.16,0.656,0.72,1.153,1.424,1.153c1.057,0,1.681-0.881,1.681-2.209c0-1.249-0.56-2.193-1.648-2.193
		c-0.688,0-1.296,0.513-1.456,1.232c-0.033,0.128-0.049,0.288-0.049,0.433V155.199z"/>
	<path fill="#F1F1F2" d="M694.599,155.423c0.08,1.009,1.072,1.489,2.209,1.489c0.833,0,1.505-0.112,2.161-0.32l0.32,1.648
		c-0.801,0.32-1.777,0.48-2.834,0.48c-2.656,0-4.178-1.537-4.178-3.985c0-1.985,1.232-4.178,3.954-4.178
		c2.528,0,3.489,1.969,3.489,3.905c0,0.416-0.048,0.784-0.08,0.96H694.599z M697.464,153.759c0-0.593-0.257-1.585-1.376-1.585
		c-1.025,0-1.441,0.929-1.506,1.585H697.464z"/>
	<path fill="#F1F1F2" d="M701.174,153.311c0-1.152-0.032-1.905-0.064-2.577h2.098l0.08,1.44h0.063
		c0.399-1.137,1.36-1.616,2.112-1.616c0.225,0,0.336,0,0.513,0.031v2.289c-0.177-0.031-0.384-0.063-0.656-0.063
		c-0.896,0-1.505,0.479-1.665,1.232c-0.031,0.16-0.048,0.352-0.048,0.544v3.97h-2.433V153.311z"/>
	<path fill="#F1F1F2" d="M709.767,148.557c0,0.672-0.513,1.217-1.313,1.217c-0.769,0-1.28-0.545-1.265-1.217
		c-0.016-0.704,0.496-1.232,1.281-1.232C709.254,147.324,709.751,147.853,709.767,148.557z M707.254,158.561v-7.827h2.433v7.827
		H707.254z"/>
	<path fill="#F1F1F2" d="M713.51,155.423c0.08,1.009,1.072,1.489,2.209,1.489c0.832,0,1.505-0.112,2.161-0.32l0.32,1.648
		c-0.8,0.32-1.776,0.48-2.833,0.48c-2.657,0-4.178-1.537-4.178-3.985c0-1.985,1.232-4.178,3.953-4.178
		c2.529,0,3.49,1.969,3.49,3.905c0,0.416-0.049,0.784-0.08,0.96H713.51z M716.375,153.759c0-0.593-0.256-1.585-1.376-1.585
		c-1.024,0-1.44,0.929-1.505,1.585H716.375z"/>
	<path fill="#F1F1F2" d="M720.086,153.23c0-0.977-0.032-1.809-0.064-2.497h2.113l0.111,1.072h0.049
		c0.32-0.496,1.12-1.248,2.416-1.248c1.602,0,2.802,1.056,2.802,3.361v4.642h-2.433v-4.338c0-1.008-0.353-1.696-1.232-1.696
		c-0.673,0-1.072,0.464-1.232,0.912c-0.064,0.145-0.097,0.384-0.097,0.608v4.514h-2.433V153.23z"/>
	<path fill="#F1F1F2" d="M735.336,158.368c-0.432,0.192-1.248,0.353-2.177,0.353c-2.528,0-4.146-1.537-4.146-4.002
		c0-2.289,1.568-4.161,4.482-4.161c0.64,0,1.344,0.111,1.855,0.304l-0.384,1.809c-0.288-0.128-0.72-0.24-1.36-0.24
		c-1.281,0-2.113,0.913-2.097,2.193c0,1.44,0.96,2.192,2.145,2.192c0.576,0,1.024-0.096,1.393-0.239L735.336,158.368z"/>
	<path fill="#F1F1F2" d="M739.19,148.557c0,0.672-0.513,1.217-1.313,1.217c-0.769,0-1.28-0.545-1.265-1.217
		c-0.016-0.704,0.496-1.232,1.281-1.232C738.678,147.324,739.175,147.853,739.19,148.557z M736.678,158.561v-7.827h2.433v7.827
		H736.678z"/>
	<path fill="#F1F1F2" d="M745.512,158.561l-0.145-0.784h-0.049c-0.512,0.624-1.313,0.96-2.24,0.96c-1.584,0-2.529-1.152-2.529-2.4
		c0-2.033,1.825-3.01,4.594-2.993v-0.112c0-0.416-0.224-1.009-1.424-1.009c-0.801,0-1.648,0.272-2.161,0.593l-0.448-1.569
		c0.545-0.304,1.617-0.688,3.041-0.688c2.609,0,3.441,1.536,3.441,3.377v2.722c0,0.752,0.032,1.472,0.112,1.904H745.512z
		 M745.223,154.863c-1.28-0.017-2.272,0.288-2.272,1.232c0,0.624,0.416,0.928,0.96,0.928c0.608,0,1.105-0.399,1.265-0.896
		c0.032-0.128,0.048-0.272,0.048-0.417V154.863z"/>
	<path fill="#F1F1F2" d="M749.334,157.264c0-0.864,0.592-1.488,1.439-1.488c0.85,0,1.426,0.608,1.426,1.488
		c0,0.849-0.576,1.473-1.441,1.473C749.926,158.736,749.334,158.112,749.334,157.264z"/>
</g>
<g>
</g>
<g>
</g>
<g>
</g>
<g>
</g>
<g>
</g>
<g>
</g>
</svg>
