<?xml version="1.0" encoding="utf-8"?>
<!-- Generator: Adobe Illustrator 16.0.0, SVG Export Plug-In . SVG Version: 6.00 Build 0)  -->
<!DOCTYPE svg PUBLIC "-//W3C//DTD SVG 1.1//EN" "http://www.w3.org/Graphics/SVG/1.1/DTD/svg11.dtd">
<svg version="1.1" id="Capa_1" xmlns="http://www.w3.org/2000/svg" xmlns:xlink="http://www.w3.org/1999/xlink" x="0px" y="0px"
	 width="216px" height="198.261px" viewBox="0 0 216 198.261" enable-background="new 0 0 216 198.261" xml:space="preserve">
<symbol  id="Symbol_6" viewBox="-314.85 -473.589 627.041 476.089">
	<g id="Layer_1_16_">
		<path fill-rule="evenodd" clip-rule="evenodd" fill="#FFFFFF" d="M193.5-58.8c-38.833-3.633-77.317-8.434-115.45-14.4
			c3.567-4.5,4.833-8.083,3.8-10.75c36.767,5.633,74.217,10.15,112.35,13.55L193.5-58.8c50.233-26.967,80.05-68.383,89.45-124.25
			c-0.429-3.915-0.962-7.757-1.6-11.525c-0.347-2.123-0.731-4.223-1.15-6.3c-0.376-1.851-0.776-3.684-1.2-5.5
			c-0.124-0.525-0.249-1.05-0.375-1.575c-0.22-0.878-0.445-1.753-0.675-2.625c-0.615-2.352-1.273-4.668-1.975-6.95
			c-0.541-1.765-1.107-3.506-1.7-5.225c-15.051-43.571-47.017-74.921-95.9-94.05c-11.731-4.585-24.439-8.468-38.125-11.65
			c-14.685-4.68-29.418-8.388-44.2-11.125c-10.395-1.92-20.811-3.362-31.25-4.325c8.167,4.967,12.25,10.85,12.25,17.65
			c0,7.267-4.65,13.5-13.95,18.7c-9.233,5.133-20.383,7.7-33.45,7.7c-13.1,0-24.3-2.566-33.6-7.7
			c-9.233-5.2-13.85-11.434-13.85-18.7c0-6.4,3.6-11.983,10.8-16.75c-7.34,0.841-14.698,1.916-22.075,3.225
			c-18.578,3.286-37.253,8.044-56.025,14.275c-1.795,0.607-3.595,1.224-5.4,1.85c-57.834,28.867-101.267,56.25-130.3,82.15
			c17.533,24.533,59,46.983,124.4,67.35c19.193,5.987,38.36,11.57,57.5,16.75c0.716,0.194,1.433,0.385,2.15,0.575
			c20.179,5.434,40.329,10.417,60.45,14.95c4.727,1.066,9.452,2.108,14.175,3.125c20.34,4.377,40.648,8.294,60.925,11.75
			c12.035,2.05,23.668,3.55,34.9,4.5c2.606,0.222,5.189,0.414,7.75,0.575c20.715,1.317,40.031,0.709,57.95-1.825
			c-4.956-23.101-16.756-46.484-35.4-70.15c-0.641-0.816-1.291-1.633-1.95-2.45c-18.494-22.917-43.402-46.101-74.725-69.55
			c-1.364-1.013-2.739-2.03-4.125-3.05c1.386,1.021,2.761,2.037,4.125,3.05c31.322,23.449,56.23,46.632,74.725,69.55
			c0.66,0.817,1.31,1.634,1.95,2.45c18.644,23.666,30.444,47.049,35.4,70.15c-17.918,2.534-37.235,3.142-57.95,1.825
			c-2.561-0.162-5.144-0.353-7.75-0.575c-11.232-0.95-22.866-2.45-34.9-4.5c-20.276-3.456-40.584-7.373-60.925-11.75
			c-4.723-1.017-9.448-2.059-14.175-3.125c-20.121-4.533-40.271-9.516-60.45-14.95c-0.717-0.189-1.434-0.381-2.15-0.575
			c-19.14-5.18-38.307-10.763-57.5-16.75c-65.4-20.367-106.867-42.817-124.4-67.35c29.033-25.9,72.466-53.283,130.3-82.15
			c1.805-0.626,3.604-1.243,5.4-1.85c18.772-6.23,37.447-10.989,56.025-14.275C-21.698-341.084-14.34-342.159-7-343
			c-7.2,4.767-10.8,10.35-10.8,16.75c0,7.267,4.617,13.5,13.85,18.7c9.3,5.133,20.5,7.7,33.6,7.7c13.067,0,24.217-2.566,33.45-7.7
			c9.3-5.2,13.95-11.434,13.95-18.7c0-6.8-4.083-12.683-12.25-17.65c10.439,0.963,20.855,2.404,31.25,4.325
			c14.782,2.737,29.515,6.445,44.2,11.125c13.686,3.182,26.394,7.065,38.125,11.65c48.883,19.128,80.849,50.479,95.9,94.05
			c0.593,1.719,1.16,3.46,1.7,5.225c0.702,2.281,1.36,4.598,1.975,6.95c0.229,0.872,0.455,1.747,0.675,2.625
			c0.126,0.525,0.251,1.05,0.375,1.575c0.424,1.816,0.824,3.649,1.2,5.5c0.419,2.077,0.803,4.177,1.15,6.3
			c0.638,3.769,1.171,7.61,1.6,11.525C273.55-127.183,243.733-85.767,193.5-58.8l0.7-11.6c-38.133-3.4-75.583-7.917-112.35-13.55
			c1.033,2.667-0.233,6.25-3.8,10.75C116.183-67.233,154.667-62.433,193.5-58.8z M194.2-70.4c34.933-24.434,56.35-48.1,64.25-71
			c-0.788,0.389-1.58,0.772-2.375,1.15c-17.021,8.07-35.913,13.57-56.675,16.5c20.763-2.93,39.654-8.43,56.675-16.5
			c0.795-0.378,1.587-0.761,2.375-1.15C250.55-118.5,229.133-94.833,194.2-70.4z M308.65-188.8c0.833-6.1,1.167-12.15,1-18.15
			c-0.033-0.167-0.05-0.35-0.05-0.55c-0.192-6.017-0.892-12-2.1-17.95c-0.048-0.253-0.098-0.503-0.15-0.75
			c-0.067-0.267-0.133-0.533-0.2-0.8l-0.55-2.5c-0.081-0.368-0.165-0.735-0.25-1.1C278.316-356.835,218.4-431.785,126.6-455.45
			c-15.204-4.344-30.404-7.786-45.6-10.325c-42.228-7.035-84.453-7.085-126.675-0.15c-39.511,6.477-79.02,19.068-118.525,37.775
			c-72.399,25.066-121.783,102.9-148.149,233.5l4.05,22.3c0,0.1,0.017,0.184,0.05,0.25c0,0.033,0,0.067,0,0.1v0.1l0.05,0.35
			c0,0.267,0.033,0.517,0.101,0.75c1.166,8.133,8.199,14.816,21.1,20.05c53.182,21.543,108.798,39.793,166.851,54.75
			c6.175,1.585,12.374,3.135,18.6,4.65c-4.934,1.434-9.517,3.367-13.75,5.8c-5.667,3.667-7.633,8.1-5.9,13.3
			c1.7,5.233,3.018,8.383,3.95,9.45c-1.166,7.367,0.483,13.917,4.95,19.65c4.466,5.8,10.017,9.95,16.65,12.45
			c1.267,2.2,2.3,3.75,3.1,4.65c2.966,2.9,6.65,4.083,11.05,3.55c4.367-0.867,8.6-2.267,12.7-4.2c1.93-0.184,3.73-0.525,5.4-1.025
			c3.002-0.906,5.593-2.323,7.775-4.25C-53.278-34.057-51.403-36.731-50-40c0.067-0.167,0.133-0.333,0.2-0.5
			c0.6-0.6,1.2-1.217,1.8-1.85c-0.033-0.533-0.067-1.083-0.1-1.65c1.633-0.433,3.067-1.567,4.3-3.4
			c-0.034-0.633-0.067-1.267-0.1-1.9c1.066-0.267,2.117-0.767,3.15-1.5c4.633,4.566,9.2,8.583,13.7,12.05v15.6
			c-7.367,0.333-11.067,1.75-11.1,4.25c-0.967,8.333,1.5,13.566,7.4,15.7c1.733,2.067,4.233,3.133,7.5,3.2
			c0.038-0.003,0.08-0.003,0.125,0c1.688-0.142,3.163-0.408,4.425-0.8c0.934-0.299,1.75-0.666,2.45-1.1c0.667-0.434,1.2-0.9,1.6-1.4
			c2.505-1.033,4.338-2.666,5.5-4.9c1.252-2.377,1.744-5.436,1.475-9.175C-7.703-17.843-7.744-18.318-7.8-18.8
			c-0.028-2.292-3.253-3.692-9.675-4.2c-1.138-0.098-2.38-0.165-3.725-0.2v-11.25c11.934,8.167,23.317,12.534,34.15,13.1
			c15.561,0.847,28.403-2.162,38.525-9.025c5.935-4.015,10.935-9.357,15-16.025c2.377-3.912,4.435-8.279,6.175-13.1
			c38.267,4.867,77.417,8.517,117.45,10.95c21.533,2.167,40.833-6.05,57.9-24.65c19.167-20.867,34-43.367,44.5-67.5
			c7.6-14.3,12.683-28.383,15.25-42.25c0.2-1.066,0.383-2.15,0.55-3.25L308.65-188.8c1.102-10.003,0.302-20.812-2.4-32.425
			c-0.757-3.209-1.657-6.484-2.7-9.825c-5.101-16.344-13.701-34.161-25.8-53.45c-25.3-40.3-66.35-70.2-123.15-89.7
			c-16.486-5.859-32.794-10.692-48.925-14.5c-68.483-16.183-133.817-13.941-196,6.725c-36.885,12.266-72.66,31.008-107.325,56.225
			c-47.467,37.633-77.866,70.35-91.199,98.15c-13.367,27.833-19.851,46.2-19.45,55.1c0,0.067,0,0.117,0,0.15c0-0.033,0-0.083,0-0.15
			c-0.4-8.9,6.083-27.267,19.45-55.1c13.333-27.8,43.732-60.517,91.199-98.15c34.665-25.217,70.44-43.959,107.325-56.225
			c62.183-20.667,127.517-22.908,196-6.725c16.131,3.808,32.439,8.641,48.925,14.5c56.8,19.5,97.85,49.4,123.15,89.7
			c12.099,19.289,20.699,37.106,25.8,53.45c1.043,3.34,1.943,6.615,2.7,9.825C308.952-209.611,309.751-198.803,308.65-188.8z
			 M-40.75-50.8c0.6-0.434,1.217-0.967,1.85-1.6c0.167-0.367,0.316-0.75,0.45-1.15c1.167-0.034,2.467-0.667,3.9-1.9
			c0.607-1.954,1.074-3.854,1.4-5.7c0.212-1.21,0.362-2.393,0.45-3.55c0.336-4.268-0.147-8.218-1.45-11.85
			c-0.133-0.367-0.267-0.717-0.4-1.05c-2.067-3.735-4.393-7.043-6.975-9.925c-2.178-2.408-4.537-4.516-7.075-6.325
			c-0.9-0.267-1.683-0.45-2.35-0.55c-0.3-1.333-0.55-2.65-0.75-3.95c-0.667-4.2-0.767-8.05-0.3-11.55
			c1.3-10.467,7.5-17.65,18.6-21.55c5.346-1.53,11.421-2.338,18.225-2.425c4.002-0.041,8.26,0.167,12.775,0.625
			c6.133,0.1,12.25,2.3,18.35,6.6c3.366,2.063,5.999,4.162,7.9,6.3c4.047,4.531,4.814,9.231,2.3,14.1c-0.667,4.9-0.133,9.3,1.6,13.2
			c0.033,0.133,0.083,0.267,0.15,0.4c-4.833,1.566-6.35,4.917-4.55,10.05c0.1,0.367,0.233,0.733,0.4,1.1
			c0.667,6.967-2.083,11.567-8.25,13.8c-2.3,0.833-5.067,1.333-8.3,1.5C1.8-65.067-4-67.033-10.2-72.1
			c-0.842-0.665-1.684-1.39-2.525-2.175c-0.426-0.393-0.851-0.801-1.275-1.225c0.424,0.424,0.849,0.833,1.275,1.225
			c0.841,0.785,1.683,1.51,2.525,2.175c6.2,5.067,12,7.033,17.4,5.9c3.233-0.167,6-0.667,8.3-1.5c6.167-2.233,8.917-6.833,8.25-13.8
			c-0.167-0.367-0.3-0.733-0.4-1.1c-1.8-5.133-0.283-8.483,4.55-10.05c-0.066-0.133-0.117-0.267-0.15-0.4
			c-1.733-3.9-2.267-8.3-1.6-13.2c2.514-4.869,1.748-9.569-2.3-14.1c-1.901-2.138-4.534-4.237-7.9-6.3
			c-6.1-4.3-12.217-6.5-18.35-6.6c-4.515-0.458-8.773-0.666-12.775-0.625c-6.804,0.086-12.879,0.895-18.225,2.425
			c-11.1,3.9-17.3,11.083-18.6,21.55c-0.467,3.5-0.367,7.35,0.3,11.55c0.2,1.3,0.45,2.617,0.75,3.95c0.667,0.1,1.45,0.283,2.35,0.55
			c2.539,1.809,4.897,3.917,7.075,6.325c2.583,2.881,4.908,6.189,6.975,9.925c0.133,0.333,0.267,0.684,0.4,1.05
			c1.303,3.632,1.786,7.582,1.45,11.85c-0.087,1.157-0.237,2.34-0.45,3.55c-0.326,1.846-0.792,3.746-1.4,5.7
			c-1.434,1.233-2.733,1.867-3.9,1.9c-0.133,0.4-0.283,0.783-0.45,1.15C-39.533-51.767-40.15-51.233-40.75-50.8z M27.75-93.05
			c0.3,0.066,0.617,0.117,0.95,0.15c-0.267,0.1-0.534,0.183-0.8,0.25c0.267-0.067,0.533-0.15,0.8-0.25
			C28.367-92.933,28.05-92.983,27.75-93.05z M81.85-83.95c-0.6-1.5-1.967-2.7-4.1-3.6c-0.65-0.27-1.3-0.528-1.95-0.775
			c-0.701-0.288-1.4-0.563-2.1-0.825v-5.7c-1.706-3.388-5.189-5.796-10.45-7.225c-2.243-0.601-4.81-1.026-7.7-1.275
			c-11.6-0.167-18.633,1.567-21.1,5.2v4.3c-1.233,0.167-2.4,0.35-3.5,0.55c-0.8,0.133-1.55,0.267-2.25,0.4
			c0.7-0.133,1.45-0.267,2.25-0.4c1.1-0.2,2.267-0.383,3.5-0.55v-4.3c2.466-3.633,9.5-5.367,21.1-5.2
			c2.89,0.249,5.457,0.674,7.7,1.275c5.261,1.429,8.744,3.837,10.45,7.225v5.7c0.699,0.262,1.399,0.537,2.1,0.825
			c0.65,0.248,1.3,0.506,1.95,0.775C79.883-86.65,81.25-85.45,81.85-83.95z M34.45-93.85c0.138-0.015,0.28-0.032,0.425-0.05
			c5.727-0.576,12.885-0.376,21.475,0.6c0.6,0.064,1.2,0.139,1.8,0.225c5.065,0.681,10.249,1.989,15.55,3.925
			c-5.301-1.936-10.485-3.244-15.55-3.925c-0.6-0.086-1.2-0.161-1.8-0.225c-8.59-0.977-15.749-1.176-21.475-0.6
			C34.73-93.882,34.588-93.865,34.45-93.85z M72.65-59.5c1.233-3.467,2.317-7.2,3.25-11.2c0.767-0.867,1.483-1.7,2.15-2.5
			c-0.667,0.8-1.383,1.633-2.15,2.5C74.967-66.7,73.883-62.967,72.65-59.5z M16-179.4c0.867,0.033,1.7,0,2.5-0.1
			c-1.467,0.4-3.033,0.567-4.7,0.5c-4.133-0.2-7.683-1.733-10.65-4.6c-2.933-2.933-4.4-6.367-4.4-10.3c0-3.934,1.467-7.217,4.4-9.85
			c2.333-2.133,5.05-3.367,8.15-3.7c-2.2,0.6-4.183,1.7-5.95,3.3c-2.934,2.633-4.4,5.917-4.4,9.85c0,3.933,1.466,7.367,4.4,10.3
			C8.317-181.133,11.867-179.6,16-179.4c-4.133-0.2-7.683-1.733-10.65-4.6c-2.934-2.933-4.4-6.367-4.4-10.3
			c0-3.934,1.466-7.217,4.4-9.85c1.767-1.6,3.75-2.7,5.95-3.3c-3.1,0.333-5.816,1.567-8.15,3.7c-2.933,2.633-4.4,5.917-4.4,9.85
			c0,3.933,1.467,7.367,4.4,10.3c2.967,2.867,6.517,4.4,10.65,4.6c1.667,0.067,3.233-0.1,4.7-0.5
			C17.7-179.4,16.867-179.367,16-179.4z M16.65-183.9c2.733,0.1,5.083-0.717,7.05-2.45c1.966-1.767,2.95-3.967,2.95-6.6
			c0-2.6-0.983-4.867-2.95-6.8c-1.967-1.933-4.317-2.967-7.05-3.1c-2.767-0.133-5.133,0.7-7.1,2.5c-1.933,1.767-2.9,3.95-2.9,6.55
			c0,2.6,0.967,4.883,2.9,6.85C11.517-185.05,13.883-184.033,16.65-183.9c-2.767-0.133-5.133-1.15-7.1-3.05
			c-1.933-1.966-2.9-4.25-2.9-6.85c0-2.6,0.967-4.784,2.9-6.55c1.967-1.8,4.333-2.633,7.1-2.5c2.733,0.133,5.083,1.167,7.05,3.1
			c1.966,1.933,2.95,4.2,2.95,6.8c0,2.633-0.983,4.833-2.95,6.6C21.733-184.617,19.383-183.8,16.65-183.9z M18.5-179.5
			c3.067-0.3,5.783-1.5,8.15-3.6c2.934-2.667,4.4-5.967,4.4-9.9s-1.466-7.35-4.4-10.25c-2.967-2.933-6.517-4.483-10.65-4.65
			c-1.667-0.067-3.233,0.083-4.7,0.45c1.467-0.367,3.034-0.517,4.7-0.45c4.133,0.167,7.683,1.717,10.65,4.65
			c2.934,2.9,4.4,6.317,4.4,10.25s-1.466,7.233-4.4,9.9C24.283-181,21.567-179.8,18.5-179.5z M55.25-336.95
			c-6.967-3.566-15.35-5.35-25.15-5.35c-9.833,0-18.233,1.783-25.2,5.35c-6.933,3.534-10.4,7.784-10.4,12.75
			c0,5,3.467,9.267,10.4,12.8c6.967,3.533,15.367,5.3,25.2,5.3c9.8,0,18.183-1.767,25.15-5.3s10.45-7.8,10.45-12.8
			C65.7-329.167,62.217-333.417,55.25-336.95c6.967,3.534,10.45,7.784,10.45,12.75c0,5-3.483,9.267-10.45,12.8s-15.35,5.3-25.15,5.3
			c-9.833,0-18.233-1.767-25.2-5.3c-6.933-3.533-10.4-7.8-10.4-12.8c0-4.966,3.467-9.216,10.4-12.75
			c6.967-3.566,15.367-5.35,25.2-5.35C39.9-342.3,48.283-340.517,55.25-336.95z M49.8-322.15c0-2.767-1.933-5.133-5.8-7.1
			c-3.867-2-8.533-3-14-3s-10.133,1-14,3c-3.867,1.967-5.8,4.333-5.8,7.1s1.933,5.133,5.8,7.1c3.867,1.966,8.533,2.95,14,2.95
			s10.133-0.983,14-2.95C47.867-317.017,49.8-319.383,49.8-322.15c0,2.767-1.933,5.133-5.8,7.1c-3.867,1.966-8.533,2.95-14,2.95
			s-10.133-0.983-14-2.95c-3.867-1.967-5.8-4.333-5.8-7.1s1.933-5.133,5.8-7.1c3.867-2,8.533-3,14-3s10.133,1,14,3
			C47.867-327.283,49.8-324.917,49.8-322.15z M307.35-226.2c0.043,0.299,0.085,0.599,0.125,0.9c0.846,5.872,1.554,11.805,2.125,17.8
			c-0.571-5.995-1.279-11.928-2.125-17.8C307.435-225.602,307.394-225.901,307.35-226.2z M-14.65-3.3c0.667-0.867,1-1.867,1-3
			c0-1.915-1.75-3.098-5.25-3.55c-1.262-0.16-2.746-0.226-4.45-0.2c-1.875,0.024-3.541,0.199-5,0.525
			c-0.548,0.122-1.064,0.263-1.55,0.425c-1.967,0.667-2.9,1.483-2.8,2.45c0.467,1.367,1.117,2.517,1.95,3.45
			c-0.833-0.933-1.483-2.083-1.95-3.45c-0.1-0.967,0.833-1.783,2.8-2.45c0.485-0.162,1.002-0.303,1.55-0.425
			c1.459-0.326,3.125-0.501,5-0.525c1.705-0.026,3.188,0.04,4.45,0.2c3.5,0.452,5.25,1.636,5.25,3.55
			C-13.65-5.167-13.983-4.167-14.65-3.3z M-27.05-23.15c0.749-0.021,1.533-0.038,2.35-0.05c0.487,0,0.987,0,1.5,0c0.7,0,1.367,0,2,0
			c-0.633,0-1.3,0-2,0c-0.513,0-1.013,0-1.5,0C-25.517-23.188-26.301-23.171-27.05-23.15z M-27.05-38.75
			c0.714,0.557,1.423,1.099,2.125,1.625c1.252,0.935,2.494,1.826,3.725,2.675c-1.23-0.849-2.472-1.74-3.725-2.675
			C-25.627-37.651-26.335-38.193-27.05-38.75z M-75.375-49.25c2.103-0.323,4.645-1.057,7.625-2.2
			c2.005-0.396,3.914-1.213,5.725-2.45c3.374-2.31,6.416-6.076,9.125-11.3c0.033,0.133,0.066,0.25,0.1,0.35
			c-2.295,5.992-5.503,10.167-9.625,12.525C-62.615-52.209-62.807-52.101-63-52c-4.402,1.843-8.177,2.968-11.325,3.375
			c-5.783,0.753-9.441-0.922-10.975-5.025c-2.967-7.733-0.583-13.983,7.15-18.75c6.133-2.867,13.233-3.184,21.3-0.95
			c0.1,0.2,0.2,0.383,0.3,0.55c-8.867-1.633-15.517-1.3-19.95,1c-3.733,2.233-6.317,4.716-7.75,7.45s-1.683,5.617-0.75,8.65
			c1.133,3.7,2.983,5.85,5.55,6.45C-78.356-49.002-76.998-49.002-75.375-49.25c-1.623,0.248-2.981,0.248-4.075,0
			c-2.566-0.6-4.417-2.75-5.55-6.45c-0.933-3.033-0.683-5.917,0.75-8.65s4.017-5.217,7.75-7.45c4.433-2.3,11.083-2.633,19.95-1
			c-0.1-0.167-0.2-0.35-0.3-0.55c-8.066-2.233-15.167-1.917-21.3,0.95c-7.733,4.767-10.117,11.017-7.15,18.75
			c1.533,4.103,5.191,5.778,10.975,5.025C-71.177-49.032-67.402-50.157-63-52c0.193-0.101,0.385-0.209,0.575-0.325
			c4.122-2.358,7.33-6.533,9.625-12.525c-0.034-0.1-0.067-0.217-0.1-0.35c-2.709,5.224-5.751,8.991-9.125,11.3
			c-1.812,1.237-3.72,2.054-5.725,2.45C-70.73-50.307-73.272-49.573-75.375-49.25z M-68.8-26.7c-5.233-1.133-4.45-4.716,2.35-10.75
			c1.2-0.667,2.583-1.35,4.15-2.05c6.7-3,10.867-3.333,12.5-1c-1.633-2.333-5.8-2-12.5,1c-1.567,0.7-2.95,1.383-4.15,2.05
			C-73.25-31.417-74.033-27.833-68.8-26.7c-3.034-0.1-4.4-1.517-4.1-4.25c0.233-2.066,2.383-4.233,6.45-6.5
			c-4.066,2.267-6.216,4.434-6.45,6.5C-73.2-28.217-71.833-26.8-68.8-26.7z M-48.1-44c-0.033-0.133-0.05-0.283-0.05-0.45
			c-0.229-2.77-0.596-5.47-1.1-8.1c-0.25-1.303-0.533-2.586-0.85-3.85c-0.724-2.907-1.624-5.724-2.7-8.45
			c1.076,2.727,1.976,5.543,2.7,8.45c0.317,1.264,0.601,2.547,0.85,3.85c0.504,2.629,0.871,5.33,1.1,8.1
			C-48.15-44.283-48.133-44.133-48.1-44z M-52.9-65.2c-1.067-2.6-2.283-5.133-3.65-7.6C-55.183-70.333-53.967-67.8-52.9-65.2z
			 M-56.85-73.35c-1.833-3.2-3.933-6.267-6.3-9.2c-0.24-0.291-0.481-0.582-0.725-0.875c-2.654-3.109-5.629-6.068-8.925-8.875
			c-0.333-0.3-0.667-0.6-1-0.9c2.2-1.4,4.316-1.917,6.35-1.55c0.534,0.433,1.067,0.883,1.6,1.35c2.678,2.415,5.27,5.248,7.775,8.5
			c0.989,1.286,1.964,2.636,2.925,4.05c1.833,2.767,3.633,5.783,5.4,9.05c1.82,3.879,3.229,7.846,4.225,11.9
			c0.293,1.223,0.551,2.457,0.775,3.7c0.374,2.097,0.641,4.214,0.8,6.35c0,0.2,0.017,0.383,0.05,0.55
			c-0.033-0.167-0.05-0.35-0.05-0.55c-0.159-2.136-0.426-4.253-0.8-6.35c-0.224-1.243-0.482-2.477-0.775-3.7
			c-0.997-4.054-2.405-8.021-4.225-11.9c-1.767-3.267-3.567-6.284-5.4-9.05c-0.961-1.414-1.937-2.764-2.925-4.05
			c-2.505-3.252-5.097-6.085-7.775-8.5c-0.533-0.467-1.066-0.917-1.6-1.35c-2.033-0.367-4.15,0.15-6.35,1.55
			c0.333,0.3,0.667,0.6,1,0.9c3.295,2.807,6.271,5.766,8.925,8.875c0.244,0.293,0.485,0.584,0.725,0.875
			C-60.783-79.617-58.683-76.55-56.85-73.35z M-77.675-87.675c-0.473,0.571-0.948,1.113-1.425,1.625
			c-1.601,1.664-3.26,3.022-4.975,4.075c-1.038,0.636-2.097,1.162-3.175,1.575c-1.786,0.448-3.444,0.815-4.975,1.1
			c-5.669,1.025-9.644,0.908-11.925-0.35c-0.746-0.608-1.196-1.375-1.35-2.3c-0.358-2.22,0.992-5.354,4.05-9.4l0.05-0.05
			c6.9-4.8,15.667-5.75,26.3-2.85c0.434,0.367,0.867,0.717,1.3,1.05C-75.058-91.129-76.349-89.288-77.675-87.675
			c1.326-1.613,2.617-3.454,3.875-5.525c-0.434-0.333-0.867-0.683-1.3-1.05c-10.633-2.9-19.4-1.95-26.3,2.85l-0.05,0.05
			c-3.058,4.046-4.408,7.18-4.05,9.4c0.154,0.925,0.604,1.692,1.35,2.3c2.281,1.258,6.256,1.375,11.925,0.35
			c1.531-0.285,3.189-0.652,4.975-1.1c1.078-0.414,2.137-0.939,3.175-1.575c1.715-1.053,3.374-2.411,4.975-4.075
			C-78.623-86.562-78.147-87.104-77.675-87.675z M-50.95-94.4c-1.1-0.067-1.9,0.117-2.4,0.55c-0.633-0.333-1.267-0.667-1.9-1
			c-4.167-0.633-7.7-0.15-10.6,1.45c2.9-1.6,6.434-2.083,10.6-1.45c0.633,0.333,1.267,0.667,1.9,1
			C-52.85-94.283-52.05-94.467-50.95-94.4z M-38.45-53.55c0.874-2.351,1.432-4.792,1.675-7.325c0.11-1.103,0.16-2.219,0.15-3.35
			C-36.667-68.29-37.459-72.582-39-77.1c-0.067-0.133-0.117-0.283-0.15-0.45c-1.387-3.45-3.22-6.508-5.5-9.175
			c-2.01-2.341-4.359-4.383-7.05-6.125c-0.533-0.333-1.083-0.667-1.65-1c0.567,0.333,1.117,0.667,1.65,1
			c2.691,1.742,5.041,3.784,7.05,6.125c2.28,2.667,4.113,5.726,5.5,9.175c0.033,0.167,0.083,0.316,0.15,0.45
			c1.541,4.518,2.333,8.81,2.375,12.875c0.01,1.131-0.04,2.248-0.15,3.35C-37.019-58.342-37.577-55.901-38.45-53.55z M-95.65-30.7
			c0.4,0.167,0.816,0.317,1.25,0.45c1.4,0.5,2.717,0.75,3.95,0.75c3.034-0.464,4.758-2.398,5.175-5.8
			c0.017-0.149,0.034-0.299,0.05-0.45c0.046-0.623,0.054-1.289,0.025-2c-0.034-0.942-0.125-1.9-0.275-2.875
			C-86.08-44.441-87.588-48.55-90-52.95c-3.133-5.733-7.433-10.367-12.9-13.9c-4.15-2.657-7.566-3.607-10.25-2.85
			c-0.861,0.248-1.645,0.664-2.351,1.25c-0.767,1.567-1.316,3.284-1.649,5.15c-0.033,0.167-0.067,0.333-0.101,0.5
			c0.033-0.167,0.067-0.333,0.101-0.5c0.333-1.867,0.883-3.583,1.649-5.15c0.706-0.586,1.489-1.002,2.351-1.25
			c2.684-0.757,6.1,0.193,10.25,2.85c5.467,3.533,9.767,8.167,12.9,13.9c2.412,4.4,3.92,8.509,4.525,12.325
			c0.149,0.975,0.241,1.933,0.275,2.875c0.029,0.711,0.021,1.377-0.025,2c-0.016,0.151-0.033,0.301-0.05,0.45
			c-0.417,3.402-2.142,5.335-5.175,5.8c-1.233,0-2.55-0.25-3.95-0.75C-94.833-30.383-95.25-30.533-95.65-30.7z M-101.55-91.35h0.1
			c-3.933,3.9-5.566,6.85-4.9,8.85c0.052,0.245,0.118,0.478,0.2,0.7c0.365,0.922,1.032,1.639,2,2.15
			c-0.968-0.511-1.635-1.228-2-2.15c-0.082-0.222-0.148-0.456-0.2-0.7c-0.667-2,0.967-4.95,4.9-8.85H-101.55
			c0.035-0.001,0.085-0.018,0.15-0.05C-101.465-91.368-101.515-91.351-101.55-91.35z M-52-109.9
			c-20.444-4.861-40.652-10.095-60.625-15.7c-52.061-14.618-102.519-31.768-151.375-51.45c3.467-20.367,17.867-41.85,43.2-64.45
			c-25.333,22.6-39.733,44.083-43.2,64.45c48.856,19.682,99.314,36.832,151.375,51.45C-92.652-119.995-72.444-114.761-52-109.9z
			 M-264-177.05c-0.867,5.133-1.05,10.2-0.55,15.2c49.556,18.195,99.781,34.162,150.675,47.9
			c20.613,5.566,41.338,10.766,62.175,15.6c-20.836-4.834-41.562-10.034-62.175-15.6c-50.894-13.738-101.119-29.705-150.675-47.9
			C-265.05-166.85-264.867-171.917-264-177.05z M-7-343c24.067-2.767,48-3.067,71.8-0.9C41-346.067,17.067-345.767-7-343z"/>
		
			<path fill-rule="evenodd" clip-rule="evenodd" fill="none" stroke="#000000" stroke-width="5" stroke-linecap="round" stroke-linejoin="round" stroke-miterlimit="3" d="
			M193.5-58.8c-38.833-3.633-77.317-8.434-115.45-14.4c3.567-4.5,4.833-8.083,3.8-10.75c36.767,5.633,74.217,10.15,112.35,13.55
			L193.5-58.8z M83.2-268.95c1.386,1.021,2.761,2.037,4.125,3.05c31.322,23.449,56.23,46.632,74.725,69.55
			c0.66,0.817,1.31,1.634,1.95,2.45c18.644,23.666,30.444,47.049,35.4,70.15c-17.918,2.534-37.235,3.142-57.95,1.825
			c-2.561-0.162-5.144-0.353-7.75-0.575c-11.232-0.95-22.866-2.45-34.9-4.5c-20.276-3.456-40.584-7.373-60.925-11.75
			c-4.723-1.017-9.448-2.059-14.175-3.125c-20.121-4.533-40.271-9.516-60.45-14.95c-0.717-0.189-1.434-0.381-2.15-0.575
			c-19.14-5.18-38.307-10.763-57.5-16.75c-65.4-20.367-106.867-42.817-124.4-67.35c29.033-25.9,72.466-53.283,130.3-82.15
			c1.805-0.626,3.604-1.243,5.4-1.85c18.772-6.23,37.447-10.989,56.025-14.275C-21.698-341.084-14.34-342.159-7-343
			c-7.2,4.767-10.8,10.35-10.8,16.75c0,7.267,4.617,13.5,13.85,18.7c9.3,5.133,20.5,7.7,33.6,7.7c13.067,0,24.217-2.566,33.45-7.7
			c9.3-5.2,13.95-11.434,13.95-18.7c0-6.8-4.083-12.683-12.25-17.65c10.439,0.963,20.855,2.404,31.25,4.325
			c14.782,2.737,29.515,6.445,44.2,11.125c13.686,3.182,26.394,7.065,38.125,11.65c48.883,19.128,80.849,50.479,95.9,94.05
			c0.593,1.719,1.16,3.46,1.7,5.225c0.702,2.281,1.36,4.598,1.975,6.95c0.229,0.872,0.455,1.747,0.675,2.625
			c0.126,0.525,0.251,1.05,0.375,1.575c0.424,1.816,0.824,3.649,1.2,5.5c0.419,2.077,0.803,4.177,1.15,6.3
			c0.638,3.769,1.171,7.61,1.6,11.525c-9.4,55.867-39.217,97.283-89.45,124.25 M194.2-70.4c34.933-24.434,56.35-48.1,64.25-71
			c-0.788,0.389-1.58,0.772-2.375,1.15c-17.021,8.07-35.913,13.57-56.675,16.5 M308.65-188.8c0.833-6.1,1.167-12.15,1-18.15
			c-0.033-0.167-0.05-0.35-0.05-0.55c-0.192-6.017-0.892-12-2.1-17.95c-0.048-0.253-0.098-0.503-0.15-0.75
			c-0.067-0.267-0.133-0.533-0.2-0.8l-0.55-2.5c-0.081-0.368-0.165-0.735-0.25-1.1C278.316-356.835,218.4-431.785,126.6-455.45
			c-15.204-4.344-30.404-7.786-45.6-10.325c-42.228-7.035-84.453-7.085-126.675-0.15c-39.511,6.477-79.02,19.068-118.525,37.775
			c-72.399,25.066-121.783,102.9-148.149,233.5l4.05,22.3c0,0.1,0.017,0.184,0.05,0.25c0,0.033,0,0.067,0,0.1v0.1l0.05,0.35
			c0,0.267,0.033,0.517,0.101,0.75c1.166,8.133,8.199,14.816,21.1,20.05c53.182,21.543,108.798,39.793,166.851,54.75
			c6.175,1.585,12.374,3.135,18.6,4.65c-4.934,1.434-9.517,3.367-13.75,5.8c-5.667,3.667-7.633,8.1-5.9,13.3
			c1.7,5.233,3.018,8.383,3.95,9.45c-1.166,7.367,0.483,13.917,4.95,19.65c4.466,5.8,10.017,9.95,16.65,12.45
			c1.267,2.2,2.3,3.75,3.1,4.65c2.966,2.9,6.65,4.083,11.05,3.55c4.367-0.867,8.6-2.267,12.7-4.2c1.93-0.184,3.73-0.525,5.4-1.025
			c3.002-0.906,5.593-2.323,7.775-4.25C-53.278-34.057-51.403-36.731-50-40c0.067-0.167,0.133-0.333,0.2-0.5
			c0.6-0.6,1.2-1.217,1.8-1.85c-0.033-0.533-0.067-1.083-0.1-1.65c1.633-0.433,3.067-1.567,4.3-3.4
			c-0.034-0.633-0.067-1.267-0.1-1.9c1.066-0.267,2.117-0.767,3.15-1.5c4.633,4.566,9.2,8.583,13.7,12.05v15.6
			c-7.367,0.333-11.067,1.75-11.1,4.25c-0.967,8.333,1.5,13.566,7.4,15.7c1.733,2.067,4.233,3.133,7.5,3.2
			c0.038-0.003,0.08-0.003,0.125,0c1.688-0.142,3.163-0.408,4.425-0.8c0.934-0.299,1.75-0.666,2.45-1.1c0.667-0.434,1.2-0.9,1.6-1.4
			c2.505-1.033,4.338-2.666,5.5-4.9c1.252-2.377,1.744-5.436,1.475-9.175C-7.703-17.843-7.744-18.318-7.8-18.8
			c-0.028-2.292-3.253-3.692-9.675-4.2c-1.138-0.098-2.38-0.165-3.725-0.2v-11.25c11.934,8.167,23.317,12.534,34.15,13.1
			c15.561,0.847,28.403-2.162,38.525-9.025c5.935-4.015,10.935-9.357,15-16.025c2.377-3.912,4.435-8.279,6.175-13.1
			c38.267,4.867,77.417,8.517,117.45,10.95c21.533,2.167,40.833-6.05,57.9-24.65c19.167-20.867,34-43.367,44.5-67.5
			c7.6-14.3,12.683-28.383,15.25-42.25c0.2-1.066,0.383-2.15,0.55-3.25L308.65-188.8z M-40.75-50.8c0.6-0.434,1.217-0.967,1.85-1.6
			c0.167-0.367,0.316-0.75,0.45-1.15c1.167-0.034,2.467-0.667,3.9-1.9c0.607-1.954,1.074-3.854,1.4-5.7
			c0.212-1.21,0.362-2.393,0.45-3.55c0.336-4.268-0.147-8.218-1.45-11.85c-0.133-0.367-0.267-0.717-0.4-1.05
			c-2.067-3.735-4.393-7.043-6.975-9.925c-2.178-2.408-4.537-4.516-7.075-6.325c-0.9-0.267-1.683-0.45-2.35-0.55
			c-0.3-1.333-0.55-2.65-0.75-3.95c-0.667-4.2-0.767-8.05-0.3-11.55c1.3-10.467,7.5-17.65,18.6-21.55
			c5.346-1.53,11.421-2.338,18.225-2.425c4.002-0.041,8.26,0.167,12.775,0.625c6.133,0.1,12.25,2.3,18.35,6.6
			c3.366,2.063,5.999,4.162,7.9,6.3c4.047,4.531,4.814,9.231,2.3,14.1c-0.667,4.9-0.133,9.3,1.6,13.2
			c0.033,0.133,0.083,0.267,0.15,0.4c-4.833,1.566-6.35,4.917-4.55,10.05c0.1,0.367,0.233,0.733,0.4,1.1
			c0.667,6.967-2.083,11.567-8.25,13.8c-2.3,0.833-5.067,1.333-8.3,1.5C1.8-65.067-4-67.033-10.2-72.1
			c-0.842-0.665-1.684-1.39-2.525-2.175c-0.426-0.393-0.851-0.801-1.275-1.225 M27.75-93.05c0.3,0.066,0.617,0.117,0.95,0.15
			c-0.267,0.1-0.534,0.183-0.8,0.25 M81.85-83.95c-0.6-1.5-1.967-2.7-4.1-3.6c-0.65-0.27-1.3-0.528-1.95-0.775
			c-0.701-0.288-1.4-0.563-2.1-0.825v-5.7c-1.706-3.388-5.189-5.796-10.45-7.225c-2.243-0.601-4.81-1.026-7.7-1.275
			c-11.6-0.167-18.633,1.567-21.1,5.2v4.3c-1.233,0.167-2.4,0.35-3.5,0.55c-0.8,0.133-1.55,0.267-2.25,0.4 M34.45-93.85
			c0.138-0.015,0.28-0.032,0.425-0.05c5.727-0.576,12.885-0.376,21.475,0.6c0.6,0.064,1.2,0.139,1.8,0.225
			c5.065,0.681,10.249,1.989,15.55,3.925 M72.65-59.5c1.233-3.467,2.317-7.2,3.25-11.2c0.767-0.867,1.483-1.7,2.15-2.5 M16-179.4
			c0.867,0.033,1.7,0,2.5-0.1c-1.467,0.4-3.033,0.567-4.7,0.5c-4.133-0.2-7.683-1.733-10.65-4.6c-2.933-2.933-4.4-6.367-4.4-10.3
			c0-3.934,1.467-7.217,4.4-9.85c2.333-2.133,5.05-3.367,8.15-3.7c-2.2,0.6-4.183,1.7-5.95,3.3c-2.934,2.633-4.4,5.917-4.4,9.85
			c0,3.933,1.466,7.367,4.4,10.3C8.317-181.133,11.867-179.6,16-179.4z M16.65-183.9c2.733,0.1,5.083-0.717,7.05-2.45
			c1.966-1.767,2.95-3.967,2.95-6.6c0-2.6-0.983-4.867-2.95-6.8c-1.967-1.933-4.317-2.967-7.05-3.1c-2.767-0.133-5.133,0.7-7.1,2.5
			c-1.933,1.767-2.9,3.95-2.9,6.55c0,2.6,0.967,4.883,2.9,6.85C11.517-185.05,13.883-184.033,16.65-183.9z M18.5-179.5
			c3.067-0.3,5.783-1.5,8.15-3.6c2.934-2.667,4.4-5.967,4.4-9.9s-1.466-7.35-4.4-10.25c-2.967-2.933-6.517-4.483-10.65-4.65
			c-1.667-0.067-3.233,0.083-4.7,0.45 M55.25-336.95c-6.967-3.566-15.35-5.35-25.15-5.35c-9.833,0-18.233,1.783-25.2,5.35
			c-6.933,3.534-10.4,7.784-10.4,12.75c0,5,3.467,9.267,10.4,12.8c6.967,3.533,15.367,5.3,25.2,5.3c9.8,0,18.183-1.767,25.15-5.3
			s10.45-7.8,10.45-12.8C65.7-329.167,62.217-333.417,55.25-336.95z M49.8-322.15c0-2.767-1.933-5.133-5.8-7.1
			c-3.867-2-8.533-3-14-3s-10.133,1-14,3c-3.867,1.967-5.8,4.333-5.8,7.1s1.933,5.133,5.8,7.1c3.867,1.966,8.533,2.95,14,2.95
			s10.133-0.983,14-2.95C47.867-317.017,49.8-319.383,49.8-322.15z M-308.3-172.35c0-0.033,0-0.083,0-0.15
			c-0.4-8.9,6.083-27.267,19.45-55.1c13.333-27.8,43.732-60.517,91.199-98.15c34.665-25.217,70.44-43.959,107.325-56.225
			c62.183-20.667,127.517-22.908,196-6.725c16.131,3.808,32.439,8.641,48.925,14.5c56.8,19.5,97.85,49.4,123.15,89.7
			c12.099,19.289,20.699,37.106,25.8,53.45c1.043,3.34,1.943,6.615,2.7,9.825c2.702,11.614,3.501,22.422,2.4,32.425 M307.35-226.2
			c0.043,0.299,0.085,0.599,0.125,0.9c0.846,5.872,1.554,11.805,2.125,17.8 M-14.65-3.3c0.667-0.867,1-1.867,1-3
			c0-1.915-1.75-3.098-5.25-3.55c-1.262-0.16-2.746-0.226-4.45-0.2c-1.875,0.024-3.541,0.199-5,0.525
			c-0.548,0.122-1.064,0.263-1.55,0.425c-1.967,0.667-2.9,1.483-2.8,2.45c0.467,1.367,1.117,2.517,1.95,3.45 M-27.05-23.15
			c0.749-0.021,1.533-0.038,2.35-0.05c0.487,0,0.987,0,1.5,0c0.7,0,1.367,0,2,0 M-27.05-38.75c0.714,0.557,1.423,1.099,2.125,1.625
			c1.252,0.935,2.494,1.826,3.725,2.675 M-75.375-49.25c2.103-0.323,4.645-1.057,7.625-2.2c2.005-0.396,3.914-1.213,5.725-2.45
			c3.374-2.31,6.416-6.076,9.125-11.3c0.033,0.133,0.066,0.25,0.1,0.35c-2.295,5.992-5.503,10.167-9.625,12.525
			C-62.615-52.209-62.807-52.101-63-52c-4.402,1.843-8.177,2.968-11.325,3.375c-5.783,0.753-9.441-0.922-10.975-5.025
			c-2.967-7.733-0.583-13.983,7.15-18.75c6.133-2.867,13.233-3.184,21.3-0.95c0.1,0.2,0.2,0.383,0.3,0.55
			c-8.867-1.633-15.517-1.3-19.95,1c-3.733,2.233-6.317,4.716-7.75,7.45s-1.683,5.617-0.75,8.65c1.133,3.7,2.983,5.85,5.55,6.45
			C-78.356-49.002-76.998-49.002-75.375-49.25z M-68.8-26.7c-5.233-1.133-4.45-4.716,2.35-10.75c1.2-0.667,2.583-1.35,4.15-2.05
			c6.7-3,10.867-3.333,12.5-1 M-68.8-26.7c-3.034-0.1-4.4-1.517-4.1-4.25c0.233-2.066,2.383-4.233,6.45-6.5 M-48.1-44
			c-0.033-0.133-0.05-0.283-0.05-0.45c-0.229-2.77-0.596-5.47-1.1-8.1c-0.25-1.303-0.533-2.586-0.85-3.85
			c-0.724-2.907-1.624-5.724-2.7-8.45 M-52.9-65.2c-1.067-2.6-2.283-5.133-3.65-7.6 M-56.85-73.35c-1.833-3.2-3.933-6.267-6.3-9.2
			c-0.24-0.291-0.481-0.582-0.725-0.875c-2.654-3.109-5.629-6.068-8.925-8.875c-0.333-0.3-0.667-0.6-1-0.9
			c2.2-1.4,4.316-1.917,6.35-1.55c0.534,0.433,1.067,0.883,1.6,1.35c2.678,2.415,5.27,5.248,7.775,8.5
			c0.989,1.286,1.964,2.636,2.925,4.05c1.833,2.767,3.633,5.783,5.4,9.05c1.82,3.879,3.229,7.846,4.225,11.9
			c0.293,1.223,0.551,2.457,0.775,3.7c0.374,2.097,0.641,4.214,0.8,6.35c0,0.2,0.017,0.383,0.05,0.55 M-77.675-87.675
			c-0.473,0.571-0.948,1.113-1.425,1.625c-1.601,1.664-3.26,3.022-4.975,4.075c-1.038,0.636-2.097,1.162-3.175,1.575
			c-1.786,0.448-3.444,0.815-4.975,1.1c-5.669,1.025-9.644,0.908-11.925-0.35c-0.746-0.608-1.196-1.375-1.35-2.3
			c-0.358-2.22,0.992-5.354,4.05-9.4l0.05-0.05c6.9-4.8,15.667-5.75,26.3-2.85c0.434,0.367,0.867,0.717,1.3,1.05
			C-75.058-91.129-76.349-89.288-77.675-87.675z M-50.95-94.4c-1.1-0.067-1.9,0.117-2.4,0.55c-0.633-0.333-1.267-0.667-1.9-1
			c-4.167-0.633-7.7-0.15-10.6,1.45 M-38.45-53.55c0.874-2.351,1.432-4.792,1.675-7.325c0.11-1.103,0.16-2.219,0.15-3.35
			C-36.667-68.29-37.459-72.582-39-77.1c-0.067-0.133-0.117-0.283-0.15-0.45c-1.387-3.45-3.22-6.508-5.5-9.175
			c-2.01-2.341-4.359-4.383-7.05-6.125c-0.533-0.333-1.083-0.667-1.65-1 M-95.65-30.7c0.4,0.167,0.816,0.317,1.25,0.45
			c1.4,0.5,2.717,0.75,3.95,0.75c3.034-0.464,4.758-2.398,5.175-5.8c0.017-0.149,0.034-0.299,0.05-0.45
			c0.046-0.623,0.054-1.289,0.025-2c-0.034-0.942-0.125-1.9-0.275-2.875C-86.08-44.441-87.588-48.55-90-52.95
			c-3.133-5.733-7.433-10.367-12.9-13.9c-4.15-2.657-7.566-3.607-10.25-2.85c-0.861,0.248-1.645,0.664-2.351,1.25
			c-0.767,1.567-1.316,3.284-1.649,5.15c-0.033,0.167-0.067,0.333-0.101,0.5 M-101.55-91.35h0.1c-3.933,3.9-5.566,6.85-4.9,8.85
			c0.052,0.245,0.118,0.478,0.2,0.7c0.365,0.922,1.032,1.639,2,2.15 M-101.4-91.4c-0.065,0.032-0.115,0.049-0.15,0.05 M-52-109.9
			c-20.444-4.861-40.652-10.095-60.625-15.7c-52.061-14.618-102.519-31.768-151.375-51.45c3.467-20.367,17.867-41.85,43.2-64.45
			 M-264-177.05c-0.867,5.133-1.05,10.2-0.55,15.2c49.556,18.195,99.781,34.162,150.675,47.9
			c20.613,5.566,41.338,10.766,62.175,15.6 M-7-343c24.067-2.767,48-3.067,71.8-0.9"/>
	</g>
	<g id="Layer_2_2_">
		<path fill-rule="evenodd" clip-rule="evenodd" fill="#CCCCCC" d="M-15.175-133.875c-4.403,3.348-8.378,7.29-11.925,11.825
			c-3.2,4.033-5.167,7.1-5.9,9.2c-1.133,3.3-2.233,7.483-3.3,12.55c-1.133,5.133-1.85,8.167-2.15,9.1
			c-0.633,1.967-1.25,3.1-1.85,3.4c-0.256,0.127-0.664,0.219-1.225,0.275c2.583,2.881,4.908,6.189,6.975,9.925
			c0.133,0.333,0.267,0.684,0.4,1.05c1.303,3.632,1.786,7.582,1.45,11.85c4.692,0.484,8.442,5.301,11.25,14.45
			c1.434,4.667,5.35,8.717,11.75,12.15c2.278,1.239,4.395,2.189,6.35,2.85c-7.261-1.799-13.194-5.999-17.8-12.6
			c-1.567-2.2-3.533-5.25-5.9-9.15c-1.955-2.704-3.988-4.087-6.1-4.15c-0.326,1.846-0.792,3.746-1.4,5.7
			c-1.434,1.233-2.733,1.867-3.9,1.9c-0.133,0.4-0.283,0.783-0.45,1.15c-0.633,0.633-1.25,1.167-1.85,1.6
			c4.633,4.566,9.2,8.583,13.7,12.05c0.714,0.557,1.423,1.099,2.125,1.625c1.252,0.935,2.494,1.826,3.725,2.675
			c11.934,8.167,23.317,12.534,34.15,13.1c15.561,0.847,28.403-2.162,38.525-9.025c-1.54-0.521-2.665-1.246-3.375-2.175
			c-0.667-0.9-1-2.1-1-3.6c0-2.434,1.6-4.817,4.8-7.15c3.5-2.534,7.5-3.8,12-3.8c0.933,0,1.792,0.233,2.575,0.7
			c2.377-3.912,4.435-8.279,6.175-13.1c1.233-3.467,2.317-7.2,3.25-11.2c0.767-0.867,1.483-1.7,2.15-2.5
			c3.567-4.5,4.833-8.083,3.8-10.75c-0.6-1.5-1.967-2.7-4.1-3.6c-0.65-0.27-1.3-0.528-1.95-0.775c0.034,0.214,0.05,0.439,0.05,0.675
			c0,1.367-0.133,2.133-0.4,2.3c-0.467,0.3-2.117,0.45-4.95,0.45c-1.6,0-4.2-0.25-7.8-0.75c-3.633-0.5-6.6-0.75-8.9-0.75
			c-1.867,0-3.033,0.267-3.5,0.8c-0.267,0.3-0.367,0.9-0.3,1.8c0.1,1.767-1.75,2.65-5.55,2.65c-4.434-0.267-6.817-0.4-7.15-0.4
			c-1.867,0-3.95,1.85-6.25,5.55c-2.3,3.667-4.45,8.533-6.45,14.6c-2.233,6.7-3.684,10.6-4.35,11.7c-2.633,4.4-6.55,6.6-11.75,6.6
			c-5.6,0-11.683-4.8-18.25-14.4c-1.775-2.55-3.4-5.192-4.875-7.925c2.419,3.259,5.21,6.134,8.375,8.625c5.9,4.667,11.233,7,16,7
			c4.233,0,7.617-1.733,10.15-5.2c0.9-1.267,2.667-4.933,5.3-11c0.9-2.067,1.7-4.6,2.4-7.6c0.4-1.633,0.933-3.883,1.6-6.75
			c1.267-4.566,3.517-7.066,6.75-7.5c-0.034-0.066-0.4-0.733-1.1-2c-0.533-0.933-0.8-1.7-0.8-2.3c0-0.333,0.067-0.867,0.2-1.6
			c0.052,0,0.26-0.05,0.625-0.15c-0.145,0.018-0.287,0.035-0.425,0.05c-1.233,0.167-2.4,0.35-3.5,0.55
			c-0.8,0.133-1.55,0.267-2.25,0.4c-0.267,0.1-0.534,0.183-0.8,0.25c-4.833,1.566-6.35,4.917-4.55,10.05
			c0.1,0.367,0.233,0.733,0.4,1.1c0.667,6.967-2.083,11.567-8.25,13.8c-2.3,0.833-5.067,1.333-8.3,1.5
			C1.8-65.067-4-67.033-10.2-72.1c-0.842-0.665-1.684-1.39-2.525-2.175c0.903,0.159,1.828,0.317,2.775,0.475
			c2.434,0.433,4.5,0.65,6.2,0.65c6.967,0,11.717-0.917,14.25-2.75c2.4-1.733,3.6-4.883,3.6-9.45c0-1.267-0.1-2.883-0.3-4.85
			c-0.233-1.933-0.35-3.417-0.35-4.45c0-2.2,0.367-3.8,1.1-4.8c0.434-0.6,1.267-1.2,2.5-1.8c2.367-1.2,3.55-3.667,3.55-7.4
			c0-0.233-0.2-1.033-0.6-2.4c-0.433-1.667-0.65-3.35-0.65-5.05c0-1.7,0.9-2.933,2.7-3.7c0.517-0.217,1.117-0.4,1.8-0.55
			c-1.901-2.138-4.534-4.237-7.9-6.3c-6.1-4.3-12.217-6.5-18.35-6.6C-6.915-133.708-11.173-133.916-15.175-133.875z M-85.225-35.75
			c-0.016,0.151-0.033,0.301-0.05,0.45c-0.417,3.402-2.142,5.335-5.175,5.8c-1.233,0-2.55-0.25-3.95-0.75
			c-0.434-0.133-0.85-0.283-1.25-0.45c1.267,2.2,2.3,3.75,3.1,4.65c2.966,2.9,6.65,4.083,11.05,3.55c4.367-0.867,8.6-2.267,12.7-4.2
			c-3.034-0.1-4.4-1.517-4.1-4.25c0.233-2.066,2.383-4.233,6.45-6.5c1.2-0.667,2.583-1.35,4.15-2.05c6.7-3,10.867-3.333,12.5-1
			c0.6-0.6,1.2-1.217,1.8-1.85c-0.033-0.533-0.067-1.083-0.1-1.65c-0.033-0.133-0.05-0.283-0.05-0.45
			c-0.229-2.77-0.596-5.47-1.1-8.1c-0.493,0.566-1.093,1.35-1.8,2.35c-0.7,0.967-1.417,2-2.15,3.1c-0.267,0.4-2.066,1.483-5.4,3.25
			c-3.6,1.867-6.066,3.45-7.4,4.75c-2.967,2.9-8.783,3.95-17.45,3.15C-83.887-35.988-84.479-35.921-85.225-35.75z M-9.15-8.2
			c-0.956-0.633-1.806-1.367-2.55-2.2c-1.167-1.367-1.75-2.383-1.75-3.05c0-1.133,0.75-2.117,2.25-2.95
			c1.124-0.66,2.299-0.985,3.525-0.975C-7.703-17.843-7.744-18.318-7.8-18.8c-0.028-2.292-3.253-3.692-9.675-4.2
			c-0.926,4.666-1.417,8.699-1.475,12.1c0.014,0.355,0.031,0.706,0.05,1.05c3.5,0.452,5.25,1.636,5.25,3.55c0,1.133-0.333,2.133-1,3
			C-12.145-4.333-10.312-5.966-9.15-8.2z M62.275-59.225c-0.106-0.015-0.256-0.165-0.45-0.45c-0.187-0.284-0.412-0.708-0.675-1.275
			c-0.133-0.3-0.2-1.066-0.2-2.3c0-2,0.483-3.55,1.45-4.65c0.733-0.833,1.517-1.25,2.35-1.25c1.867,0,3.117,0.767,3.75,2.3
			c0.3,0.7,0.45,1.583,0.45,2.65c0,1.5-0.5,2.717-1.5,3.65c-0.767,0.7-1.467,1.05-2.1,1.05c-0.837,0.001-1.537,0.052-2.1,0.15
			C62.696-59.253,62.371-59.211,62.275-59.225z M18.5-179.5c3.067-0.3,5.783-1.5,8.15-3.6c2.934-2.667,4.4-5.967,4.4-9.9
			s-1.466-7.35-4.4-10.25c-2.967-2.933-6.517-4.483-10.65-4.65c-1.667-0.067-3.233,0.083-4.7,0.45c-2.2,0.6-4.183,1.7-5.95,3.3
			c-2.934,2.633-4.4,5.917-4.4,9.85c0,3.933,1.466,7.367,4.4,10.3c2.967,2.867,6.517,4.4,10.65,4.6
			C16.867-179.367,17.7-179.4,18.5-179.5z M9.55-186.95c-1.933-1.966-2.9-4.25-2.9-6.85c0-2.6,0.967-4.784,2.9-6.55
			c1.967-1.8,4.333-2.633,7.1-2.5c2.733,0.133,5.083,1.167,7.05,3.1c1.966,1.933,2.95,4.2,2.95,6.8c0,2.633-0.983,4.833-2.95,6.6
			c-1.967,1.733-4.317,2.55-7.05,2.45C13.883-184.033,11.517-185.05,9.55-186.95z M-84.075-81.975
			c-1.038,0.636-2.097,1.162-3.175,1.575c-1.786,0.448-3.444,0.815-4.975,1.1c-5.669,1.025-9.644,0.908-11.925-0.35
			c-0.968-0.511-1.635-1.228-2-2.15c-1.009,0.36-2.275,1.343-3.8,2.95c-2.199,2.333-3.3,4.7-3.3,7.1c0,0.703,0.033,1.386,0.101,2.05
			c2.684-0.757,6.1,0.193,10.25,2.85c5.467,3.533,9.767,8.167,12.9,13.9c2.412,4.4,3.92,8.509,4.525,12.325
			c1.267,0.45,2.125,0.675,2.575,0.675c2.3,0,4.733-0.383,7.3-1.15c1.733-0.5,6.9-2.283,15.5-5.35c4.033-1.433,6.317-2.433,6.85-3
			c0.467-0.5,1.117-1.883,1.95-4.15c0.314-0.543,0.714-1.477,1.2-2.8c-0.724-2.907-1.624-5.724-2.7-8.45
			c-2.295,5.992-5.503,10.167-9.625,12.525C-62.615-52.209-62.807-52.101-63-52c-4.402,1.843-8.177,2.968-11.325,3.375
			c-5.783,0.753-9.441-0.922-10.975-5.025c-2.967-7.733-0.583-13.983,7.15-18.75c6.133-2.867,13.233-3.184,21.3-0.95
			c-1.833-3.2-3.933-6.267-6.3-9.2c-0.24-0.291-0.481-0.582-0.725-0.875c-1.764-0.351-4.806-1.276-9.125-2.775
			c-1.689-0.576-3.248-1.068-4.675-1.475c-0.473,0.571-0.948,1.113-1.425,1.625C-80.701-84.386-82.36-83.028-84.075-81.975z
			 M-12.725-74.275c-0.426-0.393-0.851-0.801-1.275-1.225C-13.576-75.076-13.151-74.667-12.725-74.275z"/>
		<path fill-rule="evenodd" clip-rule="evenodd" fill="#3E3939" d="M-113.149-69.7c-0.861,0.248-1.645,0.664-2.351,1.25
			c-0.767,1.567-1.316,3.284-1.649,5.15c-0.033,0.167-0.067,0.333-0.101,0.5c-1.166,7.367,0.483,13.917,4.95,19.65
			c4.466,5.8,10.017,9.95,16.65,12.45c0.4,0.167,0.816,0.317,1.25,0.45c1.4,0.5,2.717,0.75,3.95,0.75
			c3.034-0.464,4.758-2.398,5.175-5.8c0.017-0.149,0.034-0.299,0.05-0.45c-0.571,0.123-1.229,0.306-1.975,0.55
			c-0.034,0.012-0.067,0.021-0.1,0.025c-1.346,0.106-3.279,0.265-5.8,0.475c-4.9,0-7.35-1.216-7.35-3.65
			c0-0.533,1.117-1.417,3.35-2.65c2.333-1.267,4.167-1.9,5.5-1.9c0.233,0,1.567,0.483,4,1.45c0.801,0.325,1.509,0.6,2.125,0.825
			C-86.08-44.441-87.588-48.55-90-52.95c-3.133-5.733-7.433-10.367-12.9-13.9C-107.05-69.507-110.466-70.457-113.149-69.7z
			 M-18.9-9.85c-1.262-0.16-2.746-0.226-4.45-0.2c-1.875,0.024-3.541,0.199-5,0.525c-0.548,0.122-1.064,0.263-1.55,0.425
			c-1.967,0.667-2.9,1.483-2.8,2.45c0.467,1.367,1.117,2.517,1.95,3.45c1.733,2.067,4.233,3.133,7.5,3.2
			c0.038-0.003,0.08-0.003,0.125,0c1.688-0.142,3.163-0.408,4.425-0.8c0.934-0.299,1.75-0.666,2.45-1.1c0.667-0.434,1.2-0.9,1.6-1.4
			c0.667-0.867,1-1.867,1-3C-13.65-8.214-15.4-9.398-18.9-9.85z M11.3-207.45c-3.1,0.333-5.816,1.567-8.15,3.7
			c-2.933,2.633-4.4,5.917-4.4,9.85c0,3.933,1.467,7.367,4.4,10.3c2.967,2.867,6.517,4.4,10.65,4.6c1.667,0.067,3.233-0.1,4.7-0.5
			c-0.8,0.1-1.633,0.133-2.5,0.1c-4.133-0.2-7.683-1.733-10.65-4.6c-2.934-2.933-4.4-6.367-4.4-10.3c0-3.934,1.466-7.217,4.4-9.85
			C7.117-205.75,9.1-206.85,11.3-207.45z"/>
		<path fill-rule="evenodd" clip-rule="evenodd" fill="#F8F7F5" d="M105.675-388.7c-68.483-16.183-133.817-13.941-196,6.725
			c-2.242,2.118-4.017,3.793-5.325,5.025c-5.633,5.367-8.45,9.233-8.45,11.6c3.233,3.267,6.467,6.934,9.7,11
			c6.433,8.2,9.65,14.733,9.65,19.6c0,3.377-0.117,6.46-0.35,9.25c18.772-6.23,37.447-10.989,56.025-14.275
			C-21.698-341.084-14.34-342.159-7-343c24.067-2.767,48-3.067,71.8-0.9c8.167,4.967,12.25,10.85,12.25,17.65
			c0,7.267-4.65,13.5-13.95,18.7c-9.233,5.133-20.383,7.7-33.45,7.7c-13.1,0-24.3-2.566-33.6-7.7
			c-9.233-5.2-13.85-11.434-13.85-18.7c0-6.4,3.6-11.983,10.8-16.75c-7.34,0.841-14.698,1.916-22.075,3.225
			c-18.578,3.286-37.253,8.044-56.025,14.275c-1.795,0.607-3.595,1.224-5.4,1.85c-57.834,28.867-101.267,56.25-130.3,82.15
			c17.533,24.533,59,46.983,124.4,67.35c19.193,5.987,38.36,11.57,57.5,16.75c0.716,0.194,1.433,0.385,2.15,0.575
			c20.179,5.434,40.329,10.417,60.45,14.95c4.727,1.066,9.452,2.108,14.175,3.125H52c21.733-1.1,35.667-3,41.8-5.7
			c3.267-1.4,5.5-3.333,6.7-5.8c1-2.033,1.5-4.983,1.5-8.85c0-7.2-1.6-13.75-4.8-19.65c-1.833-3.4-5.333-8.1-10.5-14.1
			c-5.067-5.867-8.583-10.7-10.55-14.5c-3.2-6.167-4.8-13.083-4.8-20.75c0-1.566,0.417-3.033,1.25-4.4c0.4-0.667,1.433-2,3.1-4
			c3.566-4.3,6.2-9.167,7.9-14.6c1.419-4.572,2.661-9.505,3.725-14.8c0.057-0.296,0.115-0.596,0.175-0.9
			c1.367-4.434,4.483-9.75,9.35-15.95c4.533-5.7,12.167-10.35,22.9-13.95c3.867-1.267,8.783-2.633,14.75-4.1
			c3.4-0.833,8.467-2.05,15.2-3.65c11.933-3.033,20.583-6.433,25.95-10.2c0.975-0.681,1.883-1.397,2.725-2.15
			c-11.731-4.585-24.439-8.468-38.125-11.65c-14.685-4.68-29.418-8.388-44.2-11.125c-10.395-1.92-20.811-3.362-31.25-4.325
			c10.439,0.963,20.855,2.404,31.25,4.325c-0.021-0.09-0.038-0.182-0.05-0.275V-346c4.967-0.267,10.3-0.333,16-0.2
			c3.067,0.1,6.9,0.233,11.5,0.4c3.3,0.033,5.617-0.2,6.95-0.7c1.533-0.6,2.3-1.767,2.3-3.5c0-2.733-1.067-4.917-3.2-6.55
			c-1.2-0.9-3.85-2.217-7.95-3.95c-9.367-3.9-16.233-9.267-20.6-16.1v-2c3.1,0.7,5.017,0.4,5.75-0.9c0.233-0.4,0.35-1.65,0.35-3.75
			C107.1-385.45,106.625-387.267,105.675-388.7c16.131,3.808,32.439,8.641,48.925,14.5c56.8,19.5,97.85,49.4,123.15,89.7
			c12.099,19.289,20.699,37.106,25.8,53.45c1.043,3.34,1.943,6.615,2.7,9.825c2.702,11.614,3.501,22.422,2.4,32.425
			c0.833-6.1,1.167-12.15,1-18.15c-0.033-0.167-0.05-0.35-0.05-0.55c-0.571-5.995-1.279-11.928-2.125-17.8
			c-0.04-0.302-0.082-0.602-0.125-0.9c-0.067-0.267-0.133-0.533-0.2-0.8l-0.55-2.5c-0.081-0.368-0.165-0.735-0.25-1.1
			C278.316-356.835,218.4-431.785,126.6-455.45c-15.204-4.344-30.404-7.786-45.6-10.325c3.289,4.363,6.172,9.238,8.65,14.625
			c2.633,5.767,4.617,11.75,5.95,17.95c1,4.767,1.467,8.667,1.4,11.7c-0.433,13.967,1.1,23.333,4.6,28.1
			c1.8,1.933,3.05,3.35,3.75,4.25C105.462-389.006,105.57-388.856,105.675-388.7z M11.3-207.45c1.467-0.367,3.034-0.517,4.7-0.45
			c4.133,0.167,7.683,1.717,10.65,4.65c2.934,2.9,4.4,6.317,4.4,10.25s-1.466,7.233-4.4,9.9c-2.367,2.1-5.083,3.3-8.15,3.6
			c-1.467,0.4-3.033,0.567-4.7,0.5c-4.133-0.2-7.683-1.733-10.65-4.6c-2.933-2.933-4.4-6.367-4.4-10.3c0-3.934,1.467-7.217,4.4-9.85
			C5.483-205.883,8.2-207.117,11.3-207.45z M83.2-268.95c1.386,1.021,2.761,2.037,4.125,3.05
			C85.961-266.913,84.586-267.93,83.2-268.95z"/>
		<path fill-rule="evenodd" clip-rule="evenodd" fill="#EBE6E2" d="M162.05-196.35c0.578-3.278,0.645-6.862,0.2-10.75h11.25
			c4.667,2.767,8.617,4.367,11.85,4.8c1.438,0.188,7.021,0.287,16.75,0.3c0-0.7,0.017-1.017,0.05-0.95
			c0.391,0.619,1.016,0.935,1.875,0.95c-0.655,0-1.297,0-1.925,0c0,1.8,9.783,0.767,29.35-3.1c14.912-2.965,24.845-5.14,29.8-6.525
			c0.845-0.229,1.545-0.437,2.1-0.625c3.467-1.233,6.717-2.55,9.75-3.95c0.874-0.4,1.832-0.842,2.875-1.325
			c-0.541-1.765-1.107-3.506-1.7-5.225c-15.051-43.571-47.017-74.921-95.9-94.05c-0.842,0.752-1.75,1.469-2.725,2.15
			c-5.367,3.767-14.017,7.167-25.95,10.2c-6.733,1.6-11.8,2.817-15.2,3.65c-5.967,1.466-10.883,2.833-14.75,4.1
			c-10.733,3.6-18.367,8.25-22.9,13.95c-4.867,6.2-7.983,11.517-9.35,15.95c-0.06,0.304-0.118,0.604-0.175,0.9
			C118.647-242.451,143.556-219.268,162.05-196.35c-18.494-22.917-43.402-46.101-74.725-69.55c-1.064,5.294-2.306,10.228-3.725,14.8
			c-1.7,5.434-4.333,10.3-7.9,14.6c-1.667,2-2.7,3.333-3.1,4c-0.833,1.367-1.25,2.833-1.25,4.4c0,7.667,1.6,14.583,4.8,20.75
			c1.967,3.8,5.483,8.633,10.55,14.5c5.167,6,8.667,10.7,10.5,14.1c3.2,5.9,4.8,12.45,4.8,19.65c0,3.867-0.5,6.817-1.5,8.85
			c-1.2,2.467-3.433,4.4-6.7,5.8c-6.133,2.7-20.066,4.6-41.8,5.7H37.875c20.34,4.377,40.648,8.294,60.925,11.75
			c12.035,2.05,23.668,3.55,34.9,4.5c2.606,0.222,5.189,0.414,7.75,0.575c0.851-10.838,1.601-21.23,2.25-31.175
			c0.378-5.959,0.662-10.875,0.85-14.75c0.2-3.978,0.3-6.861,0.3-8.65c2.97-0.995,5.578-2.337,7.825-4.025
			c2.427-1.823,4.436-4.048,6.025-6.675c1.242-2.053,2.184-4.286,2.825-6.7C161.731-194.697,161.906-195.514,162.05-196.35z"/>
		<path fill-rule="evenodd" clip-rule="evenodd" fill="#E1D9D6" d="M281.35-194.575c-0.347-2.123-0.731-4.223-1.15-6.3
			c-0.376-1.851-0.776-3.684-1.2-5.5c-0.124-0.525-0.249-1.05-0.375-1.575c-0.22-0.878-0.445-1.753-0.675-2.625
			c-0.615-2.352-1.273-4.668-1.975-6.95c-1.043,0.483-2.001,0.924-2.875,1.325c-3.033,1.4-6.283,2.717-9.75,3.95
			c-0.555,0.188-1.255,0.396-2.1,0.625c-4.955,1.385-14.888,3.56-29.8,6.525c-19.567,3.867-29.35,4.9-29.35,3.1
			c0.627,0,1.27,0,1.925,0c-0.859-0.015-1.484-0.332-1.875-0.95c-0.033-0.066-0.05,0.25-0.05,0.95
			c-9.729-0.013-15.313-0.112-16.75-0.3c-3.233-0.434-7.184-2.034-11.85-4.8h-11.25c0.445,3.888,0.378,7.472-0.2,10.75
			c-0.144,0.836-0.319,1.653-0.525,2.45c-0.641,2.414-1.583,4.647-2.825,6.7c-1.59,2.627-3.598,4.852-6.025,6.675
			c-2.247,1.688-4.855,3.03-7.825,4.025c0,1.789-0.1,4.672-0.3,8.65c-0.188,3.875-0.471,8.791-0.85,14.75
			c-0.649,9.945-1.399,20.337-2.25,31.175c-2.561-0.162-5.144-0.353-7.75-0.575c-11.232-0.95-22.866-2.45-34.9-4.5
			c-20.276-3.456-40.584-7.373-60.925-11.75c-4.723-1.017-9.448-2.059-14.175-3.125l3.8,2.125c0.564,0.303,1.106,0.637,1.625,1
			c2.333,1.631,4.208,3.864,5.625,6.7c1.933,3.933,3.6,6.45,5,7.55c4.733,3.767,8.35,6.15,10.85,7.15c4.133,1.7,5.783,6.367,4.95,14
			c2.89,0.249,5.457,0.674,7.7,1.275c5.261,1.429,8.744,3.837,10.45,7.225v5.7c0.699,0.262,1.399,0.537,2.1,0.825
			c0.65,0.248,1.3,0.506,1.95,0.775c2.133,0.9,3.5,2.1,4.1,3.6c36.767,5.633,74.217,10.15,112.35,13.55
			c-38.133-3.4-75.583-7.917-112.35-13.55c1.033,2.667-0.233,6.25-3.8,10.75c38.133,5.967,76.617,10.767,115.45,14.4l0.7-11.6
			c34.933-24.434,56.35-48.1,64.25-71c-0.788,0.389-1.58,0.772-2.375,1.15c4.122-9.311,10.055-21.86,17.8-37.65
			C277.174-184.625,279.666-190.183,281.35-194.575z M162.05-196.35c0.66,0.817,1.31,1.634,1.95,2.45
			c18.644,23.666,30.444,47.049,35.4,70.15c-17.918,2.534-37.235,3.142-57.95,1.825c20.715,1.317,40.031,0.709,57.95-1.825
			c-4.956-23.101-16.756-46.484-35.4-70.15C163.359-194.716,162.709-195.533,162.05-196.35z M307.35-226.2
			c0.043,0.299,0.085,0.599,0.125,0.9c0.846,5.872,1.554,11.805,2.125,17.8c-0.192-6.017-0.892-12-2.1-17.95
			C307.452-225.703,307.402-225.953,307.35-226.2z M-85.1-325.5c0.233-2.79,0.35-5.873,0.35-9.25c0-4.867-3.217-11.4-9.65-19.6
			c-3.233-4.066-6.467-7.733-9.7-11c0-2.367,2.817-6.233,8.45-11.6c1.308-1.232,3.083-2.907,5.325-5.025
			c-36.885,12.266-72.66,31.008-107.325,56.225c-47.467,37.633-77.866,70.35-91.199,98.15c-13.367,27.833-19.851,46.2-19.45,55.1
			c0,0.067,0,0.117,0,0.15c0,0.1,0.017,0.184,0.05,0.25c0,0.033,0,0.067,0,0.1v0.1l0.05,0.35c0,0.267,0.033,0.517,0.101,0.75
			c1.166,8.133,8.199,14.816,21.1,20.05c53.182,21.543,108.798,39.793,166.851,54.75c-0.299-0.386-0.599-0.77-0.9-1.15
			c-0.967-1.467-1.45-3.25-1.45-5.35c0-2.633,0.633-4.767,1.9-6.4c0.833-1.067,2.25-2.217,4.25-3.45
			c0.973-0.587,1.798-1.12,2.475-1.6c-50.894-13.738-101.119-29.705-150.675-47.9c-0.5-5-0.317-10.066,0.55-15.2
			c48.856,19.682,99.314,36.832,151.375,51.45c-0.483-0.472-1.041-0.938-1.675-1.4c-2.7-1.967-4.05-4.5-4.05-7.6
			c0-10.033,13.766-16.65,41.3-19.85c6.167-0.7,15.633-1.417,28.4-2.15c4.345-0.252,7.595-0.519,9.75-0.8
			c-19.14-5.18-38.307-10.763-57.5-16.75c-65.4-20.367-106.867-42.817-124.4-67.35c29.033-25.9,72.466-53.283,130.3-82.15
			C-88.695-324.276-86.896-324.893-85.1-325.5z M256.075-140.25c-17.021,8.07-35.913,13.57-56.675,16.5
			C220.163-126.68,239.054-132.18,256.075-140.25z M27.9-92.65c0.267-0.067,0.533-0.15,0.8-0.25c-0.333-0.033-0.65-0.083-0.95-0.15
			C27.783-92.917,27.833-92.783,27.9-92.65z M-66.45-37.45c-4.066,2.267-6.216,4.434-6.45,6.5c-0.3,2.733,1.066,4.15,4.1,4.25
			C-74.033-27.833-73.25-31.417-66.45-37.45z M-56.85-73.35c-8.066-2.233-15.167-1.917-21.3,0.95
			c-7.733,4.767-10.117,11.017-7.15,18.75c1.533,4.103,5.191,5.778,10.975,5.025C-71.177-49.032-67.402-50.157-63-52
			c0.193-0.101,0.385-0.209,0.575-0.325c4.122-2.358,7.33-6.533,9.625-12.525c-0.034-0.1-0.067-0.217-0.1-0.35
			c-2.709,5.224-5.751,8.991-9.125,11.3c-1.812,1.237-3.72,2.054-5.725,2.45c-2.98,1.144-5.522,1.877-7.625,2.2
			c-1.623,0.248-2.981,0.248-4.075,0c-2.566-0.6-4.417-2.75-5.55-6.45c-0.933-3.033-0.683-5.917,0.75-8.65s4.017-5.217,7.75-7.45
			c4.433-2.3,11.083-2.633,19.95-1C-56.65-72.967-56.75-73.15-56.85-73.35z M-101.55-91.35h0.1l0.05-0.05
			C-101.465-91.368-101.515-91.351-101.55-91.35z M-105.5-81.95c-0.202,0.019-0.418,0.068-0.65,0.15c0.365,0.922,1.032,1.639,2,2.15
			C-104.896-80.258-105.346-81.025-105.5-81.95z M-264-177.05c3.467-20.367,17.867-41.85,43.2-64.45
			C-246.133-218.9-260.533-197.417-264-177.05z"/>
		<path fill-rule="evenodd" clip-rule="evenodd" fill="#514C4A" d="M9.55-186.95c1.967,1.9,4.333,2.917,7.1,3.05
			c2.733,0.1,5.083-0.717,7.05-2.45c1.966-1.767,2.95-3.967,2.95-6.6c0-2.6-0.983-4.867-2.95-6.8c-1.967-1.933-4.317-2.967-7.05-3.1
			c-2.767-0.133-5.133,0.7-7.1,2.5c-1.933,1.767-2.9,3.95-2.9,6.55C6.65-191.2,7.617-188.917,9.55-186.95z"/>
		<path fill-rule="evenodd" clip-rule="evenodd" fill="#333333" d="M73.7-89.15v-5.7c-1.706-3.388-5.189-5.796-10.45-7.225
			c-2.243-0.601-4.81-1.026-7.7-1.275c-11.6-0.167-18.633,1.567-21.1,5.2v4.3c0.138-0.015,0.28-0.032,0.425-0.05
			c5.727-0.576,12.885-0.376,21.475,0.6c0.6,0.064,1.2,0.139,1.8,0.225C63.215-92.394,68.399-91.086,73.7-89.15z"/>
		<path fill-rule="evenodd" clip-rule="evenodd" fill="#BFB8B5" d="M23.7-141.875c-20.121-4.533-40.271-9.516-60.45-14.95
			c-0.717-0.189-1.434-0.381-2.15-0.575c-2.155,0.281-5.405,0.547-9.75,0.8c-12.767,0.733-22.233,1.45-28.4,2.15
			c-27.534,3.2-41.3,9.817-41.3,19.85c0,3.1,1.35,5.633,4.05,7.6c0.634,0.461,1.191,0.928,1.675,1.4
			c19.973,5.605,40.181,10.839,60.625,15.7c1.3-10.467,7.5-17.65,18.6-21.55c5.346-1.53,11.421-2.338,18.225-2.425
			c4.002-0.041,8.26,0.167,12.775,0.625c6.133,0.1,12.25,2.3,18.35,6.6c3.366,2.063,5.999,4.162,7.9,6.3
			c4.047,4.531,4.814,9.231,2.3,14.1c-0.667,4.9-0.133,9.3,1.6,13.2c0.3,0.066,0.617,0.117,0.95,0.15c0.7-0.133,1.45-0.267,2.25-0.4
			c1.1-0.2,2.267-0.383,3.5-0.55v-4.3c2.466-3.633,9.5-5.367,21.1-5.2c0.833-7.633-0.816-12.3-4.95-14
			c-2.5-1-6.117-3.383-10.85-7.15c-1.4-1.1-3.067-3.617-5-7.55c-1.417-2.836-3.292-5.069-5.625-6.7
			c-0.519-0.363-1.061-0.697-1.625-1L23.7-141.875z"/>
		<path fill-rule="evenodd" clip-rule="evenodd" fill="#A29B99" d="M-51.7-98.35c-0.667-4.2-0.767-8.05-0.3-11.55
			c-20.444-4.861-40.652-10.095-60.625-15.7c1.584,1.534,2.375,3.117,2.375,4.75c0,2.2-0.633,4.017-1.899,5.45
			c-0.376,0.411-0.951,0.895-1.726,1.45C-93.262-108.384-72.537-103.185-51.7-98.35z"/>
		<path fill-rule="evenodd" clip-rule="evenodd" fill="#BEB7B4" d="M-101.55-91.35c0.035-0.001,0.085-0.018,0.15-0.05
			c6.9-4.8,15.667-5.75,26.3-2.85c0.434,0.367,0.867,0.717,1.3,1.05c2.2-1.4,4.316-1.917,6.35-1.55
			c0.534,0.433,1.067,0.883,1.6,1.35c2.9-1.6,6.434-2.083,10.6-1.45c0.633,0.333,1.267,0.667,1.9,1c0.5-0.433,1.3-0.617,2.4-0.55
			c-0.3-1.333-0.55-2.65-0.75-3.95c-20.836-4.834-41.562-10.034-62.175-15.6c-0.677,0.48-1.502,1.013-2.475,1.6
			c-2,1.233-3.417,2.383-4.25,3.45c-1.268,1.633-1.9,3.767-1.9,6.4c0,2.1,0.483,3.883,1.45,5.35c0.302,0.38,0.602,0.764,0.9,1.15
			C-113.975-94.415-107.775-92.865-101.55-91.35z M-112.625-125.6c-52.061-14.618-102.519-31.768-151.375-51.45
			c-0.867,5.133-1.05,10.2-0.55,15.2c49.556,18.195,99.781,34.162,150.675,47.9c0.774-0.555,1.35-1.039,1.726-1.45
			c1.267-1.434,1.899-3.25,1.899-5.45C-110.25-122.483-111.041-124.066-112.625-125.6z"/>
		<path fill-rule="evenodd" clip-rule="evenodd" fill="#E6E6E6" d="M-63.4-27.725c-0.2-0.523-0.3-0.981-0.3-1.375
			c0-1.333,0.434-2.35,1.3-3.05c0.733-0.567,1.7-0.85,2.9-0.85c1.1,0,2.217,0.25,3.35,0.75c0.183,0.086,0.358,0.177,0.525,0.275
			C-53.278-34.057-51.403-36.731-50-40c0.067-0.167,0.133-0.333,0.2-0.5c-1.633-2.333-5.8-2-12.5,1c-1.567,0.7-2.95,1.383-4.15,2.05
			c-6.8,6.034-7.583,9.617-2.35,10.75C-66.87-26.884-65.07-27.226-63.4-27.725z M-33.15-61.15c-0.051,0-0.101,0-0.15,0
			c-1.271,0-2.429,0.092-3.475,0.275c-0.244,2.533-0.802,4.974-1.675,7.325c0.874-2.351,1.432-4.792,1.675-7.325
			c-1.962,0.325-3.521,0.967-4.675,1.925c-1.275,1.08-2.375,1.997-3.3,2.75c0.374,2.097,0.641,4.214,0.8,6.35
			c0,0.2,0.017,0.383,0.05,0.55c-0.033-0.167-0.05-0.35-0.05-0.55c-0.159-2.136-0.426-4.253-0.8-6.35
			c-1.764,1.45-2.897,2.316-3.4,2.6c-0.273,0.161-0.64,0.511-1.1,1.05c0.504,2.629,0.871,5.33,1.1,8.1
			c0,0.167,0.017,0.317,0.05,0.45c1.633-0.433,3.067-1.567,4.3-3.4c-0.034-0.633-0.067-1.267-0.1-1.9
			c1.066-0.267,2.117-0.767,3.15-1.5c0.6-0.434,1.217-0.967,1.85-1.6c0.167-0.367,0.316-0.75,0.45-1.15
			c1.167-0.034,2.467-0.667,3.9-1.9C-33.942-57.404-33.476-59.304-33.15-61.15z M75.8-88.325c-0.701-0.288-1.4-0.563-2.1-0.825
			c-5.301-1.936-10.485-3.244-15.55-3.925c-0.6-0.086-1.2-0.161-1.8-0.225c-8.59-0.977-15.749-1.176-21.475-0.6
			c-0.365,0.1-0.573,0.15-0.625,0.15c-0.133,0.733-0.2,1.267-0.2,1.6c0,0.6,0.267,1.367,0.8,2.3c0.7,1.267,1.066,1.934,1.1,2
			c-3.233,0.434-5.483,2.934-6.75,7.5c-0.667,2.867-1.2,5.117-1.6,6.75c-0.7,3-1.5,5.533-2.4,7.6c-2.633,6.067-4.4,9.733-5.3,11
			c-2.533,3.467-5.917,5.2-10.15,5.2c-4.767,0-10.1-2.333-16-7c-3.165-2.491-5.956-5.366-8.375-8.625
			c1.475,2.733,3.1,5.375,4.875,7.925C-3.183-47.9,2.9-43.1,8.5-43.1c5.2,0,9.117-2.2,11.75-6.6c0.667-1.1,2.117-5,4.35-11.7
			c2-6.067,4.15-10.934,6.45-14.6c2.3-3.7,4.383-5.55,6.25-5.55c0.333,0,2.717,0.133,7.15,0.4c3.8,0,5.65-0.883,5.55-2.65
			c-0.067-0.9,0.033-1.5,0.3-1.8c0.467-0.533,1.633-0.8,3.5-0.8c2.3,0,5.267,0.25,8.9,0.75c3.6,0.5,6.2,0.75,7.8,0.75
			c2.833,0,4.483-0.15,4.95-0.45c0.267-0.167,0.4-0.933,0.4-2.3C75.85-87.886,75.833-88.111,75.8-88.325z M49.8-322.15
			c0-2.767-1.933-5.133-5.8-7.1c-3.867-2-8.533-3-14-3s-10.133,1-14,3c-3.867,1.967-5.8,4.333-5.8,7.1s1.933,5.133,5.8,7.1
			c3.867,1.966,8.533,2.95,14,2.95s10.133-0.983,14-2.95C47.867-317.017,49.8-319.383,49.8-322.15c0,2.767-1.933,5.133-5.8,7.1
			c-3.867,1.966-8.533,2.95-14,2.95s-10.133-0.983-14-2.95c-3.867-1.967-5.8-4.333-5.8-7.1s1.933-5.133,5.8-7.1
			c3.867-2,8.533-3,14-3s10.133,1,14,3C47.867-327.283,49.8-324.917,49.8-322.15z M55.25-336.95c-6.967-3.566-15.35-5.35-25.15-5.35
			c-9.833,0-18.233,1.783-25.2,5.35c-6.933,3.534-10.4,7.784-10.4,12.75c0,5,3.467,9.267,10.4,12.8c6.967,3.533,15.367,5.3,25.2,5.3
			c9.8,0,18.183-1.767,25.15-5.3s10.45-7.8,10.45-12.8C65.7-329.167,62.217-333.417,55.25-336.95
			c6.967,3.534,10.45,7.784,10.45,12.75c0,5-3.483,9.267-10.45,12.8s-15.35,5.3-25.15,5.3c-9.833,0-18.233-1.767-25.2-5.3
			c-6.933-3.533-10.4-7.8-10.4-12.8c0-4.966,3.467-9.216,10.4-12.75c6.967-3.566,15.367-5.35,25.2-5.35
			C39.9-342.3,48.283-340.517,55.25-336.95z M64.8-343.9C41-346.067,17.067-345.767-7-343c-7.2,4.767-10.8,10.35-10.8,16.75
			c0,7.267,4.617,13.5,13.85,18.7c9.3,5.133,20.5,7.7,33.6,7.7c13.067,0,24.217-2.566,33.45-7.7c9.3-5.2,13.95-11.434,13.95-18.7
			C77.05-333.05,72.967-338.933,64.8-343.9z M-36.625-64.225c0.023-0.011,0.048-0.02,0.075-0.025c1.6-0.333,2.617-0.5,3.05-0.5
			c0.271,0,0.538,0.017,0.8,0.05c0.336-4.268-0.147-8.218-1.45-11.85c-0.133-0.367-0.267-0.717-0.4-1.05
			c-2.067-3.735-4.393-7.043-6.975-9.925c-0.329,0.038-0.704,0.063-1.125,0.075c-0.443,0.106-1.11,0.348-2,0.725
			c2.28,2.667,4.113,5.726,5.5,9.175c0.033,0.167,0.083,0.316,0.15,0.45C-37.459-72.582-36.667-68.29-36.625-64.225
			C-36.667-68.29-37.459-72.582-39-77.1c-0.067-0.133-0.117-0.283-0.15-0.45c-1.387-3.45-3.22-6.508-5.5-9.175
			c-0.528,0.211-1.128,0.47-1.8,0.775c-1.3,0.567-2.617,0.85-3.95,0.85l-5.05-0.45c-0.779,0-1.654,0.216-2.625,0.65
			c-0.314,0.145-0.639,0.312-0.975,0.5c-1.367,0.767-2.55,1.15-3.55,1.15c-0.301,0-0.726-0.058-1.275-0.175
			c0.244,0.293,0.485,0.584,0.725,0.875c2.367,2.933,4.467,6,6.3,9.2c0.1,0.2,0.2,0.383,0.3,0.55c-8.867-1.633-15.517-1.3-19.95,1
			c-3.733,2.233-6.317,4.716-7.75,7.45s-1.683,5.617-0.75,8.65c1.133,3.7,2.983,5.85,5.55,6.45c1.094,0.248,2.453,0.248,4.075,0
			c-0.506-0.325-0.798-0.542-0.875-0.65c-0.167-0.2-0.25-1.017-0.25-2.45c0-2.5,0.35-4.25,1.05-5.25c1.167-1.667,3.517-2.5,7.05-2.5
			c2.566,0,4.35,0.633,5.35,1.9c0.7,0.867,1.05,2.133,1.05,3.8c0,0.167-0.008,0.333-0.025,0.5c3.374-2.31,6.416-6.076,9.125-11.3
			c0.033,0.133,0.066,0.25,0.1,0.35c1.076,2.727,1.976,5.543,2.7,8.45c0.082-0.225,0.165-0.458,0.25-0.7
			c0.783-1.241,2.224-2.175,4.325-2.8c0.485-0.152,1.01-0.286,1.575-0.4c0.967-0.2,1.8-0.684,2.5-1.45
			c0.867-0.933,1.517-1.517,1.95-1.75C-39.172-63.664-38.214-63.906-36.625-64.225z M-52.9-65.2c-1.067-2.6-2.283-5.133-3.65-7.6
			C-55.183-70.333-53.967-67.8-52.9-65.2z M-58.075-84.9c0.989,1.286,1.964,2.636,2.925,4.05c1.833,2.767,3.633,5.783,5.4,9.05
			c1.82,3.879,3.229,7.846,4.225,11.9c-0.997-4.054-2.405-8.021-4.225-11.9c-1.767-3.267-3.567-6.284-5.4-9.05
			C-56.111-82.264-57.086-83.614-58.075-84.9z M-105.5-81.95c0.154,0.925,0.604,1.692,1.35,2.3c2.281,1.258,6.256,1.375,11.925,0.35
			c0.072-2.244,0.938-3.411,2.6-3.5c1.665-0.093,2.915-0.018,3.75,0.225c0.838,0.251,1.438,0.451,1.8,0.6
			c1.715-1.053,3.374-2.411,4.975-4.075c0.478-0.512,0.953-1.054,1.425-1.625c-3.375-0.95-6.033-1.425-7.975-1.425
			c-3.133,0-6.6,1.1-10.4,3.3C-100.083-83.467-103.233-82.183-105.5-81.95z"/>
		<path fill-rule="evenodd" clip-rule="evenodd" fill="#ABA4A2" d="M193.5-58.8c50.233-26.967,80.05-68.383,89.45-124.25
			c-0.429-3.915-0.962-7.757-1.6-11.525c-1.684,4.393-4.176,9.951-7.475,16.675c-7.745,15.79-13.678,28.339-17.8,37.65
			c0.795-0.378,1.587-0.761,2.375-1.15c-7.9,22.9-29.317,46.566-64.25,71L193.5-58.8z"/>
		<path fill-rule="evenodd" clip-rule="evenodd" fill="#C0B9B6" d="M-90.325-381.975c3.677-3.475,8.619-8.15,14.825-14.025
			c2.133-2.167,5.933-5.1,11.4-8.8c9.434-6.4,14.3-9.717,14.6-9.95c11.933-8.6,17.9-15.967,17.9-22.1c0-3.133-2.367-8.483-7.1-16.05
			c-4.767-7.6-7.15-11.583-7.15-11.95c0-0.362,0.059-0.721,0.175-1.075c-39.511,6.477-79.02,19.068-118.525,37.775
			c-72.399,25.066-121.783,102.9-148.149,233.5l4.05,22.3c0-0.033,0-0.083,0-0.15c-0.4-8.9,6.083-27.267,19.45-55.1
			c13.333-27.8,43.732-60.517,91.199-98.15C-162.985-350.967-127.21-369.709-90.325-381.975z"/>
		<path fill-rule="evenodd" clip-rule="evenodd" fill="#FFFDFA" d="M275.975-217.525c0.702,2.281,1.36,4.598,1.975,6.95
			c0.229,0.872,0.455,1.747,0.675,2.625c0.126,0.525,0.251,1.05,0.375,1.575c0.424,1.816,0.824,3.649,1.2,5.5
			c0.419,2.077,0.803,4.177,1.15,6.3c0.638,3.769,1.171,7.61,1.6,11.525c-9.4,55.867-39.217,97.283-89.45,124.25
			c-38.833-3.633-77.317-8.434-115.45-14.4c-0.667,0.8-1.383,1.633-2.15,2.5c-0.933,4-2.017,7.733-3.25,11.2
			c38.267,4.867,77.417,8.517,117.45,10.95c21.533,2.167,40.833-6.05,57.9-24.65c19.167-20.867,34-43.367,44.5-67.5
			c7.6-14.3,12.683-28.383,15.25-42.25c0.2-1.066,0.383-2.15,0.55-3.25l0.35-2.6c1.102-10.003,0.302-20.812-2.4-32.425
			c-0.757-3.209-1.657-6.484-2.7-9.825c-5.101-16.344-13.701-34.161-25.8-53.45c-25.3-40.3-66.35-70.2-123.15-89.7
			c-16.486-5.859-32.794-10.692-48.925-14.5c0.95,1.433,1.425,3.25,1.425,5.45c0,2.1-0.117,3.35-0.35,3.75
			c-0.733,1.3-2.65,1.6-5.75,0.9v2c4.367,6.833,11.233,12.2,20.6,16.1c4.1,1.733,6.75,3.05,7.95,3.95
			c2.133,1.633,3.2,3.816,3.2,6.55c0,1.733-0.767,2.9-2.3,3.5c-1.333,0.5-3.65,0.733-6.95,0.7c-4.6-0.167-8.433-0.3-11.5-0.4
			c-5.7-0.133-11.033-0.066-16,0.2v6.15c0.012,0.093,0.029,0.185,0.05,0.275c14.782,2.737,29.515,6.445,44.2,11.125
			c13.686,3.182,26.394,7.065,38.125,11.65c48.883,19.128,80.849,50.479,95.9,94.05C274.868-221.031,275.435-219.29,275.975-217.525
			z"/>
		<path fill-rule="evenodd" clip-rule="evenodd" fill="#EDECE9" d="M-90.325-381.975c62.183-20.667,127.517-22.908,196-6.725
			c-0.105-0.156-0.213-0.306-0.325-0.45c-0.7-0.9-1.95-2.317-3.75-4.25c-3.5-4.767-5.033-14.133-4.6-28.1
			c0.067-3.033-0.4-6.933-1.4-11.7c-1.333-6.2-3.317-12.183-5.95-17.95c-2.478-5.387-5.361-10.262-8.65-14.625
			c-42.228-7.035-84.453-7.085-126.675-0.15c-0.117,0.354-0.175,0.712-0.175,1.075c0,0.367,2.383,4.35,7.15,11.95
			c4.733,7.566,7.1,12.917,7.1,16.05c0,6.133-5.967,13.5-17.9,22.1c-0.3,0.233-5.167,3.55-14.6,9.95
			c-5.467,3.7-9.267,6.633-11.4,8.8C-81.707-390.125-86.648-385.45-90.325-381.975z"/>
		<path fill-rule="evenodd" clip-rule="evenodd" fill="#767676" d="M-101.45-91.35h-0.1c-4.934,1.434-9.517,3.367-13.75,5.8
			c-5.667,3.667-7.633,8.1-5.9,13.3c1.7,5.233,3.018,8.383,3.95,9.45c0.033-0.167,0.067-0.333,0.101-0.5
			c0.333-1.867,0.883-3.583,1.649-5.15c0.706-0.586,1.489-1.002,2.351-1.25c-0.067-0.664-0.101-1.347-0.101-2.05
			c0-2.4,1.101-4.767,3.3-7.1c1.525-1.606,2.792-2.59,3.8-2.95c-0.082-0.222-0.148-0.456-0.2-0.7
			C-107.017-84.5-105.383-87.45-101.45-91.35z M-24.7-23.2c0.2-1.003,0.3-2.169,0.3-3.5c0-4.612-0.175-8.087-0.525-10.425
			c-0.702-0.526-1.411-1.068-2.125-1.625v15.6c-7.367,0.333-11.067,1.75-11.1,4.25c-0.967,8.333,1.5,13.566,7.4,15.7
			c-0.833-0.933-1.483-2.083-1.95-3.45c-0.1-0.967,0.833-1.783,2.8-2.45c0.485-0.162,1.002-0.303,1.55-0.425c0-0.778,0-1.62,0-2.525
			c0-3.767,0.667-6.317,2-7.65C-25.563-20.486-25.014-21.653-24.7-23.2c-0.817,0.013-1.601,0.029-2.35,0.05
			C-26.301-23.171-25.517-23.188-24.7-23.2z M27.9-92.65c-0.066-0.133-0.117-0.267-0.15-0.4c-1.733-3.9-2.267-8.3-1.6-13.2
			c2.514-4.869,1.748-9.569-2.3-14.1c-0.684,0.15-1.284,0.333-1.8,0.55c-1.8,0.767-2.7,2-2.7,3.7c0,1.7,0.217,3.383,0.65,5.05
			c0.4,1.367,0.6,2.167,0.6,2.4c0,3.733-1.184,6.2-3.55,7.4c-1.233,0.6-2.066,1.2-2.5,1.8c-0.733,1-1.1,2.6-1.1,4.8
			c0,1.033,0.117,2.517,0.35,4.45c0.2,1.967,0.3,3.583,0.3,4.85c0,4.567-1.2,7.717-3.6,9.45c-2.533,1.833-7.283,2.75-14.25,2.75
			c-1.7,0-3.767-0.217-6.2-0.65c-0.947-0.158-1.872-0.316-2.775-0.475c0.841,0.785,1.683,1.51,2.525,2.175
			c6.2,5.067,12,7.033,17.4,5.9c3.233-0.167,6-0.667,8.3-1.5c6.167-2.233,8.917-6.833,8.25-13.8c-0.167-0.367-0.3-0.733-0.4-1.1
			C21.55-87.733,23.067-91.083,27.9-92.65z M-52-109.9c-0.467,3.5-0.367,7.35,0.3,11.55c0.2,1.3,0.45,2.617,0.75,3.95
			c0.667,0.1,1.45,0.283,2.35,0.55c2.539,1.809,4.897,3.917,7.075,6.325c0.561-0.056,0.969-0.147,1.225-0.275
			c0.6-0.3,1.216-1.434,1.85-3.4c0.3-0.933,1.017-3.966,2.15-9.1c1.066-5.067,2.167-9.25,3.3-12.55c0.733-2.1,2.7-5.167,5.9-9.2
			c3.547-4.536,7.522-8.478,11.925-11.825c-6.804,0.086-12.879,0.895-18.225,2.425C-44.5-127.55-50.7-120.367-52-109.9z"/>
		<path fill-rule="evenodd" clip-rule="evenodd" fill="#B6B6B6" d="M-21.2-34.45c-1.23-0.849-2.472-1.74-3.725-2.675
			c0.35,2.337,0.525,5.813,0.525,10.425c0,1.331-0.1,2.497-0.3,3.5c0.487,0,0.987,0,1.5,0c0.7,0,1.367,0,2,0c-0.633,0-1.3,0-2,0
			c-0.513,0-1.013,0-1.5,0c-0.313,1.547-0.863,2.714-1.65,3.5c-1.333,1.333-2,3.883-2,7.65c0,0.905,0,1.747,0,2.525
			c1.459-0.326,3.125-0.501,5-0.525c1.705-0.026,3.188,0.04,4.45,0.2c-0.02-0.344-0.036-0.694-0.05-1.05
			c0.058-3.401,0.549-7.435,1.475-12.1c-1.138-0.098-2.38-0.165-3.725-0.2V-34.45z M-77.675-87.675
			c1.427,0.407,2.985,0.898,4.675,1.475c4.319,1.499,7.361,2.424,9.125,2.775c-2.654-3.109-5.629-6.068-8.925-8.875
			c-0.333-0.3-0.667-0.6-1-0.9C-75.058-91.129-76.349-89.288-77.675-87.675c1.326-1.613,2.617-3.454,3.875-5.525
			c0.333,0.3,0.667,0.6,1,0.9c3.295,2.807,6.271,5.766,8.925,8.875c0.549,0.117,0.974,0.175,1.275,0.175c1,0,2.184-0.383,3.55-1.15
			c0.335-0.188,0.66-0.355,0.975-0.5c-2.505-3.252-5.097-6.085-7.775-8.5c-0.533-0.467-1.066-0.917-1.6-1.35
			c-2.033-0.367-4.15,0.15-6.35,1.55c-0.434-0.333-0.867-0.683-1.3-1.05c-10.633-2.9-19.4-1.95-26.3,2.85l-0.05,0.05
			c-3.058,4.046-4.408,7.18-4.05,9.4c2.267-0.233,5.417-1.517,9.45-3.85c3.8-2.2,7.267-3.3,10.4-3.3
			C-83.708-89.1-81.05-88.625-77.675-87.675z M-101.45-91.35c-3.933,3.9-5.566,6.85-4.9,8.85c0.052,0.245,0.118,0.478,0.2,0.7
			c0.232-0.082,0.448-0.132,0.65-0.15C-105.858-84.17-104.508-87.304-101.45-91.35z M-44.65-86.725c0.89-0.377,1.557-0.619,2-0.725
			c0.421-0.012,0.796-0.037,1.125-0.075c-2.178-2.408-4.537-4.516-7.075-6.325c-0.9-0.267-1.683-0.45-2.35-0.55
			c-1.1-0.067-1.9,0.117-2.4,0.55c-0.633-0.333-1.267-0.667-1.9-1c-4.167-0.633-7.7-0.15-10.6,1.45
			c2.678,2.415,5.27,5.248,7.775,8.5c0.971-0.434,1.846-0.65,2.625-0.65l5.05,0.45c1.333,0,2.65-0.283,3.95-0.85
			C-45.778-86.255-45.178-86.514-44.65-86.725c-2.01-2.341-4.359-4.383-7.05-6.125c-0.533-0.333-1.083-0.667-1.65-1
			c0.567,0.333,1.117,0.667,1.65,1C-49.009-91.108-46.66-89.066-44.65-86.725z"/>
		<path fill-rule="evenodd" clip-rule="evenodd" fill="#FFFFFF" d="M-55.625-31.975c-0.167-0.098-0.342-0.189-0.525-0.275
			C-57.283-32.75-58.4-33-59.5-33c-1.2,0-2.167,0.283-2.9,0.85c-0.867,0.7-1.3,1.717-1.3,3.05c0,0.394,0.1,0.852,0.3,1.375
			C-60.398-28.631-57.807-30.048-55.625-31.975z M-7.675-17.375c-1.227-0.01-2.401,0.315-3.525,0.975
			c-1.5,0.833-2.25,1.816-2.25,2.95c0,0.667,0.583,1.684,1.75,3.05c0.744,0.833,1.594,1.566,2.55,2.2
			C-7.898-10.577-7.406-13.636-7.675-17.375z M66.475-46.4c-0.784-0.467-1.642-0.7-2.575-0.7c-4.5,0-8.5,1.267-12,3.8
			c-3.2,2.333-4.8,4.716-4.8,7.15c0,1.5,0.333,2.7,1,3.6c0.71,0.929,1.835,1.654,3.375,2.175C57.41-34.39,62.41-39.732,66.475-46.4z
			 M62.275-59.225c0.096,0.014,0.421-0.028,0.975-0.125c0.563-0.098,1.263-0.148,2.1-0.15c0.633,0,1.333-0.35,2.1-1.05
			c1-0.934,1.5-2.15,1.5-3.65c0-1.066-0.15-1.95-0.45-2.65c-0.633-1.533-1.883-2.3-3.75-2.3c-0.833,0-1.617,0.417-2.35,1.25
			c-0.967,1.1-1.45,2.65-1.45,4.65c0,1.233,0.066,2,0.2,2.3c0.264,0.567,0.489,0.992,0.675,1.275
			C62.019-59.39,62.168-59.24,62.275-59.225z M-36.775-60.875c1.046-0.183,2.204-0.275,3.475-0.275c0.049,0,0.099,0,0.15,0
			c0.212-1.21,0.362-2.393,0.45-3.55c-0.087,1.157-0.237,2.34-0.45,3.55c2.112,0.063,4.146,1.446,6.1,4.15
			c2.367,3.9,4.333,6.95,5.9,9.15c4.606,6.601,10.539,10.801,17.8,12.6c-1.956-0.661-4.072-1.611-6.35-2.85
			c-6.4-3.433-10.316-7.483-11.75-12.15c-2.808-9.149-6.558-13.966-11.25-14.45c-0.262-0.033-0.529-0.05-0.8-0.05
			c-0.433,0-1.45,0.167-3.05,0.5c-0.027,0.005-0.052,0.014-0.075,0.025c-1.589,0.319-2.547,0.561-2.875,0.725
			c-0.433,0.233-1.083,0.817-1.95,1.75c-0.7,0.767-1.533,1.25-2.5,1.45c-0.564,0.114-1.09,0.248-1.575,0.4
			c-2.101,0.625-3.542,1.559-4.325,2.8c-0.085,0.242-0.168,0.476-0.25,0.7c-0.485,1.323-0.885,2.257-1.2,2.8
			c-0.833,2.267-1.483,3.65-1.95,4.15c-0.533,0.567-2.817,1.567-6.85,3c-8.6,3.067-13.767,4.85-15.5,5.35
			c-2.566,0.767-5,1.15-7.3,1.15c-0.45,0-1.309-0.225-2.575-0.675c0.149,0.975,0.241,1.933,0.275,2.875
			c0.029,0.711,0.021,1.377-0.025,2c0.747-0.171,1.338-0.238,1.775-0.2c8.667,0.8,14.483-0.25,17.45-3.15
			c1.333-1.3,3.8-2.883,7.4-4.75c3.333-1.767,5.133-2.85,5.4-3.25c0.733-1.1,1.45-2.133,2.15-3.1c0.707-1,1.307-1.783,1.8-2.35
			c-0.25-1.303-0.533-2.586-0.85-3.85c0.317,1.264,0.601,2.547,0.85,3.85c0.46-0.539,0.827-0.889,1.1-1.05
			c0.502-0.284,1.636-1.15,3.4-2.6c-0.224-1.243-0.482-2.477-0.775-3.7c0.293,1.223,0.551,2.457,0.775,3.7
			c0.925-0.753,2.025-1.67,3.3-2.75C-40.296-59.908-38.737-60.55-36.775-60.875c0.11-1.103,0.16-2.219,0.15-3.35
			C-36.615-63.094-36.665-61.978-36.775-60.875z M-62.025-53.9C-62.008-54.066-62-54.233-62-54.4c0-1.667-0.35-2.934-1.05-3.8
			c-1-1.267-2.784-1.9-5.35-1.9c-3.533,0-5.883,0.833-7.05,2.5c-0.7,1-1.05,2.75-1.05,5.25c0,1.434,0.083,2.25,0.25,2.45
			c0.077,0.108,0.369,0.325,0.875,0.65c2.103-0.323,4.645-1.057,7.625-2.2C-65.745-51.846-63.836-52.663-62.025-53.9z
			 M-85.475-40.625c-0.616-0.226-1.324-0.5-2.125-0.825c-2.433-0.966-3.767-1.45-4-1.45c-1.333,0-3.167,0.633-5.5,1.9
			c-2.233,1.233-3.35,2.117-3.35,2.65c0,2.434,2.45,3.65,7.35,3.65c2.521-0.21,4.454-0.368,5.8-0.475
			c0.032-0.005,0.065-0.013,0.1-0.025c0.746-0.244,1.404-0.427,1.975-0.55c0.046-0.623,0.054-1.289,0.025-2
			C-85.234-38.692-85.326-39.65-85.475-40.625z M-92.225-79.3c1.531-0.285,3.189-0.652,4.975-1.1
			c1.078-0.414,2.137-0.939,3.175-1.575c-0.361-0.149-0.961-0.349-1.8-0.6c-0.835-0.243-2.085-0.318-3.75-0.225
			C-91.287-82.71-92.153-81.544-92.225-79.3z"/>
		
			<path fill-rule="evenodd" clip-rule="evenodd" fill="none" stroke="#333333" stroke-linecap="round" stroke-linejoin="round" stroke-miterlimit="3" d="
			M194.2-70.4l-0.7,11.6c-38.833-3.633-77.317-8.434-115.45-14.4c3.567-4.5,4.833-8.083,3.8-10.75
			C118.617-78.317,156.067-73.8,194.2-70.4c34.933-24.434,56.35-48.1,64.25-71c-0.788,0.389-1.58,0.772-2.375,1.15
			c-17.021,8.07-35.913,13.57-56.675,16.5 M162.05-196.35c0.66,0.817,1.31,1.634,1.95,2.45c18.644,23.666,30.444,47.049,35.4,70.15
			c-17.918,2.534-37.235,3.142-57.95,1.825 M281.35-194.575c0.638,3.769,1.171,7.61,1.6,11.525
			c-9.4,55.867-39.217,97.283-89.45,124.25 M72.65-59.5c38.267,4.867,77.417,8.517,117.45,10.95
			c21.533,2.167,40.833-6.05,57.9-24.65c19.167-20.867,34-43.367,44.5-67.5c7.6-14.3,12.683-28.383,15.25-42.25
			c0.2-1.066,0.383-2.15,0.55-3.25l0.35-2.6c0.833-6.1,1.167-12.15,1-18.15c-0.033-0.167-0.05-0.35-0.05-0.55
			c-0.192-6.017-0.892-12-2.1-17.95c-0.048-0.253-0.098-0.503-0.15-0.75c-0.067-0.267-0.133-0.533-0.2-0.8l-0.55-2.5
			c-0.081-0.368-0.165-0.735-0.25-1.1C278.316-356.835,218.4-431.785,126.6-455.45c-15.204-4.344-30.404-7.786-45.6-10.325
			c-42.228-7.035-84.453-7.085-126.675-0.15c-39.511,6.477-79.02,19.068-118.525,37.775c-72.399,25.066-121.783,102.9-148.149,233.5
			l4.05,22.3c0,0.1,0.017,0.184,0.05,0.25c0,0.033,0,0.067,0,0.1v0.1l0.05,0.35c0,0.267,0.033,0.517,0.101,0.75
			c1.166,8.133,8.199,14.816,21.1,20.05c53.182,21.543,108.798,39.793,166.851,54.75c6.175,1.585,12.374,3.135,18.6,4.65
			c-4.934,1.434-9.517,3.367-13.75,5.8c-5.667,3.667-7.633,8.1-5.9,13.3c1.7,5.233,3.018,8.383,3.95,9.45
			c-1.166,7.367,0.483,13.917,4.95,19.65c4.466,5.8,10.017,9.95,16.65,12.45c1.267,2.2,2.3,3.75,3.1,4.65
			c2.966,2.9,6.65,4.083,11.05,3.55c4.367-0.867,8.6-2.267,12.7-4.2c1.93-0.184,3.73-0.525,5.4-1.025
			c3.002-0.906,5.593-2.323,7.775-4.25C-53.278-34.057-51.403-36.731-50-40c0.067-0.167,0.133-0.333,0.2-0.5
			c0.6-0.6,1.2-1.217,1.8-1.85c-0.033-0.533-0.067-1.083-0.1-1.65c1.633-0.433,3.067-1.567,4.3-3.4
			c-0.034-0.633-0.067-1.267-0.1-1.9c1.066-0.267,2.117-0.767,3.15-1.5c4.633,4.566,9.2,8.583,13.7,12.05v15.6
			c-7.367,0.333-11.067,1.75-11.1,4.25c-0.967,8.333,1.5,13.566,7.4,15.7c1.733,2.067,4.233,3.133,7.5,3.2
			c0.038-0.003,0.08-0.003,0.125,0c1.688-0.142,3.163-0.408,4.425-0.8c0.934-0.299,1.75-0.666,2.45-1.1c0.667-0.434,1.2-0.9,1.6-1.4
			c2.505-1.033,4.338-2.666,5.5-4.9c1.252-2.377,1.744-5.436,1.475-9.175C-7.703-17.843-7.744-18.318-7.8-18.8
			c-0.028-2.292-3.253-3.692-9.675-4.2c-1.138-0.098-2.38-0.165-3.725-0.2v-11.25c11.934,8.167,23.317,12.534,34.15,13.1
			c15.561,0.847,28.403-2.162,38.525-9.025c5.935-4.015,10.935-9.357,15-16.025C68.852-50.312,70.91-54.679,72.65-59.5
			c1.233-3.467,2.317-7.2,3.25-11.2c0.767-0.867,1.483-1.7,2.15-2.5 M75.8-88.325c0.65,0.248,1.3,0.506,1.95,0.775
			c2.133,0.9,3.5,2.1,4.1,3.6 M27.9-92.65c-4.833,1.566-6.35,4.917-4.55,10.05c0.1,0.367,0.233,0.733,0.4,1.1
			c0.667,6.967-2.083,11.567-8.25,13.8c-2.3,0.833-5.067,1.333-8.3,1.5C1.8-65.067-4-67.033-10.2-72.1
			c-0.842-0.665-1.684-1.39-2.525-2.175c-0.426-0.393-0.851-0.801-1.275-1.225 M23.85-120.35c4.047,4.531,4.814,9.231,2.3,14.1
			c-0.667,4.9-0.133,9.3,1.6,13.2c0.033,0.133,0.083,0.267,0.15,0.4 M27.75-93.05c0.3,0.066,0.617,0.117,0.95,0.15
			c-0.267,0.1-0.534,0.183-0.8,0.25 M55.55-103.35c-11.6-0.167-18.633,1.567-21.1,5.2v4.3c-1.233,0.167-2.4,0.35-3.5,0.55
			c-0.8,0.133-1.55,0.267-2.25,0.4 M34.45-93.85c0.138-0.015,0.28-0.032,0.425-0.05c5.727-0.576,12.885-0.376,21.475,0.6
			c0.6,0.064,1.2,0.139,1.8,0.225c5.065,0.681,10.249,1.989,15.55,3.925c0.699,0.262,1.399,0.537,2.1,0.825 M73.7-89.15v-5.7
			c-1.706-3.388-5.189-5.796-10.45-7.225c-2.243-0.601-4.81-1.026-7.7-1.275 M23.7-141.875c4.727,1.066,9.452,2.108,14.175,3.125
			c20.34,4.377,40.648,8.294,60.925,11.75c12.035,2.05,23.668,3.55,34.9,4.5c2.606,0.222,5.189,0.414,7.75,0.575 M23.85-120.35
			c-1.901-2.138-4.534-4.237-7.9-6.3c-6.1-4.3-12.217-6.5-18.35-6.6c-4.515-0.458-8.773-0.666-12.775-0.625
			c-6.804,0.086-12.879,0.895-18.225,2.425c-11.1,3.9-17.3,11.083-18.6,21.55c-20.444-4.861-40.652-10.095-60.625-15.7 M-38.9-157.4
			c0.716,0.194,1.433,0.385,2.15,0.575c20.179,5.434,40.329,10.417,60.45,14.95 M11.3-207.45c-2.2,0.6-4.183,1.7-5.95,3.3
			c-2.934,2.633-4.4,5.917-4.4,9.85c0,3.933,1.466,7.367,4.4,10.3c2.967,2.867,6.517,4.4,10.65,4.6c0.867,0.033,1.7,0,2.5-0.1
			c-1.467,0.4-3.033,0.567-4.7,0.5c-4.133-0.2-7.683-1.733-10.65-4.6c-2.933-2.933-4.4-6.367-4.4-10.3c0-3.934,1.467-7.217,4.4-9.85
			C5.483-205.883,8.2-207.117,11.3-207.45z M9.55-186.95c1.967,1.9,4.333,2.917,7.1,3.05c2.733,0.1,5.083-0.717,7.05-2.45
			c1.966-1.767,2.95-3.967,2.95-6.6c0-2.6-0.983-4.867-2.95-6.8c-1.967-1.933-4.317-2.967-7.05-3.1c-2.767-0.133-5.133,0.7-7.1,2.5
			c-1.933,1.767-2.9,3.95-2.9,6.55C6.65-191.2,7.617-188.917,9.55-186.95z M18.5-179.5c3.067-0.3,5.783-1.5,8.15-3.6
			c2.934-2.667,4.4-5.967,4.4-9.9s-1.466-7.35-4.4-10.25c-2.967-2.933-6.517-4.483-10.65-4.65c-1.667-0.067-3.233,0.083-4.7,0.45
			 M87.325-265.9c31.322,23.449,56.23,46.632,74.725,69.55 M83.2-268.95c1.386,1.021,2.761,2.037,4.125,3.05 M178.375-316.8
			c48.883,19.128,80.849,50.479,95.9,94.05c0.593,1.719,1.16,3.46,1.7,5.225c0.702,2.281,1.36,4.598,1.975,6.95
			c0.229,0.872,0.455,1.747,0.675,2.625c0.126,0.525,0.251,1.05,0.375,1.575c0.424,1.816,0.824,3.649,1.2,5.5
			c0.419,2.077,0.803,4.177,1.15,6.3 M49.8-322.15c0-2.767-1.933-5.133-5.8-7.1c-3.867-2-8.533-3-14-3s-10.133,1-14,3
			c-3.867,1.967-5.8,4.333-5.8,7.1s1.933,5.133,5.8,7.1c3.867,1.966,8.533,2.95,14,2.95s10.133-0.983,14-2.95
			C47.867-317.017,49.8-319.383,49.8-322.15z M55.25-336.95c-6.967-3.566-15.35-5.35-25.15-5.35c-9.833,0-18.233,1.783-25.2,5.35
			c-6.933,3.534-10.4,7.784-10.4,12.75c0,5,3.467,9.267,10.4,12.8c6.967,3.533,15.367,5.3,25.2,5.3c9.8,0,18.183-1.767,25.15-5.3
			s10.45-7.8,10.45-12.8C65.7-329.167,62.217-333.417,55.25-336.95z M-7-343c-7.2,4.767-10.8,10.35-10.8,16.75
			c0,7.267,4.617,13.5,13.85,18.7c9.3,5.133,20.5,7.7,33.6,7.7c13.067,0,24.217-2.566,33.45-7.7c9.3-5.2,13.95-11.434,13.95-18.7
			c0-6.8-4.083-12.683-12.25-17.65c10.439,0.963,20.855,2.404,31.25,4.325c14.782,2.737,29.515,6.445,44.2,11.125
			c13.686,3.182,26.394,7.065,38.125,11.65 M105.675-388.7c16.131,3.808,32.439,8.641,48.925,14.5c56.8,19.5,97.85,49.4,123.15,89.7
			c12.099,19.289,20.699,37.106,25.8,53.45c1.043,3.34,1.943,6.615,2.7,9.825c2.702,11.614,3.501,22.422,2.4,32.425 M307.35-226.2
			c0.043,0.299,0.085,0.599,0.125,0.9c0.846,5.872,1.554,11.805,2.125,17.8 M-14.65-3.3c0.667-0.867,1-1.867,1-3
			c0-1.915-1.75-3.098-5.25-3.55c-1.262-0.16-2.746-0.226-4.45-0.2c-1.875,0.024-3.541,0.199-5,0.525
			c-0.548,0.122-1.064,0.263-1.55,0.425c-1.967,0.667-2.9,1.483-2.8,2.45c0.467,1.367,1.117,2.517,1.95,3.45 M-24.7-23.2
			c0.487,0,0.987,0,1.5,0c0.7,0,1.367,0,2,0 M-27.05-23.15c0.749-0.021,1.533-0.038,2.35-0.05 M-27.05-38.75
			c0.714,0.557,1.423,1.099,2.125,1.625c1.252,0.935,2.494,1.826,3.725,2.675 M-33.15-61.15c0.212-1.21,0.362-2.393,0.45-3.55
			 M-66.45-37.45c-6.8,6.034-7.583,9.617-2.35,10.75c-3.034-0.1-4.4-1.517-4.1-4.25C-72.667-33.017-70.517-35.183-66.45-37.45
			c1.2-0.667,2.583-1.35,4.15-2.05c6.7-3,10.867-3.333,12.5-1 M-56.85-73.35c0.1,0.2,0.2,0.383,0.3,0.55
			c-8.867-1.633-15.517-1.3-19.95,1c-3.733,2.233-6.317,4.716-7.75,7.45s-1.683,5.617-0.75,8.65c1.133,3.7,2.983,5.85,5.55,6.45
			c1.094,0.248,2.453,0.248,4.075,0c2.103-0.323,4.645-1.057,7.625-2.2c2.005-0.396,3.914-1.213,5.725-2.45
			c3.374-2.31,6.416-6.076,9.125-11.3c0.033,0.133,0.066,0.25,0.1,0.35c-2.295,5.992-5.503,10.167-9.625,12.525
			C-62.615-52.209-62.807-52.101-63-52c-4.402,1.843-8.177,2.968-11.325,3.375c-5.783,0.753-9.441-0.922-10.975-5.025
			c-2.967-7.733-0.583-13.983,7.15-18.75C-72.017-75.267-64.917-75.583-56.85-73.35c-1.833-3.2-3.933-6.267-6.3-9.2
			c-0.24-0.291-0.481-0.582-0.725-0.875c-2.654-3.109-5.629-6.068-8.925-8.875c-0.333-0.3-0.667-0.6-1-0.9
			c2.2-1.4,4.316-1.917,6.35-1.55c0.534,0.433,1.067,0.883,1.6,1.35c2.678,2.415,5.27,5.248,7.775,8.5
			c0.989,1.286,1.964,2.636,2.925,4.05c1.833,2.767,3.633,5.783,5.4,9.05c1.82,3.879,3.229,7.846,4.225,11.9
			c0.293,1.223,0.551,2.457,0.775,3.7c0.374,2.097,0.641,4.214,0.8,6.35c0,0.2,0.017,0.383,0.05,0.55 M-50.1-56.4
			c0.317,1.264,0.601,2.547,0.85,3.85 M-85.225-35.75c0.046-0.623,0.054-1.289,0.025-2c-0.034-0.942-0.125-1.9-0.275-2.875
			C-86.08-44.441-87.588-48.55-90-52.95c-3.133-5.733-7.433-10.367-12.9-13.9c-4.15-2.657-7.566-3.607-10.25-2.85
			c-0.861,0.248-1.645,0.664-2.351,1.25c-0.767,1.567-1.316,3.284-1.649,5.15c-0.033,0.167-0.067,0.333-0.101,0.5 M-48.1-44
			c-0.033-0.133-0.05-0.283-0.05-0.45c-0.229-2.77-0.596-5.47-1.1-8.1 M-36.625-64.225c0.01,1.131-0.04,2.248-0.15,3.35 M-52.9-65.2
			c-1.067-2.6-2.283-5.133-3.65-7.6 M-50.1-56.4c-0.724-2.907-1.624-5.724-2.7-8.45 M-73.8-93.2
			c-1.258,2.071-2.549,3.913-3.875,5.525c-0.473,0.571-0.948,1.113-1.425,1.625c-1.601,1.664-3.26,3.022-4.975,4.075
			c-1.038,0.636-2.097,1.162-3.175,1.575c-1.786,0.448-3.444,0.815-4.975,1.1c-5.669,1.025-9.644,0.908-11.925-0.35
			c-0.746-0.608-1.196-1.375-1.35-2.3c-0.358-2.22,0.992-5.354,4.05-9.4l0.05-0.05c6.9-4.8,15.667-5.75,26.3-2.85
			C-74.667-93.883-74.233-93.533-73.8-93.2z M-44.65-86.725c2.28,2.667,4.113,5.726,5.5,9.175c0.033,0.167,0.083,0.316,0.15,0.45
			c1.541,4.518,2.333,8.81,2.375,12.875 M-51.7-98.35c0.2,1.3,0.45,2.617,0.75,3.95c-1.1-0.067-1.9,0.117-2.4,0.55
			c-0.633-0.333-1.267-0.667-1.9-1c-4.167-0.633-7.7-0.15-10.6,1.45 M-44.65-86.725c-2.01-2.341-4.359-4.383-7.05-6.125
			c-0.533-0.333-1.083-0.667-1.65-1 M-41.525-87.525c-2.178-2.408-4.537-4.516-7.075-6.325c-0.9-0.267-1.683-0.45-2.35-0.55
			 M-41.525-87.525c2.583,2.881,4.908,6.189,6.975,9.925c0.133,0.333,0.267,0.684,0.4,1.05c1.303,3.632,1.786,7.582,1.45,11.85
			 M-40.75-50.8c0.6-0.434,1.217-0.967,1.85-1.6c0.167-0.367,0.316-0.75,0.45-1.15c1.167-0.034,2.467-0.667,3.9-1.9
			c0.607-1.954,1.074-3.854,1.4-5.7 M-38.45-53.55c0.874-2.351,1.432-4.792,1.675-7.325 M-95.65-30.7
			c0.4,0.167,0.816,0.317,1.25,0.45c1.4,0.5,2.717,0.75,3.95,0.75c3.034-0.464,4.758-2.398,5.175-5.8
			c0.017-0.149,0.034-0.299,0.05-0.45 M-106.15-81.8c0.365,0.922,1.032,1.639,2,2.15 M-106.15-81.8
			c-0.082-0.222-0.148-0.456-0.2-0.7c-0.667-2,0.967-4.95,4.9-8.85 M-113.875-113.95c20.613,5.566,41.338,10.766,62.175,15.6
			 M-101.4-91.4c-0.065,0.032-0.115,0.049-0.15,0.05h0.1 M-52-109.9c-0.467,3.5-0.367,7.35,0.3,11.55 M-38.9-157.4
			c-19.14-5.18-38.307-10.763-57.5-16.75c-65.4-20.367-106.867-42.817-124.4-67.35c29.033-25.9,72.466-53.283,130.3-82.15
			c1.805-0.626,3.604-1.243,5.4-1.85c18.772-6.23,37.447-10.989,56.025-14.275C-21.698-341.084-14.34-342.159-7-343
			c24.067-2.767,48-3.067,71.8-0.9 M-90.325-381.975c-36.885,12.266-72.66,31.008-107.325,56.225
			c-47.467,37.633-77.866,70.35-91.199,98.15c-13.367,27.833-19.851,46.2-19.45,55.1c0,0.067,0,0.117,0,0.15 M-113.875-113.95
			c-50.894-13.738-101.119-29.705-150.675-47.9c-0.5-5-0.317-10.066,0.55-15.2c48.856,19.682,99.314,36.832,151.375,51.45
			 M-264-177.05c3.467-20.367,17.867-41.85,43.2-64.45 M105.675-388.7c-68.483-16.183-133.817-13.941-196,6.725"/>
	</g>
</symbol>
<circle fill="#6B247C" stroke="#3B0751" stroke-width="4" stroke-miterlimit="10" cx="99.6" cy="100.636" r="93.771"/>
<use xlink:href="#Symbol_6"  width="627.041" height="476.089" x="-314.85" y="-473.589" transform="matrix(0.3298 0 0 -0.3298 109.9219 38.2881)" overflow="visible"/>
</svg>
