<?xml version="1.0" encoding="utf-8"?>
<!-- Generator: Adobe Illustrator 16.0.0, SVG Export Plug-In . SVG Version: 6.00 Build 0)  -->
<!DOCTYPE svg PUBLIC "-//W3C//DTD SVG 1.1//EN" "http://www.w3.org/Graphics/SVG/1.1/DTD/svg11.dtd">
<svg version="1.1" id="Capa_1" xmlns="http://www.w3.org/2000/svg" xmlns:xlink="http://www.w3.org/1999/xlink" x="0px" y="0px"
	 width="216px" height="203.043px" viewBox="0 0 216 203.043" enable-background="new 0 0 216 203.043" xml:space="preserve">
<symbol  id="Symbol_2" viewBox="-47.2 -538.896 488.05 541.396">
	<g id="Layer_2_6_">
		<path fill-rule="evenodd" clip-rule="evenodd" fill="#FFFFFF" d="M424.1-96.85l-55-7.1l1.15,23.4l52.8,3.05L424.1-96.85
			l-1.05,19.35l-52.8-3.05l-1.15-23.4L424.1-96.85z M422.3-63.7l-51.1,2.4l1.05,21.4l49.2-8.05L422.3-63.7l-0.85,15.75l-49.2,8.05
			l-1.05-21.4L422.3-63.7z M386.75-46.05v1.95l-10.35,1.6l-0.05-1.95L386.75-46.05l-10.4,1.6l0.05,1.95l10.35-1.6V-46.05z
			 M360.05-23.85L430.7-39.9l7.65-225.95l-89.3-50.75l-23.3,6.25L185.3-272.6v11.25c-2.867-0.1-4.633-0.167-5.3-0.2
			c-3.388-0.272-6.279-1.106-8.675-2.5c-0.249-0.146-0.491-0.296-0.725-0.45c-2.7-2.133-5.1-3.733-7.2-4.8
			c-6.2-3.2-11.133-5.583-14.8-7.15c-0.867-0.367-1.817-0.767-2.85-1.2l-5.25-10.8l38.25-13.65v-14l-65.2-34.4L64.8-316.25
			c-7.1-5.033-15.85-9.75-26.25-14.15c-7.867-3-14.583-5.65-20.15-7.95c-1.333-1.3-2.483-2.617-3.45-3.95
			c-3.2-4.3-5.25-7.684-6.15-10.15c-0.833-2.333-1.25-5.633-1.25-9.9c0-6.8,0.983-11.917,2.95-15.35c2.9-5.066,8.75-9.4,17.55-13
			c5.667-2.3,10.9-4.1,15.7-5.4c2.2-0.6,3.817-1.05,4.85-1.35c2.833,2.333,4.7,3.5,5.6,3.5c1,0,3.583-0.9,7.75-2.7
			c2.333-1,4.25-1.917,5.75-2.75l2.95,1.65l12.85,7.15l10.4,5.8l14.25,7.9l12.65,7.05l14.35,8l13.95,7.75l15.65,8.75l15.8,8.75
			l10.8,6l12.35,6.9l10.75,6l13.8,7.7l10.8,6l13.1,7.3l6.55-3.3l13.95-7l15.2-7.65l17.7-8.9l17.95-9.05v-9.1L147.7-461.35
			L59.35-428.3v7.75c-0.067,0.767-0.15,1.2-0.25,1.3c-0.7,0.867-1.417,1.683-2.15,2.45c-0.733,0.7-1.467,1.333-2.2,1.9
			c-0.133,0.1-0.25,0.183-0.35,0.25c-0.566,0.367-1.117,0.733-1.65,1.1c-0.867,0.566-1.667,1.1-2.4,1.6
			c-0.967,0.633-1.8,1.184-2.5,1.65c-0.667,0.466-1.217,0.833-1.65,1.1c-0.5,0.333-0.867,0.583-1.1,0.75
			c-0.9,0.6-1.35,1.583-1.35,2.95c0.133,2.167,0.2,3.617,0.2,4.35c0.2,0.1,1.15,0.833,2.85,2.2c-1.6,0.9-3.483,1.65-5.65,2.25
			c-6.8,1.833-13.133,4.05-19,6.65c-3.566,1.566-5.95,2.8-7.15,3.7c-1.5,1.133-3.183,3.1-5.05,5.9
			c-2.667,3.133-4.35,5.284-5.05,6.45c-1,1.667-1.5,4.933-1.5,9.8c0,3.567,0.167,6.167,0.5,7.8c0.4,1.9,1.317,4.283,2.75,7.15
			c1.333,2.633,2.333,4.483,3,5.55c0.533,0.9,1.15,1.717,1.85,2.45c-2.033-0.867-3.833-1.667-5.4-2.4
			C-5.333-348.983-13.733-355.1-19.1-362c-6.733-8.667-10.1-19.95-10.1-33.85c0-11.3,2.333-21.9,7-31.8
			c5.4-11.4,13.184-20,23.35-25.8c11.333-6.466,20.733-11.633,28.2-15.5c0.533-0.267,1.917-0.95,4.15-2.05
			c0.667,0.667,1.65,1.15,2.95,1.45l18.4-6.55c0.2,0.3,0.417,0.6,0.65,0.9c3.1,4.1,6.517,7.267,10.25,9.5
			c0.257,0.158,0.524,0.308,0.8,0.45c6.437,3.347,17.853,2.847,34.25-1.5c3.934-1,8.167-2.25,12.7-3.75
			c10.1-3.3,16.917-7.85,20.45-13.65c4.595-7.659,3.42-17.518-3.525-29.575c-0.317-0.538-0.643-1.08-0.975-1.625
			c-6.06-9.899-13.135-16.307-21.225-19.225c-9.906-3.559-21.331-1.9-34.275,4.975c-21,11.167-30.583,22.4-28.75,33.7
			c0.233,1.4,0.633,2.783,1.2,4.15c0.667,1.667,1.367,3.25,2.1,4.75l-15.65,10.55c-0.267,0.833-0.417,1.6-0.45,2.3
			c-5.7,2.833-8.983,4.467-9.85,4.9c-7.466,3.867-16.867,9.033-28.2,15.5c-10.167,5.8-17.95,14.4-23.35,25.8
			c-4.667,9.9-7,20.5-7,31.8c0,13.9,3.367,25.183,10.1,33.85c5.367,6.9,13.767,13.017,25.2,18.35c3.867,1.8,9.117,4.034,15.75,6.7
			c0.333,0.5,2.217,2.583,5.65,6.25c3.4,3.7,8.117,6.667,14.15,8.9c6.033,2.267,17.683,9.3,34.95,21.1l3.6,10.45
			c-1.833,0.667-4.167,1.25-7,1.75c-2.367,0.433-6.833,1.017-13.4,1.75c-4.3,0.466-7.483,2.117-9.55,4.95
			c-1.233,1.667-1.967,3.633-2.2,5.9L-16-287.55L-44.7-44.6l4.1,2.25L250.1,0l1.4-37.55l86.75,10.95l21.55,2.7L360.05-23.85z
			 M375-84.3l0.05,2.2l11.7,0.85v-2.1L375-84.3l11.75,0.95v2.1l-11.7-0.85L375-84.3z M382.3-134.5c0.37,0.798,0.753,1.581,1.15,2.35
			c0.294,0.54,0.595,1.073,0.9,1.6c4.533,7.9,9.6,11.85,15.2,11.85c5.6,0,10.333-3.95,14.2-11.85c4.067-8.333,6.1-18.75,6.1-31.25
			c0-13.434-2.3-25.233-6.9-35.4c-3.038-6.694-6.421-11.311-10.15-13.85c-2.286-1.567-4.703-2.35-7.25-2.35
			c-1.812,0.01-3.52,0.41-5.125,1.2c-3.94,1.917-7.282,6.151-10.025,12.7c-0.3,0.733-0.6,1.5-0.9,2.3
			c-3.733,10.167-5.033,21.983-3.9,35.45c0.417,4.915,1.117,9.506,2.1,13.775C378.854-143.05,380.387-138.558,382.3-134.5
			c2.267,2.267,4.7,3.4,7.3,3.4c4.2,0,7.75-2.95,10.65-8.85c3.033-6.233,4.55-14.033,4.55-23.4c0-10.066-1.716-18.9-5.15-26.5
			c-1.96-4.33-4.118-7.505-6.475-9.525c-2.04-1.75-4.232-2.625-6.575-2.625c-2.267,0-4.333,0.833-6.2,2.5
			c1.867-1.667,3.934-2.5,6.2-2.5c2.343,0,4.535,0.875,6.575,2.625c2.357,2.02,4.515,5.195,6.475,9.525
			c3.434,7.6,5.15,16.434,5.15,26.5c0,9.367-1.517,17.167-4.55,23.4c-2.9,5.9-6.45,8.85-10.65,8.85
			C387-131.1,384.567-132.233,382.3-134.5c-1.913-4.058-3.446-8.55-4.6-13.475c-0.983-4.269-1.683-8.86-2.1-13.775
			c-1.133-13.467,0.167-25.283,3.9-35.45c0.3-0.8,0.6-1.566,0.9-2.3c2.743-6.549,6.084-10.783,10.025-12.7
			c1.605-0.79,3.313-1.19,5.125-1.2c2.547,0,4.964,0.783,7.25,2.35c3.729,2.539,7.113,7.155,10.15,13.85
			c4.6,10.167,6.9,21.967,6.9,35.4c0,12.5-2.033,22.917-6.1,31.25c-3.867,7.9-8.6,11.85-14.2,11.85c-5.6,0-10.667-3.95-15.2-11.85
			c-0.305-0.527-0.605-1.061-0.9-1.6C383.053-132.919,382.67-133.702,382.3-134.5z M375.2-239.1v-23.05l-9.35-2.25v22.65
			L375.2-239.1l-9.35-2.65v-22.65l9.35,2.25V-239.1z M365.85-274.7v-21.85l9.35,3.6v20.9L365.85-274.7l9.35,2.65v-20.9l-9.35-3.6
			V-274.7z M349.05-316.6L359.8-23.9L349.05-316.6z M338.25-26.6l-12.5-283.75L338.25-26.6z M81.15-268.3l14.7,2.9l61.7,12.25
			l-61.7-12.25L81.15-268.3z M185.3-247.65l69.4,13.75l4.1,2.25l-33.2-6.6l-14.1-2.8L-11.9-285.3v0.05l-4.1-2.3l4.1,2.3v-0.05
			l223.4,44.25l14.1,2.8l33.2,6.6l-4.1-2.25L185.3-247.65l-27.75-5.5l-6.45-13.4l-2.35-4.8l2.35,4.8c2.133,0.1,4.033,0.633,5.7,1.6
			c1.7,1,5.15,3.217,10.35,6.65c0.901,0.496,1.943,0.988,3.125,1.475c3.123,1.286,7.231,2.544,12.325,3.775
			c0.933,0.233,1.833,0.433,2.7,0.6V-247.65z M185.3-258.4v4.65v1.3v-1.3c-5.305-0.726-10.246-2.16-14.825-4.3
			c-0.264-0.11-0.522-0.227-0.775-0.35c-2.2-1.067-4.55-2.434-7.05-4.1c-2.767-1.867-4.3-2.883-4.6-3.05
			c-2.633-1.967-4.566-3.367-5.8-4.2c-1.067-0.733-2.233-1.267-3.5-1.6L147-275c2.2,0.3,4.267,1.067,6.2,2.3
			c1.6,1,3.667,2.6,6.2,4.8c0.533,0.5,1.2,1.05,2,1.65c1.633,1.2,3.417,2.3,5.35,3.3c1.348,0.674,2.739,1.274,4.175,1.8
			C175.309-259.542,180.101-258.626,185.3-258.4v-2.95V-258.4z M147-275l-1.25-2.65L147-275z M49.1-274.65
			c0.1-0.6,0.25-1.117,0.45-1.55c0.7-1.433,2.284-2.85,4.75-4.25c3.534-2.033,8.517-3.333,14.95-3.9c2.267-0.2,4.3-0.417,6.1-0.65
			l1.95,5.7c-2.367,0.433-4.833,1.5-7.4,3.2c-2.267,1.5-3.983,3.017-5.15,4.55l5.15,1l-5.15-1L49.1-274.65l-7.85-1.55L49.1-274.65z
			 M79-274.4l2.15,6.1l-11.25-2.25c1.367-1.3,3.117-2.233,5.25-2.8C76.783-273.817,78.067-274.167,79-274.4l-1.7-4.9L79-274.4z
			 M73.4-290.55l1.95,5.55L73.4-290.55z M50.4-317.5c-3.2-2.2-7.566-4.233-13.1-6.1c-5.566-1.833-9.017-3.733-10.35-5.7
			c-0.233-0.333-2.517-2.3-6.85-5.9c1.066,0.4,2.167,0.817,3.3,1.25c2.6,1.034,5.383,2.117,8.35,3.25
			c11.433,4.867,22.533,10.167,33.3,15.9l3.2,9.25c-2.5-0.867-5.317-2.517-8.45-4.95S53.533-315.267,50.4-317.5z M64.8-316.25
			l-0.2,0.15l0.45,1.3l-0.45-1.3L64.8-316.25z M68.25-305.55L69.8-301L68.25-305.55z M11.5-341.25c2.033,0.9,4.333,1.867,6.9,2.9
			C15.833-339.383,13.533-340.35,11.5-341.25z M20.1-335.2c-1.767-0.7-3.45-1.383-5.05-2.05C16.65-336.583,18.333-335.9,20.1-335.2z
			 M140.5-288.45L80.25-311.2l33.3-22.3l0.5-0.35l64.7,31.75l-64.7-31.75l-0.5,0.35l-33.3,22.3L140.5-288.45z M93.9-384.8l12.6-6.05
			l13.4,8l-11.75,5.95l11.75-5.95l-13.4-8L93.9-384.8z M135.15-361.85l11.05-5.3l13.05,7.8l-10.15,5.25l10.15-5.25l-13.05-7.8
			L135.15-361.85z M160.9-374.2l-14.7,7.05l-13.75-8.25l14.8-7.05L160.9-374.2l-13.65-8.25l-14.8,7.05l13.75,8.25L160.9-374.2z
			 M132.45-375.4l-12.55-7.45l14.45-7.35l12.9,7.75l-12.9-7.75l-14.45,7.35L132.45-375.4l-11.65,5.55L132.45-375.4z M113.55-350.5
			v17V-350.5z M80.25-311.2l15.6,45.8L80.25-311.2z M244.95-223.55c-0.6,0-1.117,0.35-1.55,1.05c-0.433,0.7-0.65,1.533-0.65,2.5
			s0.217,1.8,0.65,2.5c0.434,0.7,0.95,1.05,1.55,1.05c0.6,0,1.117-0.35,1.55-1.05s0.65-1.533,0.65-2.5s-0.217-1.8-0.65-2.5
			S245.55-223.55,244.95-223.55c0.6,0,1.117,0.35,1.55,1.05s0.65,1.533,0.65,2.5s-0.217,1.8-0.65,2.5s-0.95,1.05-1.55,1.05
			c-0.6,0-1.117-0.35-1.55-1.05c-0.433-0.7-0.65-1.533-0.65-2.5s0.217-1.8,0.65-2.5C243.833-223.2,244.35-223.55,244.95-223.55z
			 M232.3-219.9c0.434,0.7,0.95,1.05,1.55,1.05s1.117-0.35,1.55-1.05c0.434-0.7,0.65-1.533,0.65-2.5s-0.216-1.8-0.65-2.5
			c-0.433-0.7-0.95-1.05-1.55-1.05s-1.117,0.35-1.55,1.05c-0.433,0.7-0.65,1.533-0.65,2.5S231.867-220.6,232.3-219.9
			c-0.433-0.7-0.65-1.533-0.65-2.5s0.217-1.8,0.65-2.5c0.434-0.7,0.95-1.05,1.55-1.05s1.117,0.35,1.55,1.05
			c0.434,0.7,0.65,1.533,0.65,2.5s-0.216,1.8-0.65,2.5c-0.433,0.7-0.95,1.05-1.55,1.05S232.733-219.2,232.3-219.9z M211.5-241.05
			L208.2-218l13.7,2.5l3.7-22.75l-3.7,22.75l-13.7-2.5L211.5-241.05z M228.25-310l7.05-3.95l10.5,6.25l-6.75,3.7l6.75-3.7
			l-10.5-6.25L228.25-310z M203.7-323.7l8.1-4.3l10.4,6.2l-7.75,4.1l7.75-4.1l-10.4-6.2L203.7-323.7z M211.8-328l13.8-7.3l10.5,6.3
			l-13.9,7.2l13.1,7.85l13.3-7.5l15.1-8.5l10.65,6.7l-15.05,8.2l-10.7-6.4L236.1-329l16-8.35l11.6,7.4l17.2-9.7l10.7,7l-17.25,9.4
			l13.5,8.6l-13.5-8.6l17.25-9.4l-10.7-7l-17.2,9.7l-11.6-7.4l-16,8.35l12.5,7.55l-13.3,7.5l-13.1-7.85l13.9-7.2l-10.5-6.3
			L211.8-328l-11.75-7l14.1-7.2l-10.7-6.45l16.9-8.85l10.6,6.75l18.45-9.4l-10.75-7l10.75,7l-18.45,9.4l-10.6-6.75l-16.9,8.85
			l10.7,6.45l-14.1,7.2L211.8-328z M225.6-335.3l-11.45-6.9l16.8-8.55l10.85,6.85L225.6-335.3l16.2-8.6l-10.85-6.85l-16.8,8.55
			L225.6-335.3z M180.55-336.6l8.95-4.7l10.55,6.3l-8.7,4.4l8.7-4.4l-10.55-6.3L180.55-336.6z M189.1-357.25l-14.45,7.05l-15.4-9.15
			l14.2-7.35L189.1-357.25l-15.65-9.45l-14.2,7.35l15.4,9.15L189.1-357.25z M173.45-366.7l-12.55-7.5l18.95-9.05l11.5,7.3
			L173.45-366.7l17.9-9.25l-11.5-7.3l-18.95,9.05L173.45-366.7z M179.85-383.25l-13.25-8.45l19.9-9.5l13,8.5L179.85-383.25
			l19.65-9.45l-13-8.5l-19.9,9.5L179.85-383.25z M207-366l19.15-9.3l12.5,8.15l-18.3,9.65L207-366l-15.65-9.95l18.9-9.75l15.9,10.4
			l-15.9-10.4l-18.9,9.75L207-366l13.35,8.5l18.3-9.65l-12.5-8.15L207-366l-17.9,8.75l14.35,8.6l-14.35-8.6L207-366z M189.5-341.3
			l13.95-7.35L189.5-341.3l-14.85-8.9l-9.9,4.85l9.9-4.85L189.5-341.3z M199.5-392.7l10.75,7L199.5-392.7z M305.55-323.55
			l-13.95-9.1l17.55-9.55l14.35,9.6l-14.35-9.6l-17.55,9.55L305.55-323.55z M258.7-300l-12.9-7.7l13.5-7.35l13.35,8.05l-13.35-8.05
			l-13.5,7.35L258.7-300z M249.4-360.15l18.55-9.5l9.95,6.65l-18.15,9.6L249.4-360.15l10.35,6.75l18.15-9.6l-9.95-6.65L249.4-360.15
			z M270.1-346.65l-18,9.3l-10.3-6.55l17.95-9.5L270.1-346.65l-10.35-6.75l-17.95,9.5l10.3,6.55L270.1-346.65z M309.15-342.2
			l-10.85-7.2l-10-6.7l-10.4-6.9l10.4,6.9l10,6.7L309.15-342.2z M298.3-349.4l-17.4,9.75l-10.8-7l18.2-9.45l-18.2,9.45l10.8,7
			L298.3-349.4z M147.25-382.45l19.35-9.25l-13-8.25l19.65-9.9l13.25,8.65l-13.25-8.65l-19.65,9.9l13,8.25L147.25-382.45z
			 M251.5-37.55l7.3-194.1L251.5-37.55z M230.5-203.95L220.7-20.4L-5.05-56.45L17.8-248.1L230.5-203.95L17.8-248.1L-5.05-56.45
			L220.7-20.4L230.5-203.95z M267.95-369.65l-86.05-57.4l-12.4-8.25l-13.15-8.75l-8.65-5.75v-11.55v11.55l8.65,5.75l13.15,8.75
			l12.4,8.25L267.95-369.65z M130.15-414.85l-12.8-8.15l19.55-10.55l12.95,8.45L130.15-414.85l19.7-10.25l-12.95-8.45L117.35-423
			L130.15-414.85z M141.5-407.65L121.4-398l-10.95-6.6l19.7-10.25L141.5-407.65l-11.35-7.2l-19.7,10.25l10.95,6.6L141.5-407.65z
			 M117.35-423l-9.6-6.1l20.05-10.4l9.1,5.95l19.45-10.5l-19.45,10.5l-9.1-5.95l-20.05,10.4L117.35-423L97.6-412.3L117.35-423z
			 M181.9-427.05l-20.2,9.7l-11.85-7.75l19.65-10.2l-19.65,10.2l11.85,7.75L181.9-427.05z M153.6-399.95l-12.1-7.7l20.2-9.7
			l11.55,7.5l-11.55-7.5l-20.2,9.7L153.6-399.95l-19.25,9.75L121.4-398l-14.9,7.15l-10.45-6.25l-12.55,6.5l12.55-6.5l10.45,6.25
			l14.9-7.15l12.95,7.8L153.6-399.95z M83.45-404.65l14.15-7.65l12.85,7.7l-14.4,7.5L83.45-404.65L72.8-411l14.5-7.5l10.3,6.2
			l-10.3-6.2L72.8-411L83.45-404.65l12.6,7.55l14.4-7.5l-12.85-7.7L83.45-404.65l-12.8,6.9L83.45-404.65z M87.3-418.5l20.45-10.6
			L87.3-418.5z M55.5-475.2c4.267,3.867,12.433,2.2,24.5-5c2.031,2.105,4.272,4.047,6.725,5.825
			c4.102,2.996,8.793,5.538,14.075,7.625c-5.281-2.087-9.973-4.629-14.075-7.625c-2.453-1.778-4.694-3.72-6.725-5.825
			C67.933-473,59.767-471.333,55.5-475.2z M127.8-439.5l19.9-10.3L127.8-439.5z M50.35-411.95c0.066,0.267,0.133,0.55,0.2,0.85
			c0.467,1.8,0.733,2.783,0.8,2.95h0.9c0-0.133,0.117-1.25,0.35-3.35c0.066-0.733,0.117-1.417,0.15-2.05
			c-0.033,0.633-0.083,1.316-0.15,2.05c-0.233,2.1-0.35,3.217-0.35,3.35h-0.9c-0.067-0.167-0.333-1.15-0.8-2.95
			C50.483-411.4,50.417-411.683,50.35-411.95z M46.2-409.2c0.033,0.534,0.117,0.983,0.25,1.35c0.333,0.8,0.583,1.5,0.75,2.1
			c0.43,0,0.646,0.083,0.65,0.25v-4.8v4.8c-0.003-0.167-0.22-0.25-0.65-0.25c-0.167-0.6-0.417-1.3-0.75-2.1
			C46.317-408.217,46.233-408.667,46.2-409.2z M46.8-398.95c0.467,0.434,1.017,0.9,1.65,1.4c0.033,0.033,0.083,0.066,0.15,0.1
			c-0.067-0.033-0.117-0.066-0.15-0.1C47.817-398.05,47.267-398.517,46.8-398.95z M54.75-414.9c0.067,0.367,0.167,0.733,0.3,1.1
			c0.534,1.367,1.267,2.533,2.2,3.5v-5.25c-0.133-0.434-0.233-0.85-0.3-1.25c0.066,0.4,0.167,0.816,0.3,1.25v5.25
			c-0.933-0.967-1.667-2.133-2.2-3.5C54.917-414.167,54.817-414.533,54.75-414.9z M59.35-420.55v11.65
			c-1.133,0.867-3.55,2.183-7.25,3.95c-5.067,2.267-7.783,3.534-8.15,3.8c0.367-0.267,3.083-1.533,8.15-3.8
			c3.7-1.767,6.117-3.083,7.25-3.95V-420.55z M72.8-411l-13.45,7v-4.9v4.9L72.8-411z M59.35-404l8.35,4.6L59.35-404z M32.4-474.15
			c-0.066,1.3,0.3,2.35,1.1,3.15C32.7-471.8,32.333-472.85,32.4-474.15z M48.5-487c1.933,4.167,4.05,7.8,6.35,10.9
			C52.55-479.2,50.433-482.833,48.5-487z M45.2-495.9c7.367-5.3,14.3-9.7,20.8-13.2c1.967,11.7,6.633,21.333,14,28.9
			c-7.367-7.566-12.033-17.2-14-28.9C59.5-505.6,52.567-501.2,45.2-495.9z M66-509.1c10.05-5.427,19.058-8.71,27.025-9.85
			c15.644-2.233,27.252,3.825,34.825,18.175c2.458,4.664,4.492,10.205,6.1,16.625c-1.608-6.42-3.642-11.961-6.1-16.625
			c-7.573-14.35-19.181-20.409-34.825-18.175C85.058-517.811,76.05-514.527,66-509.1z M-40.6-42.35l28.7-242.85v-0.05v0.05
			L-40.6-42.35z M248.6-321.45l10.7,6.4l15.05-8.2l-10.65-6.7L248.6-321.45z"/>
		
			<path fill-rule="evenodd" clip-rule="evenodd" fill="none" stroke="#000000" stroke-width="5" stroke-linecap="round" stroke-linejoin="round" stroke-miterlimit="3" d="
			M424.1-96.85l-55-7.1l1.15,23.4l52.8,3.05L424.1-96.85z M422.3-63.7l-51.1,2.4l1.05,21.4l49.2-8.05L422.3-63.7z M386.75-46.05
			v1.95l-10.35,1.6l-0.05-1.95L386.75-46.05z M360.05-23.85L430.7-39.9l7.65-225.95l-89.3-50.75l-23.3,6.25L185.3-272.6v11.25
			c-2.867-0.1-4.633-0.167-5.3-0.2c-3.388-0.272-6.279-1.106-8.675-2.5c-0.249-0.146-0.491-0.296-0.725-0.45
			c-2.7-2.133-5.1-3.733-7.2-4.8c-6.2-3.2-11.133-5.583-14.8-7.15c-0.867-0.367-1.817-0.767-2.85-1.2l-5.25-10.8l38.25-13.65v-14
			l-65.2-34.4L64.8-316.25c-7.1-5.033-15.85-9.75-26.25-14.15c-7.867-3-14.583-5.65-20.15-7.95c-1.333-1.3-2.483-2.617-3.45-3.95
			c-3.2-4.3-5.25-7.684-6.15-10.15c-0.833-2.333-1.25-5.633-1.25-9.9c0-6.8,0.983-11.917,2.95-15.35c2.9-5.066,8.75-9.4,17.55-13
			c5.667-2.3,10.9-4.1,15.7-5.4c2.2-0.6,3.817-1.05,4.85-1.35c2.833,2.333,4.7,3.5,5.6,3.5c1,0,3.583-0.9,7.75-2.7
			c2.333-1,4.25-1.917,5.75-2.75l2.95,1.65l12.85,7.15l10.4,5.8l14.25,7.9l12.65,7.05l14.35,8l13.95,7.75l15.65,8.75l15.8,8.75
			l10.8,6l12.35,6.9l10.75,6l13.8,7.7l10.8,6l13.1,7.3l6.55-3.3l13.95-7l15.2-7.65l17.7-8.9l17.95-9.05v-9.1L147.7-461.35
			L59.35-428.3v7.75c-0.067,0.767-0.15,1.2-0.25,1.3c-0.7,0.867-1.417,1.683-2.15,2.45c-0.733,0.7-1.467,1.333-2.2,1.9
			c-0.133,0.1-0.25,0.183-0.35,0.25c-0.566,0.367-1.117,0.733-1.65,1.1c-0.867,0.566-1.667,1.1-2.4,1.6
			c-0.967,0.633-1.8,1.184-2.5,1.65c-0.667,0.466-1.217,0.833-1.65,1.1c-0.5,0.333-0.867,0.583-1.1,0.75
			c-0.9,0.6-1.35,1.583-1.35,2.95c0.133,2.167,0.2,3.617,0.2,4.35c0.2,0.1,1.15,0.833,2.85,2.2c-1.6,0.9-3.483,1.65-5.65,2.25
			c-6.8,1.833-13.133,4.05-19,6.65c-3.566,1.566-5.95,2.8-7.15,3.7c-1.5,1.133-3.183,3.1-5.05,5.9
			c-2.667,3.133-4.35,5.284-5.05,6.45c-1,1.667-1.5,4.933-1.5,9.8c0,3.567,0.167,6.167,0.5,7.8c0.4,1.9,1.317,4.283,2.75,7.15
			c1.333,2.633,2.333,4.483,3,5.55c0.533,0.9,1.15,1.717,1.85,2.45c-2.033-0.867-3.833-1.667-5.4-2.4
			C-5.333-348.983-13.733-355.1-19.1-362c-6.733-8.667-10.1-19.95-10.1-33.85c0-11.3,2.333-21.9,7-31.8
			c5.4-11.4,13.184-20,23.35-25.8c11.333-6.466,20.733-11.633,28.2-15.5c0.533-0.267,1.917-0.95,4.15-2.05
			c0.667,0.667,1.65,1.15,2.95,1.45l18.4-6.55c0.2,0.3,0.417,0.6,0.65,0.9c3.1,4.1,6.517,7.267,10.25,9.5
			c0.257,0.158,0.524,0.308,0.8,0.45c6.437,3.347,17.853,2.847,34.25-1.5c3.934-1,8.167-2.25,12.7-3.75
			c10.1-3.3,16.917-7.85,20.45-13.65c4.595-7.659,3.42-17.518-3.525-29.575c-0.317-0.538-0.643-1.08-0.975-1.625
			c-6.06-9.899-13.135-16.307-21.225-19.225c-9.906-3.559-21.331-1.9-34.275,4.975c-21,11.167-30.583,22.4-28.75,33.7
			c0.233,1.4,0.633,2.783,1.2,4.15c0.667,1.667,1.367,3.25,2.1,4.75l-15.65,10.55c-0.267,0.833-0.417,1.6-0.45,2.3
			c-5.7,2.833-8.983,4.467-9.85,4.9c-7.466,3.867-16.867,9.033-28.2,15.5c-10.167,5.8-17.95,14.4-23.35,25.8
			c-4.667,9.9-7,20.5-7,31.8c0,13.9,3.367,25.183,10.1,33.85c5.367,6.9,13.767,13.017,25.2,18.35c3.867,1.8,9.117,4.034,15.75,6.7
			c0.333,0.5,2.217,2.583,5.65,6.25c3.4,3.7,8.117,6.667,14.15,8.9c6.033,2.267,17.683,9.3,34.95,21.1l3.6,10.45
			c-1.833,0.667-4.167,1.25-7,1.75c-2.367,0.433-6.833,1.017-13.4,1.75c-4.3,0.466-7.483,2.117-9.55,4.95
			c-1.233,1.667-1.967,3.633-2.2,5.9L-16-287.55L-44.7-44.6l4.1,2.25L250.1,0l1.4-37.55l86.75,10.95l21.55,2.7L360.05-23.85z
			 M375-84.3l0.05,2.2l11.7,0.85v-2.1L375-84.3z M382.3-134.5c0.37,0.798,0.753,1.581,1.15,2.35c0.294,0.54,0.595,1.073,0.9,1.6
			c4.533,7.9,9.6,11.85,15.2,11.85c5.6,0,10.333-3.95,14.2-11.85c4.067-8.333,6.1-18.75,6.1-31.25c0-13.434-2.3-25.233-6.9-35.4
			c-3.038-6.694-6.421-11.311-10.15-13.85c-2.286-1.567-4.703-2.35-7.25-2.35c-1.812,0.01-3.52,0.41-5.125,1.2
			c-3.94,1.917-7.282,6.151-10.025,12.7c-0.3,0.733-0.6,1.5-0.9,2.3c-3.733,10.167-5.033,21.983-3.9,35.45
			c0.417,4.915,1.117,9.506,2.1,13.775C378.854-143.05,380.387-138.558,382.3-134.5c2.267,2.267,4.7,3.4,7.3,3.4
			c4.2,0,7.75-2.95,10.65-8.85c3.033-6.233,4.55-14.033,4.55-23.4c0-10.066-1.716-18.9-5.15-26.5
			c-1.96-4.33-4.118-7.505-6.475-9.525c-2.04-1.75-4.232-2.625-6.575-2.625c-2.267,0-4.333,0.833-6.2,2.5 M375.2-239.1v-23.05
			l-9.35-2.25v22.65L375.2-239.1z M365.85-274.7v-21.85l9.35,3.6v20.9L365.85-274.7z M349.05-316.6L359.8-23.9 M338.25-26.6
			l-12.5-283.75 M81.15-268.3l14.7,2.9l61.7,12.25l27.75,5.5l69.4,13.75l4.1,2.25l-33.2-6.6l-14.1-2.8L-11.9-285.3v0.05l-4.1-2.3
			 M151.1-266.55l6.45,13.4 M151.1-266.55l-2.35-4.8c1.267,0.333,2.433,0.867,3.5,1.6c1.233,0.833,3.167,2.233,5.8,4.2
			c0.3,0.167,1.833,1.183,4.6,3.05c2.5,1.667,4.85,3.033,7.05,4.1c0.253,0.123,0.511,0.24,0.775,0.35
			c4.579,2.14,9.52,3.574,14.825,4.3v1.3c-0.867-0.167-1.767-0.367-2.7-0.6c-5.094-1.231-9.202-2.49-12.325-3.775
			c-1.182-0.487-2.224-0.979-3.125-1.475c-5.2-3.434-8.65-5.65-10.35-6.65C155.133-265.917,153.233-266.45,151.1-266.55z
			 M185.3-258.4c-5.199-0.226-9.991-1.143-14.375-2.75c-1.436-0.526-2.827-1.126-4.175-1.8c-1.933-1-3.717-2.1-5.35-3.3
			c-0.8-0.6-1.467-1.15-2-1.65c-2.533-2.2-4.6-3.8-6.2-4.8c-1.934-1.233-4-2-6.2-2.3l-1.25-2.65 M147-275l1.75,3.65 M64.75-271.55
			l5.15,1l11.25,2.25 M41.25-276.2l7.85,1.55l15.65,3.1 M49.1-274.65c0.1-0.6,0.25-1.117,0.45-1.55c0.7-1.433,2.284-2.85,4.75-4.25
			c3.534-2.033,8.517-3.333,14.95-3.9c2.267-0.2,4.3-0.417,6.1-0.65l1.95,5.7c-2.367,0.433-4.833,1.5-7.4,3.2
			c-2.267,1.5-3.983,3.017-5.15,4.55 M77.3-279.3l1.7,4.9c-0.933,0.233-2.217,0.583-3.85,1.05c-2.133,0.567-3.883,1.5-5.25,2.8
			 M73.4-290.55l1.95,5.55 M50.4-317.5c-3.2-2.2-7.566-4.233-13.1-6.1c-5.566-1.833-9.017-3.733-10.35-5.7
			c-0.233-0.333-2.517-2.3-6.85-5.9c1.066,0.4,2.167,0.817,3.3,1.25c2.6,1.034,5.383,2.117,8.35,3.25
			c11.433,4.867,22.533,10.167,33.3,15.9l3.2,9.25c-2.5-0.867-5.317-2.517-8.45-4.95S53.533-315.267,50.4-317.5z M64.8-316.25
			l-0.2,0.15l0.45,1.3 M68.25-305.55L69.8-301 M11.5-341.25c2.033,0.9,4.333,1.867,6.9,2.9 M20.1-335.2
			c-1.767-0.7-3.45-1.383-5.05-2.05 M140.5-288.45L80.25-311.2l33.3-22.3l0.5-0.35l64.7,31.75 M93.9-384.8l12.6-6.05l13.4,8
			l-11.75,5.95 M135.15-361.85l11.05-5.3l13.05,7.8l-10.15,5.25 M160.9-374.2l-14.7,7.05l-13.75-8.25l14.8-7.05L160.9-374.2z
			 M132.45-375.4l-12.55-7.45l14.45-7.35l12.9,7.75l19.35-9.25l-13-8.25l19.65-9.9l13.25,8.65 M113.55-350.5v17 M120.8-369.85
			l11.65-5.55 M80.25-311.2l15.6,45.8 M79-274.4l2.15,6.1 M244.95-223.55c-0.6,0-1.117,0.35-1.55,1.05
			c-0.433,0.7-0.65,1.533-0.65,2.5s0.217,1.8,0.65,2.5c0.434,0.7,0.95,1.05,1.55,1.05c0.6,0,1.117-0.35,1.55-1.05
			s0.65-1.533,0.65-2.5s-0.217-1.8-0.65-2.5S245.55-223.55,244.95-223.55z M232.3-219.9c0.434,0.7,0.95,1.05,1.55,1.05
			s1.117-0.35,1.55-1.05c0.434-0.7,0.65-1.533,0.65-2.5s-0.216-1.8-0.65-2.5c-0.433-0.7-0.95-1.05-1.55-1.05s-1.117,0.35-1.55,1.05
			c-0.433,0.7-0.65,1.533-0.65,2.5S231.867-220.6,232.3-219.9z M211.5-241.05L208.2-218l13.7,2.5l3.7-22.75 M185.3-252.45v4.8
			 M185.3-258.4v4.65 M185.3-261.35v2.95 M228.25-310l7.05-3.95l10.5,6.25l-6.75,3.7 M203.7-323.7l8.1-4.3l10.4,6.2l-7.75,4.1
			 M211.8-328l13.8-7.3l10.5,6.3l-13.9,7.2l13.1,7.85l13.3-7.5l15.1-8.5l10.65,6.7l-15.05,8.2l-10.7-6.4L236.1-329l16-8.35l11.6,7.4
			l17.2-9.7l10.7,7l-17.25,9.4 M225.6-335.3l-11.45-6.9l16.8-8.55l10.85,6.85L225.6-335.3z M180.55-336.6l8.95-4.7l10.55,6.3
			l-8.7,4.4 M189.1-357.25l-14.45,7.05l-15.4-9.15l14.2-7.35L189.1-357.25z M173.45-366.7l-12.55-7.5l18.95-9.05l11.5,7.3
			L173.45-366.7z M179.85-383.25l-13.25-8.45l19.9-9.5l13,8.5L179.85-383.25z M207-366l19.15-9.3l12.5,8.15l-18.3,9.65L207-366
			l-15.65-9.95l18.9-9.75l15.9,10.4 M214.15-342.2l-10.7-6.45l16.9-8.85l10.6,6.75 M211.8-328l-11.75-7l14.1-7.2 M189.5-341.3
			l13.95-7.35l-14.35-8.6L207-366 M164.75-345.35l9.9-4.85l14.85,8.9 M199.5-392.7l10.75,7 M305.55-323.55l-13.95-9.1l17.55-9.55
			l14.35,9.6 M258.7-300l-12.9-7.7l13.5-7.35l13.35,8.05 M249.4-360.15l18.55-9.5l9.95,6.65l-18.15,9.6L249.4-360.15z M270.1-346.65
			l-18,9.3l-10.3-6.55l17.95-9.5L270.1-346.65z M309.15-342.2l-10.85-7.2l-10-6.7l-10.4-6.9 M287.85-314.65l-13.5-8.6 M298.3-349.4
			l-17.4,9.75l-10.8-7l18.2-9.45 M238.65-367.15l10.75,7l-18.45,9.4 M251.5-37.55l7.3-194.1 M230.5-203.95L220.7-20.4L-5.05-56.45
			L17.8-248.1L230.5-203.95z M267.95-369.65l-86.05-57.4l-12.4-8.25l-13.15-8.75l-8.65-5.75v-11.55 M130.15-414.85l-12.8-8.15
			l19.55-10.55l12.95,8.45L130.15-414.85z M141.5-407.65L121.4-398l-10.95-6.6l19.7-10.25L141.5-407.65z M117.35-423l-9.6-6.1
			l20.05-10.4l9.1,5.95l19.45-10.5 M181.9-427.05l-20.2,9.7l-11.85-7.75l19.65-10.2 M153.6-399.95l-12.1-7.7l20.2-9.7l11.55,7.5
			 M83.45-404.65l14.15-7.65l12.85,7.7l-14.4,7.5L83.45-404.65L72.8-411l14.5-7.5l10.3,6.2 M117.35-423L97.6-412.3 M87.3-418.5
			l20.45-10.6 M55.5-475.2c4.267,3.867,12.433,2.2,24.5-5c2.031,2.105,4.272,4.047,6.725,5.825
			c4.102,2.996,8.793,5.538,14.075,7.625 M127.8-439.5l19.9-10.3 M50.35-411.95c0.066,0.267,0.133,0.55,0.2,0.85
			c0.467,1.8,0.733,2.783,0.8,2.95h0.9c0-0.133,0.117-1.25,0.35-3.35c0.066-0.733,0.117-1.417,0.15-2.05 M46.2-409.2
			c0.033,0.534,0.117,0.983,0.25,1.35c0.333,0.8,0.583,1.5,0.75,2.1c0.43,0,0.646,0.083,0.65,0.25v-4.8 M46.8-398.95
			c0.467,0.434,1.017,0.9,1.65,1.4c0.033,0.033,0.083,0.066,0.15,0.1 M54.75-414.9c0.067,0.367,0.167,0.733,0.3,1.1
			c0.534,1.367,1.267,2.533,2.2,3.5v-5.25c-0.133-0.434-0.233-0.85-0.3-1.25 M59.35-420.55v11.65c-1.133,0.867-3.55,2.183-7.25,3.95
			c-5.067,2.267-7.783,3.534-8.15,3.8 M72.8-411l-13.45,7v-4.9 M59.35-404l8.35,4.6 M32.4-474.15c-0.066,1.3,0.3,2.35,1.1,3.15
			 M48.5-487c1.933,4.167,4.05,7.8,6.35,10.9 M45.2-495.9c7.367-5.3,14.3-9.7,20.8-13.2c1.967,11.7,6.633,21.333,14,28.9 M66-509.1
			c10.05-5.427,19.058-8.71,27.025-9.85c15.644-2.233,27.252,3.825,34.825,18.175c2.458,4.664,4.492,10.205,6.1,16.625
			 M70.65-397.75l12.8-6.9 M153.6-399.95l-19.25,9.75L121.4-398 M83.5-390.6l12.55-6.5l10.45,6.25l14.9-7.15 M-40.6-42.35
			l28.7-242.85v-0.05"/>
	</g>
	<g id="Layer_1_20_">
		<path fill-rule="evenodd" clip-rule="evenodd" fill="#666666" d="M412.45-63.25L371.2-61.3l1.05,21.4l38.9-6.375
			c-0.133-0.865-0.2-1.457-0.2-1.775c0-3.867,0.3-7.684,0.9-11.45C411.995-60.5,412.195-61.75,412.45-63.25z M416.35-97.85
			l-47.25-6.1l1.15,23.4l44.625,2.575C415.603-83.959,416.095-90.584,416.35-97.85z M386.75-46.05v1.95l-10.35,1.6l-0.05-1.95
			L386.75-46.05z M375-84.3l11.75,0.95v2.1l-11.7-0.85L375-84.3z M375.2-239.1v-23.05l-9.35-2.25v22.65L375.2-239.1z M365.85-274.7
			l9.35,2.65v-20.9l-9.35-3.6V-274.7z M113.55-350.5v17l0.5-0.35l25.65,12.575c0.033-1.172,0.05-2.53,0.05-4.075
			c0-4.267-0.383-7.417-1.15-9.45c-0.567-1.467-1.55-2.767-2.95-3.9c-0.166-0.135-0.325-0.268-0.475-0.4L113.55-350.5z
			 M43.95-401.15c0.2,0.1,1.15,0.833,2.85,2.2c0.467,0.434,1.017,0.9,1.65,1.4c0.033,0.033,0.083,0.066,0.15,0.1
			c2.833,2.333,4.7,3.5,5.6,3.5c1,0,3.583-0.9,7.75-2.7c2.333-1,4.25-1.917,5.75-2.75l2.95,1.65l12.85,7.15l10.4,5.8l14.25,7.9
			l12.65,7.05l14.35,8l13.95,7.75l15.65,8.75l15.8,8.75l10.8,6l12.35,6.9l10.75,6l13.8,7.7l10.8,6l13.1,7.3l6.55-3.3l13.95-7
			l15.2-7.65l17.7-8.9l17.95-9.05v-9.1L147.7-461.35v11.55l8.65,5.75l13.15,8.75l12.4,8.25l86.05,57.4l-86.05-57.4l-12.4-8.25
			l-13.15-8.75l-8.65-5.75l-19.9,10.3l-20.05,10.4l9.6,6.1l19.55-10.55l-9.1-5.95l9.1,5.95L117.35-423l-9.6-6.1L87.3-418.5l10.3,6.2
			l12.85,7.7l-14.4,7.5l-12.6-7.55l14.15-7.65l-10.3-6.2L72.8-411l-13.45,7v-4.9c-1.133,0.867-3.55,2.183-7.25,3.95
			C47.033-402.683,44.317-401.417,43.95-401.15z M186.5-401.2l-13.25-8.65l-19.65,9.9l13,8.25l-19.35,9.25l19.35-9.25l-13-8.25
			l19.65-9.9L186.5-401.2z M156.35-444.05l-19.45,10.5l12.95,8.45l-12.95-8.45L156.35-444.05z M169.5-435.3l-19.65,10.2l11.85,7.75
			l20.2-9.7l-20.2,9.7l-11.85-7.75L169.5-435.3z M173.25-409.85l-11.55-7.5l-20.2,9.7l12.1,7.7l-12.1-7.7l20.2-9.7L173.25-409.85z
			 M54.85-476.1c-2.3-3.1-4.417-6.733-6.35-10.9l-15.65,10.55c-0.267,0.833-0.417,1.6-0.45,2.3c-0.066,1.3,0.3,2.35,1.1,3.15
			c0.667,0.667,1.65,1.15,2.95,1.45L54.85-476.1z M64.75-271.55l-15.65-3.1l-7.85-1.55L-16-287.55l4.1,2.3v-0.05l181.65,35.975v-1.4
			l-12.2-2.425l-18.475-3.675L95.85-265.4l-14.7-2.9l-11.25-2.25L64.75-271.55z M202.525-209.75L17.8-248.1L-5.05-56.45L220.7-20.4
			l3.25-60.925c-1.243-1.972-2.393-3.831-3.45-5.575c-11-18.133-16.617-31.517-16.85-40.15c-0.6-18.233-0.267-39.1,1-62.6
			c0.1-7.934-0.35-13.833-1.35-17.7C203.081-208.201,202.823-209.001,202.525-209.75z M93.9-384.8l12.6-6.05l13.4,8l-11.75,5.95
			l11.75-5.95l-13.4-8L93.9-384.8z M135.15-361.85l11.05-5.3l13.05,7.8l-10.15,5.25l10.15-5.25l-13.05-7.8L135.15-361.85z
			 M160.9-374.2l-14.7,7.05l-13.75-8.25l14.8-7.05L160.9-374.2l-13.65-8.25l-14.8,7.05l13.75,8.25L160.9-374.2z M132.45-375.4
			l-12.55-7.45l14.45-7.35l12.9,7.75l-12.9-7.75l-14.45,7.35L132.45-375.4z M120.8-369.85l11.65-5.55L120.8-369.85z M228.25-310
			l7.05-3.95l10.5,6.25l-6.75,3.7l6.75-3.7l-10.5-6.25L228.25-310z M203.7-323.7l8.1-4.3l10.4,6.2l-7.75,4.1l7.75-4.1l-10.4-6.2
			L203.7-323.7z M225.6-335.3l-11.45-6.9l16.8-8.55l10.85,6.85L225.6-335.3l16.2-8.6l-10.85-6.85l-16.8,8.55L225.6-335.3z
			 M211.8-328l13.8-7.3l10.5,6.3l-13.9,7.2l13.1,7.85l13.3-7.5l15.1-8.5l10.65,6.7l-15.05,8.2l-10.7-6.4L236.1-329l16-8.35l11.6,7.4
			l17.2-9.7l10.7,7l-17.25,9.4l13.5,8.6l-13.5-8.6l17.25-9.4l-10.7-7l-17.2,9.7l-11.6-7.4l-16,8.35l12.5,7.55l-13.3,7.5l-13.1-7.85
			l13.9-7.2l-10.5-6.3L211.8-328l-11.75-7l14.1-7.2l-10.7-6.45l16.9-8.85l10.6,6.75l-10.6-6.75l-16.9,8.85l10.7,6.45l-14.1,7.2
			L211.8-328z M180.55-336.6l8.95-4.7l10.55,6.3l-8.7,4.4l8.7-4.4l-10.55-6.3L180.55-336.6z M179.85-383.25l-13.25-8.45l19.9-9.5
			l13,8.5L179.85-383.25l19.65-9.45l-13-8.5l-19.9,9.5L179.85-383.25z M173.45-366.7l-12.55-7.5l18.95-9.05l11.5,7.3L173.45-366.7
			l17.9-9.25l-11.5-7.3l-18.95,9.05L173.45-366.7z M189.1-357.25l-14.45,7.05l-15.4-9.15l14.2-7.35L189.1-357.25l-15.65-9.45
			l-14.2,7.35l15.4,9.15L189.1-357.25z M226.15-375.3L207-366l-15.65-9.95l18.9-9.75L226.15-375.3l12.5,8.15l-18.3,9.65L207-366
			l-17.9,8.75l14.35,8.6l-14.35-8.6L207-366l13.35,8.5l18.3-9.65L226.15-375.3l-15.9-10.4l-18.9,9.75L207-366L226.15-375.3z
			 M199.5-392.7l10.75,7L199.5-392.7z M164.75-345.35l9.9-4.85l14.85,8.9l13.95-7.35l-13.95,7.35l-14.85-8.9L164.75-345.35z
			 M305.55-323.55l-13.95-9.1l17.55-9.55l14.35,9.6l-14.35-9.6l-17.55,9.55L305.55-323.55z M258.7-300l-12.9-7.7l13.5-7.35
			l13.35,8.05l-13.35-8.05l-13.5,7.35L258.7-300z M270.1-346.65l-18,9.3l-10.3-6.55l17.95-9.5L270.1-346.65l-10.35-6.75l-17.95,9.5
			l10.3,6.55L270.1-346.65z M249.4-360.15l18.55-9.5l9.95,6.65l-18.15,9.6L249.4-360.15l10.35,6.75l18.15-9.6l-9.95-6.65
			L249.4-360.15z M309.15-342.2l-10.85-7.2l-10-6.7l-10.4-6.9l10.4,6.9l10,6.7L309.15-342.2z M298.3-349.4l-17.4,9.75l-10.8-7
			l18.2-9.45l-18.2,9.45l10.8,7L298.3-349.4z M238.65-367.15l10.75,7l-18.45,9.4l18.45-9.4L238.65-367.15z M248.6-321.45l10.7,6.4
			l15.05-8.2l-10.65-6.7L248.6-321.45z M141.5-407.65L121.4-398l-10.95-6.6l19.7-10.25L141.5-407.65l-11.35-7.2l-19.7,10.25
			l10.95,6.6L141.5-407.65z M149.85-425.1l-19.7,10.25l-12.8-8.15L97.6-412.3l19.75-10.7l12.8,8.15L149.85-425.1z M97.6-412.3
			l-14.15,7.65l12.6,7.55l14.4-7.5L97.6-412.3z M59.35-404l8.35,4.6L59.35-404z M83.45-404.65L72.8-411L83.45-404.65z M70.65-397.75
			l12.8-6.9L70.65-397.75z M106.5-390.85l14.9-7.15l12.95,7.8L121.4-398L106.5-390.85l-10.45-6.25l-12.55,6.5l12.55-6.5
			L106.5-390.85z M153.6-399.95l-19.25,9.75L153.6-399.95z"/>
		<path fill-rule="evenodd" clip-rule="evenodd" fill="#BDB9B8" d="M395.8-290.025L349.05-316.6l1,26.975L359.8-23.9l0.25,0.05
			l53.125-12.075c-0.103-0.511-0.211-1.036-0.325-1.575c-0.85-4.069-1.417-6.994-1.7-8.775l-38.9,6.375l-1.05-21.4l41.25-1.95
			c0.339-1.931,0.772-4.281,1.3-7.05c0.422-2.429,0.797-4.987,1.125-7.675L370.25-80.55l-1.15-23.4l47.25,6.1
			c0.133-3.884,0.2-7.951,0.2-12.2c0-3.2,0.383-6.317,1.15-9.35c0.5-1.833,1.367-4.9,2.6-9.2c2.5-10.033,3.75-24.667,3.75-43.9
			c0-10.667-0.333-19.833-1-27.5c-1.533-17.1-4.617-33.117-9.25-48.05C411.474-255.521,405.474-269.512,395.8-290.025z
			 M377.7-147.975c-0.983-4.269-1.683-8.86-2.1-13.775c-1.133-13.467,0.167-25.283,3.9-35.45c0.3-0.8,0.6-1.566,0.9-2.3
			c2.743-6.549,6.084-10.783,10.025-12.7c1.605-0.79,3.313-1.19,5.125-1.2c2.547,0,4.964,0.783,7.25,2.35
			c3.729,2.539,7.113,7.155,10.15,13.85c4.6,10.167,6.9,21.967,6.9,35.4c0,12.5-2.033,22.917-6.1,31.25
			c-3.867,7.9-8.6,11.85-14.2,11.85c-5.6,0-10.667-3.95-15.2-11.85c-0.305-0.527-0.605-1.061-0.9-1.6
			c-0.397-0.769-0.78-1.552-1.15-2.35C380.387-138.558,378.854-143.05,377.7-147.975z M375.2-239.1l-9.35-2.65v-22.65l9.35,2.25
			V-239.1z M365.85-274.7v-21.85l9.35,3.6v20.9L365.85-274.7z M127.85-500.775c-7.573-14.35-19.181-20.409-34.825-18.175
			c-7.967,1.14-16.975,4.423-27.025,9.85c1.967,11.7,6.633,21.333,14,28.9c-12.067,7.2-20.233,8.867-24.5,5
			c4.267,3.867,12.433,2.2,24.5-5c-7.367-7.566-12.033-17.2-14-28.9c-6.5,3.5-13.433,7.9-20.8,13.2c0.233,1.4,0.633,2.783,1.2,4.15
			c0.667,1.667,1.367,3.25,2.1,4.75c1.933,4.167,4.05,7.8,6.35,10.9c0.2,0.3,0.417,0.6,0.65,0.9c3.1,4.1,6.517,7.267,10.25,9.5
			c0.257,0.158,0.524,0.308,0.8,0.45c3.018-4.48,8.118-7.331,15.3-8.55c0.687-0.104,2.312-0.296,4.875-0.575
			c1.535-0.158,3.41-0.35,5.625-0.575c3.933-0.4,6.783-1,8.55-1.8c10.934-4.833,18.7-10.517,23.3-17.05
			C125.673-495.917,126.89-498.242,127.85-500.775z M80-480.2c2.031,2.105,4.272,4.047,6.725,5.825
			C84.272-476.153,82.031-478.095,80-480.2z"/>
		<path fill-rule="evenodd" clip-rule="evenodd" fill="#89888C" d="M386.75-46.05l-10.4,1.6l0.05,1.95l10.35-1.6V-46.05z
			 M327.4-272.625L338.25-26.6l21.55,2.7l-9.75-265.725c-3.993,5.427-7.327,9.219-10,11.375
			C336.393-275.315,332.176-273.44,327.4-272.625z M375-84.3l0.05,2.2l11.7,0.85v-2.1L375-84.3z M383.45-132.15
			c0.294,0.54,0.595,1.073,0.9,1.6c4.533,7.9,9.6,11.85,15.2,11.85c5.6,0,10.333-3.95,14.2-11.85c4.067-8.333,6.1-18.75,6.1-31.25
			c0-13.434-2.3-25.233-6.9-35.4c-3.038-6.694-6.421-11.311-10.15-13.85c1.759,4.366,3.443,9.699,5.05,16
			c1.8,7.033,3.283,14.466,4.45,22.3c1,6.667,1.5,11.5,1.5,14.5c0,9.867-0.95,16.667-2.85,20.4c-2.8,5.533-8.5,8.3-17.1,8.3
			c-0.434,0-3.2-0.684-8.3-2.05C384.807-131.796,384.107-131.98,383.45-132.15z M93.025-518.95
			c15.644-2.233,27.252,3.825,34.825,18.175c1.445-3.839,2.303-8.156,2.575-12.95c-0.317-0.538-0.643-1.08-0.975-1.625
			c-6.06-9.899-13.135-16.307-21.225-19.225c-0.67,0.286-1.395,0.594-2.175,0.925c-4.267,1.8-7.566,2.867-9.9,3.2
			c1.767,1.3,2.8,2.034,3.1,2.2c0.633,0.367,1.467,0.55,2.5,0.55c-0.633,1.634-2.783,3.9-6.45,6.8
			C94.49-520.257,93.731-519.607,93.025-518.95z M-11.9-285.25v0.05L-40.6-42.35L250.1,0l1.4-37.55l0.125-3.225
			c-11.853-16.628-21.078-30.145-27.675-40.55L220.7-20.4L-5.05-56.45L17.8-248.1l184.725,38.35c-1.263-3.259-3.222-5.592-5.875-7
			c-9.167-4.867-16.167-10.35-21-16.45c-3.933-4.966-5.9-9.466-5.9-13.5v-2.625L-11.9-285.3V-285.25z M113.55-333.5l-33.3,22.3
			l15.6,45.8l43.225,8.575c-4.803-7.525-9.245-14.85-13.325-21.975c-4.541-7.917-7.899-14.259-10.075-19.025
			c-0.317-0.691-0.609-1.35-0.875-1.975c8.4-3.934,13.2-6.2,14.4-6.8c3.566-1.8,6.05-3.383,7.45-4.75
			c1.434-1.4,2.333-3.183,2.7-5.35c0.171-0.939,0.288-2.464,0.35-4.575l-25.65-12.575L113.55-333.5z M115.675-297.825L80.25-311.2
			L115.675-297.825z"/>
		<path fill-rule="evenodd" clip-rule="evenodd" fill="#4B4B4B" d="M393.175-199.375c0.501,2.693,0.959,5.435,1.375,8.225
			c1,6.667,1.5,11.5,1.5,14.5c0,9.867-0.95,16.667-2.85,20.4c-2.622,5.18-7.788,7.938-15.5,8.275
			c1.153,4.925,2.687,9.417,4.6,13.475c2.267,2.267,4.7,3.4,7.3,3.4c4.2,0,7.75-2.95,10.65-8.85c3.033-6.233,4.55-14.033,4.55-23.4
			c0-10.066-1.716-18.9-5.15-26.5C397.69-194.18,395.532-197.355,393.175-199.375z M139.7-321.275l39.05,19.175v-14l-43.575-23
			c0.15,0.132,0.309,0.265,0.475,0.4c1.4,1.133,2.383,2.434,2.95,3.9c0.767,2.033,1.15,5.183,1.15,9.45
			C139.75-323.805,139.733-322.447,139.7-321.275z M79-274.4l2.15,6.1l14.7,2.9l-15.6-45.8l33.3-22.3v-17L64.8-316.25l-0.2,0.15
			l0.45,1.3l3.2,9.25L69.8-301l3.6,10.45l1.95,5.55l1.95,5.7L79-274.4z M-40.6-42.35l28.7-242.85v-0.05l-4.1-2.3L-44.7-44.6
			L-40.6-42.35z M327.4-272.625c-1.83,0.317-3.747,0.475-5.75,0.475c-2.233,0-4.533-0.467-6.9-1.4c-2.367-0.9-4.683-1.35-6.95-1.35
			c-0.966,0-3.367,3.017-7.2,9.05c-5.434,8.467-11.2,15.95-17.3,22.45c-0.5-0.533-2.1-2.617-4.8-6.25
			c-2.667-3.6-4.467-5.883-5.4-6.85c-6.133,11.833-10.3,25.717-12.5,41.65c-1.467,10.434-2.217,23.983-2.25,40.65
			c0,17.3-0.283,28.333-0.85,33.1c-0.514,4.32-1.356,7.962-2.525,10.925l-3.35,89.4L251.5-37.55l86.75,10.95L327.4-272.625z"/>
		<path fill-rule="evenodd" clip-rule="evenodd" fill="#333333" d="M380.4-199.5c-0.3,0.733-0.6,1.5-0.9,2.3
			c-3.733,10.167-5.033,21.983-3.9,35.45c0.417,4.915,1.117,9.506,2.1,13.775c7.712-0.336,12.878-3.095,15.5-8.275
			c1.9-3.733,2.85-10.533,2.85-20.4c0-3-0.5-7.833-1.5-14.5c-0.416-2.791-0.874-5.532-1.375-8.225
			c-2.04-1.75-4.232-2.625-6.575-2.625C384.333-202,382.267-201.167,380.4-199.5z M185.3-258.4v-2.95
			c-2.867-0.1-4.633-0.167-5.3-0.2c-3.388-0.272-6.279-1.106-8.675-2.5c-0.249-0.146-0.491-0.296-0.725-0.45
			c-2.7-2.133-5.1-3.733-7.2-4.8c-6.2-3.2-11.133-5.583-14.8-7.15c-0.867-0.367-1.817-0.767-2.85-1.2L147-275
			c2.2,0.3,4.267,1.067,6.2,2.3c1.6,1,3.667,2.6,6.2,4.8c0.533,0.5,1.2,1.05,2,1.65c1.633,1.2,3.417,2.3,5.35,3.3
			c1.348,0.674,2.739,1.274,4.175,1.8C175.309-259.542,180.101-258.626,185.3-258.4z M151.1-266.55c2.133,0.1,4.033,0.633,5.7,1.6
			c1.7,1,5.15,3.217,10.35,6.65c0.901,0.496,1.943,0.988,3.125,1.475c3.123,1.286,7.231,2.544,12.325,3.775
			c0.933,0.233,1.833,0.433,2.7,0.6v-1.3c-5.305-0.726-10.246-2.16-14.825-4.3c-0.264-0.11-0.522-0.227-0.775-0.35
			c-2.2-1.067-4.55-2.434-7.05-4.1c-2.767-1.867-4.3-2.883-4.6-3.05c-2.633-1.967-4.566-3.367-5.8-4.2
			c-1.067-0.733-2.233-1.267-3.5-1.6L151.1-266.55z M64.8-316.25c-7.1-5.033-15.85-9.75-26.25-14.15
			c-7.867-3-14.583-5.65-20.15-7.95c-1.333-1.3-2.483-2.617-3.45-3.95c-3.2-4.3-5.25-7.684-6.15-10.15
			c-0.833-2.333-1.25-5.633-1.25-9.9c0-6.8,0.983-11.917,2.95-15.35c2.9-5.066,8.75-9.4,17.55-13c5.667-2.3,10.9-4.1,15.7-5.4
			c2.2-0.6,3.817-1.05,4.85-1.35c-0.067-0.033-0.117-0.066-0.15-0.1c-0.633-0.5-1.184-0.967-1.65-1.4c-1.6,0.9-3.483,1.65-5.65,2.25
			c-6.8,1.833-13.133,4.05-19,6.65c-3.566,1.566-5.95,2.8-7.15,3.7c-1.5,1.133-3.183,3.1-5.05,5.9
			c-2.667,3.133-4.35,5.284-5.05,6.45c-1,1.667-1.5,4.933-1.5,9.8c0,3.567,0.167,6.167,0.5,7.8c0.4,1.9,1.317,4.283,2.75,7.15
			c1.333,2.633,2.333,4.483,3,5.55c0.533,0.9,1.15,1.717,1.85,2.45c-2.033-0.867-3.833-1.667-5.4-2.4
			C-5.333-348.983-13.733-355.1-19.1-362c-6.733-8.667-10.1-19.95-10.1-33.85c0-11.3,2.333-21.9,7-31.8
			c5.4-11.4,13.184-20,23.35-25.8c11.333-6.466,20.733-11.633,28.2-15.5c0.533-0.267,1.917-0.95,4.15-2.05
			c-0.8-0.8-1.167-1.85-1.1-3.15c-5.7,2.833-8.983,4.467-9.85,4.9c-7.466,3.867-16.867,9.033-28.2,15.5
			c-10.167,5.8-17.95,14.4-23.35,25.8c-4.667,9.9-7,20.5-7,31.8c0,13.9,3.367,25.183,10.1,33.85c5.367,6.9,13.767,13.017,25.2,18.35
			c3.867,1.8,9.117,4.034,15.75,6.7c0.333,0.5,2.217,2.583,5.65,6.25c3.4,3.7,8.117,6.667,14.15,8.9
			c6.033,2.267,17.683,9.3,34.95,21.1l-1.55-4.55c-2.5-0.867-5.317-2.517-8.45-4.95s-6.267-4.767-9.4-7
			c-3.2-2.2-7.566-4.233-13.1-6.1c-5.566-1.833-9.017-3.733-10.35-5.7c-0.233-0.333-2.517-2.3-6.85-5.9
			c-1.767-0.7-3.45-1.383-5.05-2.05c1.6,0.667,3.284,1.35,5.05,2.05c1.066,0.4,2.167,0.817,3.3,1.25
			c2.6,1.034,5.383,2.117,8.35,3.25c11.433,4.867,22.533,10.167,33.3,15.9l-0.45-1.3L64.8-316.25z M47.85-410.3
			c-0.667,0.466-1.217,0.833-1.65,1.1c0.033,0.534,0.117,0.983,0.25,1.35c0.333,0.8,0.583,1.5,0.75,2.1
			c0.43,0,0.646,0.083,0.65,0.25V-410.3z M54.75-414.9c0.067,0.367,0.167,0.733,0.3,1.1c0.534,1.367,1.267,2.533,2.2,3.5v-5.25
			c-0.133-0.434-0.233-0.85-0.3-1.25C56.217-416.1,55.483-415.467,54.75-414.9z M50.35-411.95c0.066,0.267,0.133,0.55,0.2,0.85
			c0.467,1.8,0.733,2.783,0.8,2.95h0.9c0-0.133,0.117-1.25,0.35-3.35c0.066-0.733,0.117-1.417,0.15-2.05
			C51.883-412.983,51.083-412.45,50.35-411.95z M75.35-285l-1.95-5.55c-1.833,0.667-4.167,1.25-7,1.75
			c-2.367,0.433-6.833,1.017-13.4,1.75c-4.3,0.466-7.483,2.117-9.55,4.95c-1.233,1.667-1.967,3.633-2.2,5.9l7.85,1.55
			c0.1-0.6,0.25-1.117,0.45-1.55c0.7-1.433,2.284-2.85,4.75-4.25c3.534-2.033,8.517-3.333,14.95-3.9
			C71.517-284.55,73.55-284.767,75.35-285z M185.3-247.65l-15.55-3.075v1.4l41.75,8.275l14.1,2.8l33.2,6.6l-4.1-2.25L185.3-247.65z
			 M79-274.4l-1.7-4.9c-2.367,0.433-4.833,1.5-7.4,3.2c-2.267,1.5-3.983,3.017-5.15,4.55l5.15,1c1.367-1.3,3.117-2.233,5.25-2.8
			C76.783-273.817,78.067-274.167,79-274.4z M11.5-341.25c2.033,0.9,4.333,1.867,6.9,2.9C15.833-339.383,13.533-340.35,11.5-341.25z
			"/>
		<path fill-rule="evenodd" clip-rule="evenodd" fill="#494949" d="M87.3-418.5l20.45-10.6l20.05-10.4l19.9-10.3v-11.55L59.35-428.3
			v7.75c-0.067,0.767-0.15,1.2-0.25,1.3c-0.7,0.867-1.417,1.683-2.15,2.45c0.066,0.4,0.167,0.816,0.3,1.25v5.25
			c-0.933-0.967-1.667-2.133-2.2-3.5c-0.133-0.367-0.233-0.733-0.3-1.1c-0.133,0.1-0.25,0.183-0.35,0.25
			c-0.566,0.367-1.117,0.733-1.65,1.1c-0.033,0.633-0.083,1.316-0.15,2.05c-0.233,2.1-0.35,3.217-0.35,3.35h-0.9
			c-0.067-0.167-0.333-1.15-0.8-2.95c-0.066-0.3-0.133-0.583-0.2-0.85c-0.967,0.633-1.8,1.184-2.5,1.65v4.8
			c-0.003-0.167-0.22-0.25-0.65-0.25c-0.167-0.6-0.417-1.3-0.75-2.1c-0.133-0.367-0.217-0.816-0.25-1.35
			c-0.5,0.333-0.867,0.583-1.1,0.75c-0.9,0.6-1.35,1.583-1.35,2.95c0.133,2.167,0.2,3.617,0.2,4.35
			c0.367-0.267,3.083-1.533,8.15-3.8c3.7-1.767,6.117-3.083,7.25-3.95v4.9l13.45-7L87.3-418.5z M59.35-420.55v11.65V-420.55z"/>
		<path fill-rule="evenodd" clip-rule="evenodd" fill="#003300" d="M244.95-223.55c-0.6,0-1.117,0.35-1.55,1.05
			c-0.433,0.7-0.65,1.533-0.65,2.5s0.217,1.8,0.65,2.5c0.434,0.7,0.95,1.05,1.55,1.05c0.6,0,1.117-0.35,1.55-1.05
			s0.65-1.533,0.65-2.5s-0.217-1.8-0.65-2.5S245.55-223.55,244.95-223.55z"/>
		<path fill-rule="evenodd" clip-rule="evenodd" fill="#990000" d="M236.05-222.4c0-0.967-0.216-1.8-0.65-2.5
			c-0.433-0.7-0.95-1.05-1.55-1.05s-1.117,0.35-1.55,1.05c-0.433,0.7-0.65,1.533-0.65,2.5s0.217,1.8,0.65,2.5
			c0.434,0.7,0.95,1.05,1.55,1.05s1.117-0.35,1.55-1.05C235.833-220.6,236.05-221.433,236.05-222.4z"/>
		<path fill-rule="evenodd" clip-rule="evenodd" fill="#49484A" d="M178.75-302.1l-39.05-19.175c-0.063,2.11-0.179,3.635-0.35,4.575
			c-0.367,2.167-1.267,3.95-2.7,5.35c-1.4,1.367-3.883,2.95-7.45,4.75c-1.2,0.6-6,2.867-14.4,6.8
			c0.266,0.625,0.558,1.283,0.875,1.975l24.825,9.375l-24.825-9.375c2.176,4.766,5.534,11.108,10.075,19.025
			c4.081,7.125,8.522,14.45,13.325,21.975l18.475,3.675l-6.45-13.4l-2.35-4.8L147-275l-1.25-2.65l-5.25-10.8L178.75-302.1z
			 M254.975-130.175L258.8-231.65l-33.2-6.6l-14.1-2.8l-41.75-8.275v2.625c0,4.034,1.967,8.534,5.9,13.5
			c4.833,6.1,11.833,11.583,21,16.45c2.653,1.408,4.612,3.741,5.875,7l27.975,5.8l-6.55,122.625
			c6.597,10.406,15.822,23.922,27.675,40.55L254.975-130.175z M244.95-223.55c0.6,0,1.117,0.35,1.55,1.05s0.65,1.533,0.65,2.5
			s-0.217,1.8-0.65,2.5s-0.95,1.05-1.55,1.05c-0.6,0-1.117-0.35-1.55-1.05c-0.433-0.7-0.65-1.533-0.65-2.5s0.217-1.8,0.65-2.5
			C243.833-223.2,244.35-223.55,244.95-223.55z M236.05-222.4c0,0.967-0.216,1.8-0.65,2.5c-0.433,0.7-0.95,1.05-1.55,1.05
			s-1.117-0.35-1.55-1.05c-0.433-0.7-0.65-1.533-0.65-2.5s0.217-1.8,0.65-2.5c0.434-0.7,0.95-1.05,1.55-1.05s1.117,0.35,1.55,1.05
			C235.833-224.2,236.05-223.367,236.05-222.4z M211.5-241.05L208.2-218l13.7,2.5l3.7-22.75l-3.7,22.75l-13.7-2.5L211.5-241.05z"/>
		<path fill-rule="evenodd" clip-rule="evenodd" fill="#595959" d="M223.95-81.325l6.55-122.625l-27.975-5.8
			c0.298,0.749,0.556,1.549,0.775,2.4c1,3.867,1.45,9.767,1.35,17.7c-1.267,23.5-1.6,44.367-1,62.6
			c0.233,8.633,5.85,22.017,16.85,40.15C221.558-85.156,222.708-83.297,223.95-81.325z"/>
		<path fill-rule="evenodd" clip-rule="evenodd" fill="#303030" d="M258.8-231.65l-3.825,101.475
			c1.169-2.963,2.011-6.605,2.525-10.925c0.567-4.767,0.85-15.8,0.85-33.1c0.033-16.667,0.783-30.216,2.25-40.65
			c2.2-15.933,6.367-29.816,12.5-41.65c0.933,0.967,2.733,3.25,5.4,6.85c2.7,3.633,4.3,5.717,4.8,6.25
			c6.1-6.5,11.867-13.983,17.3-22.45c3.833-6.033,6.233-9.05,7.2-9.05c2.267,0,4.583,0.45,6.95,1.35c2.367,0.933,4.667,1.4,6.9,1.4
			c2.003,0,3.92-0.158,5.75-0.475l-1.65-37.725L185.3-272.6v11.25v2.95v4.65v1.3v4.8l69.4,13.75L258.8-231.65z"/>
		<path fill-rule="evenodd" clip-rule="evenodd" fill="#6D6C70" d="M325.75-310.35l1.65,37.725c4.776-0.815,8.993-2.69,12.65-5.625
			c2.673-2.156,6.007-5.948,10-11.375l-1-26.975L325.75-310.35z"/>
		<path fill-rule="evenodd" clip-rule="evenodd" fill="#D3CECE" d="M133.95-484.15c-1.608-6.42-3.642-11.961-6.1-16.625
			c-0.96,2.533-2.177,4.858-3.65,6.975c-4.6,6.533-12.367,12.216-23.3,17.05c-1.767,0.8-4.617,1.4-8.55,1.8
			c-2.215,0.226-4.09,0.417-5.625,0.575c-2.563,0.279-4.188,0.471-4.875,0.575c-7.183,1.219-12.283,4.069-15.3,8.55
			c6.437,3.347,17.853,2.847,34.25-1.5c3.934-1,8.167-2.25,12.7-3.75C123.6-473.8,130.417-478.35,133.95-484.15z M86.725-474.375
			c4.102,2.996,8.793,5.538,14.075,7.625C95.519-468.837,90.827-471.379,86.725-474.375z"/>
		<path fill-rule="evenodd" clip-rule="evenodd" fill="#939397" d="M130.425-513.725c-0.271,4.794-1.129,9.111-2.575,12.95
			c2.458,4.664,4.492,10.205,6.1,16.625C138.545-491.809,137.371-501.667,130.425-513.725z"/>
		<path fill-rule="evenodd" clip-rule="evenodd" fill="#6B6A6D" d="M66-509.1c10.05-5.427,19.058-8.71,27.025-9.85
			c0.707-0.657,1.465-1.307,2.275-1.95c3.667-2.9,5.817-5.167,6.45-6.8c-1.033,0-1.867-0.183-2.5-0.55c-0.3-0.167-1.333-0.9-3.1-2.2
			c2.333-0.333,5.633-1.4,9.9-3.2c0.78-0.332,1.505-0.64,2.175-0.925c-9.906-3.559-21.331-1.9-34.275,4.975
			c-21,11.167-30.583,22.4-28.75,33.7C52.567-501.2,59.5-505.6,66-509.1z"/>
		<path fill-rule="evenodd" clip-rule="evenodd" fill="#D8D3D3" d="M395.8-290.025c9.674,20.513,15.674,34.504,18,41.975
			c4.633,14.933,7.717,30.95,9.25,48.05c0.667,7.667,1,16.833,1,27.5c0,19.233-1.25,33.867-3.75,43.9c-1.233,4.3-2.1,7.367-2.6,9.2
			c-0.767,3.033-1.15,6.15-1.15,9.35c0,4.249-0.066,8.315-0.2,12.2l7.75,1l-1.05,19.35l-8.175-0.475
			c-0.328,2.688-0.703,5.247-1.125,7.675c-0.527,2.769-0.961,5.119-1.3,7.05l9.85-0.45l-0.85,15.75l-10.3,1.675
			c0.284,1.781,0.851,4.706,1.7,8.775c0.113,0.54,0.222,1.064,0.325,1.575L430.7-39.9l7.65-225.95L395.8-290.025z"/>
		<path fill-rule="evenodd" clip-rule="evenodd" fill="#7B7B7B" d="M411.15-46.275l10.3-1.675l0.85-15.75l-9.85,0.45
			c-0.255,1.5-0.455,2.75-0.6,3.75c-0.6,3.767-0.9,7.583-0.9,11.45C410.95-47.732,411.017-47.14,411.15-46.275z M414.875-77.975
			l8.175,0.475l1.05-19.35l-7.75-1C416.095-90.584,415.603-83.959,414.875-77.975z"/>
		<path fill-rule="evenodd" clip-rule="evenodd" fill="#6A6A6D" d="M382.3-134.5c0.37,0.798,0.753,1.581,1.15,2.35
			c0.657,0.17,1.357,0.354,2.1,0.55c5.1,1.367,7.867,2.05,8.3,2.05c8.6,0,14.3-2.767,17.1-8.3c1.9-3.733,2.85-10.533,2.85-20.4
			c0-3-0.5-7.833-1.5-14.5c-1.167-7.833-2.65-15.267-4.45-22.3c-1.607-6.301-3.291-11.634-5.05-16
			c-2.286-1.567-4.703-2.35-7.25-2.35c-1.812,0.01-3.52,0.41-5.125,1.2c-3.94,1.917-7.282,6.151-10.025,12.7
			c1.867-1.667,3.934-2.5,6.2-2.5c2.343,0,4.535,0.875,6.575,2.625c2.357,2.02,4.515,5.195,6.475,9.525
			c3.434,7.6,5.15,16.434,5.15,26.5c0,9.367-1.517,17.167-4.55,23.4c-2.9,5.9-6.45,8.85-10.65,8.85
			C387-131.1,384.567-132.233,382.3-134.5z"/>
		
			<path fill-rule="evenodd" clip-rule="evenodd" fill="none" stroke="#333333" stroke-width="0.1" stroke-linecap="round" stroke-linejoin="round" stroke-miterlimit="3" d="
			M412.45-63.25l9.85-0.45l-0.85,15.75l-10.3,1.675 M395.8-290.025l42.55,24.175L430.7-39.9l-17.525,3.975 M416.35-97.85l7.75,1
			l-1.05,19.35l-8.175-0.475L370.25-80.55l-1.15-23.4L416.35-97.85z M386.75-46.05v1.95l-10.35,1.6l-0.05-1.95L386.75-46.05z
			 M359.8-23.9l0.25,0.05l53.125-12.075 M338.25-26.6l21.55,2.7 M375-84.3l0.05,2.2l11.7,0.85v-2.1L375-84.3z M412.45-63.25
			L371.2-61.3l1.05,21.4l38.9-6.375 M402.8-211.05c3.729,2.539,7.113,7.155,10.15,13.85c4.6,10.167,6.9,21.967,6.9,35.4
			c0,12.5-2.033,22.917-6.1,31.25c-3.867,7.9-8.6,11.85-14.2,11.85c-5.6,0-10.667-3.95-15.2-11.85c-0.305-0.527-0.605-1.061-0.9-1.6
			 M382.3-134.5c2.267,2.267,4.7,3.4,7.3,3.4c4.2,0,7.75-2.95,10.65-8.85c3.033-6.233,4.55-14.033,4.55-23.4
			c0-10.066-1.716-18.9-5.15-26.5c-1.96-4.33-4.118-7.505-6.475-9.525c-2.04-1.75-4.232-2.625-6.575-2.625
			c-2.267,0-4.333,0.833-6.2,2.5c2.743-6.549,6.084-10.783,10.025-12.7c1.605-0.79,3.313-1.19,5.125-1.2
			c2.547,0,4.964,0.783,7.25,2.35 M377.7-147.975c1.153,4.925,2.687,9.417,4.6,13.475c0.37,0.798,0.753,1.581,1.15,2.35
			 M380.4-199.5c-0.3,0.733-0.6,1.5-0.9,2.3c-3.733,10.167-5.033,21.983-3.9,35.45c0.417,4.915,1.117,9.506,2.1,13.775 M375.2-239.1
			v-23.05l-9.35-2.25v22.65L375.2-239.1z M350.05-289.625L359.8-23.9 M365.85-274.7v-21.85l9.35,3.6v20.9L365.85-274.7z
			 M349.05-316.6l-23.3,6.25L185.3-272.6v11.25c-2.867-0.1-4.633-0.167-5.3-0.2c-3.388-0.272-6.279-1.106-8.675-2.5
			c-0.249-0.146-0.491-0.296-0.725-0.45c-2.7-2.133-5.1-3.733-7.2-4.8c-6.2-3.2-11.133-5.583-14.8-7.15
			c-0.867-0.367-1.817-0.767-2.85-1.2l-5.25-10.8l38.25-13.65v-14l-43.575-23l-21.625-11.4L64.8-316.25
			c-7.1-5.033-15.85-9.75-26.25-14.15c-7.867-3-14.583-5.65-20.15-7.95c-1.333-1.3-2.483-2.617-3.45-3.95
			c-3.2-4.3-5.25-7.684-6.15-10.15c-0.833-2.333-1.25-5.633-1.25-9.9c0-6.8,0.983-11.917,2.95-15.35c2.9-5.066,8.75-9.4,17.55-13
			c5.667-2.3,10.9-4.1,15.7-5.4c2.2-0.6,3.817-1.05,4.85-1.35c2.833,2.333,4.7,3.5,5.6,3.5c1,0,3.583-0.9,7.75-2.7
			c2.333-1,4.25-1.917,5.75-2.75l2.95,1.65l12.85,7.15l10.4,5.8l14.25,7.9l12.65,7.05l14.35,8l13.95,7.75l15.65,8.75l15.8,8.75
			l10.8,6l12.35,6.9l10.75,6l13.8,7.7l10.8,6l13.1,7.3l6.55-3.3l13.95-7l15.2-7.65l17.7-8.9l17.95-9.05v-9.1L147.7-461.35
			L59.35-428.3v7.75c-0.067,0.767-0.15,1.2-0.25,1.3c-0.7,0.867-1.417,1.683-2.15,2.45c-0.733,0.7-1.467,1.333-2.2,1.9
			c-0.133,0.1-0.25,0.183-0.35,0.25c-0.566,0.367-1.117,0.733-1.65,1.1c-0.867,0.566-1.667,1.1-2.4,1.6
			c-0.967,0.633-1.8,1.184-2.5,1.65c-0.667,0.466-1.217,0.833-1.65,1.1c-0.5,0.333-0.867,0.583-1.1,0.75
			c-0.9,0.6-1.35,1.583-1.35,2.95c0.133,2.167,0.2,3.617,0.2,4.35c0.2,0.1,1.15,0.833,2.85,2.2c-1.6,0.9-3.483,1.65-5.65,2.25
			c-6.8,1.833-13.133,4.05-19,6.65c-3.566,1.566-5.95,2.8-7.15,3.7c-1.5,1.133-3.183,3.1-5.05,5.9
			c-2.667,3.133-4.35,5.284-5.05,6.45c-1,1.667-1.5,4.933-1.5,9.8c0,3.567,0.167,6.167,0.5,7.8c0.4,1.9,1.317,4.283,2.75,7.15
			c1.333,2.633,2.333,4.483,3,5.55c0.533,0.9,1.15,1.717,1.85,2.45c-2.033-0.867-3.833-1.667-5.4-2.4
			C-5.333-348.983-13.733-355.1-19.1-362c-6.733-8.667-10.1-19.95-10.1-33.85c0-11.3,2.333-21.9,7-31.8
			c5.4-11.4,13.184-20,23.35-25.8c11.333-6.466,20.733-11.633,28.2-15.5c0.533-0.267,1.917-0.95,4.15-2.05
			c0.667,0.667,1.65,1.15,2.95,1.45l18.4-6.55c0.2,0.3,0.417,0.6,0.65,0.9c3.1,4.1,6.517,7.267,10.25,9.5
			c0.257,0.158,0.524,0.308,0.8,0.45c6.437,3.347,17.853,2.847,34.25-1.5c3.934-1,8.167-2.25,12.7-3.75
			c10.1-3.3,16.917-7.85,20.45-13.65c4.595-7.659,3.42-17.518-3.525-29.575c-0.317-0.538-0.643-1.08-0.975-1.625
			c-6.06-9.899-13.135-16.307-21.225-19.225c-9.906-3.559-21.331-1.9-34.275,4.975c-21,11.167-30.583,22.4-28.75,33.7
			c0.233,1.4,0.633,2.783,1.2,4.15c0.667,1.667,1.367,3.25,2.1,4.75l-15.65,10.55c-0.267,0.833-0.417,1.6-0.45,2.3
			c-5.7,2.833-8.983,4.467-9.85,4.9c-7.466,3.867-16.867,9.033-28.2,15.5c-10.167,5.8-17.95,14.4-23.35,25.8
			c-4.667,9.9-7,20.5-7,31.8c0,13.9,3.367,25.183,10.1,33.85c5.367,6.9,13.767,13.017,25.2,18.35c3.867,1.8,9.117,4.034,15.75,6.7
			c0.333,0.5,2.217,2.583,5.65,6.25c3.4,3.7,8.117,6.667,14.15,8.9c6.033,2.267,17.683,9.3,34.95,21.1l3.6,10.45
			c-1.833,0.667-4.167,1.25-7,1.75c-2.367,0.433-6.833,1.017-13.4,1.75c-4.3,0.466-7.483,2.117-9.55,4.95
			c-1.233,1.667-1.967,3.633-2.2,5.9L-16-287.55L-44.7-44.6l4.1,2.25L250.1,0l1.4-37.55l86.75,10.95L327.4-272.625l-1.65-37.725
			 M349.05-316.6l1,26.975 M395.8-290.025L349.05-316.6 M251.5-37.55l0.125-3.225l3.35-89.4L258.8-231.65 M202.525-209.75
			l27.975,5.8l-6.55,122.625 M202.525-209.75L17.8-248.1L-5.05-56.45L220.7-20.4l3.25-60.925 M81.15-268.3l14.7,2.9l43.225,8.575
			l18.475,3.675l12.2,2.425 M169.75-249.325L-11.9-285.3v0.05l-4.1-2.3 M151.1-266.55l6.45,13.4 M151.1-266.55l-2.35-4.8
			c1.267,0.333,2.433,0.867,3.5,1.6c1.233,0.833,3.167,2.233,5.8,4.2c0.3,0.167,1.833,1.183,4.6,3.05c2.5,1.667,4.85,3.033,7.05,4.1
			c0.253,0.123,0.511,0.24,0.775,0.35c4.579,2.14,9.52,3.574,14.825,4.3v1.3c-0.867-0.167-1.767-0.367-2.7-0.6
			c-5.094-1.231-9.202-2.49-12.325-3.775c-1.182-0.487-2.224-0.979-3.125-1.475c-5.2-3.434-8.65-5.65-10.35-6.65
			C155.133-265.917,153.233-266.45,151.1-266.55z M185.3-258.4c-5.199-0.226-9.991-1.143-14.375-2.75
			c-1.436-0.526-2.827-1.126-4.175-1.8c-1.933-1-3.717-2.1-5.35-3.3c-0.8-0.6-1.467-1.15-2-1.65c-2.533-2.2-4.6-3.8-6.2-4.8
			c-1.934-1.233-4-2-6.2-2.3l-1.25-2.65 M147-275l1.75,3.65 M115.675-297.825l24.825,9.375 M64.75-271.55l5.15,1l11.25,2.25
			 M41.25-276.2l7.85,1.55l15.65,3.1 M49.1-274.65c0.1-0.6,0.25-1.117,0.45-1.55c0.7-1.433,2.284-2.85,4.75-4.25
			c3.534-2.033,8.517-3.333,14.95-3.9c2.267-0.2,4.3-0.417,6.1-0.65l1.95,5.7c-2.367,0.433-4.833,1.5-7.4,3.2
			c-2.267,1.5-3.983,3.017-5.15,4.55 M73.4-290.55l1.95,5.55 M79-274.4c-0.933,0.233-2.217,0.583-3.85,1.05
			c-2.133,0.567-3.883,1.5-5.25,2.8 M77.3-279.3l1.7,4.9l2.15,6.1 M68.25-305.55L69.8-301 M64.8-316.25l-0.2,0.15l0.45,1.3
			c-10.767-5.733-21.867-11.034-33.3-15.9c-2.967-1.133-5.75-2.216-8.35-3.25c-1.133-0.433-2.233-0.85-3.3-1.25
			c-1.767-0.7-3.45-1.383-5.05-2.05 M65.05-314.8l3.2,9.25c-2.5-0.867-5.317-2.517-8.45-4.95s-6.267-4.767-9.4-7
			c-3.2-2.2-7.566-4.233-13.1-6.1c-5.566-1.833-9.017-3.733-10.35-5.7c-0.233-0.333-2.517-2.3-6.85-5.9 M11.5-341.25
			c2.033,0.9,4.333,1.867,6.9,2.9 M139.7-321.275l39.05,19.175 M113.55-333.5l0.5-0.35l25.65,12.575 M93.9-384.8l12.6-6.05l13.4,8
			l-11.75,5.95 M135.15-361.85l11.05-5.3l13.05,7.8l-10.15,5.25 M160.9-374.2l-14.7,7.05l-13.75-8.25l14.8-7.05L160.9-374.2z
			 M132.45-375.4l-12.55-7.45l14.45-7.35l12.9,7.75l19.35-9.25l-13-8.25l19.65-9.9l13.25,8.65 M120.8-369.85l11.65-5.55
			 M113.55-350.5v17l-33.3,22.3l15.6,45.8 M115.675-297.825L80.25-311.2 M185.3-247.65l69.4,13.75l4.1,2.25l-33.2-6.6l-14.1-2.8
			l-41.75-8.275 M244.95-223.55c-0.6,0-1.117,0.35-1.55,1.05c-0.433,0.7-0.65,1.533-0.65,2.5s0.217,1.8,0.65,2.5
			c0.434,0.7,0.95,1.05,1.55,1.05c0.6,0,1.117-0.35,1.55-1.05s0.65-1.533,0.65-2.5s-0.217-1.8-0.65-2.5S245.55-223.55,244.95-223.55
			z M236.05-222.4c0-0.967-0.216-1.8-0.65-2.5c-0.433-0.7-0.95-1.05-1.55-1.05s-1.117,0.35-1.55,1.05
			c-0.433,0.7-0.65,1.533-0.65,2.5s0.217,1.8,0.65,2.5c0.434,0.7,0.95,1.05,1.55,1.05s1.117-0.35,1.55-1.05
			C235.833-220.6,236.05-221.433,236.05-222.4z M211.5-241.05L208.2-218l13.7,2.5l3.7-22.75 M185.3-261.35v2.95v4.65 M185.3-252.45
			v4.8l-15.55-3.075 M228.25-310l7.05-3.95l10.5,6.25l-6.75,3.7 M203.7-323.7l8.1-4.3l10.4,6.2l-7.75,4.1 M225.6-335.3l-11.45-6.9
			l16.8-8.55l10.85,6.85L225.6-335.3z M211.8-328l13.8-7.3l10.5,6.3l-13.9,7.2l13.1,7.85l13.3-7.5l15.1-8.5l10.65,6.7l-15.05,8.2
			l-10.7-6.4L236.1-329l16-8.35l11.6,7.4l17.2-9.7l10.7,7l-17.25,9.4 M180.55-336.6l8.95-4.7l10.55,6.3l-8.7,4.4 M179.85-383.25
			l-13.25-8.45l19.9-9.5l13,8.5L179.85-383.25z M173.45-366.7l-12.55-7.5l18.95-9.05l11.5,7.3L173.45-366.7z M189.1-357.25
			l-14.45,7.05l-15.4-9.15l14.2-7.35L189.1-357.25z M214.15-342.2l-10.7-6.45l16.9-8.85l10.6,6.75 M226.15-375.3L207-366
			l-15.65-9.95l18.9-9.75L226.15-375.3l12.5,8.15l-18.3,9.65L207-366 M199.5-392.7l10.75,7 M203.45-348.65l-14.35-8.6L207-366
			 M164.75-345.35l9.9-4.85l14.85,8.9l13.95-7.35 M211.8-328l-11.75-7l14.1-7.2 M305.55-323.55l-13.95-9.1l17.55-9.55l14.35,9.6
			 M258.7-300l-12.9-7.7l13.5-7.35l13.35,8.05 M270.1-346.65l-18,9.3l-10.3-6.55l17.95-9.5L270.1-346.65z M249.4-360.15l18.55-9.5
			l9.95,6.65l-18.15,9.6L249.4-360.15z M309.15-342.2l-10.85-7.2l-10-6.7l-10.4-6.9 M298.3-349.4l-17.4,9.75l-10.8-7l18.2-9.45
			 M287.85-314.65l-13.5-8.6 M238.65-367.15l10.75,7l-18.45,9.4 M267.95-369.65l-86.05-57.4l-12.4-8.25l-13.15-8.75l-8.65-5.75
			v-11.55 M153.6-399.95l-12.1-7.7l20.2-9.7l11.55,7.5 M181.9-427.05l-20.2,9.7l-11.85-7.75l19.65-10.2 M149.85-425.1l-12.95-8.45
			l19.45-10.5 M127.8-439.5l9.1,5.95L117.35-423l-9.6-6.1L127.8-439.5l19.9-10.3 M141.5-407.65L121.4-398l-10.95-6.6l19.7-10.25
			L141.5-407.65z M149.85-425.1l-19.7,10.25l-12.8-8.15L97.6-412.3l12.85,7.7l-14.4,7.5l-12.6-7.55l14.15-7.65 M87.3-418.5l10.3,6.2
			 M87.3-418.5l20.45-10.6 M86.725-474.375c4.102,2.996,8.793,5.538,14.075,7.625 M127.85-500.775
			c2.458,4.664,4.492,10.205,6.1,16.625 M50.35-411.95c0.066,0.267,0.133,0.55,0.2,0.85c0.467,1.8,0.733,2.783,0.8,2.95h0.9
			c0-0.133,0.117-1.25,0.35-3.35c0.066-0.733,0.117-1.417,0.15-2.05 M46.8-398.95c0.467,0.434,1.017,0.9,1.65,1.4
			c0.033,0.033,0.083,0.066,0.15,0.1 M46.2-409.2c0.033,0.534,0.117,0.983,0.25,1.35c0.333,0.8,0.583,1.5,0.75,2.1
			c0.43,0,0.646,0.083,0.65,0.25v-4.8 M54.75-414.9c0.067,0.367,0.167,0.733,0.3,1.1c0.534,1.367,1.267,2.533,2.2,3.5v-5.25
			c-0.133-0.434-0.233-0.85-0.3-1.25 M59.35-420.55v11.65c-1.133,0.867-3.55,2.183-7.25,3.95c-5.067,2.267-7.783,3.534-8.15,3.8
			 M87.3-418.5L72.8-411l-13.45,7v-4.9 M59.35-404l8.35,4.6 M32.4-474.15c-0.066,1.3,0.3,2.35,1.1,3.15 M66-509.1
			c1.967,11.7,6.633,21.333,14,28.9c-12.067,7.2-20.233,8.867-24.5,5 M48.5-487c1.933,4.167,4.05,7.8,6.35,10.9 M45.2-495.9
			c7.367-5.3,14.3-9.7,20.8-13.2 M93.025-518.95c-7.967,1.14-16.975,4.423-27.025,9.85 M93.025-518.95
			c15.644-2.233,27.252,3.825,34.825,18.175 M83.45-404.65L72.8-411 M70.65-397.75l12.8-6.9 M80-480.2
			c2.031,2.105,4.272,4.047,6.725,5.825 M106.5-390.85l14.9-7.15l12.95,7.8 M83.5-390.6l12.55-6.5l10.45,6.25 M153.6-399.95
			l-19.25,9.75 M-40.6-42.35l28.7-242.85v-0.05"/>
	</g>
	<g id="Layer_3_1_">
		<radialGradient id="SVGID_1_" cx="234.1499" cy="-222.1001" r="14.65" gradientUnits="userSpaceOnUse">
			<stop  offset="0" style="stop-color:#FF0000"/>
			<stop  offset="0.5059" style="stop-color:#FF0000;stop-opacity:0"/>
		</radialGradient>
		<path fill-rule="evenodd" clip-rule="evenodd" fill="url(#SVGID_1_)" d="M226.9-220.85c0,3.533,0.733,6.55,2.2,9.05
			c1.5,2.466,3.316,3.7,5.45,3.7s3.934-1.233,5.4-3.7c1.5-2.5,2.25-5.517,2.25-9.05s-0.75-6.533-2.25-9
			c-1.467-2.5-3.267-3.75-5.4-3.75s-3.95,1.25-5.45,3.75C227.633-227.383,226.9-224.383,226.9-220.85z"/>
	</g>
</symbol>
<circle fill="#1EAAB1" stroke="#03656D" stroke-width="4" stroke-miterlimit="10" cx="90.912" cy="124.028" r="74.734"/>
<g>
	<defs>
		<path id="SVGID_2_" d="M18.496,145.864l6.571,14.644l16.8,19.791l18.003,11.075l17.051,6.15h22.147l13.621-2.136l11.165-6.165
			l10.835-6.837l14.682-14.735c0,0,50.448-17.721,53.102-19.768c2.654-2.047,42.631-54.135,44.263-62.356
			S232.866,9.004,224.707-2.124C216.548-13.253,89.595-32.427,89.595-32.427S-37.177-3.805-39.624-2.002
			c-2.448,1.803-33.45,58.097-33.45,58.097l28.554,87.377"/>
	</defs>
	<clipPath id="SVGID_3_">
		<use xlink:href="#SVGID_2_"  overflow="visible"/>
	</clipPath>
	<g transform="matrix(1 0 0 1 -1.907349e-006 0)" clip-path="url(#SVGID_3_)">
		
			<use xlink:href="#Symbol_2"  width="488.05" height="541.396" x="-47.2" y="-538.896" transform="matrix(0.432 0 0 -0.432 23.0884 6.2627)" overflow="visible"/>
	</g>
</g>
</svg>
