<?xml version="1.0" encoding="utf-8"?>
<!-- Generator: Adobe Illustrator 16.0.0, SVG Export Plug-In . SVG Version: 6.00 Build 0)  -->
<!DOCTYPE svg PUBLIC "-//W3C//DTD SVG 1.1//EN" "http://www.w3.org/Graphics/SVG/1.1/DTD/svg11.dtd">
<svg version="1.1" id="Capa_1" xmlns="http://www.w3.org/2000/svg" xmlns:xlink="http://www.w3.org/1999/xlink" x="0px" y="0px"
	 width="216px" height="197.826px" viewBox="0 0 216 197.826" enable-background="new 0 0 216 197.826" xml:space="preserve">
<symbol  id="Symbol_10" viewBox="0 -83.6 82.75 83.6">
	<g id="Layer_1_4_">
		<path fill-rule="evenodd" clip-rule="evenodd" fill="#FFCC00" d="M82.75-15v-25.75c0-10-5-15-15-15h-45.4
			C8.883-54.483,1.433-63.767,0-83.6c1.067,28.267,1.6,42.55,1.6,42.85V-15c0,10,5,15,15,15h51.15C77.75,0,82.75-5,82.75-15z"/>
	</g>
</symbol>
<symbol  id="Symbol_11" viewBox="0 -127.6 82.75 127.6">
	<g id="Layer_1_5_">
		<path fill-rule="evenodd" clip-rule="evenodd" fill="#FFCC00" d="M82.75-15v-69.75c0-10-5-15-15-15h-45.4
			C8.883-98.483,1.433-107.767,0-127.6c1.067,28.267,1.6,42.55,1.6,42.85V-15c0,10,5,15,15,15h51.15C77.75,0,82.75-5,82.75-15z"/>
	</g>
</symbol>
<symbol  id="Symbol_12" viewBox="0 -136.1 82.75 136.1">
	<g id="Layer_1_12_">
		<path fill-rule="evenodd" clip-rule="evenodd" fill="#3366CC" d="M82.75-15v-78.25c0-10-5-15-15-15h-45.4
			C8.883-106.983,1.433-116.267,0-136.1c1.067,28.267,1.6,42.55,1.6,42.85V-15c0,10,5,15,15,15h51.15C77.75,0,82.75-5,82.75-15z"/>
	</g>
</symbol>
<symbol  id="Symbol_13" viewBox="0 -83.6 82.75 83.6">
	<g id="Layer_1_7_">
		<path fill-rule="evenodd" clip-rule="evenodd" fill="#FF6600" d="M82.75-15v-25.75c0-10-5-15-15-15h-45.4
			C8.883-54.483,1.433-63.767,0-83.6c1.067,28.267,1.6,42.55,1.6,42.85V-15c0,10,5,15,15,15h51.15C77.75,0,82.75-5,82.75-15z"/>
	</g>
</symbol>
<symbol  id="Symbol_14" viewBox="0 -142.2 73.95 142.2">
	<g id="Layer_1_8_">
		<path fill-rule="evenodd" clip-rule="evenodd" fill="#FF0000" d="M60.55,0c8.934,0,13.4-4.467,13.4-13.4v-90.5
			c0-8.934-4.467-13.4-13.4-13.4h-40.6C7.917-116.167,1.267-124.467,0-142.2c0.967,25.267,1.45,38.034,1.45,38.3v90.5
			C1.45-4.467,5.917,0,14.85,0H60.55z"/>
	</g>
</symbol>
<symbol  id="Symbol_15" viewBox="0 -26.45 31.3 26.45">
	<g id="Layer_1_3_">
		<path fill-rule="evenodd" clip-rule="evenodd" fill="#009933" d="M31.3-12.9c0-3.167-1.583-4.75-4.75-4.75H7.05
			c-4.233,0.4-6.583-2.533-7.05-8.8C0.333-17.517,0.5-13,0.5-12.9v8.15C0.5-1.583,2.083,0,5.25,0h21.3c3.167,0,4.75-1.583,4.75-4.75
			V-12.9z"/>
	</g>
</symbol>
<symbol  id="Symbol_16" viewBox="0 -65.75 115.05 65.75">
	<g id="Layer_1_9_">
		<path fill-rule="evenodd" clip-rule="evenodd" fill="#00CC00" d="M115.05-11.8v-20.25c0-7.867-3.933-11.8-11.8-11.8h-85.7
			c-10.566,1-16.417-6.3-17.55-21.9c0.833,22.233,1.25,33.467,1.25,33.7v20.25C1.25-3.933,5.183,0,13.05,0h90.2
			C111.117,0,115.05-3.933,115.05-11.8z"/>
	</g>
</symbol>
<symbol  id="Symbol_17" viewBox="0 -9.9 17.3 9.9">
	<g id="Layer_1_10_">
		<path fill-rule="evenodd" clip-rule="evenodd" fill="#FF6600" d="M17.3-4.8c0-1.2-0.6-1.8-1.8-1.8H2.65
			C1.05-6.433,0.167-7.533,0-9.9c0.133,3.367,0.2,5.066,0.2,5.1v3.05C0.2-0.583,0.783,0,1.95,0H15.5c1.2,0,1.8-0.583,1.8-1.75V-4.8z
			"/>
	</g>
</symbol>
<symbol  id="Symbol_18" viewBox="0 -93 35.75 118.5">
	<g id="Layer_1_13_">
		<path fill-rule="evenodd" clip-rule="evenodd" fill="#0033CC" d="M26.6,25.5v-0.05c6.1-0.333,9.15-3.733,9.15-10.2V-63.7
			c0-6.466-3.05-9.883-9.15-10.25H15.25C6.05-73.083,0.967-79.433,0-93c0.733,19.333,1.1,29.1,1.1,29.3v78.95
			c0,6.833,3.417,10.25,10.25,10.25H26.6z"/>
	</g>
</symbol>
<symbol  id="Symbol_19" viewBox="0 -112.1 22.05 112.1">
	<g id="Layer_1_14_">
		<path fill-rule="evenodd" clip-rule="evenodd" fill="#FFCC00" d="M16.4-0.05c3.767-0.2,5.65-2.3,5.65-6.3v-87.7
			c0-3.967-1.883-6.067-5.65-6.3h-7c-5.667,0.533-8.8-3.383-9.4-11.75c0.467,11.934,0.7,17.95,0.7,18.05v87.7C0.7-2.117,2.8,0,7,0
			h9.4V-0.05z"/>
	</g>
</symbol>
<symbol  id="Symbol_20" viewBox="0 -13.75 13.6 13.75">
	<g id="Layer_1_15_">
		<path fill-rule="evenodd" clip-rule="evenodd" fill="#0066CC" d="M11.15,0c1.633,0,2.45-0.817,2.45-2.45V-6.7
			c0-1.633-0.817-2.45-2.45-2.45h-7.5c-2.2,0.2-3.417-1.333-3.65-4.6C0.167-9.083,0.25-6.733,0.25-6.7v4.25
			C0.25-0.817,1.083,0,2.75,0H11.15z"/>
	</g>
</symbol>
<symbol  id="Symbol_7" viewBox="276.8 -590.498 328.809 403.097">
	<g id="Layer_4_1_">
		
			<use xlink:href="#Symbol_8"  width="82.75" height="83.6" y="-83.6" transform="matrix(1.2285 0 0 1.2285 503.9502 -355.3496)" overflow="visible"/>
		
			<use xlink:href="#Symbol_12"  width="82.75" height="136.1" y="-136.1" transform="matrix(0.2725 0 0 0.2725 366.25 -246.3506)" overflow="visible" opacity="0.9609"/>
		
			<use xlink:href="#Symbol_12"  width="82.75" height="136.1" y="-136.1" transform="matrix(0.6833 0 0 0.6833 469.8496 -436.4507)" overflow="visible" opacity="0.8281"/>
		
			<use xlink:href="#Symbol_8"  width="82.75" height="83.6" y="-83.6" transform="matrix(0.2596 0 0 0.2596 457.9502 -524.6001)" overflow="visible"/>
		
			<use xlink:href="#Symbol_12"  width="82.75" height="136.1" y="-136.1" transform="matrix(0.1857 0 0 0.1857 296.9004 -195.3496)" overflow="visible" opacity="0.8711"/>
		
			<use xlink:href="#Symbol_18"  width="35.75" height="118.5" y="-93" transform="matrix(0.6167 0 0 0.6167 451.7002 -417.2002)" overflow="visible"/>
		
			<use xlink:href="#Symbol_19"  width="22.05" height="112.1" y="-112.1" transform="matrix(0.4916 0 0 0.4916 276.7998 -187.4004)" overflow="visible"/>
		
			<use xlink:href="#Symbol_20"  width="13.6" height="13.75" y="-13.75" transform="matrix(0.5735 0 0 0.5735 395.4004 -295.6499)" overflow="visible"/>
		
			<use xlink:href="#Symbol_20"  width="13.6" height="13.75" y="-13.75" transform="matrix(0.3078 0 0 0.3078 422.25 -299.9004)" overflow="visible"/>
	</g>
	<g id="Layer_2_8_">
		
			<use xlink:href="#ouuooiyu"  width="82.75" height="83.6" y="-83.6" transform="matrix(0.8937 0 0 0.8937 428.8496 -295.6499)" overflow="visible"/>
		
			<use xlink:href="#Symbol_13"  width="82.75" height="83.6" y="-83.6" transform="matrix(0.7862 0 0 0.7862 482 -321.3003)" overflow="visible" opacity="0.8281"/>
		
			<use xlink:href="#Symbol_14"  width="73.95" height="142.2" y="-142.2" transform="matrix(0.5027 0 0 0.5027 450.1504 -469.3506)" overflow="visible" opacity="0.4492"/>
		
			<use xlink:href="#Symbol_14"  width="73.95" height="142.2" y="-142.2" transform="matrix(0.5027 0 0 0.5027 309.75 -201.6001)" overflow="visible"/>
		
			<use xlink:href="#Symbol_16"  width="115.05" height="65.75" y="-65.75" transform="matrix(0.1503 0 0 0.1503 402.9502 -298.9507)" overflow="visible"/>
		
			<use xlink:href="#Symbol_17"  width="17.3" height="9.9" y="-9.9" transform="matrix(1 0 0 1 422.5 -302.8496)" overflow="visible"/>
		
			<use xlink:href="#ouuooiyu"  width="82.75" height="83.6" y="-83.6" transform="matrix(0.2186 0 0 0.2186 282.7002 -195.3506)" overflow="visible"/>
	</g>
	<g id="Layer_3_2_">
		
			<use xlink:href="#Symbol_10"  width="82.75" height="83.6" y="-83.6" transform="matrix(1.2379 0 0 1.2379 465.0498 -370.3496)" overflow="visible" opacity="0.5"/>
		
			<use xlink:href="#Symbol_11"  width="82.75" height="127.6" y="-127.6" transform="matrix(0.2623 0 0 0.2623 382.5 -269.4004)" overflow="visible" opacity="0.4883"/>
		
			<use xlink:href="#Symbol_10"  width="82.75" height="83.6" y="-83.6" transform="matrix(0.4919 0 0 0.4919 418.0996 -339.0498)" overflow="visible" opacity="0.5898"/>
		
			<use xlink:href="#Symbol_11"  width="82.75" height="127.6" y="-127.6" transform="matrix(0.3333 0 0 0.3333 440.4004 -536.1499)" overflow="visible" opacity="0.7695"/>
		
			<use xlink:href="#Symbol_10"  width="82.75" height="83.6" y="-83.6" transform="matrix(0.185 0 0 0.185 353.0996 -258.8994)" overflow="visible"/>
	</g>
	<g id="Layer_5_1_">
		
			<use xlink:href="#Symbol_9"  width="82.75" height="83.6" y="-83.6" transform="matrix(0.7681 0 0 0.7681 435.4004 -354.4507)" overflow="visible" opacity="0.7188"/>
		
			<use xlink:href="#Symbol_9"  width="82.75" height="83.6" y="-83.6" transform="matrix(0.7681 0 0 0.7681 517.8496 -409.6499)" overflow="visible"/>
		
			<use xlink:href="#Symbol_9"  width="82.75" height="83.6" y="-83.6" transform="matrix(0.1459 0 0 0.1459 455.9004 -578.3003)" overflow="visible"/>
		
			<use xlink:href="#Symbol_15"  width="31.3" height="26.45" y="-26.45" transform="matrix(1 0 0 1 328.2002 -252.9507)" overflow="visible" opacity="0.6719"/>
		
			<use xlink:href="#Symbol_9"  width="82.75" height="83.6" y="-83.6" transform="matrix(0.1788 0 0 0.1788 302.6504 -216.4507)" overflow="visible"/>
	</g>
</symbol>
<symbol  id="Symbol_8" viewBox="0 -83.6 82.75 83.6">
	<g id="Layer_1_11_">
		<path fill-rule="evenodd" clip-rule="evenodd" fill="#0099FF" d="M82.75-15v-25.75c0-10-5-15-15-15h-45.4
			C8.883-54.483,1.433-63.767,0-83.6c1.067,28.267,1.6,42.55,1.6,42.85V-15c0,10,5,15,15,15h51.15C77.75,0,82.75-5,82.75-15z"/>
	</g>
</symbol>
<symbol  id="Symbol_9" viewBox="0 -83.6 82.75 83.6">
	<g id="Layer_1_2_">
		<path fill-rule="evenodd" clip-rule="evenodd" fill="#33CC00" d="M82.75-15v-25.75c0-10-5-15-15-15h-45.4
			C8.883-54.483,1.433-63.767,0-83.6c1.067,28.267,1.6,42.55,1.6,42.85V-15c0,10,5,15,15,15h51.15C77.75,0,82.75-5,82.75-15z"/>
	</g>
</symbol>
<symbol  id="ouuooiyu" viewBox="0 -83.6 82.75 83.6">
	<g id="Layer_1_6_">
		<path fill-rule="evenodd" clip-rule="evenodd" fill="#C70000" d="M82.75-15v-25.75c0-10-5-15-15-15h-45.4
			C8.883-54.483,1.433-63.767,0-83.6c1.067,28.267,1.6,42.55,1.6,42.85V-15c0,10,5,15,15,15h51.15C77.75,0,82.75-5,82.75-15z"/>
	</g>
</symbol>
<circle fill="#E9138C" stroke="#8E036A" stroke-width="4" stroke-miterlimit="10" cx="118.465" cy="100.514" r="91.605"/>
<g>
	<defs>
		<path id="SVGID_1_" d="M41.519,150.233l15.98,20.3L77.642,180.9l19.018,4.417l15.603,3.036c0,0,24.86-4.93,30.357-3.036
			s29.827-10.45,33.678-13.765c3.851-3.313,19.056-28.021,23.682-33.913s15.959-38.622,14.959-53.698s-8.221-75.212-28.61-90.144
			s-82.389-44.626-82.389-44.626s-65.3-8.224-78.15-5.265S-26.063,9.783-26.063,9.783L41.519,150.233z"/>
	</defs>
	<clipPath id="SVGID_2_">
		<use xlink:href="#SVGID_1_"  overflow="visible"/>
	</clipPath>
	<g transform="matrix(1 0 0 1 1.525879e-005 7.629395e-006)" clip-path="url(#SVGID_2_)">
		
			<use xlink:href="#Symbol_7"  width="328.809" height="403.097" x="276.8" y="-590.498" transform="matrix(0.5643 0 0 -0.5643 -151.2549 -83.8218)" overflow="visible"/>
	</g>
</g>
</svg>
